<svg width="251" height="252" viewBox="0 0 251 252" fill="none" xmlns="http://www.w3.org/2000/svg">
<path d="M0 47.6345C39.45 50.2543 71.06 81.9422 73.54 121.43H119.61C117.05 56.4739 64.93 4.25744 0 1.55762V47.6345Z" fill="white"/>
<path d="M73.8 131.939C71.18 171.386 39.49 202.994 0 205.474V251.541C64.96 248.981 117.18 196.865 119.88 131.939H73.8Z" fill="white"/>
<path d="M176.201 121.16C178.821 81.7122 210.511 50.1043 250.001 47.6245V1.55762C185.041 4.11744 132.821 56.2339 130.121 121.16H176.201Z" fill="white"/>
<path d="M250.001 205.464C210.551 202.845 178.941 171.157 176.461 131.669H130.391C132.951 196.625 185.071 248.842 250.001 251.541V205.464Z" fill="white"/>
</svg>
