<svg width="1266" height="250" viewBox="0 0 1266 250" fill="none" xmlns="http://www.w3.org/2000/svg">
<mask id="mask0_416_1657" style="mask-type:luminance" maskUnits="userSpaceOnUse" x="0" y="0" width="250" height="250">
<path d="M250 0H0V250H250V0Z" fill="white"/>
</mask>
<g mask="url(#mask0_416_1657)">
<path d="M212.236 129.43L212.586 129.57L212.936 129.71L213.266 129.87L213.596 130.049L213.917 130.229L214.237 130.429L214.537 130.659L214.827 130.879L215.097 131.129L215.377 131.379L215.637 131.659L215.877 131.929L216.117 132.229L216.327 132.529L216.537 132.849L216.718 133.159L216.888 133.499L217.048 133.829L217.188 134.169L217.328 134.519L217.428 134.879L217.528 135.229L217.598 135.609L217.668 135.969L217.708 136.349L217.728 136.709L217.738 137.079L217.728 137.459L217.708 137.829L217.668 138.199L217.598 138.569L217.528 138.929L217.428 139.299L217.328 139.649L217.188 140.009L217.048 140.349L216.888 140.679L216.718 141.009L216.537 141.329L216.327 141.649L216.117 141.949L215.877 142.229L215.637 142.518L215.377 142.778L215.097 143.048L214.827 143.298L214.537 143.518L214.237 143.728L213.917 143.948L213.596 144.128L213.266 144.308L212.936 144.458L212.586 144.608L212.236 144.728L211.886 144.848L211.526 144.928L211.166 145.018L210.785 145.068L210.425 145.108L210.045 145.148H209.985L210.365 145.138L211.045 145.108L211.726 145.068L212.406 145.008L213.076 144.918L213.756 144.818L214.427 144.708L215.097 144.568L215.757 144.418L216.427 144.248L217.088 144.058L217.738 143.848L218.378 143.628L219.018 143.388L219.649 143.128L220.279 142.858L220.899 142.568L221.509 142.259L222.109 141.939L222.7 141.599L223.28 141.239L223.86 140.879L224.42 140.499L224.981 140.089L225.521 139.669L226.051 139.249L226.571 138.799L227.081 138.339L227.571 137.879L228.062 137.389L228.532 136.899L228.982 136.389L229.422 135.869L229.852 135.339L230.272 134.789L230.673 134.239L231.053 133.679L231.433 133.099L231.783 132.519L232.123 131.919L232.453 131.319L232.753 130.719L233.043 130.099L233.314 129.47L233.574 128.84L233.814 128.2L234.044 127.55L234.244 126.9L234.434 126.24L234.604 125.58L234.754 124.92L234.894 124.24L235.014 123.57L235.114 122.9L235.184 122.22L235.254 121.54L235.304 120.85L235.324 120.17L235.334 119.49L235.324 118.81L235.304 118.12L235.254 117.441L235.184 116.761L235.114 116.091L235.014 115.411L234.894 114.731L234.754 114.071L234.604 113.401L234.474 112.891H210.155L209.675 112.901H152.154L211.816 129.31L212.236 129.43Z" fill="#201637"/>
<path d="M249.96 135.379L249.91 134.519L249.85 133.669L249.77 132.809L249.67 131.959L249.56 131.12L249.42 130.27L249.26 129.43L249.1 128.59L248.91 127.76L248.7 126.93L248.479 126.1L248.229 125.28L247.969 124.47L247.699 123.65L247.399 122.85L247.089 122.06L246.759 121.26L246.419 120.48L246.059 119.7L245.688 118.931L245.288 118.181L244.878 117.421L244.448 116.681L244.008 115.941L243.558 115.221L243.078 114.501L242.597 113.801L242.097 113.111L241.927 112.891H234.474L234.604 113.401L234.755 114.071L234.895 114.731L235.015 115.411L235.115 116.091L235.185 116.761L235.255 117.441L235.305 118.121L235.325 118.811L235.335 119.49L235.325 120.17L235.305 120.85L235.255 121.54L235.185 122.22L235.115 122.9L235.015 123.57L234.895 124.24L234.755 124.92L234.604 125.58L234.434 126.24L234.244 126.9L234.044 127.55L233.814 128.2L233.574 128.84L233.314 129.47L233.044 130.1L232.754 130.72L232.454 131.32L232.124 131.919L231.783 132.519L231.433 133.099L231.053 133.679L230.673 134.239L230.273 134.789L229.853 135.339L229.423 135.869L228.982 136.389L228.532 136.899L228.062 137.389L227.572 137.879L227.082 138.339L226.572 138.799L226.051 139.249L225.521 139.669L224.981 140.089L224.421 140.499L223.861 140.879L223.28 141.239L222.7 141.599L222.11 141.939L221.51 142.259L220.9 142.569L220.279 142.859L219.649 143.129L219.019 143.389L218.379 143.629L217.738 143.849L217.088 144.059L216.428 144.248L215.758 144.418L215.097 144.568L214.427 144.708L213.757 144.818L213.077 144.918L212.406 145.008L211.726 145.068L211.046 145.108L210.366 145.138L209.675 145.148H0V177.406H209.675L210.536 177.396L211.386 177.376L212.246 177.326L213.097 177.256L213.947 177.176L214.797 177.086L215.648 176.956L216.488 176.826L217.328 176.676L218.169 176.496L219.009 176.306L219.829 176.106L220.659 175.876L221.49 175.636L222.3 175.386L223.11 175.096L223.911 174.806L224.711 174.496L225.501 174.176L226.281 173.836L227.062 173.466L227.832 173.086L228.592 172.696L229.343 172.286L230.083 171.866L230.823 171.416L231.533 170.966L232.254 170.496L232.964 170.006L233.654 169.506L234.334 168.987L235.005 168.457L235.675 167.907L236.325 167.347L236.955 166.787L237.576 166.197L238.186 165.597L238.786 164.987L239.366 164.357L239.946 163.727L240.507 163.077L241.047 162.417L241.577 161.747L242.097 161.057L242.597 160.367L243.078 159.667L243.558 158.947L244.008 158.227L244.448 157.487L244.878 156.747L245.288 155.998L245.688 155.238L246.059 154.468L246.419 153.698L246.759 152.908L247.089 152.118L247.399 151.328L247.699 150.518L247.969 149.708L248.229 148.898L248.479 148.068L248.7 147.248L248.91 146.418L249.1 145.578L249.26 144.748L249.42 143.909L249.56 143.059L249.67 142.209L249.77 141.359L249.85 140.509L249.91 139.649L249.96 138.799L249.99 137.949L250 137.089L249.99 136.229L249.96 135.379Z" fill="#0DC09D"/>
<path d="M37.7634 120.54L37.4132 120.41L37.0631 120.27L36.733 120.11L36.3929 119.93L36.0827 119.74L35.7626 119.54L35.4625 119.321L35.1724 119.091L34.8923 118.841L34.6222 118.591L34.3621 118.321L34.122 118.041L33.882 117.741L33.6719 117.441L33.4618 117.131L33.2817 116.821L33.1117 116.481L32.9416 116.141L32.8116 115.811L32.6715 115.461L32.5715 115.091L32.4714 114.741L32.3914 114.371L32.3314 114.011L32.2914 113.631L32.2714 113.271L32.2614 112.891L32.2714 112.521L32.2914 112.141L32.3314 111.781L32.3914 111.411L32.4714 111.041L32.5715 110.681L32.6715 110.331L32.8116 109.971L32.9416 109.631L33.1117 109.291L33.2817 108.971L33.4618 108.641L33.6719 108.331L33.882 108.031L34.122 107.741L34.3621 107.461L34.6222 107.191L34.8923 106.932L35.1724 106.682L35.4625 106.462L35.7626 106.242L36.0827 106.032L36.3929 105.842L36.733 105.672L37.0631 105.522L37.4132 105.372L37.7634 105.242L38.1135 105.132L38.4736 105.042L38.8337 104.962L39.2139 104.912L39.574 104.872L39.9441 104.832H40.0142H39.634L38.9538 104.862L38.2735 104.912L37.5933 104.972L36.9231 105.052L36.2428 105.152L35.5626 105.272L34.9023 105.402L34.2321 105.562L33.5718 105.732L32.9116 105.922L32.2614 106.132L31.6211 106.352L30.9709 106.582L30.3507 106.842L29.7205 107.121L29.1002 107.411L28.49 107.721L27.8798 108.041L27.2996 108.371L26.7194 108.731L26.1392 109.101L25.569 109.481L25.0188 109.891L24.4686 110.301L23.9484 110.731L23.4282 111.171L22.918 111.631L22.4278 112.101L21.9377 112.581L21.4675 113.081L21.0173 113.581L20.5672 114.101L20.147 114.641L19.7169 115.181L19.3267 115.731L18.9366 116.301L18.5664 116.871L18.2163 117.461L17.8762 118.051L17.5461 118.661L17.246 119.261L16.9559 119.88L16.6858 120.51L16.4257 121.14L16.1856 121.78L15.9555 122.43L15.7554 123.08L15.5654 123.74L15.3953 124.39L15.2452 125.06L15.1052 125.73L14.9852 126.41L14.8851 127.08L14.8151 127.76L14.7451 128.43L14.695 129.12L14.675 129.8L14.665 130.48L14.675 131.17L14.695 131.85L14.7451 132.529L14.8151 133.209L14.8851 133.889L14.9852 134.569L15.1052 135.239L15.2452 135.909L15.3953 136.569L15.5253 137.089H39.8441L40.3243 137.079H97.845L38.1835 120.67L37.7634 120.54Z" fill="#201637"/>
<path d="M0.0400144 114.601L0.0800288 115.461L0.150054 116.311L0.230083 117.161L0.330119 118.01L0.440158 118.86L0.580209 119.7L0.730263 120.55L0.900324 121.39L1.09039 122.22L1.30047 123.05L1.52055 123.88L1.77064 124.7L2.03073 125.51L2.30083 126.32L2.60094 127.13L2.91105 127.92L3.24117 128.72L3.58129 129.5L3.94142 130.279L4.31155 131.039L4.7117 131.799L5.12184 132.559L5.552 133.299L5.99216 134.029L6.44232 134.749L6.91249 135.469L7.40267 136.179L7.90285 136.869L8.07291 137.089H15.5256L15.3955 136.569L15.2455 135.909L15.1054 135.239L14.9854 134.569L14.8854 133.889L14.8153 133.209L14.7453 132.529L14.6953 131.849L14.6753 131.169L14.6653 130.479L14.6753 129.8L14.6953 129.12L14.7453 128.43L14.8153 127.76L14.8854 127.08L14.9854 126.41L15.1054 125.73L15.2455 125.06L15.3955 124.39L15.5656 123.74L15.7557 123.08L15.9557 122.43L16.1858 121.78L16.4259 121.14L16.686 120.51L16.9561 119.88L17.2462 119.26L17.5463 118.66L17.8764 118.05L18.2166 117.461L18.5667 116.871L18.9368 116.301L19.327 115.731L19.7171 115.181L20.1473 114.641L20.5674 114.101L21.0176 113.581L21.4677 113.081L21.9379 112.581L22.4281 112.101L22.9183 111.631L23.4284 111.171L23.9486 110.731L24.4688 110.301L25.019 109.891L25.5692 109.481L26.1394 109.101L26.7196 108.731L27.2998 108.371L27.88 108.041L28.4903 107.721L29.1005 107.411L29.7207 107.121L30.3509 106.841L30.9711 106.581L31.6214 106.351L32.2616 106.131L32.9118 105.921L33.5721 105.731L34.2323 105.561L34.9026 105.401L35.5628 105.271L36.243 105.151L36.9233 105.051L37.5935 104.972L38.2738 104.912L38.954 104.862L39.6343 104.832L40.3245 104.822H250V72.5742H40.3245L39.4642 72.5842L38.6139 72.6042L37.7536 72.6542L36.9033 72.7142L36.043 72.7942L35.2027 72.8942L34.3524 73.0142L33.5121 73.1442L32.6718 73.3041L31.8215 73.4741L30.9912 73.6641L30.1609 73.8741L29.3406 74.0941L28.5103 74.3441L27.7 74.594L26.8897 74.874L26.0894 75.164L25.2891 75.484L24.4988 75.8039L23.7185 76.1439L22.9383 76.5139L22.168 76.8939L21.4077 77.2738L20.6574 77.6938L19.9172 78.1138L19.1769 78.5537L18.4566 79.0137L17.7364 79.4836L17.0361 79.9736L16.3459 80.4736L15.6556 80.9835L14.9954 81.5135L14.3252 82.0634L13.6749 82.6234L13.0447 83.1933L12.4245 83.7833L11.8143 84.3732L11.214 84.9932L10.6238 85.6231L10.0536 86.2531L9.49342 86.9031L8.95322 87.563L8.42303 88.2329L7.90285 88.9129L7.40267 89.6128L6.91249 90.3128L6.44232 91.0227L5.99216 91.7527L5.552 92.4926L5.12184 93.2325L4.7117 93.9725L4.31155 94.7324L3.94142 95.5124L3.58129 96.2823L3.24117 97.0722L2.91105 97.8522L2.60094 98.6521L2.30083 99.452L2.03073 100.262L1.77064 101.082L1.52055 101.902L1.30047 102.732L1.09039 103.562L0.900324 104.402L0.730263 105.231L0.580209 106.071L0.440158 106.921L0.330119 107.771L0.230083 108.621L0.150054 109.471L0.0800288 110.321L0.0400144 111.171L0 112.031V112.891V113.751L0.0400144 114.601Z" fill="#0DC09D"/>
<path d="M37.7634 47.9765L37.4132 47.8365L37.0631 47.6865L36.723 47.5366L36.4029 47.3566L36.0727 47.1766L35.7626 46.9766L35.4625 46.7466L35.1624 46.5266L34.8823 46.2767L34.6122 46.0267L34.3621 45.7467L34.122 45.4767L33.882 45.1767L33.6619 44.8768L33.4618 44.5568L33.2717 44.2368L33.1017 43.9068L32.9316 43.5769L32.8016 43.2369L32.6715 42.8769L32.5615 42.527L32.4714 42.177L32.3914 41.797L32.3314 41.437L32.2814 41.0571L32.2714 40.6871L32.2614 40.3071L32.2714 39.9372L32.2814 39.5772L32.3314 39.2072L32.3914 38.8373L32.4714 38.4773L32.5615 38.1073L32.6715 37.7473L32.8016 37.3974L32.9316 37.0574L33.1017 36.7274L33.2717 36.3875L33.4618 36.0775L33.6619 35.7575L33.882 35.4575L34.122 35.1775L34.3621 34.8876L34.6122 34.6076L34.8823 34.3576L35.1624 34.1076L35.4625 33.8877L35.7626 33.6777L36.0727 33.4577L36.4029 33.2777L36.723 33.0977L37.0631 32.9377L37.4132 32.7977L37.7634 32.6777L38.1135 32.5578L38.4736 32.4578L38.8437 32.3878L39.2039 32.3278L39.574 32.2878L39.9541 32.2578H40.0742H39.634L38.9538 32.2878L38.2735 32.3378L37.5933 32.3978L36.9231 32.4878L36.2428 32.5878L35.5626 32.6977L34.9023 32.8377L34.2321 32.9877L33.5718 33.1577L32.9116 33.3477L32.2614 33.5577L31.6211 33.7777L30.9709 34.0176L30.3507 34.2676L29.7205 34.5476L29.1002 34.8376L28.49 35.1476L27.8798 35.4675L27.2996 35.7975L26.7094 36.1575L26.1392 36.5274L25.569 36.9074L25.0188 37.3174L24.4686 37.7273L23.9384 38.1573L23.4282 38.6073L22.918 39.0572L22.4178 39.5272L21.9377 40.0072L21.4675 40.5071L21.0173 41.0171L20.5672 41.537L20.147 42.067L19.7169 42.617L19.3267 43.1669L18.9366 43.7269L18.5664 44.2968L18.2163 44.8868L17.8762 45.4767L17.5461 46.0867L17.246 46.6866L16.9559 47.3066L16.6858 47.9365L16.4257 48.5665L16.1856 49.2064L15.9555 49.8564L15.7554 50.5063L15.5654 51.1663L15.3953 51.8262L15.2352 52.4862L15.1052 53.1561L14.9852 53.8361L14.8851 54.506L14.8051 55.1859L14.7451 55.8559L14.695 56.5458L14.675 57.2358L14.665 57.9157L14.675 58.5957L14.695 59.2856L14.7451 59.9656L14.8051 60.6455L14.8851 61.3155L14.9852 61.9954L15.1052 62.6753L15.2352 63.3353L15.3953 64.0052L15.5654 64.6652L15.7554 65.3151L15.9555 65.9751L16.1856 66.615L16.4257 67.255L16.6858 67.8849L16.9559 68.5149L17.246 69.1348L17.5461 69.7448L17.7461 70.0948L17.7662 70.0847L18.6065 69.6548L19.4468 69.2448L20.2971 68.8449L21.1574 68.4749L22.0177 68.0949L22.898 67.7549L23.7683 67.435L24.6586 67.105L25.549 66.825L26.4493 66.545L27.3496 66.2851L28.2499 66.0351L29.1603 65.8051L30.0806 65.6051L31.0009 65.4251L31.9112 65.2451L32.8416 65.0952L33.7719 64.9552L34.7023 64.8352L35.6426 64.7352L36.5729 64.6552L37.5133 64.5852L38.4336 64.5452L39.3939 64.5252L40.3243 64.5052H97.845L38.1735 48.0965L37.7634 47.9765Z" fill="#201637"/>
<path d="M209.675 217.744H210.365L211.045 217.704L211.726 217.664L212.406 217.604L213.086 217.514L213.766 217.414L214.437 217.304L215.107 217.164L215.767 217.014L216.437 216.844L217.088 216.654L217.738 216.444L218.388 216.224L219.028 215.984L219.649 215.724L220.279 215.454L220.899 215.164L221.509 214.854L222.119 214.534L222.71 214.194L223.29 213.834L223.86 213.464L224.43 213.084L224.991 212.684L225.531 212.264L226.061 211.844L226.581 211.394L227.081 210.934L227.581 210.474L228.062 209.984L228.532 209.494L228.992 208.985L229.432 208.465L229.862 207.935L230.282 207.385L230.673 206.835L231.063 206.275L231.433 205.695L231.783 205.115L232.123 204.515L232.453 203.915L232.763 203.305L233.053 202.695L233.314 202.065L233.584 201.425L233.814 200.795L234.044 200.145L234.254 199.495L234.434 198.835L234.614 198.175L234.764 197.515L234.894 196.836L235.014 196.166L235.114 195.496L235.194 194.806L235.264 194.136L235.304 193.446L235.334 192.766V192.086V191.406L235.304 190.716L235.264 190.036L235.194 189.356L235.114 188.686L235.014 188.006L234.894 187.326L234.764 186.666L234.614 185.996L234.434 185.336L234.254 184.686L234.044 184.027L233.814 183.377L233.584 182.747L233.314 182.117L233.053 181.487L232.763 180.867L232.453 180.257L232.253 179.887L232.233 179.897L231.393 180.327L230.553 180.737L229.702 181.137L228.842 181.517L227.972 181.877L227.101 182.227L226.231 182.547L225.341 182.867L224.44 183.167L223.55 183.437L222.66 183.697L221.739 183.947L220.839 184.167L219.919 184.377L218.998 184.566L218.078 184.736L217.158 184.886L216.227 185.026L215.297 185.146L214.367 185.246L213.426 185.326L212.486 185.386L211.546 185.436L210.615 185.466L209.675 185.476H152.154L211.816 201.885L212.236 202.015L212.586 202.145L212.936 202.285L213.266 202.445L213.596 202.625L213.917 202.815L214.237 203.015L214.537 203.235L214.827 203.465L215.097 203.715L215.377 203.965L215.637 204.235L215.877 204.515L216.117 204.815L216.327 205.115L216.537 205.425L216.718 205.735L216.888 206.075L217.048 206.415L217.188 206.745L217.328 207.095L217.428 207.465L217.528 207.815L217.598 208.185L217.668 208.545L217.708 208.925L217.728 209.285L217.738 209.664L217.728 210.034L217.708 210.414L217.668 210.774L217.598 211.144L217.528 211.514L217.428 211.874L217.328 212.224L217.188 212.584L217.048 212.924L216.888 213.264L216.718 213.584L216.537 213.914L216.327 214.224L216.117 214.524L215.877 214.814L215.637 215.094L215.377 215.364L215.097 215.624L214.827 215.874L214.537 216.094L214.237 216.314L213.917 216.524L213.596 216.714L213.266 216.884L212.936 217.034L212.586 217.184L212.236 217.314L211.886 217.424L211.526 217.514L211.166 217.594L210.785 217.644L210.425 217.684L210.045 217.724L209.675 217.734" fill="#201637"/>
<path d="M249.96 207.962L249.92 207.112L249.86 206.263L249.77 205.403L249.68 204.553L249.56 203.713L249.42 202.863L249.27 202.023L249.1 201.183L248.91 200.343L248.7 199.523L248.479 198.693L248.239 197.863L247.979 197.063L247.699 196.243L247.399 195.443L247.099 194.653L246.769 193.854L246.419 193.074L246.069 192.294L245.688 191.524L245.288 190.774L244.888 190.014L244.458 189.274L244.008 188.534L243.558 187.814L243.088 187.094L242.597 186.394L242.097 185.704L241.577 185.014L241.057 184.354L240.507 183.684L239.946 183.044L239.376 182.404L238.786 181.784L238.196 181.165L237.576 180.575L236.955 179.985L236.325 179.415L235.675 178.855L235.015 178.305L234.975 178.275L234.034 178.845L233.204 179.315L232.344 179.785L232.234 179.845L232.454 180.255L232.764 180.865L233.054 181.485L233.314 182.114L233.584 182.744L233.814 183.374L234.044 184.024L234.254 184.684L234.434 185.334L234.614 185.994L234.765 186.664L234.895 187.324L235.015 188.004L235.115 188.684L235.195 189.354L235.265 190.034L235.305 190.714L235.335 191.404V192.084V192.764L235.305 193.444L235.265 194.133L235.195 194.803L235.115 195.493L235.015 196.163L234.895 196.833L234.765 197.513L234.614 198.173L234.434 198.833L234.254 199.493L234.044 200.143L233.814 200.793L233.584 201.423L233.314 202.063L233.054 202.693L232.764 203.303L232.454 203.913L232.124 204.513L231.783 205.113L231.433 205.693L231.063 206.273L230.673 206.832L230.283 207.382L229.863 207.932L229.433 208.462L228.992 208.982L228.532 209.492L228.062 209.982L227.582 210.472L227.082 210.932L226.582 211.392L226.061 211.842L225.531 212.262L224.991 212.682L224.431 213.082L223.861 213.462L223.29 213.832L222.71 214.192L222.12 214.532L221.51 214.852L220.9 215.162L220.279 215.452L219.649 215.722L219.029 215.982L218.389 216.222L217.738 216.442L217.088 216.652L216.438 216.842L215.768 217.012L215.107 217.162L214.437 217.302L213.767 217.412L213.087 217.512L212.406 217.602L211.726 217.662L211.046 217.702L210.366 217.742H209.675H0V249.999H209.675L210.536 249.989L211.386 249.969L212.246 249.919L213.097 249.849L213.957 249.779L214.807 249.679L215.658 249.549L216.498 249.419L217.338 249.269L218.179 249.089L219.009 248.899L219.839 248.699L220.659 248.479L221.49 248.229L222.3 247.979L223.11 247.689L223.921 247.399L224.721 247.089L225.511 246.769L226.291 246.429L227.072 246.059L227.832 245.679L228.602 245.289L229.343 244.879L230.093 244.459L230.823 244.019L231.543 243.55L232.264 243.09L232.964 242.6L233.654 242.09L234.344 241.58L235.015 241.05L235.675 240.5L236.325 239.94L236.955 239.38L237.576 238.79L238.196 238.19L238.786 237.58L239.376 236.95L239.946 236.32L240.507 235.67L241.057 235.01L241.577 234.34L242.097 233.66L242.597 232.96L243.088 232.26L243.558 231.541L244.008 230.821L244.458 230.081L244.888 229.341L245.288 228.591L245.688 227.831L246.069 227.061L246.419 226.291L246.769 225.501L247.099 224.711L247.399 223.921L247.699 223.111L247.979 222.301L248.239 221.481L248.479 220.661L248.7 219.841L248.91 219.002L249.1 218.172L249.27 217.342L249.42 216.492L249.56 215.652L249.68 214.802L249.77 213.952L249.86 213.102L249.92 212.242L249.96 211.392L250 210.542V209.682V208.822L249.96 207.962Z" fill="#0DC09D"/>
<path d="M0.0400144 42.0266L0.0800288 42.8866L0.14005 43.7365L0.230083 44.5964L0.330119 45.4464L0.440158 46.2863L0.580209 47.1362L0.730263 47.9762L0.900324 48.8161L1.09039 49.646L1.30047 50.476L1.52055 51.2959L1.76063 52.1258L2.03073 52.9358L2.30083 53.7457L2.60094 54.5556L2.90104 55.3456L3.23116 56.1455L3.58129 56.9254L3.94142 57.7054L4.31155 58.4653L4.7117 59.2253L5.12184 59.9852L5.542 60.7251L5.99216 61.4651L6.44232 62.175L6.91249 62.895L7.40267 63.6049L7.90285 64.2949L8.42303 64.9848L8.95322 65.6448L9.49342 66.3147L10.0536 66.9546L10.6238 67.5946L11.214 68.2145L11.8143 68.8245L12.4245 69.4244L13.0447 70.0144L13.6749 70.5843L14.3252 71.1443L14.9954 71.6843L15.0254 71.7143L15.9657 71.1543L16.796 70.6843L17.6564 70.2044L17.7764 70.1544L17.5463 69.7444L17.2462 69.1345L16.9561 68.5145L16.686 67.8846L16.4259 67.2546L16.1858 66.6147L15.9557 65.9747L15.7557 65.3148L15.5656 64.6648L15.3955 64.0049L15.2355 63.3349L15.1054 62.675L14.9854 61.995L14.8854 61.3151L14.8053 60.6452L14.7453 59.9652L14.6953 59.2853L14.6753 58.5953L14.6653 57.9154L14.6753 57.2354L14.6953 56.5455L14.7453 55.8555L14.8053 55.1856L14.8854 54.5056L14.9854 53.8357L15.1054 53.1557L15.2355 52.4858L15.3955 51.8259L15.5656 51.1659L15.7557 50.506L15.9557 49.856L16.1858 49.2061L16.4259 48.5661L16.686 47.9362L16.9561 47.3062L17.2462 46.6863L17.5463 46.0863L17.8764 45.4764L18.2166 44.8864L18.5667 44.2965L18.9368 43.7265L19.327 43.1665L19.7171 42.6166L20.1473 42.0666L20.5674 41.5367L21.0176 41.0167L21.4677 40.5068L21.9379 40.0068L22.4181 39.5268L22.9183 39.0569L23.4284 38.6069L23.9386 38.1569L24.4688 37.727L25.019 37.317L25.5692 36.907L26.1394 36.5271L26.7096 36.1571L27.2998 35.7971L27.88 35.4672L28.4903 35.1472L29.1005 34.8372L29.7207 34.5472L30.3509 34.2673L30.9711 34.0173L31.6214 33.7773L32.2616 33.5573L32.9118 33.3473L33.5721 33.1573L34.2323 32.9874L34.9026 32.8374L35.5628 32.6974L36.243 32.5874L36.9233 32.4874L37.5935 32.3974L38.2738 32.3374L38.954 32.2874L39.6343 32.2574H40.3245H250V0H40.3245H39.4642L38.6139 0.0299976L37.7536 0.0799936L36.9033 0.149988L36.043 0.219982L35.1927 0.319974L34.3524 0.449964L33.5021 0.569954L32.6618 0.729942L31.8215 0.899928L30.9912 1.09991L30.1609 1.2999L29.3406 1.51988L28.5103 1.76986L27.7 2.01984L26.8897 2.29982L26.0894 2.58979L25.2791 2.90977L24.4988 3.22974L23.7185 3.56971L22.9383 3.93968L22.168 4.30966L21.4077 4.70962L20.6574 5.11959L19.9172 5.53956L19.1769 5.97952L18.4566 6.43948L17.7364 6.90945L17.0361 7.39941L16.3459 7.89937L15.6556 8.41933L14.9954 8.94928L14.3252 9.49924L13.6749 10.0492L13.0447 10.6192L12.4245 11.2091L11.8143 11.8091L11.214 12.419L10.6238 13.039L10.0536 13.6789L9.49342 14.3289L8.95322 14.9888L8.42303 15.6587L7.90285 16.3387L7.40267 17.0386L6.91249 17.7386L6.44232 18.4485L5.99216 19.1785L5.542 19.9084L5.12184 20.6583L4.7117 21.4083L4.31155 22.1582L3.94142 22.9382L3.58129 23.7081L3.23116 24.498L2.90104 25.288L2.60094 26.0779L2.30083 26.8778L2.03073 27.6978L1.76063 28.5077L1.52055 29.3277L1.30047 30.1576L1.09039 30.9875L0.900324 31.8275L0.730263 32.6574L0.580209 33.4973L0.440158 34.3473L0.330119 35.1972L0.230083 36.0471L0.14005 36.897L0.0800288 37.757L0.0400144 38.6069L0 39.4568V40.3168V41.1767L0.0400144 42.0266Z" fill="#0DC09D"/>
</g>
<path d="M394.146 202.863H330.011V177.635H394.146C404.075 177.635 411.724 175.715 417.094 171.855C422.464 168.006 425.153 163.036 425.153 156.957C425.153 150.877 422.614 146.417 417.554 143.578C412.484 140.748 404.985 138.409 395.056 136.589L384.717 134.768C374.577 132.949 365.358 130.309 357.059 126.869C348.749 123.429 342.16 118.66 337.3 112.58C332.441 106.501 330.001 98.7017 330.001 89.1725C330.001 74.9936 335.271 63.9945 345.81 56.1951C356.349 48.3958 370.328 44.4961 387.756 44.4961H450.371V70.034H387.756C379.247 70.034 372.558 71.6039 367.698 74.7437C362.838 77.8834 360.399 82.2931 360.399 87.9626C360.399 94.0421 362.778 98.5018 367.538 101.341C372.298 104.181 378.737 106.311 386.836 107.721L397.476 109.54C408.215 111.36 418.044 113.9 426.963 117.14C435.883 120.38 442.922 125.039 448.092 131.119C453.261 137.198 455.841 145.309 455.841 155.438C455.841 170.436 450.261 182.086 439.122 190.395C427.973 198.704 412.984 202.854 394.136 202.854L394.146 202.863Z" fill="#201637"/>
<path d="M782.605 248.98V178.246H777.746C775.516 182.306 772.276 186.205 768.017 189.945C763.757 193.695 758.337 196.785 751.758 199.214C745.168 201.644 737.019 202.864 727.29 202.864C714.721 202.864 703.172 199.824 692.633 193.745C682.093 187.665 673.684 178.906 667.405 167.447C661.125 155.998 657.985 142.169 657.985 125.95V121.391C657.985 105.182 661.175 91.3528 667.565 79.8938C673.944 68.4447 682.403 59.6754 692.943 53.5959C703.482 47.5163 714.931 44.4766 727.29 44.4766C741.879 44.4766 753.078 47.1164 760.877 52.376C768.676 57.6455 774.506 63.6251 778.356 70.3145H783.215V44.4766H813.923V248.96H782.615L782.605 248.98ZM736.099 175.506C749.878 175.506 761.127 171.147 769.836 162.437C778.546 153.728 782.905 141.259 782.905 125.05V122.31C782.905 106.302 778.496 93.9426 769.686 85.2233C760.867 76.514 749.668 72.1544 736.099 72.1544C722.53 72.1544 711.631 76.514 702.812 85.2233C693.992 93.9426 689.593 106.302 689.593 122.31V125.05C689.593 141.269 694.002 153.728 702.812 162.437C711.631 171.157 722.72 175.506 736.099 175.506Z" fill="#201637"/>
<path d="M627.978 120.48C627.978 105.282 624.938 92.0125 618.859 80.6634C612.779 69.3143 604.31 60.445 593.481 54.0655C582.631 47.686 570.013 44.4863 555.634 44.4863C541.255 44.4863 527.866 47.726 516.727 54.2155C511.147 57.4552 506.178 61.3249 501.798 65.8446C501.248 66.4045 500.708 66.9845 500.168 67.5644C498.568 69.3243 497.078 71.1641 495.658 73.084C493.779 75.6538 492.029 78.3836 490.429 81.2733C484.049 92.8224 480.85 106.402 480.85 122.01V125.66C480.85 141.269 484.039 154.838 490.429 166.397C496.808 177.946 505.678 186.915 517.027 193.295C528.366 199.674 541.645 202.874 556.844 202.874C570.222 202.874 581.362 200.744 590.281 196.494C599.2 192.235 606.29 186.965 611.559 180.686C613.019 178.936 614.399 177.216 615.689 175.516C619.049 171.106 621.828 166.857 624.018 162.747L597.88 149.368C594.641 156.268 590.021 162.347 584.051 167.607C578.062 172.876 569.203 175.506 557.453 175.506C544.884 175.506 534.395 171.596 525.996 163.807C525.476 163.317 524.966 162.837 524.476 162.317C523.976 161.797 523.506 161.287 523.036 160.767C521.916 159.477 520.876 158.127 519.916 156.708C515.827 150.568 513.487 143.259 512.897 134.789C512.837 133.979 512.807 133.159 512.777 132.34H627.988V120.48H627.978ZM533.745 108.321L517.737 124.33H512.467C512.387 119.721 512.467 113.801 513.077 108.321C513.377 106.242 513.777 104.232 514.297 102.302C514.797 100.372 515.407 98.5319 516.117 96.7721C518.477 90.9026 521.986 85.933 526.606 81.8733C533.995 75.3838 543.565 72.1441 555.334 72.1441C567.103 72.1441 576.612 75.3838 583.911 81.8733C591.211 88.3628 595.36 97.1821 596.37 108.321H533.755H533.745Z" fill="#201637"/>
<path d="M991.037 120.48C991.037 105.282 987.998 92.0125 981.918 80.6634C975.839 69.3143 967.369 60.445 956.54 54.0655C945.691 47.686 933.072 44.4863 918.693 44.4863C904.314 44.4863 890.925 47.726 879.786 54.2155C874.207 57.4552 869.237 61.3249 864.858 65.8446C864.308 66.4045 863.768 66.9845 863.228 67.5644C861.628 69.3243 860.138 71.1641 858.718 73.084C856.838 75.6538 855.088 78.3836 853.488 81.2733C847.109 92.8224 843.909 106.402 843.909 122.01V125.66C843.909 141.269 847.099 154.838 853.488 166.397C859.868 177.946 868.737 186.915 880.086 193.295C891.425 199.674 904.704 202.874 919.903 202.874C933.282 202.874 944.421 200.744 953.34 196.494C962.26 192.235 969.349 186.965 974.619 180.686C976.079 178.936 977.458 177.216 978.748 175.516C982.108 171.106 984.888 166.857 987.078 162.747L960.94 149.368C957.7 156.268 953.08 162.347 947.111 167.607C941.121 172.876 932.262 175.506 920.513 175.506C907.944 175.506 897.455 171.596 889.056 163.807C888.536 163.317 888.026 162.837 887.536 162.317C887.036 161.797 886.566 161.287 886.096 160.767C884.976 159.477 883.936 158.127 882.976 156.708C878.886 150.568 876.547 143.259 875.957 134.789C875.897 133.979 875.867 133.159 875.837 132.34H991.047V120.48H991.037ZM896.805 108.321L880.796 124.33H875.527C875.447 119.721 875.527 113.801 876.137 108.321C876.437 106.242 876.837 104.232 877.357 102.302C877.856 100.372 878.466 98.5319 879.176 96.7721C881.536 90.9026 885.046 85.933 889.666 81.8733C897.055 75.3838 906.624 72.1441 918.393 72.1441C930.162 72.1441 939.672 75.3838 946.971 81.8733C954.27 88.3628 958.42 97.1821 959.43 108.321H896.815H896.805Z" fill="#201637"/>
<path d="M1021.04 202.864V44.4869H1051.73V62.1155H1056.59C1059.02 55.836 1062.92 51.2264 1068.29 48.2867C1073.66 45.3469 1080.3 43.877 1088.2 43.877H1106.14V72.1447H1086.99C1076.85 72.1447 1068.55 74.9345 1062.06 80.5041C1055.57 86.0836 1052.33 94.6429 1052.33 106.192V202.854H1021.03L1021.04 202.864Z" fill="#201637"/>
<path d="M1257.17 101.282C1257.17 82.9636 1251.58 68.8147 1240.38 58.8455C1229.19 48.8763 1213.82 43.8867 1194.27 43.8867C1181.45 43.8867 1170.61 45.9166 1161.75 49.9962C1152.91 54.0759 1145.78 59.4655 1140.39 66.1749C1135 72.8944 1131.08 80.2238 1128.63 88.1532L1157.94 97.6224C1159.77 89.4831 1163.53 82.8636 1169.23 77.774C1174.94 72.6944 1183.17 70.1446 1193.96 70.1446C1204.75 70.1446 1213.1 72.8444 1218.39 78.234C1223.69 83.6235 1226.33 90.603 1226.33 99.1523V125.19H1221.25L1204.96 108.922H1180.53C1164.04 108.922 1150.36 112.841 1139.47 120.681C1128.58 128.51 1123.13 140.069 1123.13 155.338C1123.13 165.517 1125.63 174.156 1130.61 181.286C1135.6 188.415 1142.32 193.805 1150.76 197.464C1159.22 201.124 1168.83 202.964 1179.6 202.964C1190.37 202.964 1198.33 201.484 1204.64 198.534C1210.95 195.585 1215.74 192.125 1218.99 188.155C1222.26 184.185 1224.68 180.566 1226.32 177.316H1231.21V202.964H1257.16V101.292L1257.17 101.282ZM1226.33 136.389C1226.33 149.018 1222.41 158.938 1214.57 166.157C1206.73 173.376 1196.62 176.996 1184.19 176.996C1175.03 176.996 1167.81 174.966 1162.51 170.887C1157.22 166.807 1154.58 161.317 1154.58 154.398C1154.58 147.478 1157.13 142.229 1162.2 138.679C1167.3 135.119 1174 133.34 1182.35 133.34H1226.32V136.389H1226.33Z" fill="#201637"/>
</svg>
