<svg width="1261" height="250" viewBox="0 0 1261 250" fill="none" xmlns="http://www.w3.org/2000/svg">
<mask id="mask0_416_1676" style="mask-type:luminance" maskUnits="userSpaceOnUse" x="0" y="0" width="250" height="250">
<path d="M250 0H0V250H250V0Z" fill="white"/>
</mask>
<g mask="url(#mask0_416_1676)">
<path d="M249.96 207.961L249.91 207.111L249.85 206.261L249.76 205.401L249.67 204.551L249.55 203.711L249.41 202.861L249.26 202.031L249.1 201.181L248.9 200.351L248.7 199.531L248.47 198.701L248.22 197.861L247.97 197.061L247.7 196.251L247.4 195.441L247.09 194.651L246.76 193.851L246.41 193.081L246.06 192.291L245.69 191.521L245.29 190.761L244.89 190.011L244.45 189.261L244.01 188.541L243.56 187.811L243.09 187.101L242.6 186.391L242.1 185.701L241.57 185.011L241.05 184.351L240.51 183.691L239.95 183.041L239.37 182.401L238.78 181.781L238.18 181.161L237.57 180.581L236.96 179.981L236.32 179.411L235.67 178.851L235.02 178.311L233.87 179.001L233.06 179.461L232.23 179.911L231.39 180.341L230.56 180.751L229.71 181.151L228.84 181.531L227.97 181.891L227.1 182.241L226.23 182.561L225.34 182.881L224.44 183.181L223.55 183.451L222.65 183.711L221.74 183.961L220.84 184.181L219.91 184.391L219 184.581L218.08 184.751L217.15 184.901L216.23 185.041L215.3 185.161L214.36 185.261L213.42 185.341L212.49 185.401L211.55 185.451L210.61 185.481L209.67 185.491H152.15L211.81 201.901L212.24 202.031L212.59 202.161L212.94 202.301L213.26 202.461L213.6 202.641L213.91 202.831L214.24 203.031L214.54 203.251L214.83 203.481L215.1 203.731L215.38 203.981L215.64 204.251L215.88 204.521L216.11 204.831L216.33 205.131L216.54 205.441L216.71 205.751L216.89 206.091L217.05 206.431L217.19 206.761L217.33 207.111L217.43 207.481L217.53 207.831L217.6 208.201L217.66 208.561L217.7 208.941L217.73 209.301L217.74 209.681L217.73 210.051L217.7 210.431L217.66 210.791L217.6 211.161L217.53 211.531L217.43 211.891L217.33 212.241L217.19 212.601L217.05 212.941L216.89 213.281L216.71 213.601L216.54 213.931L216.33 214.241L216.11 214.541L215.88 214.831L215.64 215.111L215.38 215.381L215.1 215.641L214.83 215.891L214.54 216.111L214.24 216.331L213.91 216.541L213.6 216.731L213.26 216.901L212.94 217.051L212.59 217.201L212.24 217.331L211.89 217.441L211.52 217.531L211.16 217.611L210.79 217.661L210.42 217.701L210.05 217.741L209.67 217.751H0V250.001H209.67L210.52 249.991L211.39 249.961L212.25 249.931L213.09 249.851L213.95 249.781L214.8 249.681L215.65 249.551L216.49 249.431L217.33 249.281L218.18 249.101L219 248.901L219.83 248.701L220.66 248.481L221.49 248.241L222.29 247.981L223.1 247.701L223.92 247.401L224.72 247.091L225.5 246.781L226.28 246.431L227.07 246.061L227.83 245.691L228.59 245.301L229.34 244.881L230.08 244.461L230.82 244.011L231.54 243.561L232.26 243.091L232.96 242.601L233.64 242.101L234.33 241.591L235.01 241.051L235.67 240.501L236.32 239.951L236.96 239.381L237.57 238.791L238.18 238.201L238.78 237.591L239.37 236.951L239.95 236.331L240.51 235.681L241.05 235.011L241.57 234.341L242.1 233.661L242.6 232.961L243.09 232.261L243.56 231.551L244.01 230.821L244.45 230.091L244.89 229.341L245.29 228.591L245.69 227.841L246.06 227.061L246.41 226.291L246.76 225.501L247.09 224.711L247.4 223.911L247.7 223.111L247.97 222.301L248.22 221.491L248.47 220.661L248.7 219.841L248.9 219.011L249.1 218.181L249.26 217.341L249.41 216.501L249.55 215.651L249.67 214.801L249.76 213.951L249.85 213.101L249.91 212.241L249.96 211.401L249.99 210.541L250 209.681L249.99 208.831L249.96 207.961Z" fill="#201637"/>
<path d="M249.96 135.39L249.91 134.53L249.85 133.68L249.76 132.83L249.67 131.98L249.55 131.13L249.41 130.29L249.26 129.44L249.1 128.6L248.9 127.76L248.7 126.94L248.47 126.11L248.22 125.29L247.97 124.48L247.7 123.66L247.4 122.86L247.09 122.06L246.76 121.28L246.41 120.49L246.06 119.71L245.69 118.95L245.29 118.18L244.89 117.42L244.45 116.69L244.01 115.95L243.56 115.24L243.09 114.51L242.6 113.81L242.1 113.13L241.93 112.9H241.92H152.14L211.81 129.31L212.24 129.45L212.59 129.58L212.94 129.71L213.26 129.88L213.6 130.05L213.91 130.24L214.24 130.44L214.54 130.66L214.83 130.9L215.1 131.14L215.38 131.39L215.64 131.66L215.88 131.94L216.11 132.24L216.33 132.54L216.54 132.85L216.71 133.18L216.89 133.5L217.05 133.84L217.19 134.19L217.33 134.54L217.43 134.89L217.53 135.25L217.6 135.61L217.66 135.99L217.7 136.35L217.73 136.73L217.74 137.1L217.73 137.46L217.7 137.84L217.66 138.21L217.6 138.58L217.53 138.94L217.43 139.3L217.33 139.66L217.19 140L217.05 140.35L216.89 140.7L216.71 141.03L216.54 141.35L216.33 141.65L216.11 141.96L215.88 142.25L215.64 142.53L215.38 142.8L215.1 143.06L214.83 143.3L214.54 143.54L214.24 143.75L213.91 143.95L213.6 144.15L213.26 144.31L212.94 144.48L212.59 144.63L212.24 144.74L211.89 144.86L211.52 144.95L211.16 145.03L210.79 145.09L210.42 145.12L210.05 145.15L209.67 145.16H127.18H16.13H0V177.41H122.81H209.67H210.52L211.39 177.39L212.25 177.34L213.09 177.27L213.95 177.2L214.8 177.1L215.65 176.98L216.49 176.85L217.33 176.69L218.18 176.51L219 176.33L219.83 176.11L220.66 175.9L221.49 175.65L222.29 175.39L223.1 175.11L223.92 174.83L224.72 174.51L225.5 174.19L226.28 173.84L227.07 173.48L227.24 173.39L227.83 173.1L228.59 172.71L229.34 172.3L230.08 171.88L230.82 171.44L231.54 170.98L232.26 170.5L232.96 170.03L233.64 169.51L234.33 169L235.01 168.46L235.67 167.93L236.32 167.36L236.96 166.79L237.57 166.21L238.18 165.61L238.78 165L239.37 164.38L239.95 163.74L240.51 163.09L241.05 162.43L241.57 161.76L242.1 161.08L242.6 160.38L243.09 159.68L243.56 158.96L244.01 158.24L244.45 157.5L244.89 156.76L245.29 156.01L245.69 155.25L246.06 154.47L246.41 153.71L246.76 152.93L247.09 152.14L247.4 151.34L247.7 150.54L247.97 149.73L248.22 148.9L248.47 148.09L248.7 147.26L248.9 146.43L249.1 145.59L249.26 144.75L249.41 143.91L249.55 143.06L249.67 142.21L249.76 141.36L249.85 140.51L249.91 139.66L249.96 138.8L249.99 137.95L250 137.1L249.99 136.24L249.96 135.39Z" fill="#201637"/>
<path d="M40.33 72.5801L39.46 72.5901L38.61 72.6101L37.75 72.6601L36.9 72.7301L36.05 72.8001L35.2 72.9001L34.35 73.0301L33.51 73.1501L32.66 73.3101L31.82 73.4901L30.99 73.6701L30.16 73.8901L29.34 74.1001L28.51 74.3501L27.7 74.6101L26.88 74.8901L26.08 75.1801L25.28 75.4901L24.5 75.8101L23.72 76.1601L22.93 76.5301L22.76 76.6101L22.17 76.9001L21.41 77.2901L20.66 77.7001L19.91 78.1201L19.18 78.5601L18.46 79.0201L17.74 79.5001L17.03 79.9801L16.34 80.4901L15.66 81.0001L14.99 81.5401L14.33 82.0801L13.68 82.6401L13.04 83.2101L12.42 83.7901L11.82 84.3901L11.22 85.0001L10.63 85.6301L10.05 86.2601L9.49 86.9101L8.95 87.5601L8.42 88.2401L7.9 88.9301L7.4 89.6301L6.91 90.3301L6.44 91.0401L5.99 91.7601L5.54 92.5001L5.11 93.2401L4.71 93.9901L4.31 94.7501L3.94 95.5101L3.58 96.2901L3.24 97.0801L2.9 97.8601L2.6 98.6601L2.3 99.4601L2.03 100.28L1.76 101.1L1.53 101.91L1.3 102.74L1.09 103.57L0.9 104.41L0.74 105.25L0.58 106.09L0.44 106.94L0.33 107.79L0.23 108.63L0.15 109.48L0.09 110.34L0.04 111.19L0 112.04V112.9V113.76L0.04 114.61L0.09 115.48L0.15 116.33L0.23 117.18L0.33 118.03L0.44 118.88L0.58 119.71L0.74 120.56L0.9 121.4L1.09 122.24L1.3 123.06L1.53 123.89L1.76 124.71L2.03 125.53L2.3 126.34L2.6 127.14L2.9 127.94L3.24 128.73L3.58 129.51L3.94 130.29L4.31 131.05L4.71 131.83L5.11 132.58L5.54 133.31L5.99 134.05L6.44 134.76L6.91 135.49L7.4 136.19L7.9 136.88L8.07 137.1H97.86L38.18 120.68L37.76 120.55L37.41 120.43L37.06 120.29L36.73 120.12L36.4 119.95L36.08 119.76L35.76 119.55L35.46 119.34L35.16 119.1L34.89 118.86L34.61 118.61L34.36 118.34L34.12 118.06L33.89 117.76L33.66 117.46L33.46 117.15L33.27 116.83L33.1 116.5L32.94 116.16L32.8 115.81L32.67 115.46L32.56 115.11L32.47 114.75L32.39 114.39L32.34 114.01L32.29 113.65L32.27 113.28L32.26 112.9L32.27 112.54L32.29 112.16L32.34 111.79L32.39 111.43L32.47 111.05L32.56 110.7L32.67 110.34L32.8 109.99L32.94 109.65L33.1 109.3L33.27 108.97L33.46 108.65L33.66 108.35L33.89 108.04L34.12 107.75L34.36 107.46L34.61 107.2L34.89 106.94L35.16 106.7L35.46 106.46L35.76 106.25L36.08 106.05L36.4 105.85L36.73 105.69L37.06 105.53L37.41 105.37L37.76 105.26L38.11 105.14L38.48 105.05L38.84 104.98L39.2 104.91L39.58 104.88L39.95 104.84H40.33H122.83H233.86H250V72.5801H127.16H40.33Z" fill="#201637"/>
<path d="M40.33 0L39.46 0.01L38.61 0.02L37.75 0.08L36.9 0.15L36.05 0.23L35.2 0.33L34.35 0.44L33.51 0.58L32.66 0.73L31.82 0.9L30.99 1.09L30.16 1.3L29.34 1.53L28.51 1.76L27.7 2.03L26.88 2.3L26.08 2.59L25.28 2.91L24.5 3.23L23.72 3.57L22.93 3.94L22.17 4.31L21.41 4.7L20.66 5.11L19.91 5.54L19.18 5.99L18.46 6.44L17.74 6.91L17.03 7.4L16.34 7.9L15.66 8.41L14.99 8.94L14.33 9.49L13.68 10.05L13.04 10.61L12.42 11.21L11.82 11.8L11.22 12.41L10.63 13.04L10.05 13.68L9.49 14.32L8.95 14.99L8.42 15.66L7.9 16.34L7.4 17.04L6.91 17.74L6.44 18.45L5.99 19.18L5.54 19.91L5.11 20.65L4.71 21.4L4.31 22.16L3.94 22.94L3.58 23.71L3.24 24.5L2.9 25.29L2.6 26.08L2.3 26.89L2.03 27.7L1.76 28.51L1.53 29.34L1.3 30.16L1.09 30.99L0.9 31.83L0.74 32.66L0.58 33.5L0.44 34.35L0.33 35.2L0.23 36.05L0.15 36.9L0.09 37.75L0.04 38.6L0 39.46V40.31V41.18L0.04 42.04L0.09 42.89L0.15 43.74L0.23 44.6L0.33 45.45L0.44 46.29L0.58 47.14L0.74 47.98L0.9 48.81L1.09 49.65L1.3 50.47L1.53 51.3L1.76 52.13L2.03 52.94L2.3 53.75L2.6 54.55L2.9 55.35L3.24 56.15L3.58 56.93L3.94 57.71L4.31 58.48L4.71 59.23L5.11 59.99L5.54 60.72L5.99 61.46L6.44 62.19L6.91 62.9L7.4 63.61L7.9 64.3L8.42 64.99L8.95 65.65L9.49 66.31L10.05 66.96L10.63 67.6L11.22 68.23L11.82 68.84L12.42 69.43L13.04 70.01L13.68 70.59L14.33 71.15L14.98 71.69H14.99L16.13 71L16.94 70.54L17.77 70.09L18.61 69.66L19.44 69.25L20.29 68.85L21.16 68.48L22.02 68.1L22.9 67.76L23.77 67.44L24.66 67.11L25.55 66.83L26.45 66.55L27.35 66.29L28.25 66.04L29.16 65.81L30.09 65.61L31 65.43L31.91 65.25L32.84 65.1L33.77 64.96L34.7 64.84L35.64 64.74L36.58 64.66L37.51 64.59L38.44 64.55L39.39 64.53L40.33 64.51H97.85L38.18 48.1L37.76 47.98L37.41 47.84L37.06 47.69L36.73 47.54L36.4 47.36L36.08 47.18L35.76 46.98L35.46 46.75L35.16 46.53L34.89 46.28L34.61 46.02L34.36 45.75L34.12 45.48L33.89 45.18L33.66 44.88L33.46 44.56L33.27 44.24L33.1 43.91L32.94 43.58L32.8 43.24L32.67 42.87L32.56 42.53L32.47 42.18L32.39 41.8L32.34 41.44L32.29 41.06L32.27 40.69L32.26 40.31L32.27 39.94L32.29 39.58L32.34 39.21L32.39 38.84L32.47 38.48L32.56 38.11L32.67 37.75L32.8 37.4L32.94 37.06L33.1 36.73L33.27 36.39L33.46 36.08L33.66 35.76L33.89 35.46L34.12 35.18L34.36 34.89L34.61 34.61L34.89 34.36L35.16 34.11L35.46 33.89L35.76 33.68L36.08 33.46L36.4 33.28L36.73 33.1L37.06 32.94L37.41 32.8L37.76 32.68L38.11 32.56L38.48 32.46L38.84 32.39L39.2 32.33L39.58 32.29L39.95 32.26L40.33 32.25H250V0H40.33Z" fill="#201637"/>
</g>
<path d="M394.146 202.863H330.011V177.635H394.146C404.075 177.635 411.724 175.715 417.094 171.855C422.464 168.006 425.153 163.036 425.153 156.957C425.153 150.877 422.614 146.417 417.554 143.578C412.484 140.748 404.985 138.409 395.056 136.589L384.717 134.768C374.577 132.949 365.358 130.309 357.059 126.869C348.749 123.429 342.16 118.66 337.3 112.58C332.441 106.501 330.001 98.7017 330.001 89.1725C330.001 74.9936 335.271 63.9945 345.81 56.1951C356.349 48.3958 370.328 44.4961 387.756 44.4961H450.371V70.034H387.756C379.247 70.034 372.558 71.6039 367.698 74.7437C362.838 77.8834 360.399 82.2931 360.399 87.9626C360.399 94.0421 362.778 98.5018 367.538 101.341C372.298 104.181 378.737 106.311 386.836 107.721L397.476 109.54C408.215 111.36 418.044 113.9 426.963 117.14C435.883 120.38 442.922 125.039 448.092 131.119C453.261 137.198 455.841 145.309 455.841 155.438C455.841 170.436 450.261 182.086 439.122 190.395C427.973 198.704 412.984 202.854 394.136 202.854L394.146 202.863Z" fill="#201637"/>
<path d="M782.605 248.98V178.246H777.746C775.516 182.306 772.276 186.205 768.017 189.945C763.757 193.695 758.337 196.785 751.758 199.214C745.168 201.644 737.019 202.864 727.29 202.864C714.721 202.864 703.172 199.824 692.633 193.745C682.093 187.665 673.684 178.906 667.405 167.447C661.125 155.998 657.985 142.169 657.985 125.95V121.391C657.985 105.182 661.175 91.3528 667.565 79.8938C673.944 68.4447 682.403 59.6754 692.943 53.5959C703.482 47.5163 714.931 44.4766 727.29 44.4766C741.879 44.4766 753.078 47.1164 760.877 52.376C768.676 57.6455 774.506 63.6251 778.356 70.3145H783.215V44.4766H813.923V248.96H782.615L782.605 248.98ZM736.099 175.506C749.878 175.506 761.127 171.147 769.836 162.437C778.546 153.728 782.905 141.259 782.905 125.05V122.31C782.905 106.302 778.496 93.9426 769.686 85.2233C760.867 76.514 749.668 72.1544 736.099 72.1544C722.53 72.1544 711.631 76.514 702.812 85.2233C693.992 93.9426 689.593 106.302 689.593 122.31V125.05C689.593 141.269 694.002 153.728 702.812 162.437C711.631 171.157 722.72 175.506 736.099 175.506Z" fill="#201637"/>
<path d="M627.978 120.48C627.978 105.282 624.938 92.0125 618.859 80.6634C612.779 69.3143 604.31 60.445 593.481 54.0655C582.631 47.686 570.013 44.4863 555.634 44.4863C541.255 44.4863 527.866 47.726 516.727 54.2155C511.147 57.4552 506.178 61.3249 501.798 65.8446C501.248 66.4045 500.708 66.9845 500.168 67.5644C498.568 69.3243 497.078 71.1641 495.658 73.084C493.779 75.6538 492.029 78.3836 490.429 81.2733C484.049 92.8224 480.85 106.402 480.85 122.01V125.66C480.85 141.269 484.039 154.838 490.429 166.397C496.808 177.946 505.678 186.915 517.027 193.295C528.366 199.674 541.645 202.874 556.844 202.874C570.222 202.874 581.362 200.744 590.281 196.494C599.2 192.235 606.29 186.965 611.559 180.686C613.019 178.936 614.399 177.216 615.689 175.516C619.049 171.106 621.828 166.857 624.018 162.747L597.88 149.368C594.641 156.268 590.021 162.347 584.051 167.607C578.062 172.876 569.203 175.506 557.453 175.506C544.884 175.506 534.395 171.596 525.996 163.807C525.476 163.317 524.966 162.837 524.476 162.317C523.976 161.797 523.506 161.287 523.036 160.767C521.916 159.477 520.876 158.127 519.916 156.708C515.827 150.568 513.487 143.259 512.897 134.789C512.837 133.979 512.807 133.159 512.777 132.34H627.988V120.48H627.978ZM533.745 108.321L517.737 124.33H512.467C512.387 119.721 512.467 113.801 513.077 108.321C513.377 106.242 513.777 104.232 514.297 102.302C514.797 100.372 515.407 98.5319 516.117 96.7721C518.477 90.9026 521.986 85.933 526.606 81.8733C533.995 75.3838 543.565 72.1441 555.334 72.1441C567.103 72.1441 576.612 75.3838 583.911 81.8733C591.211 88.3628 595.36 97.1821 596.37 108.321H533.755H533.745Z" fill="#201637"/>
<path d="M991.037 120.48C991.037 105.282 987.998 92.0125 981.918 80.6634C975.839 69.3143 967.369 60.445 956.54 54.0655C945.691 47.686 933.072 44.4863 918.693 44.4863C904.314 44.4863 890.925 47.726 879.786 54.2155C874.207 57.4552 869.237 61.3249 864.858 65.8446C864.308 66.4045 863.768 66.9845 863.228 67.5644C861.628 69.3243 860.138 71.1641 858.718 73.084C856.838 75.6538 855.088 78.3836 853.488 81.2733C847.109 92.8224 843.909 106.402 843.909 122.01V125.66C843.909 141.269 847.099 154.838 853.488 166.397C859.868 177.946 868.737 186.915 880.086 193.295C891.425 199.674 904.704 202.874 919.903 202.874C933.282 202.874 944.421 200.744 953.34 196.494C962.26 192.235 969.349 186.965 974.619 180.686C976.079 178.936 977.458 177.216 978.748 175.516C982.108 171.106 984.888 166.857 987.078 162.747L960.94 149.368C957.7 156.268 953.08 162.347 947.111 167.607C941.121 172.876 932.262 175.506 920.513 175.506C907.944 175.506 897.455 171.596 889.056 163.807C888.536 163.317 888.026 162.837 887.536 162.317C887.036 161.797 886.566 161.287 886.096 160.767C884.976 159.477 883.936 158.127 882.976 156.708C878.886 150.568 876.547 143.259 875.957 134.789C875.897 133.979 875.867 133.159 875.837 132.34H991.047V120.48H991.037ZM896.805 108.321L880.796 124.33H875.527C875.447 119.721 875.527 113.801 876.137 108.321C876.437 106.242 876.837 104.232 877.357 102.302C877.856 100.372 878.466 98.5319 879.176 96.7721C881.536 90.9026 885.046 85.933 889.666 81.8733C897.055 75.3838 906.624 72.1441 918.393 72.1441C930.162 72.1441 939.672 75.3838 946.971 81.8733C954.27 88.3628 958.42 97.1821 959.43 108.321H896.815H896.805Z" fill="#201637"/>
<path d="M1021.04 202.864V44.4869H1051.73V62.1155H1056.59C1059.02 55.836 1062.92 51.2264 1068.29 48.2867C1073.66 45.3469 1080.3 43.877 1088.2 43.877H1106.14V72.1447H1086.99C1076.85 72.1447 1068.55 74.9345 1062.06 80.5041C1055.57 86.0836 1052.33 94.6429 1052.33 106.192V202.854H1021.03L1021.04 202.864Z" fill="#201637"/>
<path d="M1257.17 101.282C1257.17 82.9636 1251.58 68.8147 1240.38 58.8455C1229.19 48.8763 1213.82 43.8867 1194.27 43.8867C1181.45 43.8867 1170.61 45.9166 1161.75 49.9962C1152.91 54.0759 1145.78 59.4655 1140.39 66.1749C1135 72.8944 1131.08 80.2238 1128.63 88.1532L1157.94 97.6224C1159.77 89.4831 1163.53 82.8636 1169.23 77.774C1174.94 72.6944 1183.17 70.1446 1193.96 70.1446C1204.75 70.1446 1213.1 72.8444 1218.39 78.234C1223.69 83.6235 1226.33 90.603 1226.33 99.1523V125.19H1221.25L1204.96 108.922H1180.53C1164.04 108.922 1150.36 112.841 1139.47 120.681C1128.58 128.51 1123.13 140.069 1123.13 155.338C1123.13 165.517 1125.63 174.156 1130.61 181.286C1135.6 188.415 1142.32 193.805 1150.76 197.464C1159.22 201.124 1168.83 202.964 1179.6 202.964C1190.37 202.964 1198.33 201.484 1204.64 198.534C1210.95 195.585 1215.74 192.125 1218.99 188.155C1222.26 184.185 1224.68 180.566 1226.32 177.316H1231.21V202.964H1257.16V101.292L1257.17 101.282ZM1226.33 136.389C1226.33 149.018 1222.41 158.938 1214.57 166.157C1206.73 173.376 1196.62 176.996 1184.19 176.996C1175.03 176.996 1167.81 174.966 1162.51 170.887C1157.22 166.807 1154.58 161.317 1154.58 154.398C1154.58 147.478 1157.13 142.229 1162.2 138.679C1167.3 135.119 1174 133.34 1182.35 133.34H1226.32V136.389H1226.33Z" fill="#201637"/>
</svg>
