<svg width="1318" height="250" viewBox="0 0 1318 250" fill="none" xmlns="http://www.w3.org/2000/svg">
<path d="M46.08 119.61C48.7 80.16 80.39 48.55 119.88 46.07V0C54.92 2.56 2.7 54.68 0 119.61H46.08Z" fill="#201637"/>
<path d="M119.61 203.919C80.16 201.299 48.55 169.609 46.07 130.119H0C2.56 195.079 54.68 247.299 119.61 249.999V203.919Z" fill="#201637"/>
<path d="M130.389 46.08C169.839 48.7 201.449 80.39 203.929 119.88H249.999C247.439 54.92 195.319 2.7 130.389 0V46.08Z" fill="#201637"/>
<path d="M249.999 203.919C210.549 201.299 178.939 169.609 176.459 130.119H130.389C132.949 195.079 185.069 247.299 249.999 249.999V203.919Z" fill="#201637"/>
<path d="M1100.98 249.999V179.569H1096.12C1093.89 183.629 1090.65 187.529 1086.39 191.269C1082.13 195.019 1076.71 198.109 1070.13 200.539C1063.54 202.969 1055.39 204.189 1045.66 204.189C1033.09 204.189 1021.54 201.149 1011 195.069C1000.46 188.989 992.05 180.229 985.77 168.769C979.48 157.319 976.35 143.489 976.35 127.269V122.709C976.35 106.499 979.54 92.6691 985.93 81.2091C992.31 69.7591 1000.77 60.9891 1011.31 54.9091C1021.85 48.8291 1033.3 45.7891 1045.66 45.7891C1060.25 45.7891 1071.45 48.4291 1079.25 53.6891C1087.05 58.9591 1092.88 64.9391 1096.73 71.6291H1101.59V45.7891H1132.29V249.979H1100.98V249.999ZM1054.47 176.829C1068.25 176.829 1079.5 172.469 1088.21 163.759C1096.92 155.049 1101.28 142.579 1101.28 126.369V123.629C1101.28 107.619 1096.87 95.2591 1088.06 86.5391C1079.24 77.8291 1068.04 73.4691 1054.47 73.4691C1040.9 73.4691 1030 77.8291 1021.18 86.5391C1012.36 95.2591 1007.96 107.619 1007.96 123.629V126.369C1007.96 142.589 1012.37 155.049 1021.18 163.759C1030 172.479 1041.09 176.829 1054.47 176.829Z" fill="#201637"/>
<path d="M1235.96 204.189C1221.57 204.189 1208.55 201.149 1196.9 195.069C1185.24 188.989 1176.02 180.169 1169.24 168.619C1162.45 157.069 1159.06 143.189 1159.06 126.969V123.019C1159.06 106.809 1162.45 92.9788 1169.24 81.5188C1176.03 70.0688 1185.25 61.2588 1196.9 55.0688C1208.55 48.8888 1221.57 45.7988 1235.96 45.7988C1250.35 45.7988 1262.61 48.4388 1272.74 53.6988C1282.87 58.9688 1291.03 65.9588 1297.21 74.6788C1303.39 83.3988 1307.39 93.0188 1309.22 103.559L1278.82 109.939C1277.8 103.249 1275.68 97.1688 1272.44 91.6988C1269.2 86.2288 1264.64 81.8688 1258.76 78.6288C1252.88 75.3888 1245.48 73.7688 1236.57 73.7688C1227.66 73.7688 1220 75.7488 1213.01 79.6988C1206.02 83.6488 1200.49 89.3288 1196.44 96.7188C1192.38 104.119 1190.36 113.089 1190.36 123.619V126.359C1190.36 136.899 1192.38 145.919 1196.44 153.419C1200.49 160.919 1206.02 166.599 1213.01 170.439C1220 174.289 1227.85 176.219 1236.57 176.219C1249.74 176.219 1259.77 172.829 1266.67 166.039C1273.56 159.249 1277.92 150.589 1279.74 140.049L1310.14 147.039C1307.71 157.379 1303.4 166.909 1297.22 175.619C1291.04 184.339 1282.88 191.279 1272.75 196.439C1262.61 201.609 1250.35 204.189 1235.97 204.189H1235.96Z" fill="#201637"/>
<path d="M330.02 204.191V45.8105H360.72V65.8705H365.58C368.42 60.6005 372.98 55.9405 379.26 51.8905C385.54 47.8405 394.05 45.8105 404.8 45.8105C415.55 45.8105 424.91 48.0905 431.7 52.6505C438.49 57.2105 443.6 63.0405 447.05 70.1305H451.91C455.35 63.2405 460.37 57.4705 466.96 52.8005C473.54 48.1405 482.92 45.8105 495.08 45.8105C504.81 45.8105 513.42 47.7905 520.92 51.7405C528.42 55.6905 534.4 61.5705 538.86 69.3705C543.32 77.1705 545.55 86.8505 545.55 98.4005V204.191H514.24V100.831C514.24 91.7105 511.76 84.6705 506.79 79.7005C501.82 74.7405 494.78 72.2505 485.66 72.2505C475.93 72.2505 468.13 75.3905 462.25 81.6705C456.37 87.9505 453.43 96.9705 453.43 108.731V204.191H422.12V100.831C422.12 91.7105 419.64 84.6705 414.67 79.7005C409.7 74.7405 402.66 72.2505 393.54 72.2505C383.81 72.2505 376.01 75.3905 370.13 81.6705C364.25 87.9505 361.31 96.9705 361.31 108.731V204.191H330H330.02Z" fill="#201637"/>
<path d="M634.529 203.851C623.179 203.851 613.049 201.311 604.129 196.251C595.209 191.191 588.219 183.991 583.149 174.671C578.079 165.351 575.549 154.201 575.549 141.231V45.8105H606.859V139.101C606.859 152.071 610.099 161.651 616.589 167.831C623.069 174.011 632.089 177.101 643.649 177.101C656.419 177.101 666.699 172.801 674.509 164.181C682.309 155.571 686.209 143.161 686.209 126.941V45.8105H717.519V204.191H686.819V178.621H681.959C679.119 184.701 674.059 190.431 666.759 195.801C659.459 201.171 648.719 203.861 634.539 203.861L634.529 203.851Z" fill="#201637"/>
<path d="M747.521 204.19V0H778.831V204.19H747.521Z" fill="#201637"/>
<path d="M915.029 204.191V45.8105H946.339V204.191H915.029Z" fill="#201637"/>
<path d="M885.03 71.47V45.81H865.56L848.45 62.92H840.26V0H808.83V173.98C808.83 183.13 811.52 190.46 816.92 195.95C822.31 201.44 829.67 204.19 839.04 204.19H885.02V177.95H849.1C843.2 177.95 840.25 174.9 840.25 168.8V71.48H885.01L885.03 71.47Z" fill="#201637"/>
</svg>
