<svg width="1511" height="500" viewBox="0 0 1511 500" fill="none" xmlns="http://www.w3.org/2000/svg">
<path d="M337.2 254.4L337.6 254.5L338 254.6L338.3 254.8L338.6 255L338.9 255.2L339.2 255.4L339.5 255.6L339.8 255.8L340.1 256L340.4 256.2L340.7 256.5L340.9 256.8L341.1 257.1L341.3 257.4L341.5 257.7L341.7 258L341.9 258.3L342.1 258.6L342.2 258.9L342.3 259.2L342.4 259.6L342.5 260L342.6 260.4L342.7 260.8V261.2V261.6V262V262.4V262.8V263.2L342.6 263.6L342.5 264L342.4 264.4L342.3 264.7L342.2 265.1L342.1 265.4L341.9 265.7L341.7 266L341.5 266.3L341.3 266.6L341.1 266.9L340.9 267.2L340.7 267.5L340.4 267.8L340.1 268.1L339.8 268.3L339.5 268.5L339.2 268.7L338.9 268.9L338.6 269.1L338.3 269.3L338 269.4L337.6 269.6L337.2 269.7L336.8 269.8L336.4 269.9L336 270L335.6 270.1H335.2H334.8H335H335.4H336.1H336.8L337.5 270L338.2 269.9L338.9 269.8L339.6 269.7L340.3 269.6L341 269.5L341.7 269.3L342.4 269.1L343.1 268.9L343.7 268.7L344.3 268.5L344.9 268.2L345.5 267.9L346.1 267.6L346.7 267.3L347.3 267L347.9 266.7L348.5 266.3L349.1 265.9L349.7 265.5L350.3 265.1L350.8 264.7L351.3 264.3L351.8 263.9L352.3 263.4L352.8 262.9L353.3 262.4L353.8 261.9L354.2 261.4L354.6 260.9L355 260.4L355.4 259.9L355.8 259.4L356.2 258.8L356.6 258.2L356.9 257.6L357.2 257L357.5 256.4L357.8 255.8L358.1 255.2L358.4 254.6L358.7 254L358.9 253.4L359.1 252.8L359.3 252.1L359.5 251.4L359.7 250.7L359.9 250L360 249.3L360.1 248.6L360.2 247.9L360.3 247.2L360.4 246.5V245.8V245.1V244.4V243.7V243V242.3L360.3 241.6L360.2 240.9L360.1 240.2L360 239.5L359.9 238.8L359.7 238.1L359.6 237.6H335.3H334.8H277.3L337 254L337.2 254.4Z" fill="white"/>
<path d="M375 260.399L374.9 259.499L374.8 258.699L374.7 257.799L374.6 256.999L374.5 256.199L374.4 255.399L374.2 254.599L374 253.799L373.8 252.999L373.6 252.199L373.4 251.399L373.2 250.599L372.9 249.799L372.6 248.999L372.3 248.199L372 247.399L371.7 246.599L371.4 245.799L371 244.999L370.6 244.199L370.2 243.399L369.8 242.599L369.4 241.899L369 241.199L368.5 240.499L368 239.799L367.5 239.099L367 238.399L366.8 238.199H359.3L359.4 238.699L359.6 239.399L359.7 240.099L359.8 240.799L359.9 241.499L360 242.199L360.1 242.899V243.599V244.299V244.999V245.699V246.399V247.099L360 247.799L359.9 248.499L359.8 249.199L359.7 249.899L359.6 250.599L359.4 251.299L359.2 251.999L359 252.699L358.8 253.399L358.6 253.999L358.4 254.599L358.1 255.199L357.8 255.799L357.5 256.399L357.2 256.999L356.9 257.599L356.6 258.199L356.2 258.799L355.8 259.399L355.4 259.999L355 260.499L354.6 260.999L354.2 261.499L353.8 261.999L353.3 262.499L352.8 262.999L352.3 263.499L351.8 263.999L351.3 264.499L350.8 264.899L350.3 265.299L349.8 265.699L349.2 266.099L348.6 266.499L348 266.899L347.4 267.299L346.8 267.599L346.2 267.899L345.6 268.199L345 268.499L344.4 268.799L343.8 269.099L343.2 269.299L342.6 269.499L342 269.699L341.3 269.899L340.6 270.099L339.9 270.199L339.2 270.299L338.5 270.399L337.8 270.499L337.1 270.599L336.4 270.699H335.7H335H334.3H125V302.999H334.7H335.6H336.4L337.3 302.899L338.2 302.799L339.1 302.699L339.9 302.599L340.8 302.499L341.6 302.399L342.4 302.299L343.2 302.099L344 301.899L344.8 301.699L345.6 301.499L346.4 301.299L347.2 301.099L348 300.799L348.8 300.499L349.6 300.199L350.4 299.899L351.2 299.599L352 299.199L352.8 298.799L353.6 298.399L354.4 297.999L355.1 297.599L355.8 297.199L356.5 296.699L357.2 296.199L357.9 295.699L358.6 295.199L359.3 294.699L360 294.199L360.7 293.599L361.4 292.999L362 292.399L362.6 291.799L363.2 291.199L363.8 290.599L364.4 289.999L365 289.399L365.6 288.799L366.1 288.099L366.6 287.399L367.1 286.699L367.6 285.999L368.1 285.299L368.6 284.599L369.1 283.899L369.5 283.199L369.9 282.499L370.3 281.699L370.7 280.899L371.1 280.099L371.5 279.299L371.8 278.499L372.1 277.699L372.4 276.899L372.7 276.099L373 275.299L373.3 274.499L373.5 273.699L373.7 272.899L373.9 272.099L374.1 271.299L374.3 270.499L374.5 269.699L374.6 268.899L374.7 267.999L374.8 267.199L374.9 266.299L375 265.399L375.1 264.599V263.699V262.799V261.899L375 260.399Z" fill="#0DC09D"/>
<path d="M162.8 245.499L162.4 245.399L162 245.299L161.7 245.099L161.4 244.899L161.1 244.699L160.8 244.499L160.5 244.299L160.2 244.099L159.9 243.899L159.6 243.699L159.3 243.399L159.1 243.099L158.9 242.799L158.7 242.499L158.5 242.199L158.3 241.899L158.1 241.599L157.9 241.299L157.8 240.999L157.7 240.599L157.6 240.199L157.5 239.799L157.4 239.399L157.3 238.999V238.599V238.199V237.799V237.399V236.999V236.599L157.4 236.199L157.5 235.799L157.6 235.399L157.7 234.999L157.8 234.599L157.9 234.299L158.1 233.999L158.3 233.699L158.5 233.399L158.7 233.099L158.9 232.799L159.1 232.499L159.3 232.199L159.6 231.899L159.9 231.599L160.2 231.399L160.5 231.199L160.8 230.999L161.1 230.799L161.4 230.599L161.7 230.399L162 230.299L162.4 230.199L162.8 230.099L163.2 229.999L163.6 229.899L164 229.799L164.4 229.699H164.8H165.2H165.3H164.9H164.2L163.5 229.799L162.8 229.899L162.1 229.999L161.4 230.099L160.7 230.199L160 230.299L159.3 230.499L158.6 230.699L157.9 230.899L157.2 231.099L156.6 231.299L155.9 231.499L155.3 231.799L154.7 232.099L154.1 232.399L153.5 232.699L152.9 232.999L152.3 233.299L151.7 233.699L151.1 234.099L150.5 234.499L149.9 234.899L149.3 235.299L148.8 235.699L148.3 236.099L147.8 236.599L147.3 237.099L146.8 237.599L146.3 238.099L145.8 238.599L145.3 239.099L144.9 239.599L144.5 240.099L144.1 240.699L143.7 241.299L143.3 241.899L142.9 242.499L142.6 243.099L142.3 243.699L142 244.299L141.7 244.899L141.4 245.499L141.1 246.099L140.9 246.699L140.7 247.299L140.5 247.999L140.3 248.699L140.1 249.399L139.9 250.099L139.8 250.799L139.7 251.499L139.6 252.199L139.5 252.899L139.4 253.599L139.3 254.299V254.999V255.699V256.399V257.099L139.4 257.799L139.5 258.499L139.6 259.199L139.7 259.899L139.8 260.599L139.9 261.299L140.1 261.999L140.2 262.499H164.5H165H222.5L162.8 246.099V245.499Z" fill="white"/>
<path d="M125 239.6V240.5L125.1 241.4L125.2 242.3L125.3 243.1L125.4 243.9L125.5 244.7L125.7 245.6L125.9 246.4L126.1 247.2L126.3 248L126.5 248.8L126.8 249.6L127.1 250.4L127.4 251.2L127.7 252L128 252.8L128.3 253.6L128.6 254.4L129 255.2L129.4 256L129.8 256.8L130.2 257.6L130.6 258.3L131 259L131.5 259.7L132 260.4L132.5 261.1L133 261.8L133.2 262H140.7L140.6 261.5L140.4 260.8L140.3 260.1L140.2 259.4L140.1 258.7L140 258L139.9 257.3L139.8 256.6V255.9V255.2V254.5V253.8L139.9 253.1L140 252.4L140.1 251.7L140.2 251L140.3 250.3L140.4 249.6L140.6 248.9L140.8 248.2L141 247.5L141.2 246.8L141.4 246.2L141.6 245.6L141.9 245L142.2 244.4L142.5 243.8L142.8 243.2L143.1 242.6L143.4 242L143.8 241.4L144.2 240.8L144.6 240.2L145 239.6L145.4 239.1L145.8 238.6L146.3 238.1L146.8 237.6L147.3 237.1L147.8 236.6L148.3 236.1L148.8 235.6L149.3 235.2L149.8 234.8L150.4 234.4L151 234L151.6 233.6L152.2 233.2L152.8 232.8L153.4 232.5L154 232.2L154.6 231.9L155.2 231.6L155.8 231.3L156.4 231L157.1 230.8L157.7 230.6L158.4 230.4L159.1 230.2L159.8 230L160.5 229.8L161.2 229.7L161.9 229.6L162.6 229.5L163.3 229.4L164 229.3L164.7 229.2H165.4H166.1H375V197H165.3H164.4H163.5L162.6 197.1L161.7 197.2L160.8 197.3L160 197.4L159.1 197.5L158.3 197.6L157.5 197.8L156.6 198L155.8 198.2L155 198.4L154.2 198.6L153.4 198.8L152.6 199L151.8 199.3L151 199.6L150.2 199.9L149.4 200.2L148.6 200.5L147.8 200.9L147 201.3L146.2 201.7L145.4 202.1L144.7 202.5L144 202.9L143.3 203.4L142.6 203.9L142 205L141.3 205.5L140.6 206L139.9 206.5L139.2 207.1L138.5 207.7L137.9 208.3L137.3 208.9L136.7 209.5L136.1 210.1L135.5 210.7L134.9 211.3L134.3 212L133.8 212.7L133.3 213.4L132.8 214.1L132.3 214.8L131.8 215.5L131.3 216.2L130.8 216.9L130.4 217.6L130 218.3L129.6 219L129.2 219.8L128.8 220.6L128.4 221.4L128.1 222.2L127.8 223L127.5 223.8L127.2 224.6L126.9 225.4L126.6 226.2L126.3 227L126.1 227.8L125.9 228.6L125.7 229.4L125.5 230.2L125.3 231L125.2 231.8L125.1 232.7L125 233.6L124.9 234.5L124.8 235.3V236.1V237V237.9V238.8L125 239.6Z" fill="#0DC09D"/>
<path d="M162.8 172.999L162.4 172.899L162 172.799L161.7 172.599L161.4 172.399L161.1 172.199L160.8 171.999L160.5 171.799L160.2 171.599L159.9 171.399L159.6 171.199L159.3 170.899L159.1 170.599L158.9 170.299L158.7 169.999L158.5 169.699L158.3 169.399L158.1 169.099L157.9 168.799L157.8 168.499L157.7 168.099L157.6 167.699L157.5 167.299L157.4 166.899L157.3 166.499L157.2 166.099V165.699V165.299V164.899V164.499L157.3 164.099L157.4 163.699L157.5 163.299L157.6 162.899L157.7 162.499L157.8 162.099L157.9 161.799L158.1 161.499L158.3 161.199L158.5 160.899L158.7 160.599L158.9 160.299L159.1 159.999L159.3 159.699L159.6 159.399L159.9 159.199L160.2 158.999L160.5 158.799L160.8 158.599L161.1 158.399L161.4 158.199L161.7 157.999L162 157.799L162.4 157.699L162.8 157.599L163.2 157.499L163.6 157.399L164 157.299L164.4 157.199H164.8H165.2H165.3H164.9H164.2H163.5L162.8 157.299L162.1 157.399L161.4 157.499L160.7 157.599L160 157.699L159.3 157.899L158.6 158.099L157.9 158.299L157.2 158.499L156.6 158.699L156 158.999L155.4 159.199L154.8 159.499L154.2 159.799L153.6 160.099L153 160.399L152.4 160.699L151.8 161.099L151.2 161.499L150.6 161.899L150 162.299L149.4 162.699L148.9 163.099L148.4 163.499L147.9 163.999L147.4 164.499L146.9 164.999L146.4 165.499L146 165.999L145.5 166.499L145.1 166.999L144.7 167.499L144.3 168.099L143.9 168.699L143.5 169.299L143.1 169.899L142.8 170.499L142.5 171.099L142.2 171.699L141.9 172.299L141.6 172.899L141.3 173.499L141.1 174.099L140.9 174.699L140.7 175.299L140.5 175.999L140.3 176.699L140.1 177.399L140 178.099L139.9 178.799L139.8 179.499L139.7 180.199L139.6 180.899L139.5 181.599V182.299V182.999V183.699V184.399L139.6 185.099L139.7 185.799L139.8 186.499L139.9 187.199L140 187.899L140.1 188.599L140.3 189.299L140.5 189.999L140.7 190.699L140.9 191.399L141.1 191.999L141.3 192.599L141.6 193.199L141.9 193.799L142.2 194.399L142.5 194.999L142.7 195.399L143.5 194.999L144.3 194.599L145.2 194.199L146.1 193.799L147 193.399L147.9 193.099L148.8 192.799L149.7 192.499L150.6 192.199L151.5 191.899L152.4 191.599L153.3 191.399L154.2 191.199L155.1 190.999L156 190.799L156.9 190.599L157.8 190.499L158.7 190.399L159.6 190.299L160.5 190.199L161.4 190.099L162.3 189.999H163.2H164.2H165.1H222.6L162.9 173.599L162.8 172.999Z" fill="white"/>
<path d="M334.7 342.7H335.4H336.1H336.8L337.5 342.6L338.2 342.5L338.9 342.4L339.6 342.3L340.3 342.2L341 342.1L341.7 341.9L342.4 341.7L343.1 341.5L343.7 341.3L344.3 341.1L344.9 340.8L345.5 340.5L346.1 340.2L346.7 339.9L347.3 339.6L347.9 339.3L348.5 338.9L349.1 338.5L349.7 338.1L350.3 337.7L350.8 337.3L351.3 336.9L351.8 336.4L352.3 335.9L352.8 335.4L353.3 334.9L353.8 334.4L354.3 333.9L354.7 333.4L355.1 332.9L355.5 332.3L355.9 331.7L356.3 331.1L356.7 330.5L357 329.9L357.3 329.3L357.6 328.7L357.9 328.1L358.2 327.5L358.5 326.9L358.8 326.3L359 325.7L359.2 325L359.4 324.4L359.6 323.7L359.8 323L360 322.3L360.1 321.6L360.2 320.9L360.3 320.2L360.4 319.5L360.5 318.8V318.1V317.4V316.7V316V315.3V314.6L360.4 313.9L360.3 313.2L360 313L359.9 312.3L359.8 311.6L359.6 310.9L359.4 310.2L359.2 309.5L359 309L358.8 308.4L358.6 307.8L358.3 307.2L358 306.6L357.7 306L357.4 305.4L357.2 305L356.4 305.4L355.6 305.8L354.8 306.2L353.9 306.6L353 307L352.1 307.4L351.2 307.7L350.3 308L349.4 308.3L348.5 308.6L347.6 308.9L346.7 309.1L345.8 309.3L344.9 309.5L344 309.7L343.1 309.9L342.2 310.1L341.3 310.2L340.4 310.3L339.5 310.4L338.6 310.5L337.7 310.6H336.8H335.9H335H277.5L337.2 327L337.6 327.1L338 327.2L338.4 327.3L338.7 327.5L339 327.7L339.3 327.9L339.6 328.1L339.9 328.3L340.2 328.5L340.5 328.7L340.8 328.9L341.1 329.2L341.3 329.5L341.5 329.8L341.7 330.1L341.9 330.4L342.1 330.7L342.3 331L342.5 331.3L342.6 331.6L342.7 331.9L342.8 332.3L342.9 332.7L343 333.1L343.1 333.5V333.9V334.3V334.7V335.1V335.5V335.9L343 336.3L342.9 336.7L342.8 337.1L342.7 337.5L342.6 337.9L342.5 338.2L342.3 338.5L342.1 338.8L341.9 339.1L341.7 339.4L341.5 339.7L341.3 340L341.1 340.3L340.8 340.6L340.5 340.9L340.2 341.1L339.9 341.3L339.6 341.5L339.3 341.7L339 341.9L338.7 342.1L338.4 342.3L338 342.4L337.6 342.5L337.2 342.6L336.8 342.7L336.4 342.8H336H335.6H335.2L334.7 342.7Z" fill="white"/>
<path d="M375 333.001V332.101L374.9 331.201L374.8 330.301L374.7 329.401L374.6 328.601L374.5 327.701L374.4 326.901L374.2 326.101L374 325.301L373.8 324.501L373.6 323.701L373.4 322.901L373.1 322.101L372.8 321.301L372.5 320.501L372.2 319.701L371.9 318.901L371.6 318.101L371.2 317.301L370.8 316.501L370.4 315.701L370 314.901L369.6 314.201L369.1 313.501L368.6 312.801L368.1 312.101L367.6 311.401L367.1 310.701L366.6 310.001L366.1 309.301L365.6 308.601L365 308.001L364.4 307.401L363.8 306.801L363.2 306.201L362.6 305.601L362 305.001L361.4 304.401L360.7 303.801L360 303.301L359.1 303.901L358.3 304.401L357.4 304.901L357.3 305.001L357.5 305.401L357.8 306.001L358.1 306.601L358.4 307.201L358.7 307.801L358.9 308.401L359.1 309.001L359.3 309.701L359.5 310.401L359.7 311.101L359.9 311.801L360 312.501L360.1 313.201L360.2 313.901L360.3 314.601L360.4 315.301V316.001V316.701V317.401V318.101V318.801V319.501L360.3 320.201L360.2 320.901L360.1 321.601L360 322.301L359.9 323.001L359.7 323.701L359.5 324.401L359.3 325.101L359.1 325.701L358.9 326.401L358.7 327.001L358.4 327.601L358.1 328.201L357.8 328.801L357.5 329.401L357.2 330.001L356.9 330.601L356.5 331.201L356.1 331.801L355.7 332.401L355.3 332.901L354.9 333.401L354.5 333.901L354 334.001L353.5 334.501L353 335.001L352.5 335.501L352 336.001L351.5 336.501L351 337.001L350.5 337.401L350 337.801L349.4 338.201L348.8 338.601L348.2 339.001L347.6 339.401L347 339.701L346.4 340.001L345.8 340.301L345.2 340.601L344.6 340.901L344 341.001L343.4 341.201L342.7 341.401L342.1 341.601L341.4 341.801L340.7 342.001L340 342.101L339.3 342.201L338.6 342.301L337.9 342.401L337.2 342.501L336.5 342.601H335.8H335.1H334.4H125V375.001H334.7H335.6H336.4L337.3 374.901L338.2 374.801L339.1 374.701L340 374.601L340.9 374.501L341.7 374.401L342.5 374.301L343.3 374.101L344.1 373.901L344.9 373.701L345.7 373.501L346.5 373.301L347.3 373.101L348.1 372.801L348.9 372.501L349.7 372.201L350.5 371.901L351.3 371.601L352.1 371.201L352.9 370.801L353.7 370.401L354.4 370.001L355.2 369.601L355.9 369.201L356.6 368.701L357.3 368.201L358 367.701L358.7 367.201L359.4 366.701L360.1 366.201L360.8 365.701L361.5 365.101L362.1 364.501L362.7 363.901L363.3 363.301L363.9 362.701L364.5 362.101L365.1 361.501L365.7 360.901L366.2 360.201L366.7 359.501L367.2 358.801L367.7 358.101L368.2 357.401L368.7 356.701L369.2 356.001L369.7 355.301L370.1 354.601L370.5 353.801L370.9 353.001L371.3 352.201L371.7 351.401L372 350.601L372.3 349.801L372.6 349.001L372.9 348.201L373.2 347.401L373.5 346.601L373.7 345.801L373.9 345.001L374.1 344.201L374.3 343.401L374.5 342.601L374.6 341.801L374.7 341.001L374.8 340.201L374.9 339.401L375 338.501L375.1 337.601V336.801V335.901V335.001V334.101L375 333.001Z" fill="#0DC09D"/>
<path d="M125 167V167.9L125.1 168.7L125.2 169.6L125.3 170.4L125.4 171.2L125.5 172L125.7 172.8L125.9 173.6L126.1 174.4L126.3 175.2L126.5 176L126.7 176.8L127 177.6L127.3 178.4L127.6 179.2L127.9 180L128.2 180.8L128.6 181.6L129 182.4L129.4 183.2L129.8 184L130.2 184.8L130.6 185.5L131.1 186.2L131.6 186.9L132.1 187.6L132.6 188.3L133.1 189L133.6 189.7L134.1 190.4L134.6 191.1L135.2 191.7L135.8 192.3L136.4 192.9L137 193.5L137.6 194.1L138.2 194.7L138.8 195.3L139.5 195.9L140.2 196.4L141.1 195.8L141.9 195.3L142.8 194.8L142.9 194.7L142.7 194.3L142.4 193.7L142.1 193.1L141.8 192.5L141.5 191.9L141.3 191.3L141 191L140.8 190.3L140.6 189.7L140.4 189L140.2 188.3L140.1 187.6L140 187L139.9 186.3L139.8 185.6L139.7 184.9L139.6 184.2V183.5V182.8V182.1V181.4L139.7 180.7L139.8 180L139.9 179.3L140 178.6L140.1 177.9L140.2 177.2L140.4 176.5L140.6 175.8L140.8 175.1L141 174.5L141.2 173.9L141.4 173.3L141.7 172.7L142 172.1L142.3 171.5L142.6 170.9L142.9 170.3L143.2 169.7L143.6 169.1L144 168.5L144.4 167.9L144.8 167.4L145.2 166.8L145.6 166.3L146.1 165.8L146.6 165.3L147.1 164.8L147.6 164.3L148.1 163.8L148.6 163.4L149.1 162.9L149.6 162.5L150.2 162.1L150.8 161.7L151.4 161.3L152 160.9L152.6 160.5L153.2 160.2L153.8 159.9L154.4 159.6L155 159.3L155.6 159L156.2 158.8L156.9 158.6L157.5 158.4L158.2 158.2L158.9 158L159.6 157.8L160.3 157.7L161 157.6L161.7 157.5L162.4 157.4L163.1 157.3L163.8 157.2L164.5 157.1H165.2H165.9H375V125H165.3H164.4H163.5H162.6L161.7 125.1L160.8 125.2L159.9 125.3L159.1 125.4L158.2 125.5L157.4 125.7L156.6 125.9L155.8 126.1L155 126.3L154.2 126.5L153.4 126.7L152.6 126.9L151.8 127.2L151 127.5L150.2 127.8L149.4 128.1L148.6 128.4L147.8 128.8L147 129.2L146.2 129.6L145.4 130L144.7 130.4L144 130.8L143.3 131.3L142.6 131.8L141.9 132.3L141.2 132.8L140.5 133.3L139.8 133.8L139.1 134.3L138.4 134.8L137.8 135.4L137.2 136L136.6 136.6L136 137.2L135.4 137.8L134.8 138.4L134.2 139.1L134 140L133.5 140.7L133 141.4L132.5 142.1L132 142.8L131.5 143.5L131 144.2L130.5 144.9L130.1 145.6L129.7 146.4L129.3 147.1L128.9 147.9L128.5 148.7L128.1 149.5L127.8 150.3L127.5 151.1L127.2 151.9L126.9 152.7L126.6 153.5L126.4 154.3L126.2 155.1L126 155.9L125.8 156.7L125.6 157.5L125.4 158.3L125.3 159.2L125.2 160L125.1 160.8L125 161.6L124.9 162.5V163.3V164.1V165V165.9L125 167Z" fill="#0DC09D"/>
<path d="M519.1 327.9H455V302.7H519.1C529 302.7 536.7 300.8 542 296.9C547.4 293.1 550.1 288.1 550.1 282C550.1 275.9 547.6 271.5 542.5 268.6C537.4 265.8 529.9 263.4 520 261.6L509.7 259.8C499.6 258 490.3 255.3 482 251.9C473.7 248.5 467.1 243.7 462.2 237.6C457.3 231.5 454.9 223.7 454.9 214.2C454.9 200 460.2 189 470.7 181.2C481.2 173.4 495.2 169.5 512.6 169.5H575.2V195H512.6C504.1 195 497.4 196.6 492.5 199.7C487.6 202.8 485.2 207.2 485.2 212.9C485.2 219 487.6 223.4 492.3 226.3C497.1 229.1 503.5 231.3 511.6 232.7L522.2 234.5C532.9 236.3 542.8 238.9 551.7 242.1C560.6 245.3 567.7 250 572.8 256.1C578 262.2 580.5 270.3 580.5 280.4C580.5 295.4 574.9 307 563.8 315.4C553 323.7 538 327.9 519.1 327.9Z" fill="white"/>
<path d="M907.6 374V303.3H902.7C900.5 307.4 897.2 311.3 893 315C888.7 318.8 883.3 321.8 876.7 324.3C870.1 326.7 862 328 852.2 328C839.6 328 828.1 325 817.5 318.9C807 312.8 798.6 304.1 792.3 292.6C786 281.2 782.9 267.3 782.9 251.1V246.5C782.9 230.3 786.1 216.5 792.5 205C798.9 193.6 807.3 184.8 817.9 178.7C828.4 172.6 839.9 169.6 852.2 169.6C866.8 169.6 878 172.2 885.8 177.5C893.6 182.8 899.4 188.7 903.3 195.4H908.2V169.6H938.9V374H907.6ZM861.1 300.5C874.9 300.5 886.1 296.1 894.8 287.4C903.5 278.7 907.9 266.2 907.9 250V247.3C907.9 231.3 903.5 218.9 894.7 210.2C885.9 201.5 874.7 197.1 861.1 197.1C847.5 197.1 836.6 201.5 827.8 210.2C819 218.9 814.6 231.3 814.6 247.3V250C814.6 266.2 819 278.7 827.8 287.4C836.6 296.2 847.7 300.5 861.1 300.5Z" fill="white"/>
<path d="M753 245.5C753 230.3 750 217 743.9 205.7C737.8 194.4 729.4 185.5 718.5 179.1C707.7 172.7 695 169.5 680.7 169.5C666.3 169.5 652.9 172.7 641.8 179.2C636.2 182.4 631.3 186.3 626.9 190.8C626.3 191.4 625.8 191.9 625.3 192.5C623.7 194.3 622.2 196.1 620.8 198C618.9 200.6 617.2 203.3 615.6 206.2C609.2 217.7 606 231.3 606 246.9V250.5C606 266.1 609.2 279.7 615.6 291.2C622 302.7 630.8 311.7 642.2 318.1C653.5 324.5 666.8 327.7 682 327.7C695.4 327.7 706.5 325.6 715.4 321.3C724.3 317 731.4 311.8 736.7 305.5C738.2 303.8 739.5 302 740.8 300.3C744.2 295.9 746.9 291.6 749.1 287.5L723 274.1C719.8 281 715.1 287.1 709.2 292.3C703.2 297.6 694.4 300.2 682.6 300.2C670 300.2 659.5 296.3 651.1 288.5C650.6 288 650.1 287.5 649.6 287C649.1 286.5 648.6 286 648.2 285.4C647.1 284.1 646 282.8 645.1 281.3C641 275.2 638.7 267.9 638.1 259.4C638 258.6 638 257.8 638 256.9H753V245.5ZM658.7 233.3L642.7 249.3H637.4C637.3 244.7 637.4 238.8 638 233.3C638.3 231.2 638.7 229.2 639.2 227.3C639.7 225.4 640.3 223.5 641 221.8C643.4 215.9 646.9 211 651.5 206.9C658.9 200.4 668.5 197.2 680.2 197.2C692 197.2 701.5 200.4 708.8 206.9C716.1 213.4 720.3 222.2 721.3 233.3H658.7Z" fill="white"/>
<path d="M1116 245.5C1116 230.3 1113 217 1106.9 205.7C1100.8 194.4 1092.4 185.5 1081.5 179.1C1070.7 172.7 1058 169.5 1043.7 169.5C1029.3 169.5 1015.9 172.7 1004.8 179.2C999.2 182.4 994.3 186.3 989.9 190.8C989.4 191.4 988.8 191.9 988.3 192.5C986.7 194.3 985.2 196.1 983.8 198C981.9 200.6 980.2 203.3 978.6 206.2C972.2 217.7 969 231.3 969 246.9V250.5C969 266.1 972.2 279.7 978.6 291.2C985 302.7 993.8 311.7 1005.2 318.1C1016.5 324.5 1029.8 327.7 1045 327.7C1058.4 327.7 1069.5 325.6 1078.4 321.3C1087.3 317 1094.4 311.8 1099.7 305.5C1101.2 303.8 1102.5 302 1103.8 300.3C1107.2 295.9 1109.9 291.6 1112.1 287.5L1086 274.1C1082.8 281 1078.1 287.1 1072.2 292.3C1066.2 297.6 1057.4 300.2 1045.6 300.2C1033 300.2 1022.5 296.3 1014.1 288.5C1013.6 288 1013.1 287.5 1012.6 287C1012.1 286.5 1011.6 286 1011.2 285.4C1010.1 284.1 1009 282.8 1008.1 281.3C1004 275.2 1001.7 267.9 1001.1 259.4C1001 258.6 1001 257.8 1001 256.9H1116V245.5ZM1021.8 233.3L1005.8 249.3H1000.5C1000.4 244.7 1000.5 238.8 1001.1 233.3C1001.4 231.2 1001.8 229.2 1002.3 227.3C1002.8 225.4 1003.4 223.5 1004.1 221.8C1006.5 215.9 1010 211 1014.6 206.9C1022 200.4 1031.6 197.2 1043.3 197.2C1055 197.2 1064.6 200.4 1071.9 206.9C1079.2 213.4 1083.3 222.2 1084.4 233.3H1021.8Z" fill="white"/>
<path d="M1146 327.9V169.5H1176.7V187.1H1181.6C1184 180.8 1187.9 176.2 1193.3 173.3C1198.7 170.4 1205.3 168.9 1213.2 168.9H1231.1V197.2H1212C1201.9 197.2 1193.6 200 1187.1 205.6C1180.6 211.2 1177.4 219.7 1177.4 231.3V328L1146 327.9Z" fill="white"/>
<path d="M1382.2 226.3C1382.2 208 1376.6 193.8 1365.4 183.9C1354.2 173.9 1338.8 168.9 1319.3 168.9C1306.5 168.9 1295.6 170.9 1286.8 175C1278 179.1 1270.8 184.5 1265.4 191.2C1260 197.9 1256.1 205.2 1253.6 213.2L1282.9 222.7C1284.7 214.6 1288.5 207.9 1294.2 202.9C1299.9 197.8 1308.1 195.3 1318.9 195.3C1329.7 195.3 1338 198 1343.3 203.4C1348.6 208.8 1351.2 215.8 1351.2 224.3V250.3H1346.1L1329.8 234H1305.4C1288.9 234 1275.2 237.9 1264.3 245.8C1253.4 253.6 1248 265.2 1248 280.5C1248 290.7 1250.5 299.3 1255.5 306.4C1260.5 313.5 1267.2 318.9 1275.7 322.6C1284.2 326.3 1293.8 328.1 1304.5 328.1C1315.2 328.1 1323.2 326.6 1329.5 323.7C1335.8 320.8 1340.6 317.3 1343.8 313.3C1347.1 309.3 1349.5 305.7 1351.1 302.5H1356V328H1381.9L1382.2 226.3ZM1351.3 261.4C1351.3 274 1347.4 283.9 1339.5 291.2C1331.7 298.4 1321.6 302 1309.1 302C1299.9 302 1292.7 300 1287.4 295.9C1282.1 291.8 1279.5 286.3 1279.5 279.4C1279.5 272.5 1282.1 267.2 1287.1 263.7C1292.2 260.1 1298.9 258.4 1307.3 258.4H1351.3V261.4Z" fill="white"/>
</svg>
