<svg width="300" height="99" viewBox="0 0 300 99" fill="none" xmlns="http://www.w3.org/2000/svg">
<mask id="mask0_417_2176" style="mask-type:luminance" maskUnits="userSpaceOnUse" x="24" y="24" width="51" height="51">
<path d="M74.4541 24.75H24.8181V74.25H74.4541V24.75Z" fill="white"/>
</mask>
<g mask="url(#mask0_417_2176)">
<path d="M74.4541 65.9343L74.4343 65.7561L74.4144 65.5977L74.3946 65.4195L74.3747 65.2413L74.3548 65.0829L74.335 64.9047L74.3151 64.7463L74.2754 64.5681L74.2357 64.4097L74.196 64.2513L74.1563 64.0929L74.1166 63.9345L74.0769 63.7761L74.0173 63.6177L73.9578 63.4593L73.8982 63.3009L73.8386 63.1425L73.7592 62.9841L73.6798 62.8257L73.6004 62.6673L73.521 62.5089L73.4415 62.3505L73.3621 62.1921L73.2827 62.0535L73.1834 61.9149L73.0842 61.7763L72.9849 61.6377L72.8856 61.4991L72.7863 61.3605L72.6871 61.2219L72.5878 61.0833L72.4687 60.9843L72.3496 60.8655L72.2304 60.7467L72.1113 60.6279L71.9922 60.5091L71.873 60.3903L71.7539 60.2715L71.6149 60.1527L71.4958 60.0537L71.2576 60.1923L71.0987 60.2913L70.9399 60.3705L70.7811 60.4497L70.6222 60.5289L70.4634 60.6081L70.2847 60.6873L70.106 60.7665L69.9273 60.8259L69.7486 60.8853L69.5699 60.9447L69.3912 61.0041L69.2126 61.0635L69.0339 61.1229L68.8552 61.1625L68.6765 61.2021L68.4978 61.2417L68.3191 61.2813L68.1404 61.3209L67.9617 61.3407L67.783 61.3605L67.6043 61.3803L67.4257 61.4001L67.247 61.4199L67.0683 61.4397L66.8896 61.4595H66.7109H66.5322H55.1159L66.969 64.7067L67.0484 64.7265L67.1278 64.7463L67.2073 64.7661L67.2668 64.8057L67.3264 64.8453L67.3859 64.8849L67.4455 64.9245L67.5051 64.9641L67.5646 65.0037L67.6242 65.0433L67.6838 65.0829L67.7433 65.1423L67.783 65.2017L67.8227 65.2611L67.8625 65.3205L67.9022 65.3799L67.9419 65.4393L67.9816 65.4987L68.0213 65.5581L68.0411 65.6175L68.061 65.6769L68.0809 65.7561L68.1007 65.8353L68.1206 65.9145L68.1404 65.9937V66.0729V66.1521V66.2313V66.3105V66.3897V66.4689L68.1206 66.5481L68.1007 66.6273L68.0809 66.7065L68.061 66.7659L68.0411 66.8451L68.0213 66.9045L67.9816 66.9639L67.9419 67.0233L67.9022 67.0827L67.8625 67.1421L67.8227 67.2015L67.783 67.2609L67.7433 67.3203L67.6838 67.3797L67.6242 67.4391L67.5646 67.4787L67.5051 67.5183L67.4455 67.5579L67.3859 67.5975L67.3264 67.6371L67.2668 67.6767L67.2073 67.6965L67.1278 67.7361L67.0484 67.7559L66.9889 67.7757L66.9094 67.7955L66.83 67.8153L66.7506 67.8351H66.6712H66.5918H66.5124H24.8181V74.2503H66.4528H66.6315H66.8102H66.9889L67.1477 74.2305L67.3264 74.2107L67.4852 74.1909L67.6639 74.1711L67.8227 74.1513L67.9816 74.1315L68.1404 74.0919L68.2993 74.0523L68.4581 74.0127L68.6169 73.9731L68.7758 73.9335L68.9346 73.8741L69.0934 73.8147L69.2523 73.7553L69.4111 73.6959L69.5699 73.6365L69.7288 73.5573L69.8876 73.4781L70.0464 73.3989L70.2053 73.3197L70.3641 73.2405L70.5031 73.1613L70.6421 73.0623L70.7811 72.9633L70.92 72.8643L71.059 72.7653L71.198 72.6663L71.337 72.5673L71.476 72.4683L71.6149 72.3693L71.7539 72.2703L71.873 72.1515L71.9922 72.0327L72.1113 71.9139L72.2304 71.7951L72.3496 71.6763L72.4687 71.5575L72.5878 71.4189L72.6871 71.2803L72.7863 71.1417L72.8856 71.0031L72.9849 70.8645L73.0842 70.7259L73.1834 70.5873L73.2827 70.4487L73.3621 70.3101L73.4415 70.1517L73.521 69.9933L73.6004 69.8349L73.6798 69.6765L73.7592 69.5181L73.8386 69.3597L73.8982 69.2013L73.9578 69.0429L74.0173 68.8845L74.0769 68.7261L74.1166 68.5677L74.1563 68.4093L74.196 68.2509L74.2357 68.0925L74.2754 67.9341L74.3151 67.7757L74.335 67.6173L74.3548 67.4391L74.3747 67.2609L74.3946 67.1025L74.4144 66.9243L74.4343 66.7461L74.4541 66.5877V66.4095V66.2313V66.0729V65.9343Z" fill="#201637"/>
<path d="M74.4541 51.559L74.4343 51.3808L74.4144 51.2026L74.3946 51.0442L74.3747 50.866L74.3548 50.7076L74.335 50.5492L74.3151 50.3908L74.2754 50.2324L74.2357 50.074L74.196 49.9156L74.1563 49.7572L74.1166 49.5988L74.0769 49.4404L74.0173 49.282L73.9578 49.1236L73.8982 48.9652L73.8386 48.8068L73.7592 48.6484L73.6798 48.49L73.6004 48.3316L73.521 48.1732L73.4415 48.0148L73.3621 47.8762L73.2827 47.7376L73.1834 47.599L73.0842 47.4604L72.9849 47.3218L72.8856 47.1832L72.8459 47.1436H55.0167L66.8697 50.3908L66.9492 50.4106L67.0286 50.4304L67.108 50.4502L67.1676 50.4898L67.2271 50.5294L67.2867 50.569L67.3462 50.6086L67.4058 50.6482L67.4654 50.6878L67.5249 50.7274L67.5845 50.767L67.6441 50.8264L67.6838 50.8858L67.7235 50.9452L67.7632 51.0046L67.8029 51.064L67.8426 51.1234L67.8823 51.1828L67.922 51.2422L67.9419 51.3214L67.9617 51.3808L67.9816 51.46L68.0014 51.5392L68.0213 51.6184L68.0411 51.6976V51.7768V51.856V51.9352V52.0144V52.0936V52.1728L68.0213 52.252L68.0014 52.3312L67.9816 52.4104L67.9617 52.4896L67.9419 52.549L67.922 52.6282L67.8823 52.7074L67.8426 52.7668L67.8029 52.8262L67.7632 52.8856L67.7235 52.945L67.6838 53.0044L67.6441 53.0638L67.5845 53.1232L67.5249 53.1826L67.4654 53.2222L67.4058 53.2618L67.3462 53.3014L67.2867 53.341L67.2271 53.3806L67.1676 53.4202L67.108 53.4598L67.0286 53.4994L66.9492 53.5192L66.8896 53.539L66.8102 53.5588L66.7308 53.5786L66.6513 53.5984H66.5719H66.4925H66.4131H50.0332H27.9948H24.8181V59.974H49.1993H66.4528H66.6315H66.8102L66.9889 59.9542L67.1477 59.9344L67.3264 59.9146L67.4852 59.8948L67.6639 59.875L67.8227 59.8552L67.9816 59.8156L68.1404 59.776L68.2993 59.7364L68.4581 59.6968L68.6169 59.6572L68.7758 59.6176L68.9346 59.5582L69.0934 59.4988L69.2523 59.4394L69.4111 59.38L69.5699 59.3206L69.7288 59.2414L69.8876 59.1622L69.9273 59.1424L70.0464 59.083L70.2053 59.0038L70.3641 58.9246L70.5031 58.8454L70.6421 58.7662L70.7811 58.6672L70.92 58.5682L71.059 58.4692L71.198 58.3702L71.337 58.2712L71.476 58.1722L71.6149 58.0732L71.7539 57.9544L71.873 57.8356L71.9922 57.7168L72.1113 57.598L72.2304 57.4792L72.3496 57.3604L72.4687 57.2416L72.5878 57.1228L72.6871 56.9842L72.7863 56.8456L72.8856 56.707L72.9849 56.5684L73.0842 56.4298L73.1834 56.2912L73.2827 56.1526L73.3621 56.014L73.4415 55.8754L73.521 55.717L73.6004 55.5586L73.6798 55.4002L73.7592 55.2418L73.8386 55.0834L73.8982 54.925L73.9578 54.7666L74.0173 54.6082L74.0769 54.4498L74.1166 54.2914L74.1563 54.133L74.196 53.9746L74.2357 53.8162L74.2754 53.6578L74.3151 53.4994L74.335 53.341L74.3548 53.1628L74.3747 53.0044L74.3946 52.8262L74.4144 52.6678L74.4343 52.4896L74.4541 52.3114V52.153V51.9748V51.7966V51.559Z" fill="#201637"/>
<path d="M32.8195 39.1241H32.6408H32.482H32.3033L32.1246 39.1439L31.9658 39.1637L31.7871 39.1835L31.6283 39.2033L31.4694 39.2231L31.3106 39.2627L31.1517 39.3023L30.9929 39.3419L30.8341 39.3815L30.6752 39.4211L30.5164 39.4607L30.3576 39.5201L30.1987 39.5795L30.0399 39.6389L29.8811 39.6983L29.7222 39.7577L29.5634 39.8369L29.4046 39.9161L29.3649 39.9359L29.2457 39.9953L29.0869 40.0745L28.9281 40.1537L28.7692 40.2329L28.6302 40.3121L28.4913 40.4111L28.3523 40.5101L28.1934 40.5893L28.0545 40.6883L27.9155 40.7873L27.7765 40.8863L27.6375 40.9853L27.4985 41.1041L27.3794 41.2229L27.2603 41.3417L27.1412 41.4605L27.022 41.5793L26.9029 41.6981L26.7838 41.8169L26.6647 41.9357L26.5654 42.0545L26.4661 42.1931L26.3668 42.3317L26.2676 42.4703L26.1683 42.6089L26.069 42.7475L25.9896 42.8861L25.8903 43.0247L25.8109 43.1633L25.7315 43.3217L25.6521 43.4801L25.5727 43.6385L25.4932 43.7969L25.4337 43.9553L25.3741 44.1137L25.3146 44.2721L25.255 44.4305L25.1954 44.5889L25.1359 44.7473L25.0962 44.9057L25.0564 45.0641L25.0167 45.2225L24.977 45.3809L24.9373 45.5393L24.8976 45.6977L24.8778 45.8759L24.8579 46.0541L24.838 46.2125L24.8182 46.3907L24.7983 46.5689V46.7471V46.9253V47.1035V47.2817V47.4401V47.6183L24.8182 47.7767L24.838 47.9351L24.8579 48.1133L24.8778 48.2915L24.8976 48.4499L24.9373 48.6281L24.977 48.7865L25.0167 48.9449L25.0564 49.1033L25.0962 49.2617L25.1359 49.4201L25.1954 49.5785L25.255 49.7369L25.3146 49.8953L25.3741 50.0537L25.4337 50.2121L25.4932 50.3705L25.5727 50.5289L25.6521 50.6873L25.7315 50.8457L25.8109 51.0041L25.8903 51.1427L25.9896 51.2813L26.069 51.4199L26.1683 51.5585L26.2676 51.6971L26.3668 51.8357L26.4065 51.8753H44.2358L32.3827 48.6281L32.3033 48.6083L32.2437 48.5885L32.1643 48.5687L32.1048 48.5291L32.0452 48.4895L31.9856 48.4499L31.9261 48.4103L31.8665 48.3707L31.8069 48.3311L31.7474 48.2915L31.6878 48.2519L31.6481 48.1925L31.6084 48.1331L31.5687 48.0737L31.529 48.0143L31.4893 47.9549L31.4496 47.8955L31.4099 47.8361L31.3701 47.7767L31.3503 47.6975L31.3304 47.6183L31.3106 47.5589L31.2907 47.4797L31.2709 47.4005L31.251 47.3213V47.2421V47.1629V47.0837V47.0045V46.9253V46.8461L31.2709 46.7669L31.2907 46.6877L31.3106 46.6085L31.3304 46.5293L31.3503 46.4501L31.3701 46.3907L31.4099 46.3313L31.4496 46.2719L31.4893 46.2125L31.529 46.1531L31.5687 46.0937L31.6084 46.0343L31.6481 45.9749L31.6878 45.9155L31.7474 45.8561L31.8069 45.8165L31.8665 45.7769L31.9261 45.7373L31.9856 45.6977L32.0452 45.6581L32.1048 45.6185L32.1643 45.5789L32.2437 45.5393L32.3033 45.5195L32.3827 45.4997L32.4621 45.4799L32.5416 45.4601L32.621 45.4403H32.7004H32.7798H32.8592H49.2391H71.2775H74.4542V39.0449H50.073H32.8195V39.1241Z" fill="#201637"/>
<path d="M32.8194 24.75H32.6407H32.4819L32.3032 24.7698L32.1245 24.7896L31.9657 24.8094L31.787 24.8292L31.6282 24.849L31.4693 24.8688L31.3105 24.9084L31.1517 24.948L30.9928 24.9876L30.834 25.0272L30.6752 25.0668L30.5163 25.1064L30.3575 25.1658L30.1987 25.2252L30.0398 25.2846L29.881 25.344L29.7222 25.4034L29.5633 25.4628L29.4045 25.542L29.2456 25.6212L29.0868 25.7004L28.928 25.7796L28.7691 25.8588L28.6302 25.9578L28.4912 26.037L28.3522 26.136L28.2132 26.235L28.0742 26.334L27.9353 26.433L27.7963 26.532L27.6573 26.6508L27.5183 26.7696L27.3992 26.8884L27.2801 27.0072L27.1609 27.126L27.0418 27.2448L26.9227 27.3636L26.8036 27.4824L26.6844 27.6012L26.5852 27.7398L26.4859 27.8784L26.3866 28.017L26.2873 28.1556L26.1881 28.2942L26.0888 28.4328L26.0094 28.5714L25.9101 28.71L25.8307 28.8486L25.7513 29.007L25.6719 29.1654L25.5924 29.3238L25.513 29.4822L25.4535 29.6406L25.3939 29.799L25.3343 29.9574L25.2748 30.1158L25.2152 30.2742L25.1556 30.4326L25.1159 30.591L25.0762 30.7494L25.0365 30.9078L24.9968 31.0662L24.9571 31.2246L24.9174 31.383L24.8975 31.5612L24.8777 31.7196L24.8578 31.8978L24.838 32.0562L24.8181 32.2344V32.4126V32.5908V32.769V32.9472V33.1254V33.2838L24.838 33.462L24.8578 33.6402L24.8777 33.7986L24.8975 33.957L24.9174 34.1154L24.9571 34.2738L24.9968 34.4322L25.0365 34.5906L25.0762 34.749L25.1159 34.9074L25.1556 35.0658L25.2152 35.2242L25.2748 35.3826L25.3343 35.541L25.3939 35.6994L25.4535 35.8578L25.513 36.0162L25.5924 36.1746L25.6719 36.333L25.7513 36.4914L25.8307 36.6498L25.9101 36.7884L26.0094 36.927L26.0888 37.0656L26.1881 37.2042L26.2873 37.3428L26.3866 37.4814L26.4859 37.62L26.5852 37.7586L26.6844 37.8972L26.8036 38.016L26.9227 38.1348L27.0418 38.2536L27.1609 38.3724L27.2801 38.4912L27.3992 38.61L27.5183 38.7288L27.6573 38.8476L27.7764 38.9466L27.9948 38.808L28.1537 38.709L28.3125 38.61L28.4713 38.5308L28.6302 38.4516L28.8089 38.3724L28.9875 38.2932L29.1662 38.214L29.3449 38.1546L29.5236 38.0952L29.7023 38.0358L29.881 37.9764L30.0597 37.917L30.2384 37.8576L30.4171 37.818L30.5957 37.7784L30.7744 37.7388L30.9531 37.6992L31.1318 37.6596L31.3105 37.6398L31.4892 37.62L31.6679 37.6002L31.8466 37.5804L32.0253 37.5606L32.204 37.5408H32.3826H32.5613H32.74H44.1563L32.3032 34.2936L32.2238 34.2738L32.1642 34.254L32.0848 34.2342L32.0253 34.2144L31.9657 34.1748L31.9061 34.1352L31.8466 34.0956L31.787 34.056L31.7274 34.0164L31.6679 33.9768L31.6083 33.9174L31.5686 33.858L31.5289 33.7986L31.4892 33.7392L31.4495 33.6798L31.4098 33.6204L31.3701 33.561L31.3304 33.5016L31.2907 33.4422L31.2708 33.3828L31.2509 33.3036L31.2311 33.2442L31.2112 33.165L31.1914 33.0858L31.1715 33.0066V32.9274V32.8482V32.769V32.6898V32.6106V32.5314L31.1914 32.4522L31.2112 32.373L31.2311 32.2938L31.2509 32.2146L31.2708 32.1354L31.2907 32.076L31.3304 32.0166L31.3701 31.9572L31.4098 31.8978L31.4495 31.8384L31.4892 31.779L31.5289 31.7196L31.5686 31.6602L31.6083 31.6008L31.6679 31.5612L31.7274 31.5216L31.787 31.482L31.8466 31.4424L31.9061 31.4028L31.9657 31.3632L32.0253 31.3236L32.0848 31.284L32.1642 31.2642L32.2238 31.2444L32.3032 31.2246L32.3826 31.2048L32.4621 31.185L32.5415 31.1652H32.6209H32.7003H32.7797H74.4541V24.75H32.8194Z" fill="#201637"/>
</g>
<path d="M103.064 64.9237H90.3375V59.9341H103.064C105.03 59.9341 106.559 59.5579 107.611 58.7857C108.683 58.0333 109.219 57.0433 109.219 55.8355C109.219 54.6277 108.723 53.7565 107.71 53.1823C106.698 52.6279 105.208 52.1527 103.243 51.7963L101.198 51.4399C99.1925 51.0835 97.3461 50.5489 95.6982 49.8757C94.0503 49.2025 92.7399 48.2521 91.767 47.0443C90.7941 45.8365 90.3176 44.2921 90.3176 42.4111C90.3176 39.5995 91.3699 37.4215 93.4546 35.8771C95.5393 34.3327 98.3189 33.5605 101.774 33.5605H114.202V38.6095H101.774C100.086 38.6095 98.7557 38.9263 97.7829 39.5401C96.81 40.1539 96.3335 41.0251 96.3335 42.1537C96.3335 43.3615 96.81 44.2327 97.7432 44.8069C98.6962 45.3613 99.9669 45.7969 101.575 46.0741L103.68 46.4305C105.804 46.7869 107.77 47.3017 109.537 47.9353C111.304 48.5689 112.713 49.4995 113.726 50.7073C114.758 51.9151 115.255 53.5189 115.255 55.5187C115.255 58.4887 114.143 60.7855 111.939 62.4487C109.795 64.0921 106.817 64.9237 103.064 64.9237Z" fill="#201637"/>
<path d="M180.199 74.0523V60.0537H179.226C178.789 60.8655 178.134 61.6377 177.3 62.3703C176.446 63.1227 175.374 63.7167 174.064 64.2117C172.753 64.6869 171.145 64.9443 169.199 64.9443C166.698 64.9443 164.414 64.3503 162.31 63.1425C160.225 61.9347 158.557 60.2121 157.306 57.9351C156.056 55.6779 155.44 52.9257 155.44 49.7181V48.8073C155.44 45.5997 156.076 42.8673 157.346 40.5903C158.617 38.3331 160.285 36.5907 162.389 35.3829C164.474 34.1751 166.757 33.5811 169.199 33.5811C172.098 33.5811 174.322 34.0959 175.87 35.1453C177.419 36.1947 178.571 37.3629 179.345 38.6895H180.318V33.5811H186.413V74.0523H180.199ZM170.966 59.4993C173.706 59.4993 175.93 58.6281 177.657 56.9055C179.385 55.1829 180.258 52.7079 180.258 49.5003V48.9657C180.258 45.7977 179.385 43.3425 177.637 41.6199C175.89 39.8973 173.667 39.0261 170.966 39.0261C168.266 39.0261 166.102 39.8973 164.355 41.6199C162.608 43.3425 161.734 45.7977 161.734 48.9657V49.5003C161.734 52.7079 162.608 55.1829 164.355 56.9055C166.102 58.6479 168.306 59.4993 170.966 59.4993Z" fill="#201637"/>
<path d="M149.504 48.6085C149.504 45.5989 148.908 42.9655 147.697 40.7281C146.486 38.4907 144.818 36.7285 142.654 35.4613C140.49 34.1941 137.988 33.5605 135.149 33.5605C132.29 33.5605 129.629 34.1941 127.426 35.4811C126.314 36.1147 125.341 36.8869 124.467 37.7779C124.368 37.8967 124.249 37.9957 124.15 38.1145C123.832 38.4709 123.534 38.8273 123.256 39.2035C122.879 39.7183 122.541 40.2529 122.224 40.8271C120.953 43.1041 120.318 45.7969 120.318 48.8857V49.5985C120.318 52.6873 120.953 55.3801 122.224 57.6571C123.494 59.9341 125.242 61.7161 127.505 62.9833C129.748 64.2505 132.389 64.8841 135.407 64.8841C138.067 64.8841 140.271 64.4683 142.038 63.6169C143.805 62.7655 145.215 61.7359 146.267 60.4885C146.565 60.1321 146.823 59.7955 147.081 59.4589C147.756 58.5877 148.292 57.7363 148.729 56.9245L143.547 54.2713C142.912 55.6375 141.979 56.8453 140.807 57.8749C139.616 58.9243 137.869 59.4391 135.526 59.4391C133.024 59.4391 130.94 58.6669 129.272 57.1225C129.173 57.0235 129.073 56.9245 128.974 56.8255C128.875 56.7265 128.776 56.6275 128.696 56.5087C128.478 56.2513 128.259 55.9939 128.081 55.6969C127.267 54.4891 126.81 53.0437 126.691 51.3607C126.671 51.2023 126.671 51.0439 126.671 50.8855H149.504V48.6085ZM130.781 46.1929L127.604 49.3609H126.552C126.532 48.4501 126.552 47.2819 126.671 46.1929C126.731 45.7771 126.81 45.3811 126.909 45.0049C127.009 44.6287 127.128 44.2525 127.267 43.9159C127.743 42.7477 128.438 41.7775 129.351 40.9657C130.821 39.6787 132.727 39.0451 135.05 39.0451C137.392 39.0451 139.279 39.6787 140.728 40.9657C142.177 42.2527 142.991 43.9951 143.21 46.1929H130.781Z" fill="#201637"/>
<path d="M221.575 48.6085C221.575 45.5989 220.98 42.9655 219.768 40.7281C218.557 38.4907 216.889 36.7285 214.725 35.4613C212.581 34.1941 210.06 33.5605 207.22 33.5605C204.381 33.5605 201.701 34.1941 199.497 35.4811C198.385 36.1147 197.412 36.8869 196.539 37.7779C196.439 37.8967 196.32 37.9957 196.221 38.1145C195.903 38.4709 195.606 38.8273 195.328 39.2035C194.95 39.7183 194.613 40.2529 194.295 40.8271C193.024 43.1041 192.389 45.7969 192.389 48.8857V49.5985C192.389 52.6873 193.024 55.3801 194.295 57.6571C195.566 59.9341 197.313 61.7161 199.576 62.9833C201.82 64.2505 204.461 64.8841 207.479 64.8841C210.139 64.8841 212.343 64.4683 214.11 63.6169C215.877 62.7655 217.287 61.7359 218.339 60.4885C218.637 60.1321 218.895 59.7955 219.153 59.4589C219.828 58.5877 220.364 57.7363 220.801 56.9245L215.619 54.2713C214.983 55.6375 214.05 56.8453 212.879 57.8749C211.688 58.9243 209.94 59.4391 207.598 59.4391C205.096 59.4391 203.011 58.6669 201.343 57.1225C201.244 57.0235 201.145 56.9245 201.046 56.8255C200.946 56.7265 200.847 56.6275 200.768 56.5087C200.549 56.2513 200.331 55.9939 200.152 55.6969C199.338 54.4891 198.882 53.0437 198.762 51.3607C198.743 51.2023 198.743 51.0439 198.743 50.8855H221.575V48.6085ZM202.872 46.1929L199.696 49.3609H198.643C198.623 48.4501 198.643 47.2819 198.762 46.1929C198.822 45.7771 198.901 45.3811 199.001 45.0049C199.1 44.6287 199.219 44.2525 199.358 43.9159C199.835 42.7477 200.529 41.7775 201.443 40.9657C202.912 39.6787 204.818 39.0451 207.141 39.0451C209.484 39.0451 211.37 39.6787 212.819 40.9657C214.269 42.2527 215.083 43.9951 215.301 46.1929H202.872Z" fill="#201637"/>
<path d="M227.531 64.9244V33.5612H233.627V37.046H234.6C235.076 35.7986 235.85 34.8878 236.923 34.3136C237.995 33.7394 239.305 33.4424 240.874 33.4424H244.428V39.0458H240.635C238.63 39.0458 236.982 39.6002 235.692 40.709C234.401 41.8178 233.766 43.5008 233.766 45.7976V64.9442L227.531 64.9244Z" fill="#201637"/>
<path d="M274.428 44.8076C274.428 41.1842 273.316 38.3726 271.092 36.4124C268.868 34.4324 265.811 33.4424 261.939 33.4424C259.398 33.4424 257.234 33.8384 255.486 34.6502C253.739 35.462 252.31 36.5312 251.238 37.8578C250.165 39.1844 249.391 40.6298 248.895 42.2138L254.712 44.0948C255.07 42.491 255.824 41.1644 256.956 40.1744C258.087 39.1646 259.715 38.6696 261.86 38.6696C264.004 38.6696 265.652 39.2042 266.704 40.2734C267.756 41.3426 268.273 42.7286 268.273 44.4116V49.5596H267.26L264.024 46.3322H259.179C255.903 46.3322 253.183 47.1044 251.019 48.6686C248.855 50.213 247.783 52.5098 247.783 55.5392C247.783 57.5588 248.279 59.2616 249.272 60.6674C250.265 62.0732 251.595 63.1424 253.283 63.875C254.97 64.6076 256.876 64.964 259.001 64.964C261.125 64.964 262.713 64.667 263.964 64.0928C265.215 63.5186 266.168 62.8256 266.803 62.0336C267.459 61.2416 267.935 60.5288 268.253 59.8952H269.226V64.9442H274.388L274.428 44.8076ZM268.293 51.7574C268.293 54.2522 267.518 56.2124 265.95 57.6578C264.401 59.0834 262.396 59.7962 259.914 59.7962C258.087 59.7962 256.658 59.4002 255.606 58.5884C254.553 57.7766 254.037 56.6876 254.037 55.3214C254.037 53.9552 254.553 52.9058 255.546 52.2128C256.559 51.5 257.889 51.1634 259.557 51.1634H268.293V51.7574Z" fill="#201637"/>
</svg>
