<svg width="150" height="150" viewBox="0 0 150 150" fill="none" xmlns="http://www.w3.org/2000/svg">
<mask id="mask0_417_2133" style="mask-type:luminance" maskUnits="userSpaceOnUse" x="37" y="37" width="76" height="76">
<path d="M112.5 37.5H37.5V112.5H112.5V37.5Z" fill="white"/>
</mask>
<g mask="url(#mask0_417_2133)">
<path d="M112.5 99.9002L112.47 99.6302L112.44 99.3902L112.41 99.1202L112.38 98.8502L112.35 98.6102L112.32 98.3402L112.29 98.1002L112.23 97.8302L112.17 97.5902L112.11 97.3502L112.05 97.1102L111.99 96.8702L111.93 96.6302L111.84 96.3902L111.75 96.1502L111.66 95.9102L111.57 95.6702L111.45 95.4302L111.33 95.1902L111.21 94.9502L111.09 94.7102L110.97 94.4702L110.85 94.2302L110.73 94.0202L110.58 93.8102L110.43 93.6002L110.28 93.3902L110.13 93.1802L109.98 92.9702L109.83 92.7602L109.68 92.5502L109.5 92.4002L109.32 92.2202L109.14 92.0402L108.96 91.8602L108.78 91.6802L108.6 91.5002L108.42 91.3202L108.21 91.1402L108.03 90.9902L107.67 91.2002L107.43 91.3502L107.19 91.4702L106.95 91.5902L106.71 91.7102L106.47 91.8302L106.2 91.9502L105.93 92.0702L105.66 92.1602L105.39 92.2502L105.12 92.3402L104.85 92.4302L104.58 92.5202L104.31 92.6102L104.04 92.6702L103.77 92.7302L103.5 92.7902L103.23 92.8502L102.96 92.9102L102.69 92.9402L102.42 92.9702L102.15 93.0002L101.88 93.0302L101.61 93.0602L101.34 93.0902L101.07 93.1202H100.8H100.53H83.28L101.19 98.0402L101.31 98.0702L101.43 98.1002L101.55 98.1302L101.64 98.1902L101.73 98.2502L101.82 98.3102L101.91 98.3702L102 98.4302L102.09 98.4902L102.18 98.5502L102.27 98.6102L102.36 98.7002L102.42 98.7902L102.48 98.8802L102.54 98.9702L102.6 99.0602L102.66 99.1502L102.72 99.2402L102.78 99.3302L102.81 99.4202L102.84 99.5102L102.87 99.6302L102.9 99.7502L102.93 99.8702L102.96 99.9902V100.11V100.23V100.35V100.47V100.59V100.71L102.93 100.83L102.9 100.95L102.87 101.07L102.84 101.16L102.81 101.28L102.78 101.37L102.72 101.46L102.66 101.55L102.6 101.64L102.54 101.73L102.48 101.82L102.42 101.91L102.36 102L102.27 102.09L102.18 102.18L102.09 102.24L102 102.3L101.91 102.36L101.82 102.42L101.73 102.48L101.64 102.54L101.55 102.57L101.43 102.63L101.31 102.66L101.22 102.69L101.1 102.72L100.98 102.75L100.86 102.78H100.74H100.62H100.5H37.5V112.5H100.41H100.68H100.95H101.22L101.46 112.47L101.73 112.44L101.97 112.41L102.24 112.38L102.48 112.35L102.72 112.32L102.96 112.26L103.2 112.2L103.44 112.14L103.68 112.08L103.92 112.02L104.16 111.93L104.4 111.84L104.64 111.75L104.88 111.66L105.12 111.57L105.36 111.45L105.6 111.33L105.84 111.21L106.08 111.09L106.32 110.97L106.53 110.85L106.74 110.7L106.95 110.55L107.16 110.4L107.37 110.25L107.58 110.1L107.79 109.95L108 109.8L108.21 109.65L108.42 109.5L108.6 109.32L108.78 109.14L108.96 108.96L109.14 108.78L109.32 108.6L109.5 108.42L109.68 108.21L109.83 108L109.98 107.79L110.13 107.58L110.28 107.37L110.43 107.16L110.58 106.95L110.73 106.74L110.85 106.53L110.97 106.29L111.09 106.05L111.21 105.81L111.33 105.57L111.45 105.33L111.57 105.09L111.66 104.85L111.75 104.61L111.84 104.37L111.93 104.13L111.99 103.89L112.05 103.65L112.11 103.41L112.17 103.17L112.23 102.93L112.29 102.69L112.32 102.45L112.35 102.18L112.38 101.91L112.41 101.67L112.44 101.4L112.47 101.13L112.5 100.89V100.62V100.35V100.11V99.9002Z" fill="#201637"/>
<path d="M112.5 78.1197L112.47 77.8497L112.44 77.5797L112.41 77.3397L112.38 77.0697L112.35 76.8297L112.32 76.5897L112.29 76.3497L112.23 76.1097L112.17 75.8697L112.11 75.6297L112.05 75.3897L111.99 75.1497L111.93 74.9097L111.84 74.6697L111.75 74.4297L111.66 74.1897L111.57 73.9497L111.45 73.7097L111.33 73.4697L111.21 73.2297L111.09 72.9897L110.97 72.7497L110.85 72.5397L110.73 72.3297L110.58 72.1197L110.43 71.9097L110.28 71.6997L110.13 71.4897L110.07 71.4297H83.13L101.04 76.3497L101.16 76.3797L101.28 76.4097L101.4 76.4397L101.49 76.4997L101.58 76.5597L101.67 76.6197L101.76 76.6797L101.85 76.7397L101.94 76.7997L102.03 76.8597L102.12 76.9197L102.21 77.0097L102.27 77.0997L102.33 77.1897L102.39 77.2797L102.45 77.3697L102.51 77.4597L102.57 77.5497L102.63 77.6397L102.66 77.7597L102.69 77.8497L102.72 77.9697L102.75 78.0897L102.78 78.2097L102.81 78.3297V78.4497V78.5697V78.6897V78.8097V78.9297V79.0497L102.78 79.1697L102.75 79.2897L102.72 79.4097L102.69 79.5297L102.66 79.6197L102.63 79.7397L102.57 79.8597L102.51 79.9497L102.45 80.0397L102.39 80.1297L102.33 80.2197L102.27 80.3097L102.21 80.3997L102.12 80.4897L102.03 80.5797L101.94 80.6397L101.85 80.6997L101.76 80.7597L101.67 80.8197L101.58 80.8797L101.49 80.9397L101.4 80.9997L101.28 81.0597L101.16 81.0897L101.07 81.1197L100.95 81.1497L100.83 81.1797L100.71 81.2097H100.59H100.47H100.35H75.6H42.3H37.5V90.8697H74.34H100.41H100.68H100.95L101.22 90.8397L101.46 90.8097L101.73 90.7797L101.97 90.7497L102.24 90.7197L102.48 90.6897L102.72 90.6297L102.96 90.5697L103.2 90.5097L103.44 90.4497L103.68 90.3897L103.92 90.3297L104.16 90.2397L104.4 90.1497L104.64 90.0597L104.88 89.9697L105.12 89.8797L105.36 89.7597L105.6 89.6397L105.66 89.6097L105.84 89.5197L106.08 89.3997L106.32 89.2797L106.53 89.1597L106.74 89.0397L106.95 88.8897L107.16 88.7397L107.37 88.5897L107.58 88.4397L107.79 88.2897L108 88.1397L108.21 87.9897L108.42 87.8097L108.6 87.6297L108.78 87.4497L108.96 87.2697L109.14 87.0897L109.32 86.9097L109.5 86.7297L109.68 86.5497L109.83 86.3397L109.98 86.1297L110.13 85.9197L110.28 85.7097L110.43 85.4997L110.58 85.2897L110.73 85.0797L110.85 84.8697L110.97 84.6597L111.09 84.4197L111.21 84.1797L111.33 83.9397L111.45 83.6997L111.57 83.4597L111.66 83.2197L111.75 82.9797L111.84 82.7397L111.93 82.4997L111.99 82.2597L112.05 82.0197L112.11 81.7797L112.17 81.5397L112.23 81.2997L112.29 81.0597L112.32 80.8197L112.35 80.5497L112.38 80.3097L112.41 80.0397L112.44 79.7997L112.47 79.5297L112.5 79.2597V79.0197V78.7497V78.4797V78.1197Z" fill="#201637"/>
<path d="M49.59 59.2802H49.32H49.08H48.81L48.54 59.3102L48.3 59.3402L48.03 59.3702L47.79 59.4002L47.55 59.4302L47.31 59.4902L47.07 59.5502L46.83 59.6102L46.59 59.6702L46.35 59.7302L46.11 59.7902L45.87 59.8802L45.63 59.9702L45.39 60.0602L45.15 60.1502L44.91 60.2402L44.67 60.3602L44.43 60.4802L44.37 60.5102L44.19 60.6002L43.95 60.7202L43.71 60.8402L43.47 60.9602L43.26 61.0802L43.05 61.2302L42.84 61.3802L42.6 61.5002L42.39 61.6502L42.18 61.8002L41.97 61.9502L41.76 62.1002L41.55 62.2802L41.37 62.4602L41.19 62.6402L41.01 62.8202L40.83 63.0002L40.65 63.1802L40.47 63.3602L40.29 63.5402L40.14 63.7202L39.99 63.9302L39.84 64.1402L39.69 64.3502L39.54 64.5602L39.39 64.7702L39.27 64.9802L39.12 65.1902L39 65.4002L38.88 65.6402L38.76 65.8802L38.64 66.1202L38.52 66.3602L38.43 66.6002L38.34 66.8402L38.25 67.0802L38.16 67.3202L38.07 67.5602L37.98 67.8002L37.92 68.0402L37.86 68.2802L37.8 68.5202L37.74 68.7602L37.68 69.0002L37.62 69.2402L37.59 69.5102L37.56 69.7802L37.53 70.0202L37.5 70.2902L37.47 70.5602V70.8302V71.1002V71.3702V71.6402V71.8802V72.1502L37.5 72.3902L37.53 72.6302L37.56 72.9002L37.59 73.1702L37.62 73.4102L37.68 73.6802L37.74 73.9202L37.8 74.1602L37.86 74.4002L37.92 74.6402L37.98 74.8802L38.07 75.1202L38.16 75.3602L38.25 75.6002L38.34 75.8402L38.43 76.0802L38.52 76.3202L38.64 76.5602L38.76 76.8002L38.88 77.0402L39 77.2802L39.12 77.4902L39.27 77.7002L39.39 77.9102L39.54 78.1202L39.69 78.3302L39.84 78.5402L39.9 78.6002H66.84L48.93 73.6802L48.81 73.6502L48.72 73.6202L48.6 73.5902L48.51 73.5302L48.42 73.4702L48.33 73.4102L48.24 73.3502L48.15 73.2902L48.06 73.2302L47.97 73.1702L47.88 73.1102L47.82 73.0202L47.76 72.9302L47.7 72.8402L47.64 72.7502L47.58 72.6602L47.52 72.5702L47.46 72.4802L47.4 72.3902L47.37 72.2702L47.34 72.1502L47.31 72.0602L47.28 71.9402L47.25 71.8202L47.22 71.7002V71.5802V71.4602V71.3402V71.2202V71.1002V70.9802L47.25 70.8602L47.28 70.7402L47.31 70.6202L47.34 70.5002L47.37 70.3802L47.4 70.2902L47.46 70.2002L47.52 70.1102L47.58 70.0202L47.64 69.9302L47.7 69.8402L47.76 69.7502L47.82 69.6602L47.88 69.5702L47.97 69.4802L48.06 69.4202L48.15 69.3602L48.24 69.3002L48.33 69.2402L48.42 69.1802L48.51 69.1202L48.6 69.0602L48.72 69.0002L48.81 68.9702L48.93 68.9402L49.05 68.9102L49.17 68.8802L49.29 68.8502H49.41H49.53H49.65H74.4H107.7H112.5V59.1602H75.66H49.59V59.2802Z" fill="#201637"/>
<path d="M49.59 37.5H49.32H49.08L48.81 37.53L48.54 37.56L48.3 37.59L48.03 37.62L47.79 37.65L47.55 37.68L47.31 37.74L47.07 37.8L46.83 37.86L46.59 37.92L46.35 37.98L46.11 38.04L45.87 38.13L45.63 38.22L45.39 38.31L45.15 38.4L44.91 38.49L44.67 38.58L44.43 38.7L44.19 38.82L43.95 38.94L43.71 39.06L43.47 39.18L43.26 39.33L43.05 39.45L42.84 39.6L42.63 39.75L42.42 39.9L42.21 40.05L42 40.2L41.79 40.38L41.58 40.56L41.4 40.74L41.22 40.92L41.04 41.1L40.86 41.28L40.68 41.46L40.5 41.64L40.32 41.82L40.17 42.03L40.02 42.24L39.87 42.45L39.72 42.66L39.57 42.87L39.42 43.08L39.3 43.29L39.15 43.5L39.03 43.71L38.91 43.95L38.79 44.19L38.67 44.43L38.55 44.67L38.46 44.91L38.37 45.15L38.28 45.39L38.19 45.63L38.1 45.87L38.01 46.11L37.95 46.35L37.89 46.59L37.83 46.83L37.77 47.07L37.71 47.31L37.65 47.55L37.62 47.82L37.59 48.06L37.56 48.33L37.53 48.57L37.5 48.84V49.11V49.38V49.65V49.92V50.19V50.43L37.53 50.7L37.56 50.97L37.59 51.21L37.62 51.45L37.65 51.69L37.71 51.93L37.77 52.17L37.83 52.41L37.89 52.65L37.95 52.89L38.01 53.13L38.1 53.37L38.19 53.61L38.28 53.85L38.37 54.09L38.46 54.33L38.55 54.57L38.67 54.81L38.79 55.05L38.91 55.29L39.03 55.53L39.15 55.74L39.3 55.95L39.42 56.16L39.57 56.37L39.72 56.58L39.87 56.79L40.02 57L40.17 57.21L40.32 57.42L40.5 57.6L40.68 57.78L40.86 57.96L41.04 58.14L41.22 58.32L41.4 58.5L41.58 58.68L41.79 58.86L41.97 59.01L42.3 58.8L42.54 58.65L42.78 58.5L43.02 58.38L43.26 58.26L43.53 58.14L43.8 58.02L44.07 57.9L44.34 57.81L44.61 57.72L44.88 57.63L45.15 57.54L45.42 57.45L45.69 57.36L45.96 57.3L46.23 57.24L46.5 57.18L46.77 57.12L47.04 57.06L47.31 57.03L47.58 57L47.85 56.97L48.12 56.94L48.39 56.91L48.66 56.88H48.93H49.2H49.47H66.72L48.81 51.96L48.69 51.93L48.6 51.9L48.48 51.87L48.39 51.84L48.3 51.78L48.21 51.72L48.12 51.66L48.03 51.6L47.94 51.54L47.85 51.48L47.76 51.39L47.7 51.3L47.64 51.21L47.58 51.12L47.52 51.03L47.46 50.94L47.4 50.85L47.34 50.76L47.28 50.67L47.25 50.58L47.22 50.46L47.19 50.37L47.16 50.25L47.13 50.13L47.1 50.01V49.89V49.77V49.65V49.53V49.41V49.29L47.13 49.17L47.16 49.05L47.19 48.93L47.22 48.81L47.25 48.69L47.28 48.6L47.34 48.51L47.4 48.42L47.46 48.33L47.52 48.24L47.58 48.15L47.64 48.06L47.7 47.97L47.76 47.88L47.85 47.82L47.94 47.76L48.03 47.7L48.12 47.64L48.21 47.58L48.3 47.52L48.39 47.46L48.48 47.4L48.6 47.37L48.69 47.34L48.81 47.31L48.93 47.28L49.05 47.25L49.17 47.22H49.29H49.41H49.53H112.5V37.5H49.59Z" fill="#201637"/>
</g>
</svg>
