<svg width="500" height="500" viewBox="0 0 500 500" fill="none" xmlns="http://www.w3.org/2000/svg">
<mask id="mask0_416_1470" style="mask-type:luminance" maskUnits="userSpaceOnUse" x="125" y="125" width="250" height="250">
<path d="M375 125H125V375H375V125Z" fill="white"/>
</mask>
<g mask="url(#mask0_416_1470)">
<path d="M337.2 254.4L337.6 254.5L338 254.6L338.3 254.8L338.6 255L338.9 255.2L339.2 255.4L339.5 255.6L339.8 255.8L340.1 256L340.4 256.2L340.7 256.5L340.9 256.8L341.1 257.1L341.3 257.4L341.5 257.7L341.7 258L341.9 258.3L342.1 258.6L342.2 258.9L342.3 259.2L342.4 259.6L342.5 260L342.6 260.4L342.7 260.8V261.2V261.6V262V262.4V262.8V263.2L342.6 263.6L342.5 264L342.4 264.4L342.3 264.7L342.2 265.1L342.1 265.4L341.9 265.7L341.7 266L341.5 266.3L341.3 266.6L341.1 266.9L340.9 267.2L340.7 267.5L340.4 267.8L340.1 268.1L339.8 268.3L339.5 268.5L339.2 268.7L338.9 268.9L338.6 269.1L338.3 269.3L338 269.5L337.6 269.6L337.2 269.7L336.8 269.8L336.4 269.9L336 270H335.6H335.2H334.8H335H335.4H336.1H336.8L337.5 269.9L338.2 269.8L338.9 269.7L339.6 269.6L340.3 269.5L341 269.4L341.7 269.2L342.4 269L343.1 268.8L343.7 268.6L344.3 268.4L344.9 268.1L345.5 267.8L346.1 267.5L346.7 267.2L347.3 266.9L347.9 266.6L348.5 266.2L349.1 265.8L349.7 265.4L350.3 265L350.8 264.6L351.3 264.2L351.8 263.8L352.3 263.3L352.8 262.8L353.3 262.3L353.8 261.8L354.2 261.3L354.6 260.8L355 260.3L355.4 259.8L355.8 259.3L356.2 258.7L356.6 258.1L356.9 257.5L357.2 256.9L357.5 256.3L357.8 255.7L358.1 255.1L358.4 254.5L358.7 253.9L358.9 253.3L359.1 252.7L359.3 252L359.5 251.3L359.7 250.6L359.9 249.9L360 249.2L360.1 248.5L360.2 247.8L360.3 247.1L360.4 246.4V245.7V245V244.3V243.6V242.9V242.2L360.3 241.5L360.2 240.8L360.1 240.1L360 239.4L359.9 238.7L359.7 238L359.6 237.5H335.3H334.8H277.3L337 253.9L337.2 254.4Z" fill="#201637"/>
<path d="M375 260.4L374.9 259.5L374.8 258.7L374.7 257.8L374.6 256.9L374.5 256.1L374.4 255.3L374.2 254.5L374 253.7L373.8 252.9L373.6 252.1L373.4 251.3L373.2 250.5L372.9 249.7L372.6 248.9L372.3 248.1L372 247.3L371.7 246.5L371.4 245.7L371 244.9L370.6 244.1L370.2 243.3L369.8 242.5L369.4 241.8L369 241.1L368.5 240.4L368 239.7L367.5 239L367 238.3L366.8 238.1H359.3L359.4 238.6L359.6 239.3L359.7 240L359.8 240.7L359.9 241.4L360 242.1L360.1 242.8V243.5V244.2V244.9V245.6V246.3V247L360 247.7L359.9 248.4L359.8 249.1L359.7 249.8L359.6 250.5L359.4 251.2L359.2 251.9L359 252.6L358.8 253.3L358.6 253.9L358.4 254.5L358.1 255.1L357.8 255.7L357.5 256.3L357.2 256.9L356.9 257.5L356.6 258.1L356.2 258.7L355.8 259.3L355.4 259.9L355 260.4L354.6 260.9L354.2 261.4L353.8 261.9L353.3 262.4L352.8 262.9L352.3 263.4L351.8 263.9L351.3 264.4L350.8 264.8L350.3 265.2L349.8 265.6L349.2 266L348.6 266.4L348 266.8L347.4 267.2L346.8 267.5L346.2 267.8L345.6 268.1L345 268.4L344.4 268.7L343.8 269L343.2 269.2L342.6 269.4L342 269.6L341.3 269.8L340.6 270L339.9 270.1L339.2 270.2L338.5 270.3L337.8 270.4L337.1 270.5L336.4 270.6H335.7H335H334.3H125V302.9H334.7H335.6H336.4L337.3 302.8L338.2 302.7L339.1 302.6L339.9 302.5L340.8 302.4L341.6 302.3L342.4 302.2L343.2 302L344 301.8L344.8 301.6L345.6 301.4L346.4 301.2L347.2 301L348 300.7L348.8 300.4L349.6 300.1L350.4 299.8L351.2 299.5L352 299.1L352.8 298.7L353.6 298.3L354.4 297.9L355.1 297.5L355.8 297.1L356.5 296.6L357.2 296.1L357.9 295.6L358.6 295.1L359.3 294.6L360 294.1L360.7 293.5L361.4 292.9L362 292.3L362.6 291.7L363.2 291.1L363.8 290.5L364.4 289.9L365 289.3L365.6 288.7L366.1 288L366.6 287.3L367.1 286.6L367.6 285.9L368.1 285.2L368.6 284.5L369.1 283.8L369.5 283.1L369.9 282.4L370.3 281.7L370.7 280.9L371.1 280.1L371.5 279.3L371.8 278.5L372.1 277.7L372.4 276.9L372.7 276.1L373 275.3L373.3 274.5L373.5 273.7L373.7 272.9L373.9 272.1L374.1 271.3L374.3 270.5L374.5 269.7L374.6 268.9L374.7 268L374.8 267.2L374.9 266.3L375 265.4L375.1 264.6V263.7V262.8V261.9L375 260.4Z" fill="#0DC09D"/>
<path d="M162.8 245.499L162.4 245.399L162 245.299L161.7 245.099L161.4 244.899L161.1 244.699L160.8 244.499L160.5 244.299L160.2 244.099L159.9 243.899L159.6 243.699L159.3 243.399L159.1 243.099L158.9 242.799L158.7 242.499L158.5 242.199L158.3 241.899L158.1 241.599L157.9 241.299L157.8 240.999L157.7 240.599L157.6 240.199L157.5 239.799L157.4 239.399L157.3 238.999V238.599V238.199V237.799V237.399V236.999V236.599L157.4 236.199L157.5 235.799L157.6 235.399L157.7 234.999L157.8 234.599L157.9 234.299L158.1 233.999L158.3 233.699L158.5 233.399L158.7 233.099L158.9 232.799L159.1 232.499L159.3 232.199L159.6 231.899L159.9 231.599L160.2 231.399L160.5 231.199L160.8 230.999L161.1 230.799L161.4 230.599L161.7 230.399L162 230.299L162.4 230.199L162.8 230.099L163.2 229.999L163.6 229.899L164 229.799L164.4 229.699H164.8H165.2H165.3H164.9H164.2L163.5 229.799L162.8 229.899L162.1 229.999L161.4 230.099L160.7 230.199L160 230.299L159.3 230.499L158.6 230.699L157.9 230.899L157.2 231.099L156.6 231.299L155.9 231.499L155.3 231.799L154.7 232.099L154.1 232.399L153.5 232.699L152.9 232.999L152.3 233.299L151.7 233.699L151.1 234.099L150.5 234.499L149.9 234.899L149.3 235.299L148.8 235.699L148.3 236.099L147.8 236.599L147.3 237.099L146.8 237.599L146.3 238.099L145.8 238.599L145.3 239.099L144.9 239.599L144.5 240.099L144.1 240.699L143.7 241.299L143.3 241.899L142.9 242.499L142.6 243.099L142.3 243.699L142 244.299L141.7 244.899L141.4 245.499L141.1 246.099L140.9 246.699L140.7 247.299L140.5 247.999L140.3 248.699L140.1 249.399L139.9 250.099L139.8 250.799L139.7 251.499L139.6 252.199L139.5 252.899L139.4 253.599V254.299V254.999V255.699V256.399V257.099V257.799L139.5 258.499L139.6 259.199L139.7 259.899L139.8 260.599L139.9 261.299L140.1 261.999L140.2 262.499H164.5H165H222.5L162.8 246.099V245.499Z" fill="#201637"/>
<path d="M125 239.6V240.5L125.1 241.4L125.2 242.3L125.3 243.1L125.4 243.9L125.5 244.7L125.7 245.6L125.9 246.4L126.1 247.2L126.3 248L126.5 248.8L126.8 249.6L127.1 250.4L127.4 251.2L127.7 252L128 252.8L128.3 253.6L128.6 254.4L129 255.2L129.4 256L129.8 256.8L130.2 257.6L130.6 258.3L131 259L131.5 259.7L132 260.4L132.5 261.1L133 261.8L133.2 262H140.7L140.6 261.5L140.4 260.8L140.3 260.1L140.2 259.4L140.1 258.7L140 258L139.9 257.3L139.8 256.6V255.9V255.2V254.5V253.8L139.9 253.1L140 252.4L140.1 251.7L140.2 251L140.3 250.3L140.4 249.6L140.6 248.9L140.8 248.2L141 247.5L141.2 246.8L141.4 246.2L141.6 245.6L141.9 245L142.2 244.4L142.5 243.8L142.8 243.2L143.1 242.6L143.4 242L143.8 241.4L144.2 240.8L144.6 240.2L145 239.6L145.4 239.1L145.8 238.6L146.3 238.1L146.8 237.6L147.3 237.1L147.8 236.6L148.3 236.1L148.8 235.6L149.3 235.2L149.8 234.8L150.4 234.4L151 234L151.6 233.6L152.2 233.2L152.8 232.8L153.4 232.5L154 232.2L154.6 231.9L155.2 231.6L155.8 231.3L156.4 231L157.1 230.8L157.7 230.6L158.4 230.4L159.1 230.2L159.8 230L160.5 229.8L161.2 229.7L161.9 229.6L162.6 229.5L163.3 229.4L164 229.3L164.7 229.2H165.4H166.1H375V197H165.3H164.4H163.5L162.6 197.1L161.7 197.2L160.8 197.3L160 197.4L159.1 197.5L158.3 197.6L157.5 197.8L156.6 198L155.8 198.2L155 198.4L154.2 198.6L153.4 198.8L152.6 199L151.8 199.3L151 199.6L150.2 199.9L149.4 200.2L148.6 200.5L147.8 200.9L147 201.3L146.2 201.7L145.4 202.1L144.7 202.5L144 202.9L143.3 203.4L142.6 203.9L142 205L141.3 205.5L140.6 206L139.9 206.5L139.2 207L138.5 207.6L137.9 208.2L137.3 208.8L136.7 209.4L136.1 210L135.5 210.6L134.9 211.2L134.3 211.9L133.8 212.6L133.3 213.3L132.8 214L132.3 214.7L131.8 215.4L131.3 216.1L130.8 216.8L130.4 217.5L130 218.2L129.6 218.9L129.2 219.7L128.8 220.5L128.4 221.3L128.1 222.1L127.8 222.9L127.5 223.7L127.2 224.5L126.9 225.3L126.6 226.1L126.3 226.9L126.1 227.7L125.9 228.5L125.7 229.3L125.5 230.1L125.3 230.9L125.2 231.7L125.1 232.6L125 233.5L124.9 234.4L124.8 235.2V236V236.9V237.8V238.7L125 239.6Z" fill="#0DC09D"/>
<path d="M162.8 173L162.4 172.9L162 172.7L161.7 172.6L161.4 172.4L161.1 172.2L160.8 172L160.5 171.8L160.2 171.6L159.9 171.4L159.6 171.2L159.4 170.9L159.2 170.6L159 170.3L158.8 170L158.6 169.7L158.4 169.4L158.2 169.1L158 168.8L157.9 168.5L157.8 168.1L157.7 167.8L157.6 167.4L157.5 167L157.4 166.6L157.3 166.2V165.8V165.4V165V164.6L157.4 164.2L157.5 163.8L157.6 163.4L157.7 163L157.8 162.6L157.9 162.3L158 162L158.2 161.7L158.4 161.4L158.6 161.1L158.8 160.8L159 160.5L159.2 160.2L159.4 159.9L159.6 159.6L159.9 159.4L160.2 159.2L160.5 159L160.8 158.8L161.1 158.6L161.4 158.4L161.7 158.2L162 158L162.4 157.9L162.8 157.8L163.2 157.7L163.6 157.6L164 157.5L164.4 157.4H164.8H165.2H165.3H164.9H164.2H163.5L162.8 157.5L162.1 157.6L161.4 157.7L160.7 157.8L160 157.9L159.3 158L158.6 158.2L157.9 158.4L157.2 158.6L156.6 158.8L156 159L155.4 159.2L154.8 159.5L154.2 159.8L153.6 160.1L153 160.4L152.4 160.7L151.8 161.1L151.2 161.5L150.6 161.9L150 162.3L149.4 162.7L148.9 163.1L148.4 163.5L147.9 163.9L147.4 164.4L146.9 164.9L146.4 165.4L146 166L145.5 166.5L145.1 167L144.7 167.6L144.3 168.1L143.9 168.7L143.5 169.3L143.1 169.9L142.8 170.5L142.5 171.1L142.2 171.7L141.9 172.3L141.6 172.9L141.3 173.5L141.1 174.1L140.9 174.7L140.7 175.3L140.5 176L140.3 176.7L140.1 177.4L140 178.1L139.9 178.8L139.8 179.5L139.7 180.2L139.6 180.9V181.6V182.3V183V183.7V184.4V185.1L139.7 185.8L139.8 186.5L139.9 187.2L140 187.9L140.1 188.6L140.3 189.3L140.5 190L140.7 190.6L140.9 191.3L141.1 191.9L141.3 192.5L141.6 193.1L141.9 193.7L142.2 194.3L142.5 194.9L142.7 195.2L143.5 194.8L144.3 194.4L145.2 194L146.1 193.6L147 193.2L147.9 192.9L148.8 192.6L149.7 192.3L150.6 192L151.5 191.7L152.4 191.4L153.3 191.2L154.2 191L155.1 190.8L156 190.6L156.9 190.4L157.8 190.3L158.7 190.2L159.6 190.1L160.5 190L161.4 189.9L162.3 189.8H163.2H164.2H165.1H222.6L162.9 173.4L162.8 173Z" fill="#201637"/>
<path d="M334.7 342.7H335.4H336.1H336.8L337.5 342.6L338.2 342.5L338.9 342.4L339.6 342.3L340.3 342.2L341 342.1L341.7 341.9L342.4 341.7L343.1 341.5L343.7 341.3L344.3 341.1L344.9 340.8L345.5 340.5L346.1 340.2L346.7 339.9L347.3 339.6L347.9 339.3L348.5 338.9L349.1 338.5L349.7 338.1L350.3 337.7L350.8 337.3L351.3 336.9L351.8 336.4L352.3 335.9L352.8 335.4L353.3 334.9L353.8 334.4L354.3 333.9L354.7 333.4L355.1 332.9L355.5 332.3L355.9 331.7L356.3 331.1L356.7 330.5L357 329.9L357.3 329.3L357.6 328.7L357.9 328.1L358.2 327.5L358.5 326.9L358.8 326.3L359 325.7L359.2 325L359.4 324.4L359.6 323.7L359.8 323L360 322.3L360.1 321.6L360.2 320.9L360.3 320.2L360.4 319.5L360.5 318.8V318.1V317.4V316.7V316V315.3V314.6L360.4 313.9L360.3 313.2L360 313L359.9 312.3L359.8 311.6L359.6 310.9L359.4 310.2L359.2 309.5L359 309L358.8 308.4L358.6 307.8L358.3 307.2L358 306.6L357.7 306L357.4 305.4L357.2 305L356.4 305.4L355.6 305.8L354.8 306.2L353.9 306.6L353 307L352.1 307.4L351.2 307.7L350.3 308L349.4 308.3L348.5 308.6L347.6 308.9L346.7 309.1L345.8 309.3L344.9 309.5L344 309.7L343.1 309.9L342.2 310.1L341.3 310.2L340.4 310.3L339.5 310.4L338.6 310.5L337.7 310.6H336.8H335.9H335H277.5L337.2 327L337.6 327.1L338 327.2L338.4 327.3L338.7 327.5L339 327.7L339.3 327.9L339.6 328.1L339.9 328.3L340.2 328.5L340.5 328.7L340.8 328.9L341.1 329.2L341.3 329.5L341.5 329.8L341.7 330.1L341.9 330.4L342.1 330.7L342.3 331L342.5 331.3L342.6 331.6L342.7 331.9L342.8 332.3L342.9 332.7L343 333.1L343.1 333.5V333.9V334.3V334.7V335.1V335.5V335.9L343 336.3L342.9 336.7L342.8 337.1L342.7 337.5L342.6 337.9L342.5 338.2L342.3 338.5L342.1 338.8L341.9 339.1L341.7 339.4L341.5 339.7L341.3 340L341.1 340.3L340.8 340.6L340.5 340.9L340.2 341.1L339.9 341.3L339.6 341.5L339.3 341.7L339 341.9L338.7 342.1L338.4 342.3L338 342.4L337.6 342.5L337.2 342.6L336.8 342.7L336.4 342.8H336H335.6H335.2L334.7 342.7Z" fill="#201637"/>
<path d="M375 332.999V332.099L374.9 331.299L374.8 330.399L374.7 329.599L374.6 328.799L374.5 327.999L374.4 327.199L374.2 326.399L374 325.599L373.8 324.799L373.6 323.999L373.4 323.199L373.1 322.399L372.8 321.599L372.5 320.799L372.2 319.999L371.9 319.199L371.6 318.399L371.2 317.599L370.8 316.799L370.4 315.999L370 315.199L369.6 314.499L369.1 313.799L368.6 313.099L368.1 312.399L367.6 311.699L367.1 310.999L366.6 310.299L366.1 309.599L365.6 308.899L365 308.299L364.4 307.699L363.8 307.099L363.2 306.499L362.6 305.899L362 304.999L361.4 304.399L360.7 303.799L360 303.199L359.1 303.799L358.3 304.299L357.4 304.799L357.3 304.899L357.5 305.299L357.8 305.899L358.1 306.499L358.4 307.099L358.7 307.699L358.9 308.299L359.1 308.899L359.3 309.599L359.5 310.299L359.7 310.999L359.9 311.699L360 312.399L360.1 313.099L360.2 313.799L360.3 314.499L360.4 315.199V315.899V316.599V317.299V317.999V318.699V319.399L360.3 320.099L360.2 320.799L360.1 321.499L360 322.199L359.9 322.899L359.7 323.599L359.5 324.299L359.3 324.999L359.1 325.599L358.9 326.299L358.7 326.899L358.4 327.499L358.1 328.099L357.8 328.699L357.5 329.299L357.2 329.899L356.9 330.499L356.5 331.099L356.1 331.699L355.7 332.299L355.3 332.799L354.9 333.299L354.5 333.799L354 333.999L353.5 334.499L353 334.999L352.5 335.499L352 335.999L351.5 336.499L351 336.999L350.5 337.399L350 337.799L349.4 338.199L348.8 338.599L348.2 338.999L347.6 339.399L347 339.699L346.4 339.999L345.8 340.299L345.2 340.599L344.6 340.899L344 340.999L343.4 341.199L342.7 341.399L342.1 341.599L341.4 341.799L340.7 341.999L340 342.099L339.3 342.199L338.6 342.299L337.9 342.399L337.2 342.499L336.5 342.599H335.8H335.1H334.4H125V374.999H334.7H335.6H336.4L337.3 374.899L338.2 374.799L339.1 374.699L340 374.599L340.9 374.499L341.7 374.399L342.5 374.299L343.3 374.099L344.1 373.899L344.9 373.699L345.7 373.499L346.5 373.299L347.3 373.099L348.1 372.799L348.9 372.499L349.7 372.199L350.5 371.899L351.3 371.599L352.1 371.199L352.9 370.799L353.7 370.399L354.4 369.999L355.2 369.599L355.9 369.199L356.6 368.699L357.3 368.199L358 367.699L358.7 367.199L359.4 366.699L360.1 366.199L360.8 365.699L361.5 365.099L362.1 364.499L362.7 363.899L363.3 363.299L363.9 362.699L364.5 362.099L365.1 361.499L365.7 360.899L366.2 360.199L366.7 359.499L367.2 358.799L367.7 358.099L368.2 357.399L368.7 356.699L369.2 355.999L369.7 355.299L370.1 354.599L370.5 353.799L370.9 352.999L371.3 352.199L371.7 351.399L372 350.599L372.3 349.799L372.6 348.999L372.9 348.199L373.2 347.399L373.5 346.599L373.7 345.799L373.9 344.999L374.1 344.199L374.3 343.399L374.5 342.599L374.6 341.699L374.7 340.899L374.8 339.999L374.9 339.199L375 338.299L375.1 337.399V336.599V335.699V334.799V333.899L375 332.999Z" fill="#0DC09D"/>
<path d="M125 167V167.9L125.1 168.7L125.2 169.6L125.3 170.4L125.4 171.2L125.5 172L125.7 172.8L125.9 173.6L126.1 174.4L126.3 175.2L126.5 176L126.7 176.8L127 177.6L127.3 178.4L127.6 179.2L127.9 180L128.2 180.8L128.6 181.6L129 182.4L129.4 183.2L129.8 184L130.2 184.8L130.6 185.5L131.1 186.2L131.6 186.9L132.1 187.6L132.6 188.3L133.1 189L133.6 189.7L134.1 190.4L134.6 191.1L135.2 191.7L135.8 192.3L136.4 192.9L137 193.5L137.6 194.1L138.2 194.7L138.8 195.3L139.5 195.9L140.2 196.4L141.1 195.8L141.9 195.3L142.8 194.8L142.9 194.7L142.7 194.3L142.4 193.7L142.1 193.1L141.8 192.5L141.5 191.9L141.3 191.3L141 191L140.8 190.3L140.6 189.7L140.4 189L140.2 188.3L140.1 187.6L140 187L139.9 186.3L139.8 185.6L139.7 184.9L139.6 184.2V183.5V182.8V182.1V181.4L139.7 180.7L139.8 180L139.9 179.3L140 178.6L140.1 177.9L140.2 177.2L140.4 176.5L140.6 175.8L140.8 175.1L141 174.5L141.2 173.9L141.4 173.3L141.7 172.7L142 172.1L142.3 171.5L142.6 170.9L142.9 170.3L143.2 169.7L143.6 169.1L144 168.5L144.4 167.9L144.8 167.4L145.2 166.8L145.6 166.3L146.1 165.8L146.6 165.3L147.1 164.8L147.6 164.3L148.1 163.8L148.6 163.4L149.1 162.9L149.6 162.5L150.2 162.1L150.8 161.7L151.4 161.3L152 160.9L152.6 160.5L153.2 160.2L153.8 159.9L154.4 159.6L155 159.3L155.6 159L156.2 158.8L156.9 158.6L157.5 158.4L158.2 158.2L158.9 158L159.6 157.8L160.3 157.7L161 157.6L161.7 157.5L162.4 157.4L163.1 157.3L163.8 157.2L164.5 157.1H165.2H165.9H375V125H165.3H164.4H163.5H162.6L161.7 125.1L160.8 125.2L159.9 125.3L159.1 125.4L158.2 125.5L157.4 125.7L156.6 125.9L155.8 126.1L155 126.3L154.2 126.5L153.4 126.7L152.6 126.9L151.8 127.2L151 127.5L150.2 127.8L149.4 128.1L148.6 128.4L147.8 128.8L147 129.2L146.2 129.6L145.4 130L144.7 130.4L144 130.8L143.3 131.3L142.6 131.8L141.9 132.3L141.2 132.8L140.5 133.3L139.8 133.8L139.1 134.3L138.4 134.8L137.8 135.4L137.2 136L136.6 136.6L136 137.2L135.4 137.8L134.8 138.4L134.2 139.1L134 140L133.5 140.7L133 141.4L132.5 142.1L132 142.8L131.5 143.5L131 144.2L130.5 144.9L130.1 145.6L129.7 146.4L129.3 147.1L128.9 147.9L128.5 148.7L128.1 149.5L127.8 150.3L127.5 151.1L127.2 151.9L126.9 152.7L126.6 153.5L126.4 154.3L126.2 155.1L126 155.9L125.8 156.7L125.6 157.5L125.4 158.3L125.3 159.2L125.2 160L125.1 160.8L125 161.6L124.9 162.5V163.3V164.1V165V165.9L125 167Z" fill="#0DC09D"/>
</g>
</svg>
