<svg width="1516" height="500" viewBox="0 0 1516 500" fill="none" xmlns="http://www.w3.org/2000/svg">
<mask id="mask0_416_1522" style="mask-type:luminance" maskUnits="userSpaceOnUse" x="125" y="125" width="250" height="250">
<path d="M375 125H125V375H375V125Z" fill="white"/>
</mask>
<g mask="url(#mask0_416_1522)">
<path d="M337.199 254.4L337.599 254.5L337.999 254.6L338.299 254.8L338.599 255L338.899 255.2L339.199 255.4L339.499 255.6L339.799 255.8L340.099 256L340.399 256.2L340.699 256.5L340.899 256.8L341.099 257.1L341.299 257.4L341.499 257.7L341.699 258L341.899 258.3L342.099 258.6L342.199 258.9L342.299 259.2L342.399 259.6L342.499 260L342.599 260.4L342.699 260.8V261.2V261.6V262V262.4V262.8V263.2L342.599 263.6L342.499 264L342.399 264.4L342.299 264.7L342.199 265.1L342.099 265.4L341.899 265.7L341.699 266L341.499 266.3L341.299 266.6L341.099 266.9L340.899 267.2L340.699 267.5L340.399 267.8L340.099 268.1L339.799 268.3L339.499 268.5L339.199 268.7L338.899 268.9L338.599 269.1L338.299 269.3L337.999 269.5L337.599 269.6L337.199 269.7L336.799 269.8L336.399 269.9L335.999 270H335.599H335.199H334.799H334.999H335.399H336.099H336.799L337.499 269.9L338.199 269.8L338.899 269.7L339.599 269.6L340.299 269.5L340.999 269.4L341.699 269.2L342.399 269L342.999 268.8L343.599 268.6L344.199 268.4L344.799 268.1L345.399 267.8L345.999 267.5L346.599 267.2L347.199 266.9L347.799 266.6L348.399 266.2L348.999 265.8L349.599 265.4L350.199 265L350.699 264.6L351.199 264.2L351.699 263.8L352.199 263.3L352.699 262.8L353.199 262.3L353.699 261.8L354.199 261.3L354.599 260.8L354.999 260.3L355.399 259.8L355.799 259.3L356.199 258.7L356.599 258.1L356.999 257.5L357.299 256.9L357.599 256.3L357.899 255.7L358.199 255.1L358.499 254.5L358.799 253.9L358.999 253.3L359.199 252.7L359.399 252L359.599 251.3L359.799 250.6L359.899 249.9L359.999 249.2L360.099 248.5L360.199 247.8L360.299 247.1L360.399 246.4L360.499 245.7V245V244.3V243.6V242.9L360.399 242.2L360.299 241.5L360.199 240.8L360.099 240.1L359.999 239.4L359.899 238.7L359.799 238L359.699 237.5H335.399H334.899H277.399L337.099 253.9L337.199 254.4Z" fill="#201637"/>
<path d="M375 260.4L374.9 259.5L374.8 258.7L374.7 257.8L374.6 256.9L374.5 256.1L374.4 255.3L374.2 254.5L374 253.7L373.8 252.9L373.6 252.1L373.4 251.3L373.2 250.5L372.9 249.7L372.6 248.9L372.3 248.1L372 247.3L371.7 246.5L371.4 245.7L371 244.9L370.6 244.1L370.2 243.3L369.8 242.5L369.4 241.8L369 241.1L368.5 240.4L368 239.7L367.5 239L367 238.3L366.8 238.1H359.3L359.4 238.6L359.6 239.3L359.7 240L359.8 240.7L359.9 241.4L360 242.1L360.1 242.8V243.5V244.2V244.9V245.6V246.3V247L360 247.7L359.9 248.4L359.8 249.1L359.7 249.8L359.6 250.5L359.4 251.2L359.2 251.9L359 252.6L358.8 253.3L358.6 253.9L358.4 254.5L358.1 255.1L357.8 255.7L357.5 256.3L357.2 256.9L356.9 257.5L356.6 258.1L356.2 258.7L355.8 259.3L355.4 259.9L355 260.4L354.6 260.9L354.2 261.4L353.8 261.9L353.3 262.4L352.8 262.9L352.3 263.4L351.8 263.9L351.3 264.4L350.8 264.8L350.3 265.2L349.8 265.6L349.2 266L348.6 266.4L348 266.8L347.4 267.2L346.8 267.5L346.2 267.8L345.6 268.1L345 268.4L344.4 268.7L343.8 269L343.2 269.2L342.6 269.4L342 269.6L341.3 269.8L340.6 270L339.9 270.1L339.2 270.2L338.5 270.3L337.8 270.4L337.1 270.5L336.4 270.6H335.7H335H334.3H125V302.9H334.7H335.6H336.4L337.3 302.8L338.2 302.7L339.1 302.6L339.9 302.5L340.8 302.4L341.6 302.3L342.4 302.2L343.2 302L344 301.8L344.8 301.6L345.6 301.4L346.4 301.2L347.2 301L348 300.7L348.8 300.4L349.6 300.1L350.4 299.8L351.2 299.5L352 299.1L352.8 298.7L353.6 298.3L354.4 297.9L355.1 297.5L355.8 297.1L356.5 296.6L357.2 296.1L357.9 295.6L358.6 295.1L359.3 294.6L360 294.1L360.7 293.5L361.4 292.9L362 292.3L362.6 291.7L363.2 291.1L363.8 290.5L364.4 289.9L365 289.3L365.6 288.7L366.1 288L366.6 287.3L367.1 286.6L367.6 285.9L368.1 285.2L368.6 284.5L369.1 283.8L369.5 283.1L369.9 282.4L370.3 281.7L370.7 280.9L371.1 280.1L371.5 279.3L371.8 278.5L372.1 277.7L372.4 276.9L372.7 276.1L373 275.3L373.3 274.5L373.5 273.7L373.7 272.9L373.9 272.1L374.1 271.3L374.3 270.5L374.5 269.7L374.6 268.9L374.7 268L374.8 267.2L374.9 266.3L375 265.4L375.1 264.6V263.7V262.8V261.9L375 260.4Z" fill="#0DC09D"/>
<path d="M162.8 245.499L162.4 245.399L162 245.299L161.7 245.099L161.4 244.899L161.1 244.699L160.8 244.499L160.5 244.299L160.2 244.099L159.9 243.899L159.6 243.699L159.3 243.399L159.1 243.099L158.9 242.799L158.7 242.499L158.5 242.199L158.3 241.899L158.1 241.599L157.9 241.299L157.8 240.999L157.7 240.599L157.6 240.199L157.5 239.799L157.4 239.399L157.3 238.999V238.599V238.199V237.799V237.399V236.999V236.599L157.4 236.199L157.5 235.799L157.6 235.399L157.7 234.999L157.8 234.599L157.9 234.299L158.1 233.999L158.3 233.699L158.5 233.399L158.7 233.099L158.9 232.799L159.1 232.499L159.3 232.199L159.6 231.899L159.9 231.599L160.2 231.399L160.5 231.199L160.8 230.999L161.1 230.799L161.4 230.599L161.7 230.399L162 230.299L162.4 230.199L162.8 230.099L163.2 229.999L163.6 229.899L164 229.799L164.4 229.699H164.8H165.2H165.3H164.9H164.2L163.5 229.799L162.8 229.899L162.1 229.999L161.4 230.099L160.7 230.199L160 230.299L159.3 230.499L158.6 230.699L157.9 230.899L157.2 231.099L156.6 231.299L155.9 231.499L155.3 231.799L154.7 232.099L154.1 232.399L153.5 232.699L152.9 232.999L152.3 233.299L151.7 233.699L151.1 234.099L150.5 234.499L149.9 234.899L149.3 235.299L148.8 235.699L148.3 236.099L147.8 236.599L147.3 237.099L146.8 237.599L146.3 238.099L145.8 238.599L145.3 239.099L144.9 239.599L144.5 240.099L144.1 240.699L143.7 241.299L143.3 241.899L142.9 242.499L142.6 243.099L142.3 243.699L142 244.299L141.7 244.899L141.4 245.499L141.1 246.099L140.9 246.699L140.7 247.299L140.5 247.999L140.3 248.699L140.1 249.399L139.9 250.099L139.8 250.799L139.7 251.499L139.6 252.199L139.5 252.899L139.4 253.599L139.3 254.299V254.999V255.699V256.399V257.099L139.4 257.799L139.5 258.499L139.6 259.199L139.7 259.899L139.8 260.599L139.9 261.299L140.1 261.999L140.2 262.499H164.5H165H222.5L162.8 246.099V245.499Z" fill="#201637"/>
<path d="M125 239.6V240.5L125.1 241.4L125.2 242.3L125.3 243.1L125.4 243.9L125.5 244.7L125.7 245.6L125.9 246.4L126.1 247.2L126.3 248L126.5 248.8L126.8 249.6L127.1 250.4L127.4 251.2L127.7 252L128 252.8L128.3 253.6L128.6 254.4L129 255.2L129.4 256L129.8 256.8L130.2 257.6L130.6 258.3L131 259L131.5 259.7L132 260.4L132.5 261.1L133 261.8L133.2 262H140.7L140.6 261.5L140.4 260.8L140.3 260.1L140.2 259.4L140.1 258.7L140 258L139.9 257.3L139.8 256.6V255.9V255.2V254.5V253.8L139.9 253.1L140 252.4L140.1 251.7L140.2 251L140.3 250.3L140.4 249.6L140.6 248.9L140.8 248.2L141 247.5L141.2 246.8L141.4 246.2L141.6 245.6L141.9 245L142.2 244.4L142.5 243.8L142.8 243.2L143.1 242.6L143.4 242L143.8 241.4L144.2 240.8L144.6 240.2L145 239.6L145.4 239.1L145.8 238.6L146.3 238.1L146.8 237.6L147.3 237.1L147.8 236.6L148.3 236.1L148.8 235.6L149.3 235.2L149.8 234.8L150.4 234.4L151 234L151.6 233.6L152.2 233.2L152.8 232.8L153.4 232.5L154 232.2L154.6 231.9L155.2 231.6L155.8 231.3L156.4 231L157.1 230.8L157.7 230.6L158.4 230.4L159.1 230.2L159.8 230L160.5 229.8L161.2 229.7L161.9 229.6L162.6 229.5L163.3 229.4L164 229.3L164.7 229.2H165.4H166.1H375V197H165.3H164.4H163.5L162.6 197.1L161.7 197.2L160.8 197.3L160 197.4L159.1 197.5L158.3 197.6L157.5 197.8L156.6 198L155.8 198.2L155 198.4L154.2 198.6L153.4 198.8L152.6 199L151.8 199.3L151 199.6L150.2 199.9L149.4 200.2L148.6 200.5L147.8 200.9L147 201.3L146.2 201.7L145.4 202.1L144.7 202.5L144 202.9L143.3 203.4L142.6 203.9L142 205L141.3 205.5L140.6 206L139.9 206.5L139.2 207L138.5 207.6L137.9 208.2L137.3 208.8L136.7 209.4L136.1 210L135.5 210.6L134.9 211.2L134.3 211.9L133.8 212.6L133.3 213.3L132.8 214L132.3 214.7L131.8 215.4L131.3 216.1L130.8 216.8L130.4 217.5L130 218.2L129.6 218.9L129.2 219.7L128.8 220.5L128.4 221.3L128.1 222.1L127.8 222.9L127.5 223.7L127.2 224.5L126.9 225.3L126.6 226.1L126.3 226.9L126.1 227.7L125.9 228.5L125.7 229.3L125.5 230.1L125.3 230.9L125.2 231.7L125.1 232.6L125 233.5L124.9 234.4L124.8 235.2V236V236.9V237.8V238.7L125 239.6Z" fill="#0DC09D"/>
<path d="M162.8 173L162.4 172.9L162 172.7L161.7 172.6L161.4 172.4L161.1 172.2L160.8 172L160.5 171.8L160.2 171.6L159.9 171.4L159.6 171.2L159.3 170.9L159.1 170.6L158.9 170.3L158.7 170L158.5 169.7L158.3 169.4L158.1 169.1L157.9 168.8L157.8 168.5L157.7 168.1L157.6 167.8L157.5 167.4L157.4 167L157.3 166.6L157.2 166.2V165.8V165.4V165V164.6L157.3 164.2L157.4 163.8L157.5 163.4L157.6 163L157.7 162.6L157.8 162.3L157.9 162L158.1 161.7L158.3 161.4L158.5 161.1L158.7 160.8L158.9 160.5L159.1 160.2L159.3 159.9L159.6 159.6L159.9 159.4L160.2 159.2L160.5 159L160.8 158.8L161.1 158.6L161.4 158.4L161.7 158.2L162 158L162.4 157.9L162.8 157.8L163.2 157.7L163.6 157.6L164 157.5L164.4 157.4H164.8H165.2H165.3H164.9H164.2H163.5L162.8 157.5L162.1 157.6L161.4 157.7L160.7 157.8L160 157.9L159.3 158L158.6 158.2L157.9 158.4L157.2 158.6L156.6 158.8L156 159L155.4 159.2L154.8 159.5L154.2 159.8L153.6 160.1L153 160.4L152.4 160.7L151.8 161.1L151.2 161.5L150.6 161.9L150 162.3L149.4 162.7L148.9 163.1L148.4 163.5L147.9 163.9L147.4 164.4L146.9 164.9L146.4 165.4L146 166L145.5 166.5L145.1 167L144.7 167.6L144.3 168.1L143.9 168.7L143.5 169.3L143.1 169.9L142.8 170.5L142.5 171.1L142.2 171.7L141.9 172.3L141.6 172.9L141.3 173.5L141.1 174.1L140.9 174.7L140.7 175.3L140.5 176L140.3 176.7L140.1 177.4L140 178.1L139.9 178.8L139.8 179.5L139.7 180.2L139.6 180.9L139.5 181.6V182.3V183V183.7V184.4L139.6 185.1L139.7 185.8L139.8 186.5L139.9 187.2L140 187.9L140.1 188.6L140.3 189.3L140.5 190L140.7 190.6L140.9 191.3L141.1 191.9L141.3 192.5L141.6 193.1L141.9 193.7L142.2 194.3L142.5 194.9L142.7 195.2L143.5 194.8L144.3 194.4L145.2 194L146.1 193.6L147 193.2L147.9 192.9L148.8 192.6L149.7 192.3L150.6 192L151.5 191.7L152.4 191.4L153.3 191.2L154.2 191L155.1 190.8L156 190.6L156.9 190.4L157.8 190.3L158.7 190.2L159.6 190.1L160.5 190L161.4 189.9L162.3 189.8H163.2H164.2H165.1H222.6L162.9 173.4L162.8 173Z" fill="#201637"/>
<path d="M334.699 342.7H335.399H336.099H336.799L337.499 342.6L338.199 342.5L338.899 342.4L339.599 342.3L340.299 342.2L340.999 342.1L341.699 341.9L342.399 341.7L342.999 341.5L343.599 341.3L344.199 341.1L344.799 340.8L345.399 340.5L345.999 340.2L346.599 339.9L347.199 339.6L347.799 339.3L348.399 338.9L348.999 338.5L349.599 338.1L350.199 337.7L350.699 337.3L351.199 336.9L351.699 336.4L352.199 335.9L352.699 335.4L353.199 334.9L353.699 334.4L354.199 333.9L354.599 333.4L354.999 332.9L355.399 332.3L355.799 331.7L356.199 331.1L356.599 330.5L356.999 329.9L357.299 329.3L357.599 328.7L357.899 328.1L358.199 327.5L358.499 326.9L358.799 326.3L358.999 325.7L359.199 325L359.399 324.4L359.599 323.7L359.799 323L359.899 322.3L359.999 321.6L360.099 320.9L360.199 320.2L360.299 319.5L360.399 318.8V318.1V317.4V316.7V316V315.3V314.6L360.299 313.9L360.199 313.2L359.999 313L359.899 312.3L359.799 311.6L359.699 310.9L359.499 310.2L359.299 309.5L358.999 309L358.799 308.4L358.599 307.8L358.299 307.2L357.999 306.6L357.699 306L357.399 305.4L357.199 305L356.399 305.4L355.599 305.8L354.699 306.2L353.799 306.6L352.899 307L351.999 307.4L351.099 307.7L350.199 308L349.299 308.3L348.399 308.6L347.499 308.9L346.599 309.1L345.699 309.3L344.799 309.5L343.899 309.7L342.999 309.9L342.099 310.1L341.199 310.2L340.299 310.3L339.399 310.4L338.499 310.5L337.599 310.6H336.699H335.799H334.899H277.399L337.099 327L337.499 327.1L337.899 327.2L338.299 327.3L338.599 327.5L338.899 327.7L339.199 327.9L339.499 328.1L339.799 328.3L340.099 328.5L340.399 328.7L340.699 328.9L340.999 329.2L341.199 329.5L341.399 329.8L341.599 330.1L341.799 330.4L341.999 330.7L342.199 331L342.399 331.3L342.499 331.6L342.599 331.9L342.699 332.3L342.799 332.7L342.899 333.1L342.999 333.5V333.9V334.3V334.7V335.1V335.5V335.9L342.899 336.3L342.799 336.7L342.699 337.1L342.599 337.5L342.499 337.9L342.399 338.2L342.199 338.5L341.999 338.8L341.799 339.1L341.599 339.4L341.399 339.7L341.199 340L340.999 340.3L340.699 340.6L340.399 340.9L340.099 341.1L339.799 341.3L339.499 341.5L339.199 341.7L338.899 341.9L338.599 342.1L338.299 342.3L337.899 342.4L337.499 342.5L337.099 342.6L336.699 342.7L336.299 342.8H335.899H335.499H335.099L334.699 342.7Z" fill="#201637"/>
<path d="M375 332.999V332.099L374.9 331.299L374.8 330.399L374.7 329.599L374.6 328.799L374.5 327.999L374.4 327.199L374.2 326.399L374 325.599L373.8 324.799L373.6 323.999L373.4 323.199L373.1 322.399L372.8 321.599L372.5 320.799L372.2 319.999L371.9 319.199L371.6 318.399L371.2 317.599L370.8 316.799L370.4 315.999L370 315.199L369.6 314.499L369.1 313.799L368.6 313.099L368.1 312.399L367.6 311.699L367.1 310.999L366.6 310.299L366.1 309.599L365.6 308.899L365 308.299L364.4 307.699L363.8 307.099L363.2 306.499L362.6 305.899L362 304.999L361.4 304.399L360.7 303.799L360 303.199L359.1 303.799L358.3 304.299L357.4 304.799L357.3 304.899L357.5 305.299L357.8 305.899L358.1 306.499L358.4 307.099L358.7 307.699L358.9 308.299L359.1 308.899L359.3 309.599L359.5 310.299L359.7 310.999L359.9 311.699L360 312.399L360.1 313.099L360.2 313.799L360.3 314.499L360.4 315.199V315.899V316.599V317.299V317.999V318.699V319.399L360.3 320.099L360.2 320.799L360.1 321.499L360 322.199L359.9 322.899L359.7 323.599L359.5 324.299L359.3 324.999L359.1 325.599L358.9 326.299L358.7 326.899L358.4 327.499L358.1 328.099L357.8 328.699L357.5 329.299L357.2 329.899L356.9 330.499L356.5 331.099L356.1 331.699L355.7 332.299L355.3 332.799L354.9 333.299L354.5 333.799L354 333.999L353.5 334.499L353 334.999L352.5 335.499L352 335.999L351.5 336.499L351 336.999L350.5 337.399L350 337.799L349.4 338.199L348.8 338.599L348.2 338.999L347.6 339.399L347 339.699L346.4 339.999L345.8 340.299L345.2 340.599L344.6 340.899L344 340.999L343.4 341.199L342.7 341.399L342.1 341.599L341.4 341.799L340.7 341.999L340 342.099L339.3 342.199L338.6 342.299L337.9 342.399L337.2 342.499L336.5 342.599H335.8H335.1H334.4H125V374.999H334.7H335.6H336.4L337.3 374.899L338.2 374.799L339.1 374.699L340 374.599L340.9 374.499L341.7 374.399L342.5 374.299L343.3 374.099L344.1 373.899L344.9 373.699L345.7 373.499L346.5 373.299L347.3 373.099L348.1 372.799L348.9 372.499L349.7 372.199L350.5 371.899L351.3 371.599L352.1 371.199L352.9 370.799L353.7 370.399L354.4 369.999L355.2 369.599L355.9 369.199L356.6 368.699L357.3 368.199L358 367.699L358.7 367.199L359.4 366.699L360.1 366.199L360.8 365.699L361.5 365.099L362.1 364.499L362.7 363.899L363.3 363.299L363.9 362.699L364.5 362.099L365.1 361.499L365.7 360.899L366.2 360.199L366.7 359.499L367.2 358.799L367.7 358.099L368.2 357.399L368.7 356.699L369.2 355.999L369.7 355.299L370.1 354.599L370.5 353.799L370.9 352.999L371.3 352.199L371.7 351.399L372 350.599L372.3 349.799L372.6 348.999L372.9 348.199L373.2 347.399L373.5 346.599L373.7 345.799L373.9 344.999L374.1 344.199L374.3 343.399L374.5 342.599L374.6 341.699L374.7 340.899L374.8 339.999L374.9 339.199L375 338.299L375.1 337.399V336.599V335.699V334.799V333.899L375 332.999Z" fill="#0DC09D"/>
<path d="M124.999 167V167.9L125.099 168.7L125.199 169.6L125.299 170.4L125.399 171.2L125.499 172L125.699 172.8L125.899 173.6L126.099 174.4L126.299 175.2L126.499 176L126.699 176.8L126.999 177.6L127.299 178.4L127.599 179.2L127.899 180L128.199 180.8L128.599 181.6L128.999 182.4L129.399 183.2L129.799 184L130.199 184.8L130.599 185.5L131.099 186.2L131.599 186.9L132.099 187.6L132.599 188.3L133.099 189L133.599 189.7L134.099 190.4L134.599 191.1L135.199 191.7L135.799 192.3L136.399 192.9L136.999 193.5L137.599 194.1L138.199 194.7L138.799 195.3L139.499 195.9L140.199 196.4L141.099 195.8L141.899 195.3L142.799 194.8L142.899 194.7L142.699 194.3L142.399 193.7L142.099 193.1L141.799 192.5L141.499 191.9L141.299 191.3L140.999 191L140.799 190.3L140.599 189.7L140.399 189L140.199 188.3L140.099 187.6L139.999 187L139.899 186.3L139.799 185.6L139.699 184.9L139.599 184.2V183.5V182.8V182.1V181.4L139.699 180.7L139.799 180L139.899 179.3L139.999 178.6L140.099 177.9L140.199 177.2L140.399 176.5L140.599 175.8L140.799 175.1L140.999 174.5L141.199 173.9L141.399 173.3L141.699 172.7L141.999 172.1L142.299 171.5L142.599 170.9L142.899 170.3L143.199 169.7L143.599 169.1L143.999 168.5L144.399 167.9L144.799 167.4L145.199 166.8L145.599 166.3L146.099 165.8L146.599 165.3L147.099 164.8L147.599 164.3L148.099 163.8L148.599 163.4L149.099 162.9L149.599 162.5L150.199 162.1L150.799 161.7L151.399 161.3L151.999 160.9L152.599 160.5L153.199 160.2L153.799 159.9L154.399 159.6L154.999 159.3L155.599 159L156.199 158.8L156.899 158.6L157.499 158.4L158.199 158.2L158.899 158L159.599 157.8L160.299 157.7L160.999 157.6L161.699 157.5L162.399 157.4L163.099 157.3L163.799 157.2L164.499 157.1H165.199H165.899H374.999V125H165.299H164.399H163.499H162.599L161.699 125.1L160.799 125.2L159.899 125.3L159.099 125.4L158.199 125.5L157.399 125.7L156.599 125.9L155.799 126.1L154.999 126.3L154.199 126.5L153.399 126.7L152.599 126.9L151.799 127.2L150.999 127.5L150.199 127.8L149.399 128.1L148.599 128.4L147.799 128.8L146.999 129.2L146.199 129.6L145.399 130L144.699 130.4L143.999 130.8L143.299 131.3L142.599 131.8L141.899 132.3L141.199 132.8L140.499 133.3L139.799 133.8L139.099 134.3L138.399 134.8L137.799 135.4L137.199 136L136.599 136.6L135.999 137.2L135.399 137.8L134.799 138.4L134.199 139.1L133.999 140L133.499 140.7L132.999 141.4L132.499 142.1L131.999 142.8L131.499 143.5L130.999 144.2L130.499 144.9L130.099 145.6L129.699 146.4L129.299 147.1L128.899 147.9L128.499 148.7L128.099 149.5L127.799 150.3L127.499 151.1L127.199 151.9L126.899 152.7L126.599 153.5L126.399 154.3L126.199 155.1L125.999 155.9L125.799 156.7L125.599 157.5L125.399 158.3L125.299 159.2L125.199 160L125.099 160.8L124.999 161.6L124.899 162.5V163.3V164.1V165V165.9L124.999 167Z" fill="#0DC09D"/>
</g>
<path d="M519.1 327.9H455V302.7H519.1C529 302.7 536.7 300.8 542 296.9C547.4 293.1 550.1 288.1 550.1 282C550.1 275.9 547.6 271.5 542.5 268.6C537.4 265.8 529.9 263.4 520 261.6L509.7 259.8C499.6 258 490.3 255.3 482 251.9C473.7 248.5 467.1 243.7 462.2 237.6C457.3 231.5 454.9 223.7 454.9 214.2C454.9 200 460.2 189 470.7 181.2C481.2 173.4 495.2 169.5 512.6 169.5H575.2V195H512.6C504.1 195 497.4 196.6 492.5 199.7C487.6 202.8 485.2 207.2 485.2 212.9C485.2 219 487.6 223.4 492.3 226.3C497.1 229.1 503.5 231.3 511.6 232.7L522.2 234.5C532.9 236.3 542.8 238.9 551.7 242.1C560.6 245.3 567.7 250 572.8 256.1C578 262.2 580.5 270.3 580.5 280.4C580.5 295.4 574.9 307 563.8 315.4C553 323.7 538 327.9 519.1 327.9Z" fill="#201637"/>
<path d="M907.6 374V303.3H902.7C900.5 307.4 897.2 311.3 893 315C888.7 318.8 883.3 321.8 876.7 324.3C870.1 326.7 862 328 852.2 328C839.6 328 828.1 325 817.5 318.9C807 312.8 798.6 304.1 792.3 292.6C786 281.2 782.9 267.3 782.9 251.1V246.5C782.9 230.3 786.1 216.5 792.5 205C798.9 193.6 807.3 184.8 817.9 178.7C828.4 172.6 839.9 169.6 852.2 169.6C866.8 169.6 878 172.2 885.8 177.5C893.6 182.8 899.4 188.7 903.3 195.4H908.2V169.6H938.9V374H907.6ZM861.1 300.5C874.9 300.5 886.1 296.1 894.8 287.4C903.5 278.7 907.9 266.2 907.9 250V247.3C907.9 231.3 903.5 218.9 894.7 210.2C885.9 201.5 874.7 197.1 861.1 197.1C847.5 197.1 836.6 201.5 827.8 210.2C819 218.9 814.6 231.3 814.6 247.3V250C814.6 266.2 819 278.7 827.8 287.4C836.6 296.2 847.7 300.5 861.1 300.5Z" fill="#201637"/>
<path d="M753 245.5C753 230.3 750 217 743.9 205.7C737.8 194.4 729.4 185.5 718.5 179.1C707.6 172.7 695 169.5 680.7 169.5C666.3 169.5 652.9 172.7 641.8 179.2C636.2 182.4 631.3 186.3 626.9 190.8C626.4 191.4 625.8 191.9 625.3 192.5C623.7 194.3 622.2 196.1 620.8 198C618.9 200.6 617.2 203.3 615.6 206.2C609.2 217.7 606 231.3 606 246.9V250.5C606 266.1 609.2 279.7 615.6 291.2C622 302.7 630.8 311.7 642.2 318.1C653.5 324.5 666.8 327.7 682 327.7C695.4 327.7 706.5 325.6 715.4 321.3C724.3 317 731.4 311.8 736.7 305.5C738.2 303.7 739.5 302 740.8 300.3C744.2 295.9 746.9 291.6 749.1 287.5L723 274.1C719.8 281 715.1 287.1 709.2 292.3C703.2 297.6 694.4 300.2 682.6 300.2C670 300.2 659.5 296.3 651.1 288.5C650.6 288 650.1 287.5 649.6 287C649.1 286.5 648.6 286 648.2 285.4C647.1 284.1 646 282.8 645.1 281.3C641 275.2 638.7 267.9 638.1 259.4C638 258.6 638 257.8 638 257H753V245.5ZM658.7 233.3L642.7 249.3H637.4C637.3 244.7 637.4 238.8 638 233.3C638.3 231.2 638.7 229.2 639.2 227.3C639.7 225.4 640.3 223.5 641 221.8C643.4 215.9 646.9 211 651.5 206.9C658.9 200.4 668.5 197.2 680.2 197.2C692 197.2 701.5 200.4 708.8 206.9C716.1 213.4 720.2 222.2 721.3 233.3H658.7Z" fill="#201637"/>
<path d="M1116 245.5C1116 230.3 1113 217 1106.9 205.7C1100.8 194.4 1092.4 185.5 1081.5 179.1C1070.7 172.7 1058 169.5 1043.7 169.5C1029.4 169.5 1015.9 172.7 1004.8 179.2C999.2 182.4 994.3 186.3 989.9 190.8C989.4 191.4 988.8 191.9 988.3 192.5C986.7 194.3 985.2 196.1 983.8 198C981.9 200.6 980.2 203.3 978.6 206.2C972.2 217.7 969 231.3 969 246.9V250.5C969 266.1 972.2 279.7 978.6 291.2C985 302.7 993.8 311.7 1005.2 318.1C1016.5 324.5 1029.8 327.7 1045 327.7C1058.4 327.7 1069.5 325.6 1078.4 321.3C1087.3 317 1094.4 311.8 1099.7 305.5C1101.2 303.7 1102.5 302 1103.8 300.3C1107.2 295.9 1109.9 291.6 1112.1 287.5L1086 274.1C1082.8 281 1078.1 287.1 1072.2 292.3C1066.2 297.6 1057.4 300.2 1045.6 300.2C1033 300.2 1022.5 296.3 1014.1 288.5C1013.6 288 1013.1 287.5 1012.6 287C1012.1 286.5 1011.6 286 1011.2 285.4C1010.1 284.1 1009 282.8 1008.1 281.3C1004 275.2 1001.7 267.9 1001.1 259.4C1001 258.6 1001 257.8 1001 257H1116V245.5ZM1021.8 233.3L1005.8 249.3H1000.5C1000.4 244.7 1000.5 238.8 1001.1 233.3C1001.4 231.2 1001.8 229.2 1002.3 227.3C1002.8 225.4 1003.4 223.5 1004.1 221.8C1006.5 215.9 1010 211 1014.6 206.9C1022 200.4 1031.6 197.2 1043.3 197.2C1055.1 197.2 1064.6 200.4 1071.9 206.9C1079.2 213.4 1083.3 222.2 1084.4 233.3H1021.8Z" fill="#201637"/>
<path d="M1146 327.9V169.5H1176.7V187.1H1181.6C1184 180.8 1187.9 176.2 1193.3 173.3C1198.7 170.4 1205.3 168.9 1213.2 168.9H1231.1V197.2H1212C1201.9 197.2 1193.6 200 1187.1 205.6C1180.6 211.2 1177.4 219.7 1177.4 231.3V328L1146 327.9Z" fill="#201637"/>
<path d="M1382.2 226.3C1382.2 208 1376.6 193.8 1365.4 183.9C1354.2 173.9 1338.8 168.9 1319.3 168.9C1306.5 168.9 1295.6 170.9 1286.8 175C1278 179.1 1270.8 184.5 1265.4 191.2C1260 197.9 1256.1 205.2 1253.6 213.2L1282.9 222.7C1284.7 214.6 1288.5 207.9 1294.2 202.9C1299.9 197.8 1308.1 195.3 1318.9 195.3C1329.7 195.3 1338 198 1343.3 203.4C1348.6 208.8 1351.2 215.8 1351.2 224.3V250.3H1346.1L1329.8 234H1305.4C1288.9 234 1275.2 237.9 1264.3 245.8C1253.4 253.6 1248 265.2 1248 280.5C1248 290.7 1250.5 299.3 1255.5 306.4C1260.5 313.5 1267.2 318.9 1275.7 322.6C1284.2 326.3 1293.8 328.1 1304.5 328.1C1315.2 328.1 1323.2 326.6 1329.5 323.7C1335.8 320.8 1340.6 317.3 1343.8 313.3C1347.1 309.3 1349.5 305.7 1351.1 302.5H1356V328H1382L1382.2 226.3ZM1351.3 261.4C1351.3 274 1347.4 283.9 1339.5 291.2C1331.7 298.4 1321.6 302 1309.1 302C1299.9 302 1292.7 300 1287.4 295.9C1282.1 291.8 1279.5 286.3 1279.5 279.4C1279.5 272.5 1282.1 267.2 1287.1 263.7C1292.2 260.1 1298.9 258.4 1307.3 258.4H1351.3V261.4Z" fill="#201637"/>
</svg>
