<svg width="300" height="99" viewBox="0 0 300 99" fill="none" xmlns="http://www.w3.org/2000/svg">
<mask id="mask0_417_2192" style="mask-type:luminance" maskUnits="userSpaceOnUse" x="24" y="24" width="51" height="51">
<path d="M74.4539 24.75H24.8179V74.25H74.4539V24.75Z" fill="white"/>
</mask>
<g mask="url(#mask0_417_2192)">
<path d="M74.4539 65.9343L74.434 65.7561L74.4142 65.5977L74.3943 65.4195L74.3745 65.2413L74.3546 65.0829L74.3347 64.9047L74.3149 64.7463L74.2752 64.5681L74.2355 64.4097L74.1958 64.2513L74.1561 64.0929L74.1163 63.9345L74.0766 63.7761L74.0171 63.6177L73.9575 63.4593L73.898 63.3009L73.8384 63.1425L73.759 62.9841L73.6796 62.8257L73.6001 62.6673L73.5207 62.5089L73.4413 62.3505L73.3619 62.1921L73.2825 62.0535L73.1832 61.9149L73.0839 61.7763L72.9846 61.6377L72.8854 61.4991L72.7861 61.3605L72.6868 61.2219L72.5876 61.0833L72.4684 60.9843L72.3493 60.8655L72.2302 60.7467L72.1111 60.6279L71.9919 60.5091L71.8728 60.3903L71.7537 60.2715L71.6147 60.1527L71.4956 60.0537L71.2573 60.1923L71.0985 60.2913L70.9396 60.3705L70.7808 60.4497L70.622 60.5289L70.4631 60.6081L70.2844 60.6873L70.1058 60.7665L69.9271 60.8259L69.7484 60.8853L69.5697 60.9447L69.391 61.0041L69.2123 61.0635L69.0336 61.1229L68.8549 61.1625L68.6762 61.2021L68.4976 61.2417L68.3189 61.2813L68.1402 61.3209L67.9615 61.3407L67.7828 61.3605L67.6041 61.3803L67.4254 61.4001L67.2467 61.4199L67.068 61.4397L66.8893 61.4595H66.7107H66.532H55.1157L66.9688 64.7067L67.0482 64.7265L67.1276 64.7463L67.207 64.7661L67.2666 64.8057L67.3261 64.8453L67.3857 64.8849L67.4453 64.9245L67.5048 64.9641L67.5644 65.0037L67.624 65.0433L67.6835 65.0829L67.7431 65.1423L67.7828 65.2017L67.8225 65.2611L67.8622 65.3205L67.9019 65.3799L67.9416 65.4393L67.9813 65.4987L68.021 65.5581L68.0409 65.6175L68.0608 65.6769L68.0806 65.7561L68.1005 65.8353L68.1203 65.9145L68.1402 65.9937V66.0729V66.1521V66.2313V66.3105V66.3897V66.4689L68.1203 66.5481L68.1005 66.6273L68.0806 66.7065L68.0608 66.7659L68.0409 66.8451L68.021 66.9045L67.9813 66.9639L67.9416 67.0233L67.9019 67.0827L67.8622 67.1421L67.8225 67.2015L67.7828 67.2609L67.7431 67.3203L67.6835 67.3797L67.624 67.4391L67.5644 67.4787L67.5048 67.5183L67.4453 67.5579L67.3857 67.5975L67.3261 67.6371L67.2666 67.6767L67.207 67.6965L67.1276 67.7361L67.0482 67.7559L66.9886 67.7757L66.9092 67.7955L66.8298 67.8153L66.7504 67.8351H66.6709H66.5915H66.5121H24.8179V74.2503H66.4526H66.6312H66.8099H66.9886L67.1475 74.2305L67.3261 74.2107L67.485 74.1909L67.6637 74.1711L67.8225 74.1513L67.9813 74.1315L68.1402 74.0919L68.299 74.0523L68.4578 74.0127L68.6167 73.9731L68.7755 73.9335L68.9344 73.8741L69.0932 73.8147L69.252 73.7553L69.4109 73.6959L69.5697 73.6365L69.7285 73.5573L69.8874 73.4781L70.0462 73.3989L70.205 73.3197L70.3639 73.2405L70.5028 73.1613L70.6418 73.0623L70.7808 72.9633L70.9198 72.8643L71.0588 72.7653L71.1978 72.6663L71.3367 72.5673L71.4757 72.4683L71.6147 72.3693L71.7537 72.2703L71.8728 72.1515L71.9919 72.0327L72.1111 71.9139L72.2302 71.7951L72.3493 71.6763L72.4684 71.5575L72.5876 71.4189L72.6868 71.2803L72.7861 71.1417L72.8854 71.0031L72.9846 70.8645L73.0839 70.7259L73.1832 70.5873L73.2825 70.4487L73.3619 70.3101L73.4413 70.1517L73.5207 69.9933L73.6001 69.8349L73.6796 69.6765L73.759 69.5181L73.8384 69.3597L73.898 69.2013L73.9575 69.0429L74.0171 68.8845L74.0766 68.7261L74.1163 68.5677L74.1561 68.4093L74.1958 68.2509L74.2355 68.0925L74.2752 67.9341L74.3149 67.7757L74.3347 67.6173L74.3546 67.4391L74.3745 67.2609L74.3943 67.1025L74.4142 66.9243L74.434 66.7461L74.4539 66.5877V66.4095V66.2313V66.0729V65.9343Z" fill="white"/>
<path d="M74.4539 51.559L74.434 51.3808L74.4142 51.2026L74.3943 51.0442L74.3745 50.866L74.3546 50.7076L74.3347 50.5492L74.3149 50.3908L74.2752 50.2324L74.2355 50.074L74.1958 49.9156L74.1561 49.7572L74.1163 49.5988L74.0766 49.4404L74.0171 49.282L73.9575 49.1236L73.898 48.9652L73.8384 48.8068L73.759 48.6484L73.6796 48.49L73.6001 48.3316L73.5207 48.1732L73.4413 48.0148L73.3619 47.8762L73.2825 47.7376L73.1832 47.599L73.0839 47.4604L72.9846 47.3218L72.8854 47.1832L72.8457 47.1436H55.0164L66.8695 50.3908L66.9489 50.4106L67.0283 50.4304L67.1077 50.4502L67.1673 50.4898L67.2269 50.5294L67.2864 50.569L67.346 50.6086L67.4056 50.6482L67.4651 50.6878L67.5247 50.7274L67.5842 50.767L67.6438 50.8264L67.6835 50.8858L67.7232 50.9452L67.7629 51.0046L67.8026 51.064L67.8424 51.1234L67.8821 51.1828L67.9218 51.2422L67.9416 51.3214L67.9615 51.3808L67.9813 51.46L68.0012 51.5392L68.021 51.6184L68.0409 51.6976V51.7768V51.856V51.9352V52.0144V52.0936V52.1728L68.021 52.252L68.0012 52.3312L67.9813 52.4104L67.9615 52.4896L67.9416 52.549L67.9218 52.6282L67.8821 52.7074L67.8424 52.7668L67.8026 52.8262L67.7629 52.8856L67.7232 52.945L67.6835 53.0044L67.6438 53.0638L67.5842 53.1232L67.5247 53.1826L67.4651 53.2222L67.4056 53.2618L67.346 53.3014L67.2864 53.341L67.2269 53.3806L67.1673 53.4202L67.1077 53.4598L67.0283 53.4994L66.9489 53.5192L66.8893 53.539L66.8099 53.5588L66.7305 53.5786L66.6511 53.5984H66.5717H66.4923H66.4128H50.033H27.9946H24.8179V59.974H49.1991H66.4526H66.6312H66.8099L66.9886 59.9542L67.1475 59.9344L67.3261 59.9146L67.485 59.8948L67.6637 59.875L67.8225 59.8552L67.9813 59.8156L68.1402 59.776L68.299 59.7364L68.4578 59.6968L68.6167 59.6572L68.7755 59.6176L68.9344 59.5582L69.0932 59.4988L69.252 59.4394L69.4109 59.38L69.5697 59.3206L69.7285 59.2414L69.8874 59.1622L69.9271 59.1424L70.0462 59.083L70.205 59.0038L70.3639 58.9246L70.5028 58.8454L70.6418 58.7662L70.7808 58.6672L70.9198 58.5682L71.0588 58.4692L71.1978 58.3702L71.3367 58.2712L71.4757 58.1722L71.6147 58.0732L71.7537 57.9544L71.8728 57.8356L71.9919 57.7168L72.1111 57.598L72.2302 57.4792L72.3493 57.3604L72.4684 57.2416L72.5876 57.1228L72.6868 56.9842L72.7861 56.8456L72.8854 56.707L72.9846 56.5684L73.0839 56.4298L73.1832 56.2912L73.2825 56.1526L73.3619 56.014L73.4413 55.8754L73.5207 55.717L73.6001 55.5586L73.6796 55.4002L73.759 55.2418L73.8384 55.0834L73.898 54.925L73.9575 54.7666L74.0171 54.6082L74.0766 54.4498L74.1163 54.2914L74.1561 54.133L74.1958 53.9746L74.2355 53.8162L74.2752 53.6578L74.3149 53.4994L74.3347 53.341L74.3546 53.1628L74.3745 53.0044L74.3943 52.8262L74.4142 52.6678L74.434 52.4896L74.4539 52.3114V52.153V51.9748V51.7966V51.559Z" fill="white"/>
<path d="M32.819 39.1248H32.6403H32.4815L32.3028 39.1446L32.1241 39.1644L31.9653 39.1842L31.7866 39.204L31.6278 39.2238L31.4689 39.2436L31.3101 39.2832L31.1513 39.3228L30.9924 39.3624L30.8336 39.402L30.6748 39.4416L30.5159 39.4812L30.3571 39.5406L30.1982 39.6L30.0394 39.6594L29.8806 39.7188L29.7217 39.7782L29.5629 39.8574L29.4041 39.9366L29.3644 39.9564L29.2452 40.0158L29.0864 40.095L28.9276 40.1742L28.7687 40.2534L28.6298 40.3326L28.4908 40.4316L28.3518 40.5306L28.193 40.59L28.054 40.689L27.915 40.788L27.776 40.887L27.637 40.986L27.498 41.1048L27.3789 41.2236L27.2598 41.3424L27.1407 41.4612L27.0215 41.58L26.9024 41.6988L26.7833 41.8176L26.6642 41.9562L26.5649 42.075L26.4656 42.2136L26.3663 42.3522L26.2671 42.4908L26.1678 42.6294L26.0685 42.768L25.9891 42.9066L25.8898 43.0452L25.8104 43.1838L25.731 43.3422L25.6516 43.5006L25.5722 43.659L25.4928 43.8174L25.4332 43.9758L25.3736 44.1342L25.3141 44.2926L25.2545 44.451L25.1949 44.6094L25.1354 44.7678L25.0957 44.9262L25.056 45.0846L25.0162 45.243L24.9765 45.4014L24.9368 45.5598L24.8971 45.7182L24.8773 45.8964L24.8574 46.0746L24.8376 46.233L24.8177 46.4112L24.7979 46.5894V46.7676V46.9458V47.124V47.3022V47.4606V47.6388L24.8177 47.7972L24.8376 47.9556L24.8574 48.1338L24.8773 48.312L24.8971 48.4704L24.9368 48.6486L24.9765 48.807L25.0162 48.9654L25.056 49.1238L25.0957 49.2822L25.1354 49.4406L25.1949 49.599L25.2545 49.7574L25.3141 49.9158L25.3736 50.0742L25.4332 50.2326L25.4928 50.391L25.5722 50.5494L25.6516 50.7078L25.731 50.8662L25.8104 51.0246L25.8898 51.1632L25.9891 51.3018L26.0685 51.4404L26.1678 51.579L26.2671 51.7176L26.3663 51.8562L26.4061 51.8958H44.2353L32.3822 48.6486L32.3028 48.6288L32.2433 48.609L32.1638 48.5892L32.1043 48.5496L32.0447 48.51L31.9851 48.4704L31.9256 48.4308L31.866 48.3912L31.8065 48.3516L31.7469 48.312L31.6873 48.2724L31.6476 48.213L31.6079 48.1536L31.5682 48.0942L31.5285 48.0348L31.4888 47.9754L31.4491 47.916L31.4094 47.8566L31.3697 47.7972L31.3498 47.718L31.3299 47.6388L31.3101 47.5794L31.2902 47.5002L31.2704 47.421L31.2505 47.3418V47.2626V47.1834V47.1042V47.025V46.9458V46.8666L31.2704 46.7874L31.2902 46.7082L31.3101 46.629L31.3299 46.5498L31.3498 46.4706L31.3697 46.4112L31.4094 46.3518L31.4491 46.2924L31.4888 46.233L31.5285 46.1736L31.5682 46.1142L31.6079 46.0548L31.6476 45.9954L31.6873 45.936L31.7469 45.8766L31.8065 45.837L31.866 45.7974L31.9256 45.7578L31.9851 45.7182L32.0447 45.6786L32.1043 45.639L32.1638 45.5994L32.2433 45.5598L32.3028 45.54L32.3822 45.5202L32.4617 45.5004L32.5411 45.4806L32.6205 45.4608H32.6999H32.7793H32.8587H49.2386H71.277H74.4537V39.0654H50.0725H32.819V39.1248Z" fill="white"/>
<path d="M32.8192 24.75H32.6405H32.4817L32.303 24.7698L32.1243 24.7896L31.9655 24.8094L31.7868 24.8292L31.6279 24.849L31.4691 24.8688L31.3103 24.9084L31.1514 24.948L30.9926 24.9876L30.8338 25.0272L30.6749 25.0668L30.5161 25.1064L30.3572 25.1658L30.1984 25.2252L30.0396 25.2846L29.8807 25.344L29.7219 25.4034L29.5631 25.4628L29.4042 25.542L29.2454 25.6212L29.0866 25.7004L28.9277 25.7796L28.7689 25.8588L28.6299 25.9578L28.4909 26.037L28.352 26.136L28.213 26.235L28.074 26.334L27.935 26.433L27.796 26.532L27.6571 26.6508L27.5181 26.7696L27.3989 26.8884L27.2798 27.0072L27.1607 27.126L27.0416 27.2448L26.9224 27.3636L26.8033 27.4824L26.6842 27.6012L26.5849 27.7398L26.4856 27.8784L26.3864 28.017L26.2871 28.1556L26.1878 28.2942L26.0886 28.4328L26.0091 28.5714L25.9099 28.71L25.8304 28.8486L25.751 29.007L25.6716 29.1654L25.5922 29.3238L25.5128 29.4822L25.4532 29.6406L25.3936 29.799L25.3341 29.9574L25.2745 30.1158L25.215 30.2742L25.1554 30.4326L25.1157 30.591L25.076 30.7494L25.0363 30.9078L24.9966 31.0662L24.9569 31.2246L24.9171 31.383L24.8973 31.5612L24.8774 31.7196L24.8576 31.8978L24.8377 32.0562L24.8179 32.2344V32.4126V32.5908V32.769V32.9472V33.1254V33.2838L24.8377 33.462L24.8576 33.6402L24.8774 33.7986L24.8973 33.957L24.9171 34.1154L24.9569 34.2738L24.9966 34.4322L25.0363 34.5906L25.076 34.749L25.1157 34.9074L25.1554 35.0658L25.215 35.2242L25.2745 35.3826L25.3341 35.541L25.3936 35.6994L25.4532 35.8578L25.5128 36.0162L25.5922 36.1746L25.6716 36.333L25.751 36.4914L25.8304 36.6498L25.9099 36.7884L26.0091 36.927L26.0886 37.0656L26.1878 37.2042L26.2871 37.3428L26.3864 37.4814L26.4856 37.62L26.5849 37.7586L26.6842 37.8972L26.8033 38.016L26.9224 38.1348L27.0416 38.2536L27.1607 38.3724L27.2798 38.4912L27.3989 38.61L27.5181 38.7288L27.6571 38.8476L27.7762 38.9466L27.9946 38.808L28.1534 38.709L28.3122 38.61L28.4711 38.5308L28.6299 38.4516L28.8086 38.3724L28.9873 38.2932L29.166 38.214L29.3447 38.1546L29.5234 38.0952L29.7021 38.0358L29.8807 37.9764L30.0594 37.917L30.2381 37.8576L30.4168 37.818L30.5955 37.7784L30.7742 37.7388L30.9529 37.6992L31.1316 37.6596L31.3103 37.6398L31.489 37.62L31.6676 37.6002L31.8463 37.5804L32.025 37.5606L32.2037 37.5408H32.3824H32.5611H32.7398H44.1561L32.303 34.2936L32.2236 34.2738L32.164 34.254L32.0846 34.2342L32.025 34.2144L31.9655 34.1748L31.9059 34.1352L31.8463 34.0956L31.7868 34.056L31.7272 34.0164L31.6676 33.9768L31.6081 33.9174L31.5684 33.858L31.5287 33.7986L31.489 33.7392L31.4492 33.6798L31.4095 33.6204L31.3698 33.561L31.3301 33.5016L31.2904 33.4422L31.2706 33.3828L31.2507 33.3036L31.2308 33.2442L31.211 33.165L31.1911 33.0858L31.1713 33.0066V32.9274V32.8482V32.769V32.6898V32.6106V32.5314L31.1911 32.4522L31.211 32.373L31.2308 32.2938L31.2507 32.2146L31.2706 32.1354L31.2904 32.076L31.3301 32.0166L31.3698 31.9572L31.4095 31.8978L31.4492 31.8384L31.489 31.779L31.5287 31.7196L31.5684 31.6602L31.6081 31.6008L31.6676 31.5612L31.7272 31.5216L31.7868 31.482L31.8463 31.4424L31.9059 31.4028L31.9655 31.3632L32.025 31.3236L32.0846 31.284L32.164 31.2642L32.2236 31.2444L32.303 31.2246L32.3824 31.2048L32.4618 31.185L32.5412 31.1652H32.6207H32.7001H32.7795H74.4539V24.75H32.8192Z" fill="white"/>
</g>
<path d="M103.064 64.9237H90.3377V59.9341H103.064C105.03 59.9341 106.559 59.5579 107.611 58.7857C108.683 58.0333 109.219 57.0433 109.219 55.8355C109.219 54.6277 108.723 53.7565 107.71 53.1823C106.698 52.6279 105.209 52.1527 103.243 51.7963L101.198 51.4399C99.1928 51.0835 97.3463 50.5489 95.6984 49.8757C94.0505 49.2025 92.7401 48.2521 91.7672 47.0443C90.7944 45.8365 90.3179 44.2921 90.3179 42.4111C90.3179 39.5995 91.3702 37.4215 93.4549 35.8771C95.5396 34.3327 98.3192 33.5605 101.774 33.5605H114.203V38.6095H101.774C100.086 38.6095 98.756 38.9263 97.7831 39.5401C96.8103 40.1539 96.3338 41.0251 96.3338 42.1537C96.3338 43.3615 96.8103 44.2327 97.7434 44.8069C98.6964 45.3613 99.9671 45.7969 101.575 46.0741L103.68 46.4305C105.804 46.7869 107.77 47.3017 109.537 47.9353C111.304 48.5689 112.714 49.4995 113.726 50.7073C114.759 51.9151 115.255 53.5189 115.255 55.5187C115.255 58.4887 114.143 60.7855 111.939 62.4487C109.795 64.0921 106.817 64.9237 103.064 64.9237Z" fill="white"/>
<path d="M180.198 74.0523V60.0537H179.226C178.789 60.8655 178.134 61.6377 177.3 62.3703C176.446 63.1227 175.374 63.7167 174.063 64.2117C172.753 64.6869 171.145 64.9443 169.199 64.9443C166.697 64.9443 164.414 64.3503 162.31 63.1425C160.225 61.9347 158.557 60.2121 157.306 57.9351C156.055 55.6779 155.44 52.9257 155.44 49.7181V48.8073C155.44 45.5997 156.075 42.8673 157.346 40.5903C158.617 38.3331 160.284 36.5907 162.389 35.3829C164.474 34.1751 166.757 33.5811 169.199 33.5811C172.098 33.5811 174.321 34.0959 175.87 35.1453C177.419 36.1947 178.57 37.3629 179.345 38.6895H180.318V33.5811H186.413V74.0523H180.198ZM170.966 59.4993C173.706 59.4993 175.93 58.6281 177.657 56.9055C179.384 55.1829 180.258 52.7079 180.258 49.5003V48.9657C180.258 45.7977 179.384 43.3425 177.637 41.6199C175.89 39.8973 173.666 39.0261 170.966 39.0261C168.266 39.0261 166.102 39.8973 164.355 41.6199C162.607 43.3425 161.734 45.7977 161.734 48.9657V49.5003C161.734 52.7079 162.607 55.1829 164.355 56.9055C166.102 58.6479 168.306 59.4993 170.966 59.4993Z" fill="white"/>
<path d="M149.504 48.6085C149.504 45.5989 148.908 42.9655 147.697 40.7281C146.486 38.4907 144.818 36.7285 142.654 35.4613C140.51 34.1941 137.988 33.5605 135.149 33.5605C132.29 33.5605 129.63 34.1941 127.426 35.4811C126.314 36.1147 125.341 36.8869 124.467 37.7779C124.348 37.8967 124.249 37.9957 124.15 38.1145C123.832 38.4709 123.534 38.8273 123.256 39.2035C122.879 39.7183 122.542 40.2529 122.224 40.8271C120.953 43.1041 120.318 45.7969 120.318 48.8857V49.5985C120.318 52.6873 120.953 55.3801 122.224 57.6571C123.495 59.9341 125.242 61.7161 127.505 62.9833C129.749 64.2505 132.389 64.8841 135.407 64.8841C138.068 64.8841 140.272 64.4683 142.039 63.6169C143.806 62.7655 145.215 61.7359 146.268 60.4885C146.565 60.1519 146.823 59.7955 147.082 59.4589C147.757 58.5877 148.293 57.7363 148.73 56.9245L143.548 54.2713C142.912 55.6375 141.979 56.8453 140.808 57.8749C139.616 58.9243 137.869 59.4391 135.526 59.4391C133.025 59.4391 130.94 58.6669 129.272 57.1225C129.173 57.0235 129.074 56.9245 128.974 56.8255C128.875 56.7265 128.776 56.6275 128.696 56.5087C128.478 56.2513 128.26 55.9939 128.081 55.6969C127.267 54.4891 126.81 53.0437 126.691 51.3607C126.671 51.2023 126.671 51.0439 126.671 50.8657H149.504V48.6085ZM130.781 46.1929L127.604 49.3609H126.552C126.532 48.4501 126.552 47.2819 126.671 46.1929C126.731 45.7771 126.81 45.3811 126.91 45.0049C127.009 44.6287 127.128 44.2525 127.267 43.9159C127.743 42.7477 128.438 41.7775 129.352 40.9657C130.821 39.6787 132.727 39.0451 135.05 39.0451C137.393 39.0451 139.279 39.6787 140.728 40.9657C142.178 42.2527 143.011 43.9951 143.21 46.1929H130.781Z" fill="white"/>
<path d="M221.575 48.6085C221.575 45.5989 220.98 42.9655 219.768 40.7281C218.557 38.4907 216.889 36.7285 214.725 35.4613C212.581 34.1941 210.06 33.5605 207.22 33.5605C204.361 33.5605 201.701 34.1941 199.497 35.4811C198.385 36.1147 197.412 36.8869 196.539 37.7779C196.439 37.8967 196.32 37.9957 196.221 38.1145C195.903 38.4709 195.606 38.8273 195.328 39.2035C194.95 39.7183 194.613 40.2529 194.295 40.8271C193.024 43.1041 192.389 45.7969 192.389 48.8857V49.5985C192.389 52.6873 193.024 55.3801 194.295 57.6571C195.566 59.9341 197.313 61.7161 199.576 62.9833C201.82 64.2505 204.461 64.8841 207.479 64.8841C210.139 64.8841 212.343 64.4683 214.11 63.6169C215.877 62.7655 217.287 61.7359 218.339 60.4885C218.637 60.1519 218.895 59.7955 219.153 59.4589C219.828 58.5877 220.364 57.7363 220.801 56.9245L215.619 54.2713C214.983 55.6375 214.05 56.8453 212.879 57.8749C211.688 58.9243 209.94 59.4391 207.598 59.4391C205.096 59.4391 203.011 58.6669 201.343 57.1225C201.244 57.0235 201.145 56.9245 201.046 56.8255C200.946 56.7265 200.847 56.6275 200.768 56.5087C200.549 56.2513 200.331 55.9939 200.152 55.6969C199.338 54.4891 198.882 53.0437 198.762 51.3607C198.743 51.2023 198.743 51.0439 198.743 50.8657H221.575V48.6085ZM202.872 46.1929L199.696 49.3609H198.643C198.623 48.4501 198.643 47.2819 198.762 46.1929C198.822 45.7771 198.901 45.3811 199.001 45.0049C199.1 44.6287 199.219 44.2525 199.358 43.9159C199.835 42.7477 200.529 41.7775 201.443 40.9657C202.912 39.6787 204.818 39.0451 207.141 39.0451C209.464 39.0451 211.37 39.6787 212.819 40.9657C214.269 42.2527 215.083 43.9951 215.301 46.1929H202.872Z" fill="white"/>
<path d="M227.531 64.9244V33.5612H233.627V37.046H234.599C235.076 35.7986 235.85 34.8878 236.922 34.3136C237.995 33.7394 239.305 33.4424 240.873 33.4424H244.427V39.0458H240.635C238.63 39.0458 236.982 39.6002 235.691 40.709C234.401 41.8178 233.766 43.5008 233.766 45.7976V64.9442L227.531 64.9244Z" fill="white"/>
<path d="M274.427 44.8076C274.427 41.1842 273.315 38.3726 271.092 36.4124C268.868 34.4324 265.811 33.4424 261.939 33.4424C259.398 33.4424 257.233 33.8384 255.486 34.6502C253.739 35.462 252.31 36.5312 251.237 37.8578C250.165 39.1844 249.391 40.6298 248.895 42.2138L254.712 44.0948C255.069 42.491 255.824 41.1644 256.955 40.1744C258.087 39.1646 259.715 38.6696 261.859 38.6696C264.004 38.6696 265.652 39.2042 266.704 40.2734C267.756 41.3426 268.272 42.7286 268.272 44.4116V49.5596H267.26L264.024 46.3322H259.179C255.903 46.3322 253.183 47.1044 251.019 48.6686C248.855 50.213 247.783 52.5098 247.783 55.5392C247.783 57.5588 248.279 59.2616 249.272 60.6674C250.265 62.0732 251.595 63.1424 253.282 63.875C254.97 64.6076 256.876 64.964 259 64.964C261.125 64.964 262.713 64.667 263.964 64.0928C265.215 63.5186 266.168 62.8256 266.803 62.0336C267.458 61.2416 267.935 60.5288 268.253 59.8952H269.225V64.9442H274.368L274.427 44.8076ZM268.292 51.7574C268.292 54.2522 267.518 56.2124 265.949 57.6578C264.401 59.0834 262.396 59.7962 259.914 59.7962C258.087 59.7962 256.658 59.4002 255.605 58.5884C254.553 57.7766 254.037 56.6876 254.037 55.3214C254.037 53.9552 254.553 52.9058 255.546 52.2128C256.558 51.5 257.889 51.1634 259.556 51.1634H268.292V51.7574Z" fill="white"/>
</svg>
