<svg width="1511" height="500" viewBox="0 0 1511 500" fill="none" xmlns="http://www.w3.org/2000/svg">
<mask id="mask0_416_1543" style="mask-type:luminance" maskUnits="userSpaceOnUse" x="125" y="125" width="250" height="250">
<path d="M375 125H125V375H375V125Z" fill="white"/>
</mask>
<g mask="url(#mask0_416_1543)">
<path d="M375 333.001L374.9 332.101L374.8 331.301L374.7 330.401L374.6 329.501L374.5 328.701L374.4 327.801L374.3 327.001L374.1 326.101L373.9 325.301L373.7 324.501L373.5 323.701L373.3 322.901L373.1 322.101L372.8 321.301L372.5 320.501L372.2 319.701L371.9 318.901L371.5 318.101L371.1 317.301L370.7 316.501L370.3 315.701L369.9 314.901L369.5 314.101L369.1 313.401L368.6 312.701L368.1 312.001L367.6 311.301L367.1 310.601L366.6 309.901L366.1 309.201L365.6 308.501L365 308.001L364.4 307.401L363.8 306.801L363.2 306.201L362.6 305.601L362 305.001L361.4 304.401L360.7 303.801L360.1 303.301L358.9 304.001L358.1 304.501L357.3 304.901L356.5 305.301L355.7 305.701L354.9 306.101L354 306.501L353.1 306.901L352.2 307.201L351.3 307.501L350.4 307.801L349.5 308.101L348.6 308.401L347.7 308.701L346.8 308.901L345.9 309.101L345 309.301L344.1 309.501L343.2 309.701L342.3 309.801L341.4 309.901L340.5 310.001L339.6 310.101L338.7 310.201L337.8 310.301L336.9 310.401H336H335.1H277.6L337.3 326.801L337.7 326.901L338.1 327.001L338.5 327.101L338.8 327.301L339.1 327.501L339.4 327.701L339.7 327.901L340 328.101L340.3 328.301L340.6 328.501L340.9 328.701L341.2 329.001L341.4 329.301L341.6 329.601L341.8 329.901L342 330.201L342.2 330.501L342.4 330.801L342.6 331.101L342.7 331.401L342.8 331.701L342.9 332.101L343 332.501L343.1 332.901L343.2 333.301V333.701V334.101V334.501V334.901V335.301V335.701L343.1 336.101L343 336.501L342.9 336.901L342.8 337.201L342.7 337.601L342.6 337.901L342.4 338.201L342.2 338.501L342 338.801L341.8 339.101L341.6 339.401L341.4 339.701L341.2 340.001L340.9 340.301L340.6 340.601L340.3 340.801L340 341.001L339.7 341.201L339.4 341.401L339.1 341.601L338.8 341.801L338.5 341.901L338.1 342.101L337.7 342.201L337.4 342.301L337 342.401L336.6 342.501L336.2 342.601H335.8H335.4H335H125V375.001H334.7H335.6H336.5H337.4L338.2 374.901L339.1 374.801L339.9 374.701L340.8 374.601L341.6 374.501L342.4 374.401L343.2 374.201L344 374.001L344.8 373.801L345.6 373.601L346.4 373.401L347.2 373.101L348 372.801L348.8 372.501L349.6 372.201L350.4 371.901L351.2 371.501L352 371.101L352.8 370.701L353.6 370.301L354.4 369.901L355.1 369.501L355.8 369.001L356.5 368.501L357.2 368.001L357.9 367.501L358.6 367.001L359.3 366.501L360 366.001L360.7 365.501L361.4 365.001L362 364.401L362.6 363.801L363.2 363.201L363.8 362.601L364.4 362.001L365 361.401L365.6 360.701L366.1 360.001L366.6 359.301L367.1 358.601L367.6 357.901L368.1 357.201L368.6 356.501L369.1 355.801L369.5 355.101L369.9 354.301L370.3 353.501L370.7 352.701L371.1 351.901L371.5 351.101L371.9 350.301L372.2 349.501L372.5 348.701L372.8 347.901L373.1 347.101L373.3 346.301L373.5 345.501L373.7 344.701L373.9 343.901L374.1 343.101L374.3 342.301L374.4 341.501L374.5 340.601L374.6 339.701L374.7 338.901L374.8 338.001L374.9 337.101L375 336.301V335.401V334.501V333.701V333.001Z" fill="#201637"/>
<path d="M375 260.4L374.9 259.5L374.8 258.6L374.7 257.8L374.6 256.9L374.5 256.1L374.4 255.3L374.3 254.5L374.1 253.7L373.9 252.9L373.7 252.1L373.5 251.3L373.3 250.5L373.1 249.7L372.8 248.9L372.5 248.1L372.2 247.3L371.9 246.5L371.5 245.7L371.1 244.9L370.7 244.1L370.3 243.3L369.9 242.5L369.5 241.8L369.1 241.1L368.6 240.4L368.1 239.7L367.6 239L367.1 238.3L366.9 238.1H277.1L336.8 254.5L337.2 254.6L337.6 254.7L338 254.8L338.3 255L338.6 255.2L338.9 255.4L339.2 255.6L339.5 255.8L339.8 256L340.1 256.2L340.4 256.4L340.7 256.7L340.9 257L341.1 257.3L341.3 257.6L341.5 257.9L341.7 258.2L341.9 258.5L342.1 258.8L342.2 259.2L342.3 259.5L342.4 259.9L342.5 260.3L342.6 260.7L342.7 261.1V261.5V261.9V262.3V262.7V263.1V263.5L342.6 263.9L342.5 264.3L342.4 264.7L342.3 265.1L342.2 265.4L342.1 265.8L341.9 266.2L341.7 266.5L341.5 266.8L341.3 267.1L341.1 267.4L340.9 267.7L340.7 268L340.4 268.3L340.1 268.6L339.8 268.8L339.5 269L339.2 269.2L338.9 269.4L338.6 269.6L338.3 269.8L338 270L337.6 270.2L337.2 270.3L336.9 270.4L336.5 270.5L336.1 270.6L335.7 270.7H335.3H334.9H334.5H252H141H125V302.9H247.8H334.7H335.6H336.5L337.4 302.8L338.2 302.7L339.1 302.6L339.9 302.5L340.8 302.4L341.6 302.3L342.4 302.1L343.2 301.9L344 301.7L344.8 301.5L345.6 301.3L346.4 301.1L347.2 300.8L348 300.5L348.8 300.2L349.6 299.9L350.4 299.6L351.2 299.2L352 298.8L352.2 298.7L352.8 298.4L353.6 298L354.4 297.6L355.1 297.2L355.8 296.8L356.5 296.3L357.2 295.8L357.9 295.3L358.6 294.8L359.3 294.3L360 293.8L360.7 293.3L361.4 292.7L362 292.1L362.6 291.5L363.2 290.9L363.8 290.3L364.4 289.7L365 289.1L365.6 288.5L366.1 287.8L366.6 287.1L367.1 286.4L367.6 285.7L368.1 285L368.6 284.3L369.1 283.6L369.5 282.9L369.9 282.2L370.3 281.4L370.7 280.6L371.1 279.8L371.5 279L371.9 278.2L372.2 277.4L372.5 276.6L372.8 275.8L373.1 275L373.3 274.2L373.5 273.4L373.7 272.6L373.9 271.8L374.1 271L374.3 270.2L374.4 269.4L374.5 268.5L374.6 267.7L374.7 266.8L374.8 266L374.9 265.1L375 264.2V263.4V262.5V261.6V260.4Z" fill="#201637"/>
<path d="M165.3 197.599H164.4H163.6H162.7L161.8 197.699L161 197.799L160.1 197.899L159.3 197.999L158.5 198.099L157.7 198.299L156.9 198.499L156.1 198.699L155.3 198.899L154.5 199.099L153.7 199.299L152.9 199.599L152.1 199.899L151.3 200.199L150.5 200.499L149.7 200.799L148.9 201.199L148.1 201.599L147.9 201.699L147.3 201.999L146.5 202.399L145.7 202.799L144.9 203.199L144.2 203.599L143.5 204.099L142.8 204.599L142 204.999L141.3 205.499L140.6 205.999L139.9 206.499L139.2 206.999L138.5 207.599L137.9 208.199L137.3 208.799L136.7 209.399L136.1 209.999L135.5 210.599L134.9 211.199L134.3 211.799L133.8 212.399L133.3 213.099L132.8 213.799L132.3 214.499L131.8 215.199L131.3 215.899L130.9 216.599L130.4 217.299L130 217.999L129.6 218.799L129.2 219.599L128.8 220.399L128.4 221.199L128.1 221.999L127.8 222.799L127.5 223.599L127.2 224.399L126.9 225.199L126.6 225.999L126.4 226.799L126.2 227.599L126 228.399L125.8 229.199L125.6 229.999L125.4 230.799L125.3 231.699L125.2 232.599L125.1 233.399L125 234.299L124.9 235.199V236.099V236.999V237.899V238.799V239.599V240.499L125 241.299L125.1 242.099L125.2 242.999L125.3 243.899L125.4 244.699L125.6 245.599L125.8 246.399L126 247.199L126.2 247.999L126.4 248.799L126.6 249.599L126.9 250.399L127.2 251.199L127.5 251.999L127.8 252.799L128.1 253.599L128.4 254.399L128.8 255.199L129.2 255.999L129.6 256.799L130 257.599L130.4 258.299L130.9 258.999L131.3 259.699L131.8 260.399L132.3 261.099L132.8 261.799L133 261.999H222.8L163.1 245.599L162.7 245.499L162.4 245.399L162 245.299L161.7 245.099L161.4 244.899L161.1 244.699L160.8 244.499L160.5 244.299L160.2 244.099L159.9 243.899L159.6 243.699L159.4 243.399L159.2 243.099L159 242.799L158.8 242.499L158.6 242.199L158.4 241.899L158.2 241.599L158 241.299L157.9 240.899L157.8 240.499L157.7 240.199L157.6 239.799L157.5 239.399L157.4 238.999V238.599V238.199V237.799V237.399V236.999V236.599L157.5 236.199L157.6 235.799L157.7 235.399L157.8 234.999L157.9 234.599L158 234.299L158.2 233.999L158.4 233.699L158.6 233.399L158.8 233.099L159 232.799L159.2 232.499L159.4 232.199L159.6 231.899L159.9 231.599L160.2 231.399L160.5 231.199L160.8 230.999L161.1 230.799L161.4 230.599L161.7 230.399L162 230.199L162.4 229.999L162.7 229.899L163.1 229.799L163.5 229.699L163.9 229.599L164.3 229.499H164.7H165.1H165.5H248H359H375V197.199H252.2H165.3V197.599Z" fill="#201637"/>
<path d="M165.3 125H164.4H163.6L162.7 125.1L161.8 125.2L161 125.3L160.1 125.4L159.3 125.5L158.5 125.6L157.7 125.8L156.9 126L156.1 126.2L155.3 126.4L154.5 126.6L153.7 126.8L152.9 127.1L152.1 127.4L151.3 127.7L150.5 128L149.7 128.3L148.9 128.6L148.1 129L147.3 129.4L146.5 129.8L145.7 130.2L144.9 130.6L144.2 131.1L143.5 131.5L142.8 132L142.1 132.5L141.4 133L140.7 133.5L140 134L139.3 134.6L138.6 135.2L138 135.8L137.4 136.4L136.8 137L136.2 137.6L135.6 138.2L135 138.8L134.4 139.4L133.9 140.1L133.4 140.8L132.9 141.5L132.4 142.2L131.9 142.9L131.4 143.6L131 144.3L130.5 145L130.1 145.7L129.7 146.5L129.3 147.3L128.9 148.1L128.5 148.9L128.2 149.7L127.9 150.5L127.6 151.3L127.3 152.1L127 152.9L126.7 153.7L126.5 154.5L126.3 155.3L126.1 156.1L125.9 156.9L125.7 157.7L125.5 158.5L125.4 159.4L125.3 160.2L125.2 161.1L125.1 161.9L125 162.8V163.7V164.6V165.5V166.4V167.3V168.1L125.1 169L125.2 169.9L125.3 170.7L125.4 171.5L125.5 172.3L125.7 173.1L125.9 173.9L126.1 174.7L126.3 175.5L126.5 176.3L126.7 177.1L127 177.9L127.3 178.7L127.6 179.5L127.9 180.3L128.2 181.1L128.5 181.9L128.9 182.7L129.3 183.5L129.7 184.3L130.1 185.1L130.5 185.8L131 186.5L131.4 187.2L131.9 187.9L132.4 188.6L132.9 189.3L133.4 190L133.9 190.7L134.4 191.4L135 192L135.6 192.6L136.2 193.2L136.8 193.8L137.4 194.4L138 195L138.6 195.6L139.3 196.2L139.9 196.7L141 196L141.8 195.5L142.6 195L143.4 194.6L144.2 194.2L145.1 193.8L146 193.4L146.9 193L147.8 192.7L148.7 192.4L149.6 192.1L150.5 191.8L151.4 191.5L152.3 191.2L153.2 191L154.1 190.8L155 190.6L155.9 190.4L156.8 190.2L157.7 190.1L158.6 190L159.5 189.9L160.4 189.8L161.3 189.7L162.2 189.6H163.1H164H164.9H222.4L162.7 173.2L162.3 173.1L162 173L161.6 172.9L161.3 172.8L161 172.6L160.7 172.4L160.4 172.2L160.1 172L159.8 171.8L159.5 171.6L159.2 171.3L159 171L158.8 170.7L158.6 170.4L158.4 170.1L158.2 169.8L158 169.5L157.8 169.2L157.6 168.9L157.5 168.6L157.4 168.2L157.3 167.9L157.2 167.5L157.1 167.1L157 166.7V166.3V165.9V165.5V165.1V164.7V164.3L157.1 163.9L157.2 163.5L157.3 163.1L157.4 162.7L157.5 162.3L157.6 162L157.8 161.7L158 161.4L158.2 161.1L158.4 160.8L158.6 160.5L158.8 160.2L159 159.9L159.2 159.6L159.5 159.4L159.8 159.2L160.1 159L160.4 158.8L160.7 158.6L161 158.4L161.3 158.2L161.6 158L162 157.9L162.3 157.8L162.7 157.7L163.1 157.6L163.5 157.5L163.9 157.4H164.3H164.7H165.1H375V125H165.3Z" fill="#201637"/>
</g>
<path d="M519.1 327.9H455V302.7H519.1C529 302.7 536.7 300.8 542 296.9C547.4 293.1 550.1 288.1 550.1 282C550.1 275.9 547.6 271.5 542.5 268.6C537.4 265.8 529.9 263.4 520 261.6L509.7 259.8C499.6 258 490.3 255.3 482 251.9C473.7 248.5 467.1 243.7 462.2 237.6C457.3 231.5 454.9 223.7 454.9 214.2C454.9 200 460.2 189 470.7 181.2C481.2 173.4 495.2 169.5 512.6 169.5H575.2V195H512.6C504.1 195 497.4 196.6 492.5 199.7C487.6 202.8 485.2 207.2 485.2 212.9C485.2 219 487.6 223.4 492.3 226.3C497.1 229.1 503.5 231.3 511.6 232.7L522.2 234.5C532.9 236.3 542.8 238.9 551.7 242.1C560.6 245.3 567.7 250 572.8 256.1C578 262.2 580.5 270.3 580.5 280.4C580.5 295.4 574.9 307 563.8 315.4C553 323.7 538 327.9 519.1 327.9Z" fill="#201637"/>
<path d="M907.6 374V303.3H902.7C900.5 307.4 897.2 311.3 893 315C888.7 318.8 883.3 321.8 876.7 324.3C870.1 326.7 862 328 852.2 328C839.6 328 828.1 325 817.5 318.9C807 312.8 798.6 304.1 792.3 292.6C786 281.2 782.9 267.3 782.9 251.1V246.5C782.9 230.3 786.1 216.5 792.5 205C798.9 193.6 807.3 184.8 817.9 178.7C828.4 172.6 839.9 169.6 852.2 169.6C866.8 169.6 878 172.2 885.8 177.5C893.6 182.8 899.4 188.7 903.3 195.4H908.2V169.6H938.9V374H907.6ZM861.1 300.5C874.9 300.5 886.1 296.1 894.8 287.4C903.5 278.7 907.9 266.2 907.9 250V247.3C907.9 231.3 903.5 218.9 894.7 210.2C885.9 201.5 874.7 197.1 861.1 197.1C847.5 197.1 836.6 201.5 827.8 210.2C819 218.9 814.6 231.3 814.6 247.3V250C814.6 266.2 819 278.7 827.8 287.4C836.6 296.2 847.7 300.5 861.1 300.5Z" fill="#201637"/>
<path d="M753 245.5C753 230.3 750 217 743.9 205.7C737.8 194.4 729.4 185.5 718.5 179.1C707.6 172.7 695 169.5 680.7 169.5C666.3 169.5 652.9 172.7 641.8 179.2C636.2 182.4 631.3 186.3 626.9 190.8C626.4 191.4 625.8 191.9 625.3 192.5C623.7 194.3 622.2 196.1 620.8 198C618.9 200.6 617.2 203.3 615.6 206.2C609.2 217.7 606 231.3 606 246.9V250.5C606 266.1 609.2 279.7 615.6 291.2C622 302.7 630.8 311.7 642.2 318.1C653.5 324.5 666.8 327.7 682 327.7C695.4 327.7 706.5 325.6 715.4 321.3C724.3 317 731.4 311.8 736.7 305.5C738.2 303.7 739.5 302 740.8 300.3C744.2 295.9 746.9 291.6 749.1 287.5L723 274.1C719.8 281 715.1 287.1 709.2 292.3C703.2 297.6 694.4 300.2 682.6 300.2C670 300.2 659.5 296.3 651.1 288.5C650.6 288 650.1 287.5 649.6 287C649.1 286.5 648.6 286 648.2 285.4C647.1 284.1 646 282.8 645.1 281.3C641 275.2 638.7 267.9 638.1 259.4C638 258.6 638 257.8 638 257H753V245.5ZM658.7 233.3L642.7 249.3H637.4C637.3 244.7 637.4 238.8 638 233.3C638.3 231.2 638.7 229.2 639.2 227.3C639.7 225.4 640.3 223.5 641 221.8C643.4 215.9 646.9 211 651.5 206.9C658.9 200.4 668.5 197.2 680.2 197.2C692 197.2 701.5 200.4 708.8 206.9C716.1 213.4 720.2 222.2 721.3 233.3H658.7Z" fill="#201637"/>
<path d="M1116 245.5C1116 230.3 1113 217 1106.9 205.7C1100.8 194.4 1092.4 185.5 1081.5 179.1C1070.7 172.7 1058 169.5 1043.7 169.5C1029.4 169.5 1015.9 172.7 1004.8 179.2C999.2 182.4 994.3 186.3 989.9 190.8C989.4 191.4 988.8 191.9 988.3 192.5C986.7 194.3 985.2 196.1 983.8 198C981.9 200.6 980.2 203.3 978.6 206.2C972.2 217.7 969 231.3 969 246.9V250.5C969 266.1 972.2 279.7 978.6 291.2C985 302.7 993.8 311.7 1005.2 318.1C1016.5 324.5 1029.8 327.7 1045 327.7C1058.4 327.7 1069.5 325.6 1078.4 321.3C1087.3 317 1094.4 311.8 1099.7 305.5C1101.2 303.7 1102.5 302 1103.8 300.3C1107.2 295.9 1109.9 291.6 1112.1 287.5L1086 274.1C1082.8 281 1078.1 287.1 1072.2 292.3C1066.2 297.6 1057.4 300.2 1045.6 300.2C1033 300.2 1022.5 296.3 1014.1 288.5C1013.6 288 1013.1 287.5 1012.6 287C1012.1 286.5 1011.6 286 1011.2 285.4C1010.1 284.1 1009 282.8 1008.1 281.3C1004 275.2 1001.7 267.9 1001.1 259.4C1001 258.6 1001 257.8 1001 257H1116V245.5ZM1021.8 233.3L1005.8 249.3H1000.5C1000.4 244.7 1000.5 238.8 1001.1 233.3C1001.4 231.2 1001.8 229.2 1002.3 227.3C1002.8 225.4 1003.4 223.5 1004.1 221.8C1006.5 215.9 1010 211 1014.6 206.9C1022 200.4 1031.6 197.2 1043.3 197.2C1055.1 197.2 1064.6 200.4 1071.9 206.9C1079.2 213.4 1083.3 222.2 1084.4 233.3H1021.8Z" fill="#201637"/>
<path d="M1146 327.9V169.5H1176.7V187.1H1181.6C1184 180.8 1187.9 176.2 1193.3 173.3C1198.7 170.4 1205.3 168.9 1213.2 168.9H1231.1V197.2H1212C1201.9 197.2 1193.6 200 1187.1 205.6C1180.6 211.2 1177.4 219.7 1177.4 231.3V328L1146 327.9Z" fill="#201637"/>
<path d="M1382.2 226.3C1382.2 208 1376.6 193.8 1365.4 183.9C1354.2 173.9 1338.8 168.9 1319.3 168.9C1306.5 168.9 1295.6 170.9 1286.8 175C1278 179.1 1270.8 184.5 1265.4 191.2C1260 197.9 1256.1 205.2 1253.6 213.2L1282.9 222.7C1284.7 214.6 1288.5 207.9 1294.2 202.9C1299.9 197.8 1308.1 195.3 1318.9 195.3C1329.7 195.3 1338 198 1343.3 203.4C1348.6 208.8 1351.2 215.8 1351.2 224.3V250.3H1346.1L1329.8 234H1305.4C1288.9 234 1275.2 237.9 1264.3 245.8C1253.4 253.6 1248 265.2 1248 280.5C1248 290.7 1250.5 299.3 1255.5 306.4C1260.5 313.5 1267.2 318.9 1275.7 322.6C1284.2 326.3 1293.8 328.1 1304.5 328.1C1315.2 328.1 1323.2 326.6 1329.5 323.7C1335.8 320.8 1340.6 317.3 1343.8 313.3C1347.1 309.3 1349.5 305.7 1351.1 302.5H1356V328H1382L1382.2 226.3ZM1351.3 261.4C1351.3 274 1347.4 283.9 1339.5 291.2C1331.7 298.4 1321.6 302 1309.1 302C1299.9 302 1292.7 300 1287.4 295.9C1282.1 291.8 1279.5 286.3 1279.5 279.4C1279.5 272.5 1282.1 267.2 1287.1 263.7C1292.2 260.1 1298.9 258.4 1307.3 258.4H1351.3V261.4Z" fill="#201637"/>
</svg>
