<?xml version="1.0" encoding="utf-8"?>
<!-- Generator: Adobe Illustrator 28.3.0, SVG Export Plug-In . SVG Version: 6.00 Build 0)  -->
<svg version="1.1" id="Layer_1" xmlns="http://www.w3.org/2000/svg" xmlns:xlink="http://www.w3.org/1999/xlink" x="0px" y="0px"
	 viewBox="0 0 1560 500" style="enable-background:new 0 0 1560 500;" xml:space="preserve">
<style type="text/css">
	.st0{fill:#160F26;}
</style>
<path class="st0" d="M167.1,244.6c2.6-39.5,34.3-71.1,73.8-73.5V125c-65,2.6-117.2,54.7-119.9,119.6H167.1z"/>
<path class="st0" d="M240.7,328.9c-39.4-2.6-71.1-34.3-73.5-73.8h-46.1c2.6,65,54.7,117.2,119.6,119.9V328.9z"/>
<path class="st0" d="M251.4,171.1c39.4,2.6,71.1,34.3,73.5,73.8H371c-2.6-65-54.7-117.2-119.6-119.9V171.1z"/>
<path class="st0" d="M371,328.9c-39.4-2.6-71.1-34.3-73.5-73.8h-46.1c2.6,65,54.7,117.2,119.6,119.9V328.9z"/>
<path class="st0" d="M1221.9,375v-70.4h-4.9c-2.2,4.1-5.5,8-9.7,11.7c-4.3,3.8-9.7,6.8-16.3,9.3c-6.6,2.4-14.7,3.6-24.5,3.6
	c-12.6,0-24.1-3-34.7-9.1c-10.5-6.1-18.9-14.8-25.2-26.3c-6.3-11.5-9.4-25.3-9.4-41.5v-4.6c0-16.2,3.2-30,9.6-41.5
	c6.4-11.5,14.8-20.2,25.4-26.3c10.5-6.1,22-9.1,34.3-9.1c14.6,0,25.8,2.6,33.6,7.9c7.8,5.3,13.6,11.3,17.5,17.9h4.9v-25.8h30.7V375
	L1221.9,375L1221.9,375z M1175.4,301.8c13.8,0,25-4.4,33.7-13.1c8.7-8.7,13.1-21.2,13.1-37.4v-2.7c0-16-4.4-28.4-13.2-37.1
	c-8.8-8.7-20-13.1-33.6-13.1c-13.6,0-24.5,4.4-33.3,13.1c-8.8,8.7-13.2,21.1-13.2,37.1v2.7c0,16.2,4.4,28.7,13.2,37.4
	C1151,297.5,1162,301.8,1175.4,301.8z"/>
<path class="st0" d="M1356.9,329.2c-14.4,0-27.4-3-39.1-9.1c-11.7-6.1-20.9-14.9-27.7-26.5c-6.8-11.6-10.2-25.4-10.2-41.7v-4
	c0-16.2,3.4-30,10.2-41.5c6.8-11.5,16-20.3,27.7-26.5c11.6-6.2,24.7-9.3,39.1-9.3c14.4,0,26.6,2.6,36.8,7.9
	c10.1,5.3,18.3,12.3,24.5,21c6.2,8.7,10.2,18.3,12,28.9l-30.4,6.4c-1-6.7-3.1-12.8-6.4-18.2c-3.2-5.5-7.8-9.8-13.7-13.1
	c-5.9-3.2-13.3-4.9-22.2-4.9c-8.9,0-16.6,2-23.6,5.9c-7,4-12.5,9.6-16.6,17c-4.1,7.4-6.1,16.4-6.1,26.9v2.7c0,10.5,2,19.6,6.1,27.1
	c4,7.5,9.6,13.2,16.6,17c7,3.9,14.8,5.8,23.6,5.8c13.2,0,23.2-3.4,30.1-10.2c6.9-6.8,11.2-15.5,13.1-26l30.4,7
	c-2.4,10.3-6.7,19.9-12.9,28.6c-6.2,8.7-14.3,15.7-24.5,20.8C1383.5,326.6,1371.3,329.2,1356.9,329.2L1356.9,329.2z"/>
<path class="st0" d="M451.1,329.2V170.8h30.7v20.1h4.9c2.8-5.3,7.4-9.9,13.7-14c6.3-4.1,14.8-6.1,25.5-6.1s20.1,2.3,26.9,6.8
	s11.9,10.4,15.3,17.5h4.9c3.4-6.9,8.5-12.7,15-17.3c6.6-4.7,16-7,28.1-7c9.7,0,18.3,2,25.8,5.9s13.5,9.8,17.9,17.6
	c4.5,7.8,6.7,17.5,6.7,29v105.8h-31.3V225.8c0-9.1-2.5-16.2-7.4-21.1c-5-5-12-7.5-21.1-7.5c-9.7,0-17.5,3.1-23.4,9.4
	c-5.9,6.3-8.8,15.3-8.8,27.1v95.5h-31.3V225.8c0-9.1-2.5-16.2-7.4-21.1c-5-5-12-7.5-21.1-7.5c-9.7,0-17.5,3.1-23.4,9.4
	c-5.9,6.3-8.8,15.3-8.8,27.1v95.5H451.1L451.1,329.2z"/>
<path class="st0" d="M755.5,328.9c-11.3,0-21.5-2.5-30.4-7.6c-8.9-5.1-15.9-12.3-21-21.6s-7.6-20.5-7.6-33.4v-95.4h31.3v93.3
	c0,13,3.2,22.6,9.7,28.7c6.5,6.2,15.5,9.3,27.1,9.3c12.8,0,23-4.3,30.9-12.9c7.8-8.6,11.7-21,11.7-37.2v-81.1h31.3v158.4h-30.7
	v-25.6H803c-2.8,6.1-7.9,11.8-15.2,17.2S769.7,328.9,755.5,328.9L755.5,328.9z"/>
<path class="st0" d="M868.5,329.2V125h31.3v204.2H868.5z"/>
<path class="st0" d="M1036,329.2V170.8h31.3v158.4H1036z"/>
<path class="st0" d="M1006,196.5v-25.7h-19.5l-17.1,17.1h-8.2V125h-31.4v174c0,9.2,2.7,16.5,8.1,22c5.4,5.5,12.7,8.2,22.1,8.2h46
	V303h-35.9c-5.9,0-8.8-3-8.8-9.2v-97.3L1006,196.5L1006,196.5z"/>
</svg>
