<svg width="300" height="84" viewBox="0 0 300 84" fill="none" xmlns="http://www.w3.org/2000/svg">
<mask id="mask0_417_1993" style="mask-type:luminance" maskUnits="userSpaceOnUse" x="20" y="21" width="259" height="42">
<path d="M278.877 21H20.9882V63H278.877V21Z" fill="white"/>
</mask>
<g mask="url(#mask0_417_1993)">
<path d="M20.9882 28.7448C27.6249 29.1816 32.9478 34.5072 33.3689 41.1432H41.1342C40.6962 30.2232 31.9203 21.4536 20.9882 21V28.7448Z" fill="#201637"/>
<path d="M33.4194 42.9072C32.9815 49.5264 27.6418 54.852 20.9882 55.2552V63C31.9203 62.5632 40.7299 53.8104 41.1847 42.9072H33.4194Z" fill="#201637"/>
<path d="M50.668 41.0928C51.106 34.4736 56.4456 29.148 63.0992 28.7448V21C52.1672 21.4368 43.3575 30.1896 42.9027 41.0928H50.668Z" fill="#201637"/>
<path d="M63.0994 55.2548C56.4627 54.818 51.1398 49.4924 50.7187 42.8564H42.9534C43.3913 53.7764 52.1673 62.546 63.0994 62.9996V55.2548Z" fill="#201637"/>
<path d="M76.575 55.3563V28.7451H81.7462V32.9283H82.5716C83.0432 31.9035 83.9023 30.9459 85.1319 30.0723C86.3616 29.1819 88.1808 28.7451 90.6064 28.7451C92.5098 28.7451 94.2111 29.1651 95.6934 30.0219C97.1757 30.8787 98.3549 32.0715 99.1971 33.6171C100.039 35.1627 100.477 37.0275 100.477 39.2115V55.3563H95.2049V39.6315C95.2049 37.4475 94.6659 35.8515 93.571 34.8099C92.4761 33.7683 90.977 33.2475 89.0735 33.2475C86.8838 33.2475 85.1319 33.9699 83.8181 35.3979C82.5042 36.8259 81.8473 38.9091 81.8473 41.6307V55.3731L76.575 55.3563Z" fill="#201637"/>
<path d="M202.622 55.3732V21.0508H207.894V55.3732H202.622Z" fill="#201637"/>
<path d="M226.002 55.3729C223.476 55.3729 221.235 54.8521 219.264 53.8105C217.294 52.7689 215.761 51.2905 214.632 49.3417C213.504 47.3929 212.948 45.1081 212.948 42.4537V41.6809C212.948 39.0265 213.504 36.7417 214.632 34.8097C215.761 32.8777 217.31 31.3993 219.264 30.3409C221.218 29.2825 223.476 28.7617 226.002 28.7617C228.529 28.7617 230.786 29.2825 232.757 30.3409C234.728 31.3993 236.294 32.8777 237.423 34.8097C238.551 36.7249 239.107 39.0265 239.107 41.6809V42.4537C239.107 45.1081 238.551 47.4097 237.423 49.3417C236.294 51.2737 234.745 52.7689 232.757 53.8105C230.769 54.8521 228.529 55.3729 226.002 55.3729ZM226.002 50.6689C228.327 50.6689 230.213 49.9297 231.662 48.4513C233.111 46.9729 233.835 44.9233 233.835 42.3025V41.8321C233.835 39.2113 233.111 37.1617 231.679 35.6833C230.247 34.2049 228.344 33.4657 226.002 33.4657C223.661 33.4657 221.842 34.2049 220.393 35.6833C218.944 37.1617 218.22 39.2113 218.22 41.8321V42.2857C218.22 44.9065 218.944 46.9561 220.393 48.4345C221.842 49.9297 223.711 50.6689 226.002 50.6689Z" fill="#201637"/>
<path d="M246.232 50.9545L242.645 28.7617H247.917L251.084 51.8449H251.909L255.514 32.9449C255.969 30.5257 258.108 28.7617 260.584 28.7617C263.06 28.7617 265.199 30.5257 265.654 32.9617L269.208 51.8449H270.034L273.2 28.7617H278.473L274.902 50.9545C274.497 53.5081 272.291 55.3729 269.697 55.3729C267.17 55.3729 264.98 53.5753 264.526 51.0889L260.988 32.3401H260.163L256.625 51.0889C256.154 53.5753 253.981 55.3729 251.454 55.3729C248.843 55.3729 246.637 53.4913 246.232 50.9545Z" fill="#201637"/>
<path d="M186.064 22.4784C185.154 23.4024 184.7 24.6288 184.7 26.1744V55.3896H189.989V33.2304H197.552V28.7784H193.897L190.915 31.752H189.989V27.0312C189.989 26.0064 190.477 25.4856 191.471 25.4856H197.518V21.084H189.77C188.22 21.084 186.974 21.5544 186.064 22.4784Z" fill="#201637"/>
<path d="M172.336 49.3087V35.3311H167.046V50.2327C167.046 51.7783 167.501 53.0047 168.411 53.9287C169.321 54.8527 170.55 55.3063 172.083 55.3063H179.074V50.8375H173.784C172.807 50.8543 172.336 50.3335 172.336 49.3087Z" fill="#201637"/>
<path d="M140.567 48.1488C139.101 49.896 136.945 50.736 134.655 50.736H118.602C116.479 50.736 114.711 50.0808 113.279 48.7536C113.195 48.6696 113.11 48.5856 113.026 48.5016C112.942 48.4176 112.858 48.3336 112.79 48.2328C112.605 48.0144 112.42 47.7792 112.268 47.544C111.578 46.5024 111.173 45.276 111.089 43.848C111.072 43.7136 111.072 43.5792 111.072 43.428H130.561V41.4288C130.561 38.8584 130.056 36.624 129.012 34.7088C127.984 32.7936 126.552 31.2984 124.716 30.2232C122.88 29.148 120.741 28.6104 118.315 28.6104C115.89 28.6104 113.616 29.148 111.729 30.2568C110.786 30.7944 109.944 31.4496 109.203 32.2224C109.118 32.3232 109.017 32.4072 108.933 32.508C108.663 32.8104 108.411 33.1128 108.175 33.432C107.855 33.8688 107.569 34.3224 107.299 34.8096C106.221 36.7584 105.682 39.0432 105.682 41.6808V42.3024C105.682 44.94 106.221 47.2248 107.299 49.1736C108.377 51.1224 109.876 52.6344 111.797 53.7096C113.717 54.7848 115.957 55.3224 118.534 55.3224H134.267C135.699 55.3224 138.714 55.0704 140.483 54.0624C142.454 52.9536 143.683 51.6264 145.688 49.224L146.446 48.132L143.548 44.0328L140.567 48.1488ZM111.089 39.4128C111.14 39.06 111.207 38.724 111.291 38.4048C111.375 38.0856 111.477 37.7664 111.594 37.464C111.999 36.4728 112.588 35.6328 113.363 34.944C114.61 33.852 116.227 33.2976 118.214 33.2976C120.202 33.2976 121.819 33.8352 123.049 34.944C124.278 36.036 124.986 37.5312 125.154 39.4128H114.559L111.847 42.1176H110.954C110.971 41.328 110.988 40.3368 111.089 39.4128Z" fill="#201637"/>
<path d="M172.336 28.6944V21H167.047V28.6944H162.061C160.629 28.6944 157.614 28.9464 155.845 29.9544C153.874 31.0632 152.257 32.4744 150.253 34.8768L148.029 37.9176C147.103 36.5736 146.345 35.4984 145.991 35.0112C144.189 32.4744 142.42 31.1472 140.449 30.0384C138.664 29.0472 135.834 28.7784 134.402 28.7784H133.408V33.3984H134.823C137.097 33.3984 139.102 34.2552 140.567 36.0024L144.896 42.2184L144.879 42.252L147.524 45.9984L149.764 49.224C151.769 51.6096 153.369 53.0376 155.357 54.1464C157.142 55.1376 160.14 55.4064 161.572 55.4064H162.566V50.736H161.151C158.877 50.736 156.654 49.9296 155.239 48.1488C154.7 47.46 152.779 44.7384 150.809 41.916L155.036 35.9016C156.502 34.1544 159.332 33.1464 161.623 33.1464H179.663V28.6776L172.336 28.6944Z" fill="#201637"/>
</g>
</svg>
