<svg width="251" height="252" viewBox="0 0 251 252" fill="none" xmlns="http://www.w3.org/2000/svg">
<path d="M0 47.4597C39.45 50.0795 71.06 81.7674 73.54 121.255H119.61C117.05 56.2991 64.93 4.08263 0 1.38281V47.4597Z" fill="#160F26"/>
<path d="M73.8 131.764C71.18 171.212 39.49 202.819 0 205.299V251.366C64.96 248.806 117.18 196.69 119.88 131.764H73.8Z" fill="#160F26"/>
<path d="M176.201 120.985C178.821 81.5374 210.511 49.9295 250.001 47.4497V1.38281C185.041 3.94264 132.821 56.0591 130.121 120.985H176.201Z" fill="#160F26"/>
<path d="M250.001 205.29C210.551 202.67 178.941 170.982 176.461 131.495H130.391C132.951 196.45 185.071 248.667 250.001 251.367V205.29Z" fill="#160F26"/>
</svg>
