<svg width="300" height="84" viewBox="0 0 300 84" fill="none" xmlns="http://www.w3.org/2000/svg">
<path d="M21.0556 28.7448C27.7092 29.1816 33.0489 34.5072 33.4531 41.1432H41.2184C40.7973 30.2232 32.0045 21.4536 21.0556 21V28.7448Z" fill="#0DC09D"/>
<path d="M33.5037 42.9072C33.0657 49.5432 27.7092 54.852 21.0556 55.2552V63C32.0214 62.5632 40.8142 53.8104 41.269 42.9072H33.5037Z" fill="#0DC09D"/>
<path d="M50.7692 41.0928C51.2072 34.4568 56.5637 29.148 63.2173 28.7448V21C52.2515 21.4368 43.4587 30.1896 43.0039 41.0928H50.7692Z" fill="#0DC09D"/>
<path d="M63.2173 55.2548C56.5637 54.818 51.224 49.4924 50.8197 42.8564H43.0544C43.4924 53.7764 52.2852 62.546 63.2341 62.9996V55.2548H63.2173Z" fill="#0DC09D"/>
<path d="M76.7266 55.3563V28.7451H81.8978V32.9283H82.7232C83.1948 31.9035 84.0539 30.9459 85.2836 30.0723C86.5132 29.1819 88.3493 28.7451 90.7749 28.7451C92.6951 28.7451 94.3964 29.1651 95.8787 30.0219C97.361 30.8787 98.5402 32.0715 99.3824 33.6171C100.241 35.1627 100.663 37.0275 100.663 39.2115V55.3563H95.3734V39.6315C95.3734 37.4475 94.8344 35.8515 93.7395 34.8099C92.6446 33.7683 91.1454 33.2475 89.2252 33.2475C87.0354 33.2475 85.2836 33.9699 83.9697 35.3979C82.6558 36.8259 81.9989 38.9091 81.9989 41.6307V55.3731L76.7266 55.3563Z" fill="#201637"/>
<path d="M202.959 55.3732V21.0508H208.248V55.3732H202.959Z" fill="#201637"/>
<path d="M226.373 55.3729C223.846 55.3729 221.589 54.8521 219.635 53.8105C217.664 52.7689 216.131 51.2737 215.003 49.3417C213.874 47.4097 213.318 45.1081 213.318 42.4537V41.6809C213.318 39.0265 213.874 36.7417 215.003 34.8097C216.131 32.8777 217.681 31.3993 219.635 30.3409C221.589 29.2825 223.846 28.7617 226.373 28.7617C228.899 28.7617 231.157 29.2825 233.144 30.3409C235.132 31.3993 236.682 32.8945 237.81 34.8097C238.939 36.7417 239.495 39.0265 239.495 41.6809V42.4537C239.495 45.1081 238.939 47.4097 237.81 49.3417C236.682 51.2905 235.132 52.7689 233.144 53.8105C231.157 54.8521 228.916 55.3729 226.373 55.3729ZM226.373 50.6689C228.697 50.6689 230.584 49.9297 232.033 48.4513C233.481 46.9729 234.206 44.9233 234.206 42.3025V41.8321C234.206 39.2113 233.481 37.1617 232.049 35.6833C230.618 34.2049 228.714 33.4657 226.356 33.4657C223.998 33.4657 222.195 34.2049 220.747 35.6833C219.298 37.1617 218.574 39.2113 218.574 41.8321V42.2857C218.574 44.9065 219.298 46.9561 220.747 48.4345C222.212 49.9297 224.082 50.6689 226.373 50.6689Z" fill="#201637"/>
<path d="M246.637 50.9545L243.049 28.7617H248.338L251.522 51.8449H252.347L255.952 32.9449C256.423 30.5089 258.546 28.7617 261.022 28.7617C263.515 28.7617 265.637 30.5257 266.109 32.9617L269.68 51.8449H270.505L273.689 28.7617H278.978L275.39 50.9545C274.986 53.5081 272.762 55.3729 270.185 55.3729C267.642 55.3729 265.469 53.5753 264.997 51.0889L261.443 32.3401H260.618L257.047 51.0889C256.575 53.5753 254.402 55.3729 251.858 55.3729C249.264 55.3729 247.058 53.4913 246.637 50.9545Z" fill="#201637"/>
<path d="M186.384 22.4788C185.474 23.4028 185.02 24.6292 185.02 26.1748V55.39H190.326V33.2308H197.906V28.762H194.25L191.269 31.7356H190.343V27.0148C190.343 25.99 190.831 25.4692 191.842 25.4692H197.906V21.0508H190.14C188.54 21.0844 187.294 21.5548 186.384 22.4788Z" fill="#201637"/>
<path d="M172.622 49.3077V35.3301H167.316V50.2317C167.316 51.7773 167.771 53.0037 168.681 53.9277C169.59 54.8517 170.82 55.3053 172.369 55.3053H179.377V50.8365H174.071C173.111 50.8533 172.622 50.3325 172.622 49.3077Z" fill="#201637"/>
<path d="M140.82 48.1486C139.354 49.8958 137.181 50.7526 134.907 50.7526H118.821C116.698 50.7526 114.913 50.0974 113.498 48.7702C113.414 48.6862 113.33 48.6022 113.245 48.5182C113.161 48.4342 113.077 48.3502 112.993 48.2494C112.807 48.031 112.622 47.7958 112.471 47.5606C111.78 46.519 111.376 45.2926 111.275 43.8646C111.258 43.7302 111.258 43.5958 111.258 43.4446H130.78V41.4454C130.78 38.875 130.258 36.6406 129.231 34.7254C128.203 32.8102 126.771 31.315 124.935 30.2398C123.099 29.1646 120.96 28.627 118.518 28.627C116.075 28.627 113.818 29.1646 111.932 30.2734C110.988 30.8278 110.146 31.4662 109.405 32.239C109.304 32.3398 109.22 32.4238 109.135 32.5246C108.866 32.827 108.613 33.1294 108.377 33.4486C108.057 33.8854 107.754 34.339 107.485 34.8262C106.407 36.775 105.867 39.0598 105.867 41.6974V42.319C105.867 44.9566 106.407 47.2414 107.485 49.1902C108.563 51.139 110.062 52.651 111.982 53.7262C113.902 54.8014 116.159 55.339 118.72 55.339H134.469C135.901 55.339 138.916 55.087 140.702 54.079C142.69 52.9702 143.902 51.6262 145.924 49.2406L146.682 48.1486L143.784 44.0494L140.82 48.1486ZM111.291 39.4126C111.342 39.0598 111.409 38.7238 111.494 38.4046C111.578 38.0854 111.679 37.7662 111.797 37.4638C112.201 36.4726 112.791 35.6326 113.565 34.9438C114.812 33.8518 116.446 33.2974 118.433 33.2974C120.421 33.2974 122.038 33.8518 123.268 34.9438C124.497 36.0358 125.205 37.531 125.373 39.4126H114.761L112.049 42.1174H111.157C111.19 41.3278 111.19 40.3366 111.291 39.4126Z" fill="#201637"/>
<path d="M172.622 28.6944V21H167.316V28.6944H162.33C160.898 28.6944 157.883 28.9464 156.098 29.9544C154.11 31.0632 152.51 32.4912 150.505 34.8768L148.282 37.9176C147.355 36.5736 146.597 35.4984 146.244 35.0112C144.441 32.4744 142.673 31.1472 140.685 30.0384C138.9 29.0472 136.053 28.7784 134.621 28.7784H133.627V33.3984H135.059C137.35 33.3984 139.337 34.2552 140.803 36.0024L145.132 42.2184L145.115 42.252L147.76 45.9984L150 49.224C152.005 51.6096 153.622 53.0376 155.592 54.1464C157.378 55.1376 160.393 55.4064 161.825 55.4064H162.819V50.736H161.387C159.096 50.736 156.889 49.9296 155.474 48.132C154.935 47.4432 153.015 44.7216 151.044 41.8992L155.272 35.8848C156.738 34.1376 159.585 33.1296 161.859 33.1296H179.933V28.6608L172.622 28.6944Z" fill="#201637"/>
</svg>
