<svg width="150" height="150" viewBox="0 0 150 150" fill="none" xmlns="http://www.w3.org/2000/svg">
<path d="M37.35 51.4501C49.17 52.2301 58.68 61.7401 59.4 73.5901H73.23C72.45 54.0901 56.82 38.4301 37.35 37.6201V51.4501Z" fill="#201637"/>
<path d="M59.49 76.7402C58.71 88.5902 49.2 98.0702 37.35 98.7902V112.62C56.85 111.84 72.51 96.2102 73.32 76.7402H59.49Z" fill="#201637"/>
<path d="M90.21 73.5001C90.99 61.6501 100.5 52.1701 112.35 51.4501V37.6201C92.85 38.4001 77.19 54.0301 76.38 73.5001H90.21Z" fill="#201637"/>
<path d="M112.35 98.7904C100.53 98.0104 91.02 88.5004 90.3 76.6504H76.47C77.25 96.1504 92.88 111.81 112.35 112.62V98.7904Z" fill="#201637"/>
</svg>
