<?xml version="1.0" encoding="utf-8"?>
<!-- Generator: Adobe Illustrator 28.3.0, SVG Export Plug-In . SVG Version: 6.00 Build 0)  -->
<svg version="1.1" id="Layer_1" xmlns="http://www.w3.org/2000/svg" xmlns:xlink="http://www.w3.org/1999/xlink" x="0px" y="0px"
	 viewBox="0 0 500 500" style="enable-background:new 0 0 500 500;" xml:space="preserve">
<style type="text/css">
	.st0{fill:#0DC09D;}
</style>
<path class="st0" d="M124.5,171.5c39.4,2.6,71.1,34.3,73.5,73.8h46.1c-2.6-65-54.7-117.2-119.6-119.9V171.5z"/>
<path class="st0" d="M198.3,255.8c-2.6,39.4-34.3,71.1-73.8,73.5v46.1c65-2.6,117.2-54.7,119.9-119.6H198.3z"/>
<path class="st0" d="M300.7,245c2.6-39.5,34.3-71.1,73.8-73.5v-46.1c-65,2.6-117.2,54.7-119.9,119.6H300.7z"/>
<path class="st0" d="M374.5,329.4c-39.4-2.6-71.1-34.3-73.5-73.8h-46.1c2.6,65,54.7,117.2,119.6,119.9V329.4z"/>
</svg>
