<svg width="500" height="500" viewBox="0 0 500 500" fill="none" xmlns="http://www.w3.org/2000/svg">
<path d="M124.5 171.5C163.9 174.1 195.6 205.8 198 245.3H244.1C241.5 180.3 189.4 128.1 124.5 125.4V171.5Z" fill="#201637"/>
<path d="M198.3 255.801C195.7 295.301 164 326.901 124.5 329.301V375.401C189.5 372.801 241.7 320.701 244.4 255.801H198.3Z" fill="#201637"/>
<path d="M300.7 245C303.3 205.5 335 173.9 374.5 171.5V125.4C309.5 128 257.3 180.1 254.6 245H300.7Z" fill="#201637"/>
<path d="M374.5 329.3C335.1 326.7 303.4 295 301 255.5H254.9C257.5 320.5 309.6 372.7 374.5 375.4V329.3Z" fill="#201637"/>
</svg>
