<?xml version="1.0" encoding="utf-8"?>
<!-- Generator: Adobe Illustrator 28.3.0, SVG Export Plug-In . SVG Version: 6.00 Build 0)  -->
<svg version="1.1" id="Layer_1" xmlns="http://www.w3.org/2000/svg" xmlns:xlink="http://www.w3.org/1999/xlink" x="0px" y="0px"
	 viewBox="0 0 1781 500" style="enable-background:new 0 0 1781 500;" xml:space="preserve">
<style type="text/css">
	.st0{clip-path:url(#SVGID_00000039134336802512844530000009718184002510297739_);}
	.st1{fill:#160F26;}
</style>
<g>
	<defs>
		<rect id="SVGID_1_" x="124.6" y="125" width="1531" height="250"/>
	</defs>
	<clipPath id="SVGID_00000152246828822335458390000015843553960139382971_">
		<use xlink:href="#SVGID_1_"  style="overflow:visible;"/>
	</clipPath>
	<g style="clip-path:url(#SVGID_00000152246828822335458390000015843553960139382971_);">
		<path class="st1" d="M124.6,171.1c39.4,2.6,71,34.3,73.5,73.8h46.1c-2.6-65-54.7-117.2-119.6-119.9V171.1z"/>
		<path class="st1" d="M198.4,255.4c-2.6,39.4-34.3,71.1-73.8,73.5V375c64.9-2.6,117.2-54.7,119.9-119.6H198.4z"/>
		<path class="st1" d="M300.8,244.6c2.6-39.4,34.3-71.1,73.8-73.5V125c-64.9,2.6-117.2,54.7-119.9,119.6H300.8z"/>
		<path class="st1" d="M374.6,328.9c-39.4-2.6-71-34.3-73.5-73.8H255c2.6,65,54.7,117.2,119.6,119.9V328.9z"/>
		<path class="st1" d="M454.6,329.5V171.1h30.7v24.9h4.9c2.8-6.1,7.9-11.8,15.2-17c7.3-5.3,18.1-7.9,32.5-7.9
			c11.3,0,21.4,2.5,30.2,7.6c8.8,5.1,15.8,12.2,20.8,21.4s7.6,20.3,7.6,33.3v96.1h-31.3v-93.6c0-13-3.2-22.5-9.7-28.7
			c-6.5-6.2-15.4-9.3-26.7-9.3c-13,0-23.4,4.3-31.2,12.8s-11.7,20.9-11.7,37.1v81.8L454.6,329.5L454.6,329.5z"/>
		<path class="st1" d="M1202.9,329.6V125.3h31.3v204.3H1202.9z"/>
		<path class="st1" d="M1341.7,329.6c-15,0-28.3-3.1-40-9.3c-11.7-6.2-20.8-15-27.5-26.6s-10-25.2-10-41v-4.6
			c0-15.8,3.3-29.4,10-40.9s15.9-20.3,27.5-26.6c11.6-6.3,25-9.4,40-9.4s28.4,3.1,40.1,9.4c11.7,6.3,21,15.1,27.7,26.6
			c6.7,11.4,10,25.1,10,40.9v4.6c0,15.8-3.3,29.5-10,41c-6.7,11.5-15.9,20.4-27.7,26.6C1370,326.5,1356.7,329.6,1341.7,329.6z
			 M1341.7,301.6c13.8,0,25-4.4,33.6-13.2c8.6-8.8,12.9-21,12.9-36.6V249c0-15.6-4.3-27.8-12.8-36.6c-8.5-8.8-19.8-13.2-33.7-13.2
			s-24.7,4.4-33.3,13.2c-8.6,8.8-12.9,21-12.9,36.6v2.7c0,15.6,4.3,27.8,12.9,36.6C1317,297.2,1328.1,301.6,1341.7,301.6z"/>
		<path class="st1" d="M1461.8,303.3l-21.3-132.1h31.3l18.8,137.4h4.9l21.4-112.5c2.7-14.4,15.4-24.9,30.1-24.9
			c14.7,0,27.4,10.5,30.1,25l21.1,112.4h4.9l18.8-137.4h31.3L1632,303.3c-2.4,15.2-15.5,26.3-30.9,26.3c-15,0-28-10.7-30.7-25.5
			l-21-111.6h-4.9l-21,111.6c-2.8,14.8-15.7,25.5-30.7,25.5C1477.3,329.6,1464.2,318.4,1461.8,303.3L1461.8,303.3z"/>
		<path class="st1" d="M1104.6,133.8c-5.4,5.5-8.1,12.8-8.1,22v173.9h31.4V197.8h44.9v-26.5h-21.7l-17.7,17.7h-5.5v-28.1
			c0-6.1,2.9-9.2,8.8-9.2h35.9v-26.2h-46C1117.4,125.5,1110,128.3,1104.6,133.8z"/>
		<path class="st1" d="M1023.1,293.5v-83.2h-31.4V299c0,9.2,2.7,16.5,8.1,22c5.4,5.5,12.7,8.2,21.8,8.2h41.5v-26.6h-31.4
			C1025.9,302.7,1023.1,299.6,1023.1,293.5L1023.1,293.5z"/>
		<path class="st1" d="M834.5,286.6c-8.7,10.4-21.5,15.4-35.1,15.4h-95.3c-12.6,0-23.1-3.9-31.6-11.8c-0.5-0.5-1-1-1.5-1.5
			c-0.5-0.5-1-1-1.4-1.6c-1.1-1.3-2.2-2.7-3.1-4.1c-4.1-6.2-6.5-13.5-7-22c-0.1-0.8-0.1-1.6-0.1-2.5h115.7v-11.9
			c0-15.3-3-28.6-9.2-40c-6.1-11.4-14.6-20.3-25.5-26.7c-10.9-6.4-23.6-9.6-38-9.6c-14.4,0-27.9,3.2-39.1,9.8
			c-5.6,3.2-10.6,7.1-15,11.7c-0.5,0.6-1.1,1.1-1.6,1.7c-1.6,1.8-3.1,3.6-4.5,5.5c-1.9,2.6-3.6,5.3-5.2,8.2
			c-6.4,11.6-9.6,25.2-9.6,40.9v3.7c0,15.7,3.2,29.3,9.6,40.9c6.4,11.6,15.3,20.6,26.7,27c11.4,6.4,24.7,9.6,40,9.6h93.4
			c8.5,0,26.4-1.5,36.9-7.5c11.7-6.6,19-14.5,30.9-28.8l4.5-6.5l-17.2-24.4L834.5,286.6L834.5,286.6z M659.5,234.6
			c0.3-2.1,0.7-4.1,1.2-6c0.5-1.9,1.1-3.8,1.8-5.6c2.4-5.9,5.9-10.9,10.5-15c7.4-6.5,17-9.8,28.8-9.8c11.8,0,21.4,3.2,28.7,9.8
			c7.3,6.5,11.5,15.4,12.5,26.6h-62.9l-16.1,16.1h-5.3C658.8,246,658.9,240.1,659.5,234.6z"/>
		<path class="st1" d="M1023.1,170.8V125h-31.4v45.8h-29.6c-8.5,0-26.4,1.5-36.9,7.5c-11.7,6.6-21.3,15-33.2,29.3l-13.2,18.1
			c-5.5-8-10-14.4-12.1-17.3c-10.7-15.1-21.2-23-32.9-29.6c-10.6-5.9-27.4-7.5-35.9-7.5H792v27.5h8.4c13.5,0,25.4,5.1,34.1,15.5
			l25.7,37l-0.1,0.2l15.7,22.3l13.3,19.2c11.9,14.2,21.4,22.7,33.2,29.3c10.6,5.9,28.4,7.5,36.9,7.5h5.9V302h-8.4
			c-13.5,0-26.7-4.8-35.1-15.4c-3.2-4.1-14.6-20.3-26.3-37.1l25.1-35.8c8.7-10.4,25.5-16.4,39.1-16.4h107.1v-26.6L1023.1,170.8
			L1023.1,170.8z"/>
	</g>
</g>
</svg>
