<svg width="48" height="48" viewBox="0 0 48 48" fill="none" xmlns="http://www.w3.org/2000/svg">
<g clip-path="url(#clip0_416_972)">
<mask id="mask0_416_972" style="mask-type:luminance" maskUnits="userSpaceOnUse" x="0" y="0" width="48" height="48">
<path d="M48 0H0V48H48V0Z" fill="white"/>
</mask>
<g mask="url(#mask0_416_972)">
<path d="M22.9651 39.152C15.3907 38.649 9.3216 32.5645 8.84544 24.9824H0C0.49152 37.4548 10.4986 47.481 22.9651 47.9994V39.152Z" fill="#201637"/>
<path d="M8.84736 22.9651C9.3504 15.3907 15.4349 9.3216 23.017 8.84544V0C10.5446 0.49152 0.5184 10.4986 0 22.9651H8.84736Z" fill="#201637"/>
<path d="M39.153 25.0352C38.65 32.6096 32.5655 38.6787 24.9834 39.1548V48.0003C37.4558 47.5088 47.482 37.5017 48.0004 25.0352H39.153Z" fill="#201637"/>
<path d="M25.0352 8.84736C32.6096 9.3504 38.6787 15.4349 39.1549 23.017H48.0003C47.5088 10.5446 37.5017 0.5184 25.0352 0V8.84736Z" fill="#201637"/>
</g>
</g>
<defs>
<clipPath id="clip0_416_972">
<rect width="48" height="48" fill="white"/>
</clipPath>
</defs>
</svg>
