<svg width="221" height="48" viewBox="0 0 221 48" fill="none" xmlns="http://www.w3.org/2000/svg">
<g clip-path="url(#clip0_416_996)">
<mask id="mask0_416_996" style="mask-type:luminance" maskUnits="userSpaceOnUse" x="0" y="0" width="48" height="48">
<path d="M48 0H0V48H48V0Z" fill="white"/>
</mask>
<g mask="url(#mask0_416_996)">
<path d="M22.9651 39.152C15.3907 38.649 9.3216 32.5645 8.84544 24.9824H0C0.49152 37.4548 10.4986 47.481 22.9651 47.9994V39.152Z" fill="white"/>
<path d="M8.84736 22.9651C9.3504 15.3907 15.4349 9.3216 23.017 8.84544V0C10.5446 0.49152 0.5184 10.4986 0 22.9651H8.84736Z" fill="white"/>
<path d="M39.153 25.0352C38.65 32.6096 32.5655 38.6787 24.9834 39.1548V48.0003C37.4558 47.5088 47.482 37.5017 48.0004 25.0352H39.153Z" fill="white"/>
<path d="M25.0352 8.84736C32.6096 9.3504 38.6787 15.4349 39.1549 23.017H48.0003C47.5088 10.5446 37.5017 0.5184 25.0352 0V8.84736Z" fill="white"/>
</g>
<path d="M94.7353 39.1804C92.5561 39.1804 90.6111 38.6927 88.8985 37.7212C87.1858 36.7497 85.8438 35.3673 84.8703 33.5778C83.8969 31.7884 83.4111 29.6476 83.4111 27.1574V8.76953H89.4226V26.7465C89.4226 29.2367 90.0447 31.0761 91.2908 32.2626C92.535 33.4492 94.2668 34.0425 96.4863 34.0425C98.9382 34.0425 100.912 33.2169 102.412 31.5618C103.909 29.9087 104.658 27.2342 104.658 24.1199V8.76953H110.67V39.1785H104.775V34.3343H103.842C103.297 35.5017 102.325 36.6018 100.924 37.6329C99.5218 38.6639 97.4598 39.1804 94.7372 39.1804H94.7353Z" fill="white"/>
<path d="M146.355 39.1804V8.76953H152.366V39.1785H146.355V39.1804Z" fill="white"/>
<path d="M173.01 39.1804C170.13 39.1804 167.573 38.5871 165.334 37.4006C163.095 36.214 161.337 34.511 160.052 32.2934C158.768 30.0758 158.126 27.4492 158.126 24.4137V23.5382C158.126 20.5027 158.768 17.8857 160.052 15.6873C161.337 13.4889 163.097 11.7859 165.334 10.5801C167.571 9.37436 170.13 8.77148 173.01 8.77148C175.89 8.77148 178.457 9.37436 180.715 10.5801C182.971 11.7859 184.743 13.4889 186.026 15.6873C187.31 17.8857 187.952 20.5027 187.952 23.5382V24.4137C187.952 27.4492 187.31 30.0758 186.026 32.2934C184.741 34.511 182.971 36.214 180.715 37.4006C178.457 38.5871 175.89 39.1804 173.01 39.1804ZM173.01 33.8102C175.656 33.8102 177.806 32.9635 179.46 31.2719C181.113 29.5785 181.94 27.2361 181.94 24.239V23.7129C181.94 20.7177 181.122 18.3715 179.488 16.6799C177.854 14.9865 175.694 14.1417 173.01 14.1417C170.326 14.1417 168.272 14.9884 166.619 16.6799C164.964 18.3734 164.138 20.7177 164.138 23.7129V24.239C164.138 27.2361 164.964 29.5804 166.619 31.2719C168.272 32.9654 170.403 33.8102 173.01 33.8102Z" fill="white"/>
<path d="M193.714 39.1804V8.76953H199.608V13.5561H200.541C201.086 12.3887 202.058 11.3001 203.46 10.2882C204.861 9.27641 206.942 8.77145 209.705 8.77145C211.884 8.77145 213.82 9.25913 215.513 10.2306C217.207 11.2041 218.537 12.575 219.511 14.3452C220.482 16.1154 220.97 18.2466 220.97 20.7369V39.1804H214.958V21.2034C214.958 18.7132 214.336 16.8758 213.09 15.6873C211.844 14.5007 210.133 13.9074 207.954 13.9074C205.464 13.9074 203.469 14.7254 201.972 16.3593C200.474 17.9932 199.725 20.7177 199.725 23.83V39.1804H193.714Z" fill="white"/>
<path d="M128.747 39.1804H116.432V34.3363H128.747C130.653 34.3363 132.122 33.9676 133.153 33.2265C134.184 32.4873 134.7 31.5331 134.7 30.3657C134.7 29.1983 134.213 28.342 133.241 27.7967C132.268 27.2534 130.828 26.8041 128.921 26.4547L126.936 26.1052C124.989 25.7558 123.219 25.2489 121.625 24.5884C120.03 23.9279 118.764 23.0121 117.831 21.8447C116.898 20.6774 116.43 19.1798 116.43 17.35C116.43 14.6275 117.442 12.5155 119.465 11.0179C121.489 9.52028 124.173 8.77148 127.52 8.77148H140.128V13.6751H127.52C125.886 13.6751 124.601 13.9766 123.668 14.5795C122.735 15.1823 122.267 16.0291 122.267 17.1177C122.267 18.2851 122.724 19.1414 123.637 19.6867C124.551 20.2319 125.788 20.6409 127.343 20.9116L129.386 21.2611C131.448 21.6105 133.335 22.0982 135.048 22.7203C136.761 23.3423 138.112 24.2371 139.105 25.4044C140.098 26.5718 140.593 28.1289 140.593 30.0739C140.593 32.9539 139.522 35.1907 137.383 36.7862C135.242 38.3817 132.364 39.1785 128.745 39.1785L128.747 39.1804Z" fill="white"/>
<path d="M64.5533 1.58208C63.5165 2.63616 63 4.04352 63 5.80032V39.1795H69.0346V13.8797H77.6534V8.78208H73.487L70.0886 12.1805H69.0346V6.79488C69.0346 5.62368 69.599 5.03808 70.7338 5.03808H77.6304V0H68.8003C67.0013 0 65.5862 0.528 64.5533 1.58208Z" fill="white"/>
</g>
<defs>
<clipPath id="clip0_416_996">
<rect width="221" height="48" fill="white"/>
</clipPath>
</defs>
</svg>
