<svg width="48" height="48" viewBox="0 0 48 48" fill="none" xmlns="http://www.w3.org/2000/svg">
<g clip-path="url(#clip0_416_963)">
<mask id="mask0_416_963" style="mask-type:luminance" maskUnits="userSpaceOnUse" x="0" y="0" width="48" height="48">
<path d="M48 0H0V48H48V0Z" fill="white"/>
</mask>
<g mask="url(#mask0_416_963)">
<path d="M22.9651 39.152C15.3907 38.649 9.3216 32.5645 8.84544 24.9824H0C0.49152 37.4548 10.4986 47.481 22.9651 47.9994V39.152Z" fill="#201637"/>
<path d="M8.84736 22.9651C9.3504 15.3907 15.4349 9.3216 23.017 8.84544V0C10.5446 0.49152 0.5184 10.4986 0 22.9651H8.84736Z" fill="#201637"/>
<path d="M39.1525 25.0352C38.6495 32.6096 32.565 38.6787 24.9829 39.1548V48.0003C37.4553 47.5088 47.4815 37.5017 47.9999 25.0352H39.1525Z" fill="#201637"/>
<path d="M25.0347 8.84736C32.6091 9.3504 38.6782 15.4349 39.1544 23.017H47.9998C47.5083 10.5446 37.5012 0.5184 25.0347 0V8.84736Z" fill="#201637"/>
</g>
</g>
<defs>
<clipPath id="clip0_416_963">
<rect width="48" height="48" fill="white"/>
</clipPath>
</defs>
</svg>
