<svg width="196" height="48" viewBox="0 0 196 48" fill="none" xmlns="http://www.w3.org/2000/svg">
<g clip-path="url(#clip0_417_1925)">
<path d="M9.10371 22.9651C9.60674 15.3907 15.6912 9.3216 23.2733 8.84544V0C10.801 0.49152 0.774748 10.4986 0.256348 22.9651H9.10371Z" fill="white"/>
<path d="M9.10371 48.0003C9.60675 40.4259 15.6913 34.3568 23.2733 33.8806V25.0352C10.801 25.5267 0.774748 35.5337 0.256348 48.0003H9.10371Z" fill="white"/>
<path d="M39.4089 0C38.9058 7.5744 32.8214 13.6436 25.2393 14.1197V22.9652C37.7116 22.4736 47.7378 12.4666 48.2562 0H39.4089Z" fill="white"/>
<path d="M39.4089 25.0352C38.9058 32.6096 32.8214 38.6787 25.2393 39.1549V48.0003C37.7116 47.5088 47.7378 37.5017 48.2562 25.0352H39.4089Z" fill="white"/>
<path d="M67.0877 34.1543L63 8.79684H69.0115L72.6307 35.1796H73.5638L77.6726 13.5796C78.2006 10.8052 80.6256 8.79684 83.4518 8.79684C86.2819 8.79684 88.7088 10.811 89.233 13.5911L93.2918 35.1777H94.225L97.8442 8.79492H103.856L99.768 34.1524C99.2995 37.0631 96.7862 39.2038 93.8371 39.2038C90.9475 39.2038 88.4688 37.1475 87.9331 34.3097L83.8954 12.8807H82.9622L78.9226 34.3097C78.3869 37.1494 75.9082 39.2038 73.0186 39.2038C70.0694 39.2038 67.5562 37.0631 67.0877 34.1524V34.1543Z" fill="white"/>
<path d="M144.683 34.6459L136.446 8.79688H142.809L150.454 34.7707H151.387L159.033 8.79688H165.396L157.159 34.6459C156.293 37.3627 153.77 39.2059 150.919 39.2059C148.068 39.2059 145.545 37.3607 144.679 34.6459H144.683Z" fill="white"/>
<path d="M195.897 23.3889C195.897 20.4705 195.313 17.9227 194.146 15.7435C192.978 13.5643 191.352 11.8612 189.273 10.6363C187.19 9.41128 184.767 8.79688 182.006 8.79688C179.245 8.79688 176.674 9.41896 174.535 10.6651C173.463 11.2871 172.509 12.0302 171.668 12.898C171.563 13.0055 171.459 13.1169 171.355 13.2283C171.048 13.5662 170.762 13.9195 170.489 14.2881C170.128 14.7815 169.792 15.3057 169.485 15.8606C168.26 18.0782 167.646 20.6855 167.646 23.6827V24.3835C167.646 27.3806 168.258 29.986 169.485 32.2055C170.71 34.4231 172.413 36.1454 174.592 37.3703C176.77 38.5953 179.319 39.2097 182.238 39.2097C184.807 39.2097 186.946 38.8007 188.658 37.9847C190.371 37.1668 191.732 36.155 192.744 34.9492C193.024 34.6132 193.289 34.283 193.537 33.9566C194.182 33.1099 194.716 32.2939 195.136 31.5047L190.118 28.9358C189.495 30.2606 188.608 31.4279 187.462 32.4379C186.312 33.4497 184.611 33.9547 182.355 33.9547C179.942 33.9547 177.927 33.2039 176.315 31.7083C176.215 31.6142 176.117 31.522 176.023 31.4222C175.927 31.3223 175.837 31.2244 175.746 31.1246C175.531 30.8769 175.332 30.6177 175.147 30.3451C174.362 29.1662 173.913 27.7627 173.799 26.1364C173.788 25.9809 173.782 25.8235 173.776 25.666H195.899V23.3889H195.897ZM177.803 21.0542L174.729 24.1281H173.717C173.702 23.243 173.717 22.1063 173.834 21.0542C173.892 20.6548 173.968 20.2689 174.068 19.8983C174.164 19.5278 174.281 19.1745 174.418 18.8366C174.871 17.7095 175.545 16.7553 176.432 15.9758C177.851 14.7297 179.688 14.1076 181.948 14.1076C184.208 14.1076 186.034 14.7297 187.435 15.9758C188.837 17.2219 189.634 18.9153 189.828 21.0542H177.805H177.803Z" fill="white"/>
<path d="M132.951 19.6849C132.951 16.1675 131.878 13.4507 129.728 11.5364C127.579 9.62214 124.628 8.66406 120.875 8.66406C118.413 8.66406 116.332 9.05382 114.631 9.83718C112.932 10.6206 111.563 11.6555 110.528 12.9438C109.493 14.234 108.74 15.6414 108.27 17.1639L113.897 18.9822C114.249 17.4193 114.973 16.1483 116.067 15.171C117.163 14.1956 118.743 13.706 120.815 13.706C122.887 13.706 124.49 14.2244 125.506 15.2593C126.523 16.2942 127.03 17.6343 127.03 19.2759V24.2756H126.055L122.927 21.1518H118.237C115.07 21.1518 112.442 21.9044 110.351 23.4097C108.26 24.9131 107.214 27.1326 107.214 30.0644C107.214 32.019 107.694 33.6779 108.65 35.0468C109.608 36.4158 110.898 37.4507 112.519 38.1534C114.143 38.8561 115.99 39.2094 118.058 39.2094C120.126 39.2094 121.654 38.9252 122.866 38.3588C124.077 37.7924 124.997 37.1281 125.621 36.3659C126.249 35.6036 126.713 34.9086 127.028 34.2846H127.967V39.2094H132.949V19.6868L132.951 19.6849ZM127.03 26.426C127.03 28.851 126.277 30.7556 124.772 32.1419C123.269 33.5281 121.326 34.2231 118.939 34.2231C117.181 34.2231 115.794 33.8334 114.777 33.05C113.759 32.2667 113.252 31.2126 113.252 29.8839C113.252 28.5553 113.742 27.5473 114.717 26.8657C115.696 26.1822 116.983 25.8404 118.586 25.8404H127.028V26.426H127.03Z" fill="white"/>
</g>
<defs>
<clipPath id="clip0_417_1925">
<rect width="196" height="48" fill="white"/>
</clipPath>
</defs>
</svg>
