<svg width="49" height="48" viewBox="0 0 49 48" fill="none" xmlns="http://www.w3.org/2000/svg">
<g clip-path="url(#clip0_417_1902)">
<path d="M9.10371 22.9651C9.60675 15.3907 15.6912 9.3216 23.2733 8.84544V0C10.8009 0.49152 0.774748 10.4986 0.256348 22.9651H9.10371Z" fill="#201637"/>
<path d="M9.10371 48.0003C9.60675 40.4259 15.6912 34.3568 23.2733 33.8806V25.0352C10.801 25.5267 0.774748 35.5337 0.256348 48.0003H9.10371Z" fill="#201637"/>
<path d="M39.4089 0C38.9058 7.5744 32.8214 13.6436 25.2393 14.1197V22.9652C37.7116 22.4736 47.7378 12.4666 48.2562 0H39.4089Z" fill="#201637"/>
<path d="M39.4089 25.0352C38.9058 32.6096 32.8214 38.6787 25.2393 39.1549V48.0003C37.7116 47.5088 47.7378 37.5017 48.2562 25.0352H39.4089Z" fill="#201637"/>
</g>
<defs>
<clipPath id="clip0_417_1902">
<rect width="49" height="48" fill="white"/>
</clipPath>
</defs>
</svg>
