<?xml version="1.0" encoding="utf-8"?>
<!-- Generator: Adobe Illustrator 28.3.0, SVG Export Plug-In . SVG Version: 6.00 Build 0)  -->
<svg version="1.1" id="Layer_1" xmlns="http://www.w3.org/2000/svg" xmlns:xlink="http://www.w3.org/1999/xlink" x="0px" y="0px"
	 viewBox="0 0 1401 500" style="enable-background:new 0 0 1401 500;" xml:space="preserve">
<style type="text/css">
	.st0{clip-path:url(#SVGID_00000018223899149039897960000000409257960071505819_);}
	.st1{fill:#160F26;}
</style>
<g>
	<defs>
		<rect id="SVGID_1_" x="125" y="125" width="250" height="250"/>
	</defs>
	<clipPath id="SVGID_00000134213077866973064850000015330022824471268228_">
		<use xlink:href="#SVGID_1_"  style="overflow:visible;"/>
	</clipPath>
	<g style="clip-path:url(#SVGID_00000134213077866973064850000015330022824471268228_);">
		<path class="st1" d="M244.6,328.9c-39.5-2.6-71.1-34.3-73.5-73.8H125c2.6,65,54.7,117.2,119.6,119.9V328.9z"/>
		<path class="st1" d="M171.1,244.6c2.6-39.5,34.3-71.1,73.8-73.5V125c-65,2.6-117.2,54.7-119.9,119.6H171.1z"/>
		<path class="st1" d="M328.9,255.4c-2.6,39.5-34.3,71.1-73.8,73.5V375c65-2.6,117.2-54.7,119.9-119.6H328.9z"/>
		<path class="st1" d="M255.4,171.1c39.5,2.6,71.1,34.3,73.5,73.8H375c-2.6-65-54.7-117.2-119.6-119.9V171.1z"/>
	</g>
</g>
<path class="st1" d="M618.4,329.1c-11.4,0-21.5-2.5-30.4-7.6c-8.9-5.1-15.9-12.3-21-21.6c-5.1-9.3-7.6-20.5-7.6-33.4v-95.8h31.3
	v93.6c0,13,3.2,22.6,9.7,28.7c6.5,6.2,15.5,9.3,27.1,9.3c12.8,0,23.1-4.3,30.9-12.9c7.8-8.6,11.7-22.5,11.7-38.8v-80h31.3v158.4
	h-30.7v-25.2h-4.9c-2.8,6.1-7.9,11.8-15.2,17.2C643.4,326.4,632.6,329.1,618.4,329.1L618.4,329.1z"/>
<path class="st1" d="M887.3,329.1V170.7h31.3v158.4L887.3,329.1L887.3,329.1z"/>
<path class="st1" d="M1026.2,329.1c-15,0-28.3-3.1-40-9.3c-11.7-6.2-20.8-15.1-27.5-26.6c-6.7-11.6-10-25.2-10-41v-4.6
	c0-15.8,3.3-29.4,10-40.9c6.7-11.5,15.9-20.3,27.5-26.6c11.7-6.3,25-9.4,40-9.4s28.4,3.1,40.1,9.4c11.8,6.3,21,15.2,27.7,26.6
	c6.7,11.5,10,25.1,10,40.9v4.6c0,15.8-3.3,29.5-10,41c-6.7,11.6-15.9,20.4-27.7,26.6C1054.5,326,1041.2,329.1,1026.2,329.1z
	 M1026.2,301.1c13.8,0,25-4.4,33.6-13.2c8.6-8.8,12.9-21,12.9-36.6v-2.7c0-15.6-4.3-27.8-12.8-36.6c-8.5-8.8-19.8-13.2-33.7-13.2
	c-14,0-24.7,4.4-33.3,13.2c-8.6,8.8-12.9,21-12.9,36.6v2.7c0,15.6,4.3,27.8,12.9,36.6C1001.5,296.7,1012.6,301.1,1026.2,301.1z"/>
<path class="st1" d="M1134,329.1V170.7h30.7v24.9h4.9c2.8-6.1,7.9-11.8,15.2-17c7.3-5.3,18.1-7.9,32.5-7.9c11.4,0,21.4,2.5,30.3,7.6
	c8.8,5.1,15.8,12.2,20.8,21.4c5.1,9.2,7.6,20.3,7.6,33.3v96.1h-31.3v-93.6c0-13-3.2-22.5-9.7-28.7c-6.5-6.2-15.4-9.3-26.8-9.3
	c-13,0-23.4,4.3-31.2,12.8c-7.8,8.5-11.7,22.7-11.7,38.9v80H1134z"/>
<path class="st1" d="M795.6,329.1h-64.1v-25.2h64.1c9.9,0,17.6-1.9,23-5.8c5.4-3.9,8.1-8.8,8.1-14.9s-2.5-10.5-7.6-13.4
	c-5.1-2.8-12.6-5.2-22.5-7l-10.3-1.8c-10.1-1.8-19.4-4.5-27.7-7.9c-8.3-3.4-14.9-8.2-19.8-14.3c-4.9-6.1-7.3-13.9-7.3-23.4
	c0-14.2,5.3-25.2,15.8-33c10.5-7.8,24.5-11.7,42-11.7h65.7v25.5h-65.7c-8.5,0-15.2,1.6-20.1,4.7c-4.9,3.1-7.3,7.6-7.3,13.2
	c0,6.1,2.4,10.5,7.1,13.4c4.8,2.8,11.2,5,19.3,6.4l10.6,1.8c10.7,1.8,20.6,4.4,29.5,7.6c8.9,3.2,16,7.9,21.1,14
	c5.2,6.1,7.8,14.2,7.8,24.3c0,15-5.6,26.7-16.7,35C829.4,324.9,814.4,329.1,795.6,329.1L795.6,329.1z"/>
<path class="st1" d="M461.2,133.2c-5.4,5.5-8.1,12.8-8.1,22v173.9h31.4V197.3h44.9v-26.6h-21.7l-17.7,17.7h-5.5v-28.1
	c0-6.1,2.9-9.2,8.9-9.2h35.9V125h-46C474,125,466.6,127.7,461.2,133.2z"/>
</svg>
