<?xml version="1.0" encoding="utf-8"?>
<!-- Generator: Adobe Illustrator 28.3.0, SVG Export Plug-In . SVG Version: 6.00 Build 0)  -->
<svg version="1.1" id="Layer_1" xmlns="http://www.w3.org/2000/svg" xmlns:xlink="http://www.w3.org/1999/xlink" x="0px" y="0px"
	 viewBox="0 0 500 500" style="enable-background:new 0 0 500 500;" xml:space="preserve">
<style type="text/css">
	.st0{clip-path:url(#SVGID_00000020398790661761258040000013247093846328949684_);}
	.st1{fill:#FFFFFF;}
</style>
<g>
	<defs>
		<rect id="SVGID_1_" x="125" y="125" width="250" height="250"/>
	</defs>
	<clipPath id="SVGID_00000147908134556225280150000002901713388176848301_">
		<use xlink:href="#SVGID_1_"  style="overflow:visible;"/>
	</clipPath>
	<g style="clip-path:url(#SVGID_00000147908134556225280150000002901713388176848301_);">
		<path class="st1" d="M244.6,328.9c-39.4-2.6-71.1-34.3-73.5-73.8H125c2.6,65,54.7,117.2,119.6,119.9V328.9z"/>
		<path class="st1" d="M171.1,244.6c2.6-39.4,34.3-71.1,73.8-73.5V125c-65,2.6-117.2,54.7-119.9,119.6H171.1z"/>
		<path class="st1" d="M328.9,255.4c-2.6,39.4-34.3,71.1-73.8,73.5V375c65-2.6,117.2-54.7,119.9-119.6H328.9z"/>
		<path class="st1" d="M255.4,171.1c39.4,2.6,71.1,34.3,73.5,73.8H375c-2.6-65-54.7-117.2-119.6-119.9V171.1z"/>
	</g>
</g>
</svg>
