<svg width="300" height="107" viewBox="0 0 300 107" fill="none" xmlns="http://www.w3.org/2000/svg">
<mask id="mask0_417_2050" style="mask-type:luminance" maskUnits="userSpaceOnUse" x="26" y="26" width="55" height="55">
<path d="M80.2998 26.75H26.7666V80.25H80.2998V26.75Z" fill="white"/>
</mask>
<g mask="url(#mask0_417_2050)">
<path d="M52.3769 70.385C43.9186 69.8286 37.152 63.0448 36.6381 54.5918H26.7666C27.3233 68.5018 38.4797 79.6726 52.3769 80.2504V70.385Z" fill="#201637"/>
<path d="M36.6381 52.3444C37.1949 43.9128 43.9829 37.129 52.4411 36.6154V26.75C38.5225 27.3064 27.3448 38.4558 26.7666 52.3444H36.6381Z" fill="#201637"/>
<path d="M70.4282 54.6553C69.8715 63.0869 63.0835 69.8707 54.6252 70.3843V80.2497C68.5439 79.6933 79.7216 68.5439 80.2998 54.6553H70.4282Z" fill="#201637"/>
<path d="M54.6895 36.6154C63.1477 37.1718 69.9143 43.9556 70.4282 52.4086H80.2997C79.743 38.4986 68.5867 27.3278 54.6895 26.75V36.6154Z" fill="#201637"/>
</g>
<path d="M132.42 70.4269C129.979 70.4269 127.816 69.8919 125.91 68.8005C124.004 67.7091 122.505 66.1683 121.413 64.1781C120.321 62.1879 119.786 59.7911 119.786 57.0305V36.5293H126.488V56.5597C126.488 59.3417 127.173 61.3961 128.565 62.7015C129.957 64.0283 131.884 64.6917 134.368 64.6917C137.109 64.6917 139.315 63.7715 140.985 61.9311C142.655 60.0907 143.49 57.1161 143.49 53.6279V36.5293H150.193V70.4269H143.619V65.0341H142.57C141.97 66.3395 140.878 67.5593 139.315 68.7149C137.773 69.8491 135.46 70.4269 132.42 70.4269Z" fill="#201637"/>
<path d="M190 70.4269V36.5293H196.702V70.4269H190Z" fill="#201637"/>
<path d="M219.743 70.4269C216.531 70.4269 213.683 69.7635 211.178 68.4367C208.672 67.1099 206.724 65.2267 205.289 62.7443C203.854 60.2833 203.148 57.3515 203.148 53.9703V52.9859C203.148 49.6047 203.854 46.6943 205.289 44.2333C206.724 41.7937 208.694 39.8891 211.178 38.5409C213.683 37.1927 216.531 36.5293 219.743 36.5293C222.955 36.5293 225.824 37.1927 228.33 38.5409C230.856 39.8891 232.827 41.7723 234.261 44.2333C235.696 46.6729 236.403 49.6047 236.403 52.9859V53.9703C236.403 57.3515 235.696 60.2833 234.261 62.7443C232.827 65.2267 230.856 67.1099 228.33 68.4367C225.803 69.7635 222.955 70.4269 219.743 70.4269ZM219.743 64.4349C222.698 64.4349 225.096 63.4933 226.938 61.6101C228.779 59.7269 229.7 57.1161 229.7 53.7777V53.1999C229.7 49.8615 228.779 47.2507 226.959 45.3675C225.139 43.4843 222.719 42.5427 219.743 42.5427C216.745 42.5427 214.454 43.4843 212.612 45.3675C210.771 47.2507 209.85 49.8615 209.85 53.1999V53.7777C209.85 57.1161 210.771 59.7269 212.612 61.6101C214.454 63.4933 216.831 64.4349 219.743 64.4349Z" fill="#201637"/>
<path d="M242.827 70.4269V36.5293H249.401V41.8579H250.45C251.049 40.5525 252.141 39.3541 253.705 38.2199C255.268 37.0857 257.58 36.5293 260.664 36.5293C263.105 36.5293 265.246 37.0643 267.152 38.1557C269.037 39.2471 270.535 40.7665 271.606 42.7353C272.698 44.7041 273.234 47.0795 273.234 49.8615V70.4269H266.531V50.3965C266.531 47.6145 265.846 45.5815 264.454 44.2547C263.062 42.9279 261.156 42.2645 258.715 42.2645C255.932 42.2645 253.705 43.1847 252.034 45.0037C250.364 46.8227 249.529 49.8615 249.529 53.3283V70.4483H242.827V70.4269Z" fill="#201637"/>
<path d="M170.364 70.4269H156.638V65.0341H170.364C172.484 65.0341 174.133 64.6275 175.289 63.7929C176.445 62.9583 177.024 61.9097 177.024 60.6043C177.024 59.2989 176.488 58.3573 175.396 57.7367C174.304 57.1375 172.698 56.6239 170.578 56.2387L168.373 55.8535C166.21 55.4683 164.218 54.8905 162.441 54.1629C160.664 53.4353 159.251 52.4081 158.201 51.1027C157.152 49.7973 156.638 48.1281 156.638 46.0951C156.638 43.0563 157.773 40.7023 160.021 39.0331C162.27 37.3639 165.268 36.5293 169.015 36.5293H183.084V41.9863H169.015C167.195 41.9863 165.76 42.3287 164.711 42.9921C163.662 43.6555 163.148 44.6185 163.148 45.8169C163.148 47.1223 163.662 48.0639 164.668 48.6845C165.696 49.2837 167.066 49.7545 168.801 50.0541L171.071 50.4393C173.362 50.8245 175.482 51.3809 177.388 52.0657C179.293 52.7505 180.814 53.7563 181.906 55.0617C183.019 56.3671 183.576 58.1005 183.576 60.2619C183.576 63.4719 182.377 65.9543 180 67.7519C177.602 69.5281 174.39 70.4269 170.364 70.4269Z" fill="#201637"/>
<path d="M98.758 28.5048C97.6017 29.6818 97.0236 31.244 97.0236 33.2128V70.406H103.747V42.2222H113.362V36.5298H108.715L104.925 40.3176H103.747V34.3042C103.747 32.9988 104.368 32.3568 105.653 32.3568H113.34V26.75H103.49C101.499 26.75 99.9144 27.3492 98.758 28.5048Z" fill="#201637"/>
</svg>
