<svg width="300" height="107" viewBox="0 0 300 107" fill="none" xmlns="http://www.w3.org/2000/svg">
<mask id="mask0_417_2066" style="mask-type:luminance" maskUnits="userSpaceOnUse" x="26" y="26" width="55" height="55">
<path d="M80.2998 26.75H26.7666V80.25H80.2998V26.75Z" fill="white"/>
</mask>
<g mask="url(#mask0_417_2066)">
<path d="M52.3769 70.385C43.9186 69.8286 37.152 63.0448 36.6381 54.5918H26.7666C27.3233 68.5018 38.4797 79.6726 52.3769 80.2504V70.385Z" fill="white"/>
<path d="M36.6381 52.3444C37.1949 43.9128 43.9829 37.129 52.4411 36.6154V26.75C38.5225 27.3064 27.3448 38.4558 26.7666 52.3444H36.6381Z" fill="white"/>
<path d="M70.4282 54.6553C69.8715 63.0869 63.0835 69.8707 54.6252 70.3843V80.2497C68.5439 79.6933 79.7216 68.5439 80.2998 54.6553H70.4282Z" fill="white"/>
<path d="M54.6895 36.6154C63.1477 37.1718 69.9143 43.9556 70.4282 52.4086H80.2997C79.743 38.4986 68.5867 27.3278 54.6895 26.75V36.6154Z" fill="white"/>
</g>
<path d="M132.42 70.4279C129.979 70.4279 127.816 69.8929 125.91 68.8015C124.004 67.7101 122.505 66.1693 121.413 64.1791C120.321 62.1889 119.786 59.7921 119.786 57.0315V36.5303H126.488V56.5607C126.488 59.3427 127.173 61.3971 128.565 62.7025C129.957 64.0293 131.884 64.6927 134.368 64.6927C137.109 64.6927 139.315 63.7725 140.985 61.9321C142.655 60.0917 143.49 57.1171 143.49 53.6289V36.5303H150.193V70.4279H143.619V65.0351H142.57C141.97 66.3405 140.878 67.5603 139.315 68.7159C137.773 69.8501 135.46 70.4279 132.42 70.4279Z" fill="white"/>
<path d="M190 70.4279V36.5303H196.702V70.4279H190Z" fill="white"/>
<path d="M219.743 70.4279C216.531 70.4279 213.683 69.7645 211.178 68.4377C208.672 67.1109 206.724 65.2277 205.289 62.7453C203.854 60.2843 203.148 57.3525 203.148 53.9713V52.9869C203.148 49.6057 203.854 46.6953 205.289 44.2343C206.724 41.7947 208.694 39.8901 211.178 38.5419C213.683 37.1937 216.531 36.5303 219.743 36.5303C222.955 36.5303 225.824 37.1937 228.33 38.5419C230.856 39.8901 232.827 41.7733 234.261 44.2343C235.696 46.6739 236.403 49.6057 236.403 52.9869V53.9713C236.403 57.3525 235.696 60.2843 234.261 62.7453C232.827 65.2277 230.856 67.1109 228.33 68.4377C225.803 69.7645 222.955 70.4279 219.743 70.4279ZM219.743 64.4359C222.698 64.4359 225.096 63.4943 226.938 61.6111C228.779 59.7279 229.7 57.1171 229.7 53.7787V53.2009C229.7 49.8625 228.779 47.2517 226.959 45.3685C225.139 43.4853 222.719 42.5437 219.743 42.5437C216.745 42.5437 214.454 43.4853 212.612 45.3685C210.771 47.2517 209.85 49.8625 209.85 53.2009V53.7787C209.85 57.1171 210.771 59.7279 212.612 61.6111C214.454 63.4943 216.831 64.4359 219.743 64.4359Z" fill="white"/>
<path d="M242.827 70.4279V36.5303H249.4V41.8589H250.45C251.049 40.5535 252.141 39.3551 253.704 38.2209C255.268 37.0867 257.58 36.5303 260.664 36.5303C263.105 36.5303 265.246 37.0653 267.152 38.1567C269.036 39.2481 270.535 40.7675 271.606 42.7363C272.698 44.7051 273.233 47.0805 273.233 49.8625V70.4279H266.531V50.3975C266.531 47.6155 265.846 45.5825 264.454 44.2557C263.062 42.9289 261.156 42.2655 258.715 42.2655C255.931 42.2655 253.704 43.1857 252.034 45.0047C250.364 46.8237 249.529 49.8625 249.529 53.3293V70.4493H242.827V70.4279Z" fill="white"/>
<path d="M170.364 70.4279H156.638V65.0351H170.364C172.484 65.0351 174.133 64.6285 175.289 63.7939C176.445 62.9593 177.024 61.9107 177.024 60.6053C177.024 59.2999 176.488 58.3583 175.396 57.7377C174.304 57.1385 172.698 56.6249 170.578 56.2397L168.373 55.8545C166.21 55.4693 164.218 54.8915 162.441 54.1639C160.664 53.4363 159.251 52.4091 158.201 51.1037C157.152 49.7983 156.638 48.1291 156.638 46.0961C156.638 43.0573 157.773 40.7033 160.021 39.0341C162.27 37.3649 165.268 36.5303 169.015 36.5303H183.084V41.9873H169.015C167.195 41.9873 165.76 42.3297 164.711 42.9931C163.662 43.6565 163.148 44.6195 163.148 45.8179C163.148 47.1233 163.662 48.0649 164.668 48.6855C165.696 49.2847 167.066 49.7555 168.801 50.0551L171.071 50.4403C173.362 50.8255 175.482 51.3819 177.388 52.0667C179.293 52.7515 180.814 53.7573 181.906 55.0627C183.019 56.3681 183.576 58.1015 183.576 60.2629C183.576 63.4729 182.377 65.9553 180 67.7529C177.602 69.5291 174.39 70.4279 170.364 70.4279Z" fill="white"/>
<path d="M98.758 28.5048C97.6017 29.6818 97.0236 31.244 97.0236 33.2128V70.406H103.747V42.2222H113.362V36.5298H108.715L104.925 40.3176H103.747V34.3042C103.747 32.9988 104.368 32.3568 105.653 32.3568H113.34V26.75H103.49C101.499 26.75 99.9144 27.3492 98.758 28.5048Z" fill="white"/>
</svg>
