<svg width="221" height="48" viewBox="0 0 221 48" fill="none" xmlns="http://www.w3.org/2000/svg">
<g clip-path="url(#clip0_2516_1767)">
<path d="M22.9651 39.1526C15.3907 38.6496 9.3216 32.5651 8.84544 24.983H0C0.49152 37.4554 10.4986 47.4816 22.9651 48V39.1526Z" fill="white"/>
<path d="M8.84736 22.9651C9.3504 15.3907 15.4349 9.3216 23.017 8.84544V0C10.5446 0.49152 0.5184 10.4986 0 22.9651H8.84736Z" fill="white"/>
<path d="M39.1526 25.0349C38.6496 32.6093 32.5651 38.6784 24.983 39.1545V48C37.4554 47.5085 47.4816 37.5014 48 25.0349H39.1526Z" fill="white"/>
<path d="M25.0349 8.84736C32.6093 9.3504 38.6784 15.4349 39.1546 23.017H48C47.5085 10.5446 37.5014 0.5184 25.0349 0V8.84736Z" fill="white"/>
</g>
<path d="M94.7357 39.1795C92.5565 39.1795 90.6115 38.6918 88.8989 37.7203C87.1862 36.7488 85.8442 35.3664 84.8707 33.5769C83.8973 31.7875 83.4115 29.6467 83.4115 27.1565V8.76862H89.423V26.7456C89.423 29.2358 90.0451 31.0752 91.2912 32.2617C92.5354 33.4483 94.2672 34.0416 96.4867 34.0416C98.9386 34.0416 100.912 33.216 102.412 31.5609C103.909 29.9078 104.658 27.2333 104.658 24.119V8.76862H110.67V39.1776H104.775V34.3334H103.842C103.297 35.5008 102.325 36.6009 100.924 37.632C99.5222 38.663 97.4602 39.1795 94.7376 39.1795H94.7357Z" fill="white"/>
<path d="M146.355 39.1795V8.76862H152.366V39.1776H146.355V39.1795Z" fill="white"/>
<path d="M173.01 39.1795C170.13 39.1795 167.573 38.5862 165.334 37.3997C163.095 36.2131 161.337 34.5101 160.052 32.2925C158.768 30.0749 158.126 27.4483 158.126 24.4128V23.5373C158.126 20.5018 158.768 17.8848 160.052 15.6864C161.337 13.488 163.097 11.785 165.334 10.5792C167.571 9.37345 170.13 8.77057 173.01 8.77057C175.89 8.77057 178.457 9.37345 180.715 10.5792C182.971 11.785 184.743 13.488 186.026 15.6864C187.31 17.8848 187.952 20.5018 187.952 23.5373V24.4128C187.952 27.4483 187.31 30.0749 186.026 32.2925C184.741 34.5101 182.971 36.2131 180.715 37.3997C178.457 38.5862 175.89 39.1795 173.01 39.1795ZM173.01 33.8093C175.656 33.8093 177.806 32.9626 179.46 31.271C181.113 29.5776 181.94 27.2352 181.94 24.2381V23.712C181.94 20.7168 181.122 18.3706 179.488 16.679C177.854 14.9856 175.694 14.1408 173.01 14.1408C170.326 14.1408 168.272 14.9875 166.619 16.679C164.964 18.3725 164.138 20.7168 164.138 23.712V24.2381C164.138 27.2352 164.964 29.5795 166.619 31.271C168.272 32.9645 170.403 33.8093 173.01 33.8093Z" fill="white"/>
<path d="M193.714 39.1795V8.76862H199.608V13.5552H200.541C201.086 12.3878 202.058 11.2992 203.46 10.2873C204.861 9.2755 206.942 8.77054 209.705 8.77054C211.884 8.77054 213.82 9.25822 215.513 10.2297C217.207 11.2032 218.537 12.5741 219.511 14.3443C220.482 16.1145 220.97 18.2457 220.97 20.736V39.1795H214.958V21.2025C214.958 18.7123 214.336 16.8749 213.09 15.6864C211.844 14.4998 210.133 13.9065 207.954 13.9065C205.464 13.9065 203.469 14.7245 201.972 16.3584C200.474 17.9923 199.725 20.7168 199.725 23.8291V39.1795H193.714Z" fill="white"/>
<path d="M128.747 39.1795H116.432V34.3354H128.747C130.653 34.3354 132.122 33.9667 133.153 33.2256C134.184 32.4864 134.7 31.5322 134.7 30.3648C134.7 29.1974 134.213 28.3411 133.241 27.7958C132.268 27.2525 130.828 26.8032 128.921 26.4538L126.936 26.1043C124.989 25.7549 123.219 25.248 121.625 24.5875C120.03 23.927 118.764 23.0112 117.831 21.8438C116.898 20.6765 116.43 19.1789 116.43 17.3491C116.43 14.6266 117.442 12.5146 119.465 11.017C121.489 9.51937 124.173 8.77057 127.52 8.77057H140.128V13.6742H127.52C125.886 13.6742 124.601 13.9757 123.668 14.5786C122.735 15.1814 122.267 16.0282 122.267 17.1168C122.267 18.2842 122.724 19.1405 123.637 19.6858C124.551 20.231 125.788 20.64 127.343 20.9107L129.386 21.2602C131.448 21.6096 133.335 22.0973 135.048 22.7194C136.761 23.3414 138.112 24.2362 139.105 25.4035C140.098 26.5709 140.593 28.128 140.593 30.073C140.593 32.953 139.522 35.1898 137.383 36.7853C135.242 38.3808 132.364 39.1776 128.745 39.1776L128.747 39.1795Z" fill="white"/>
<path d="M64.5533 1.58208C63.5165 2.63616 63 4.04352 63 5.80032V39.1795H69.0346V13.8797H77.6534V8.78208H73.487L70.0886 12.1805H69.0346V6.79488C69.0346 5.62368 69.599 5.03808 70.7338 5.03808H77.6304V0H68.8003C67.0013 0 65.5862 0.528 64.5533 1.58208Z" fill="white"/>
<defs>
<clipPath id="clip0_2516_1767">
<rect width="48" height="48" fill="white"/>
</clipPath>
</defs>
</svg>
