<svg width="500" height="500" viewBox="0 0 500 500" fill="none" xmlns="http://www.w3.org/2000/svg">
<mask id="mask0_416_557" style="mask-type:luminance" maskUnits="userSpaceOnUse" x="125" y="125" width="250" height="250">
<path d="M375 125H125V375H375V125Z" fill="white"/>
</mask>
<g mask="url(#mask0_416_557)">
<path d="M244.6 328.9C205.2 326.3 173.5 294.6 171.1 255.1H125C127.6 320.1 179.7 372.3 244.6 375V328.9Z" fill="#201637"/>
<path d="M171.1 244.6C173.7 205.2 205.4 173.5 244.9 171.1V125C179.9 127.6 127.7 179.7 125 244.6H171.1Z" fill="#201637"/>
<path d="M328.9 255.4C326.3 294.8 294.6 326.5 255.1 328.9V375C320.1 372.4 372.3 320.3 375 255.4H328.9Z" fill="#201637"/>
<path d="M255.4 171.1C294.8 173.7 326.5 205.4 328.9 244.9H375C372.4 179.9 320.3 127.7 255.4 125V171.1Z" fill="#201637"/>
</g>
</svg>
