<svg width="150" height="150" viewBox="0 0 150 150" fill="none" xmlns="http://www.w3.org/2000/svg">
<mask id="mask0_417_2041" style="mask-type:luminance" maskUnits="userSpaceOnUse" x="37" y="37" width="76" height="76">
<path d="M112.5 37.5H37.5V112.5H112.5V37.5Z" fill="white"/>
</mask>
<g mask="url(#mask0_417_2041)">
<path d="M73.38 98.6703C61.56 97.8903 52.05 88.3803 51.33 76.5303H37.5C38.28 96.0303 53.91 111.69 73.38 112.5V98.6703Z" fill="#201637"/>
<path d="M51.33 73.38C52.11 61.56 61.62 52.05 73.47 51.33V37.5C53.97 38.28 38.31 53.91 37.5 73.38H51.33Z" fill="#201637"/>
<path d="M98.67 76.6201C97.89 88.4401 88.38 97.9501 76.53 98.6701V112.5C96.03 111.72 111.69 96.0901 112.5 76.6201H98.67Z" fill="#201637"/>
<path d="M76.6201 51.33C88.4401 52.11 97.9501 61.62 98.6701 73.47H112.5C111.72 53.97 96.0901 38.31 76.6201 37.5V51.33Z" fill="#201637"/>
</g>
</svg>
