<svg width="48" height="48" viewBox="0 0 48 48" fill="none" xmlns="http://www.w3.org/2000/svg">
<g clip-path="url(#clip0_2516_1776)">
<path d="M22.9651 39.1526C15.3907 38.6496 9.3216 32.5651 8.84544 24.983H0C0.49152 37.4554 10.4986 47.4816 22.9651 48V39.1526Z" fill="#FA6863"/>
<path d="M8.84736 22.9651C9.3504 15.3907 15.4349 9.3216 23.017 8.84544V0C10.5446 0.49152 0.5184 10.4986 0 22.9651H8.84736Z" fill="#FA6863"/>
<path d="M39.1526 25.0349C38.6496 32.6093 32.5651 38.6784 24.983 39.1545V48C37.4554 47.5085 47.4816 37.5014 48 25.0349H39.1526Z" fill="#FA6863"/>
<path d="M25.0349 8.84736C32.6093 9.3504 38.6784 15.4349 39.1546 23.017H48C47.5085 10.5446 37.5014 0.5184 25.0349 0V8.84736Z" fill="#FA6863"/>
</g>
<defs>
<clipPath id="clip0_2516_1776">
<rect width="48" height="48" fill="white"/>
</clipPath>
</defs>
</svg>
