<?xml version="1.0" encoding="utf-8"?>
<!-- Generator: Adobe Illustrator 28.3.0, SVG Export Plug-In . SVG Version: 6.00 Build 0)  -->
<svg version="1.1" id="Layer_1" xmlns="http://www.w3.org/2000/svg" xmlns:xlink="http://www.w3.org/1999/xlink" x="0px" y="0px"
	 viewBox="0 0 500 500" style="enable-background:new 0 0 500 500;" xml:space="preserve">
<style type="text/css">
	.st0{clip-path:url(#SVGID_00000170280905404454617860000004680534067946566028_);}
	.st1{fill:#160F26;}
</style>
<g>
	<defs>
		<rect id="SVGID_1_" x="125" y="125" width="250" height="250"/>
	</defs>
	<clipPath id="SVGID_00000150781035015884881720000003308168861204430510_">
		<use xlink:href="#SVGID_1_"  style="overflow:visible;"/>
	</clipPath>
	<g style="clip-path:url(#SVGID_00000150781035015884881720000003308168861204430510_);">
		<path class="st1" d="M171.4,244.6c2.6-39.4,33.6-71.1,72.3-73.5V125c-63.6,2.6-114.8,54.7-117.4,119.6H171.4z"/>
		<path class="st1" d="M171.4,375c2.6-39.4,33.6-71.1,72.3-73.5v-46.1C180.1,258,129,310.1,126.3,375H171.4z"/>
		<path class="st1" d="M326.1,125c-2.6,39.4-33.6,71.1-72.3,73.5v46.1c63.6-2.6,114.8-54.7,117.4-119.6H326.1z"/>
		<path class="st1" d="M326.1,255.4c-2.6,39.4-33.6,71.1-72.3,73.5V375c63.6-2.6,114.8-54.7,117.4-119.6H326.1z"/>
	</g>
</g>
</svg>
