<?xml version="1.0" encoding="utf-8"?>
<!-- Generator: Adobe Illustrator 28.3.0, SVG Export Plug-In . SVG Version: 6.00 Build 0)  -->
<svg version="1.1" id="Layer_1" xmlns="http://www.w3.org/2000/svg" xmlns:xlink="http://www.w3.org/1999/xlink" x="0px" y="0px"
	 viewBox="0 0 500 500" style="enable-background:new 0 0 500 500;" xml:space="preserve">
<style type="text/css">
	.st0{fill:#3D95FD;}
</style>
<path class="st0" d="M171.1,244.6c2.6-39.4,34.3-71.1,73.8-73.5V125c-65,2.6-117.2,54.7-119.9,119.6H171.1z"/>
<path class="st0" d="M171.1,375c2.6-39.4,34.3-71.1,73.8-73.5v-46.1C179.9,258,127.7,310.1,125,375H171.1z"/>
<path class="st0" d="M328.9,125c-2.6,39.4-34.3,71.1-73.8,73.5v46.1c65-2.6,117.2-54.7,119.9-119.6H328.9z"/>
<path class="st0" d="M328.9,255.4c-2.6,39.4-34.3,71.1-73.8,73.5V375c65-2.6,117.2-54.7,119.9-119.6H328.9z"/>
</svg>
