<svg width="500" height="500" viewBox="0 0 500 500" fill="none" xmlns="http://www.w3.org/2000/svg">
<path d="M171.2 244.8C173.8 205.4 205.5 173.7 245 171.3V125.2C180 127.8 127.8 179.9 125.1 244.8H171.2Z" fill="#201637"/>
<path d="M244.7 329.1C205.2 326.5 173.6 294.8 171.2 255.3H125.1C127.7 320.3 179.8 372.5 244.7 375.2V329.1Z" fill="#201637"/>
<path d="M255.5 171.3C295 173.9 326.6 205.6 329 245.1H375.1C372.5 180.1 320.4 127.9 255.5 125.2V171.3Z" fill="#201637"/>
<path d="M375.1 329.1C335.6 326.5 304 294.8 301.6 255.3H255.5C258.1 320.3 310.2 372.5 375.1 375.2V329.1Z" fill="#201637"/>
</svg>
