<svg width="300" height="96" viewBox="0 0 300 96" fill="none" xmlns="http://www.w3.org/2000/svg">
<path d="M48.0961 49.0751L48.0769 48.7871H57.3846L57.4038 49.0175L57.4231 49.2479L57.4423 49.4783L57.4615 49.7087L57.4807 49.9391L57.5192 50.1695L57.5577 50.3999L57.5961 50.6303L57.6346 50.8607L57.6731 51.0911L57.7115 51.3215L57.7692 51.5327L57.8269 51.7439L57.8846 51.9551L57.9423 52.1663L58 52.3775L58.0577 52.5887L58.1346 52.7999L58.2115 53.0111L58.2884 53.2223L58.3654 53.4335L58.4423 53.6447L58.5384 53.8559L58.6346 54.0671L58.7307 54.2783L58.8269 54.4895L58.9231 54.7007L59.0192 54.9119L59.1346 55.1039L59.25 55.2959L59.3654 55.4879L59.4807 55.6799L59.5961 55.8719L59.7115 56.0639L59.8269 56.2559L59.9615 56.4479L60.0961 56.6399L60.2308 56.8127L60.3654 57.0047L60.5 57.1775L60.6346 57.3503L60.7884 57.5231L60.9423 57.6959L61.0961 57.8687L61.25 58.0415L61.4038 58.1951L61.5577 58.3679L61.7115 58.5215L61.8654 58.6751L62.0384 58.8287L62.2115 58.9823L62.3846 59.1359L62.5577 59.2895L62.7308 59.4431L62.9038 59.5775L63.0769 59.7119L63.25 59.8463L63.4423 59.9807L63.6154 60.1151L63.8077 60.2495L64 60.3839L64.1923 60.4991L64.3846 60.6143L64.5769 60.7295L64.7692 60.8447L64.9615 60.9599L65.1538 61.0751L65.3461 61.1711L65.5577 61.2671L65.7692 61.3631L65.9808 61.4591L66.1923 61.5551L66.4038 61.6511L66.6154 61.7279L66.8269 61.8047L67.0384 61.8815L67.25 61.9583L67.4615 62.0351L67.6731 62.1119L67.8846 62.1887L68.0961 62.2463L68.3077 62.3039L68.5192 62.3615L68.75 62.4191L68.9615 62.4575L69.1923 62.4959L69.4231 62.5343L69.6538 62.5727L69.8846 62.6111L70.1154 62.6495L70.3461 62.6687L70.5769 62.6879L70.8077 62.7071L71.0384 62.7263L71.3077 62.7455V71.9999L70.8077 71.9807L70.5192 71.9615L70.2308 71.9423L69.9423 71.9231L69.6538 71.9039L69.3654 71.8655L69.0769 71.8271L68.7884 71.7887L68.5 71.7503L68.2115 71.7119L67.9231 71.6543L67.6346 71.5967L67.3461 71.5391L67.0577 71.4815L66.7692 71.4239L66.4808 71.3471L66.1923 71.2703L65.9038 71.1935L65.6154 71.1167L65.3846 71.0399L65.0961 70.9631L64.8269 70.8863L64.5577 70.7903L64.2884 70.6943L64.0192 70.5983L63.75 70.5023L63.4808 70.4063L63.2115 70.2911L62.9423 70.1759L62.6731 70.0607L62.4038 69.9455L62.1346 69.8303L61.8654 69.7151L61.5961 69.5807L61.3269 69.4463L61.0769 69.3119L60.8077 69.1775L60.5577 69.0431L60.3077 68.8895L60.0577 68.7359L59.8077 68.5823L59.5577 68.4287L59.3077 68.2751L59.0577 68.1215L58.8077 67.9679L58.5769 67.7951L58.3269 67.6223L58.0961 67.4495L57.8654 67.2767L57.6346 67.1039L57.4038 66.9311L57.1731 66.7583L56.9423 66.5663L56.7115 66.3743L56.4808 66.1823L56.2692 65.9903L56.0577 65.7983L55.8461 65.6063L55.6346 65.4143L55.4231 65.2031L55.2115 64.9919L55 64.7807L54.7884 64.5695L54.5961 64.3583L54.4038 64.1471L54.2115 63.9359L54.0192 63.7247L53.8269 63.5135L53.6346 63.2831L53.4423 63.0527L53.2692 62.8223L53.0961 62.5919L52.9231 62.3615L52.75 62.1311L52.5769 61.9007L52.4038 61.6703L52.25 61.4207L52.0769 61.1711L51.9231 60.9215L51.7692 60.6719L51.6154 60.4223L51.4615 60.1727L51.3077 59.9231L51.1731 59.6735L51.0384 59.4239L50.9038 59.1743L50.7692 58.9055L50.6346 58.6367L50.5 58.3679L50.3846 58.0991L50.2692 57.8303L50.1538 57.5615L50.0384 57.2927L49.9231 57.0239L49.8077 56.7551L49.7115 56.4863L49.6154 56.2175L49.5192 55.9487L49.4231 55.6799L49.3269 55.4111L49.2308 55.1231L49.1538 54.8351L49.0769 54.5471L49 54.2591L48.9231 53.9711L48.8461 53.6831L48.7884 53.3951L48.7307 53.1071L48.6731 52.8191L48.6154 52.5311L48.5577 52.2431L48.5 51.9551L48.4615 51.6671L48.4231 51.3791L48.3846 51.0911L48.3461 50.8031L48.3077 50.5151L48.2692 50.2271L48.25 49.9391L48.2308 49.6511L48.2115 49.3631L48.0961 49.0751Z" fill="white"/>
<path d="M48.0961 24L48.5961 24.0192L48.8846 24.0384L49.1731 24.0576L49.4615 24.0768L49.75 24.096L50.0384 24.1344L50.3269 24.1728L50.6154 24.2112L50.9038 24.2496L51.1923 24.288L51.4808 24.3456L51.7692 24.4032L52.0577 24.4608L52.3461 24.5184L52.6346 24.576L52.9231 24.6528L53.2115 24.7296L53.5 24.8064L53.7884 24.8832L54.0769 24.96L54.3654 25.0368L54.6538 25.1136L54.9231 25.2096L55.1923 25.3056L55.4615 25.4016L55.7307 25.4976L56 25.5936L56.2692 25.7088L56.5384 25.824L56.8077 25.9392L57.0769 26.0544L57.3461 26.1696L57.6154 26.2848L57.8846 26.4192L58.1538 26.5536L58.4231 26.688L58.6731 26.8224L58.9231 26.9568L59.1731 27.0912L59.4231 27.2448L59.6731 27.3984L59.9231 27.552L60.1731 27.7056L60.4231 27.8592L60.6731 28.0128L60.9231 28.1856L61.1538 28.3584L61.4038 28.5312L61.6346 28.704L61.8654 28.8768L62.0961 29.0496L62.3269 29.2224L62.5577 29.3952L62.7884 29.5872L63.0192 29.7792L63.2307 29.9712L63.4423 30.1632L63.6538 30.3552L63.8654 30.5472L64.0769 30.7584L64.2884 30.9696L64.5 31.1808L64.7115 31.392L64.9038 31.6032L65.0961 31.8144L65.2884 32.0256L65.4807 32.2368L65.6731 32.448L65.8654 32.6784L66.0577 32.9088L66.2307 33.1392L66.4038 33.3696L66.5769 33.6L66.75 33.8304L66.9231 34.0608L67.0961 34.2912L67.2692 34.5408L67.4231 34.7904L67.5769 35.04L67.7308 35.2896L67.8846 35.5392L68.0384 35.7888L68.1923 36.0384L68.3461 36.288L68.4808 36.5376L68.6154 36.7872L68.75 37.0368L68.8846 37.3056L69.0192 37.5744L69.1538 37.8432L69.2692 38.112L69.3846 38.3808L69.5 38.6496L69.6154 38.9184L69.7308 39.1872L69.8269 39.456L69.9231 39.7248L70.0192 39.9936L70.1154 40.2624L70.2115 40.5312L70.3077 40.8L70.3846 41.088L70.4615 41.376L70.5384 41.664L70.6154 41.952L70.6923 42.24L70.75 42.528L70.8077 42.816L70.8654 43.104L70.9231 43.392L70.9808 43.68L71.0192 43.968L71.0577 44.256L71.0961 44.544L71.1346 44.832L71.1731 45.12L71.2115 45.408L71.2307 45.696L71.25 45.984L71.2692 46.272L71.2884 46.56L71.3077 46.848L71.3269 47.136H62L61.9807 46.9056L61.9615 46.6752L61.9423 46.4448L61.9231 46.2144L61.9038 45.984L61.8654 45.7536L61.8269 45.5232L61.7884 45.2928L61.75 45.0624L61.7115 44.8512L61.6731 44.6208L61.6154 44.4096L61.5577 44.1984L61.5 43.9872L61.4423 43.776L61.3846 43.5648L61.3077 43.3536L61.2307 43.1424L61.1538 42.9312L61.0769 42.72L61 42.5088L60.9231 42.2976L60.8461 42.0864L60.75 41.8752L60.6538 41.664L60.5577 41.4528L60.4615 41.2416L60.3654 41.0304L60.25 40.8384L60.1346 40.6464L60.0192 40.4544L59.9038 40.2624L59.7884 40.0704L59.6731 39.8784L59.5384 39.6864L59.4038 39.4944L59.2692 39.3024L59.1346 39.1296L59 38.9568L58.8654 38.784L58.7307 38.6112L58.5961 38.4384L58.4423 38.2656L58.2884 38.0928L58.1346 37.92L57.9807 37.7472L57.8269 37.5936L57.6731 37.44L57.5192 37.2864L57.3461 37.1328L57.1731 36.9792L57 36.8256L56.8269 36.672L56.6538 36.5184L56.4808 36.384L56.3077 36.2496L56.1346 36.1152L55.9615 35.9808L55.7692 35.8464L55.5769 35.712L55.3846 35.5776L55.1923 35.4624L55 35.3472L54.8077 35.232L54.6154 35.1168L54.4231 35.0016L54.2308 34.8864L54.0192 34.7904L53.8269 34.6944L53.6154 34.5984L53.4038 34.5024L53.1923 34.4064L52.9808 34.3104L52.7692 34.2336L52.5577 34.1568L52.3461 34.08L52.1346 34.0032L51.9231 33.9264L51.7115 33.8496L51.5 33.792L51.2884 33.7344L51.0769 33.6768L50.8461 33.6192L50.6346 33.5616L50.4231 33.504L50.1923 33.4656L49.9615 33.4272L49.7308 33.3888L49.5 33.3504L49.2692 33.312L49.0384 33.2736L48.8077 33.2544L48.5769 33.2352L48.3461 33.216L48.0769 33.1968V24H48.0961Z" fill="white"/>
<path d="M46.5385 62.7074V72.0002L46.0385 71.981L45.75 71.9618L45.4616 71.9426L45.1731 71.9234L44.8846 71.9042L44.5962 71.8658L44.3077 71.8274L44.0192 71.789L43.7308 71.7506L43.4423 71.7122L43.1539 71.6738L42.8654 71.6162L42.5769 71.5586L42.2885 71.501L42 71.4434L41.7116 71.3666L41.4231 71.2898L41.1346 71.213L40.8462 71.1362L40.5769 71.0402L40.2885 70.9634L40 70.8866L39.7308 70.7906L39.4423 70.6946L39.1731 70.5986L38.9039 70.5026L38.6346 70.4066L38.3654 70.2914L38.0962 70.1762L37.8269 70.061L37.5577 69.9458L37.2885 69.8306L37.0192 69.7154L36.75 69.581L36.4808 69.4466L36.2116 69.3122L35.9423 69.1778L35.6923 69.0434L35.4423 68.8898L35.1923 68.7362L34.9423 68.5826L34.6923 68.429L34.4423 68.2754L34.1923 68.1218L33.9423 67.9682L33.6923 67.7954L33.4423 67.6226L33.1923 67.4498L32.9616 67.277L32.7308 67.1042L32.5 66.9314L32.2693 66.7586L32.0385 66.5666L31.8077 66.3746L31.5769 66.1826L31.3462 65.9906L31.1346 65.7986L30.9231 65.6066L30.7116 65.4146L30.5 65.2034L30.2885 64.9922L30.0769 64.781L29.8654 64.5698L29.6731 64.3586L29.4808 64.1474L29.2885 63.9362L29.0962 63.725L28.9039 63.5138L28.7116 63.2834L28.5193 63.053L28.3462 62.8226L28.1731 62.5922L28 62.3618L27.8269 62.1314L27.6539 61.901L27.4808 61.6706L27.3077 61.421L27.1346 61.1714L26.9808 60.9218L26.8269 60.6722L26.6731 60.4226L26.5192 60.173L26.3654 59.9234L26.2308 59.6738L26.0962 59.4242L25.9616 59.1746L25.8269 58.9058L25.6923 58.637L25.5577 58.3682L25.4231 58.0994L25.3077 57.8306L25.1923 57.5618L25.0769 57.293L24.9616 57.0242L24.8462 56.7554L24.7308 56.4866L24.6346 56.2178L24.5385 55.949L24.4423 55.6802L24.3462 55.4114L24.25 55.1426L24.1731 54.8546L24.0962 54.5666L24.0192 54.2786L23.9423 53.9906L23.8654 53.7026L23.7885 53.4146L23.7308 53.1266L23.6731 52.8386L23.6154 52.5506L23.5577 52.2626L23.5 51.9746L23.4616 51.6866L23.4231 51.3986L23.3846 51.1106L23.3462 50.8226L23.3077 50.5346L23.2692 50.2466L23.25 49.9586L23.2308 49.6706L23.2116 49.3826L23.1923 49.0946L23.1731 48.8066H32.4808L32.5 49.037L32.5193 49.2674L32.5385 49.4978L32.5577 49.7282L32.5769 49.9586L32.6154 50.189L32.6539 50.4194L32.6923 50.6498L32.7308 50.8802L32.7692 51.0914L32.8077 51.3218L32.8654 51.533L32.9231 51.7442L32.9808 51.9554L33.0385 52.1666L33.0962 52.3778L33.1731 52.589L33.25 52.8002L33.3269 53.0114L33.4039 53.2226L33.4808 53.4338L33.5577 53.645L33.6539 53.8562L33.75 54.0674L33.8462 54.2786L33.9423 54.4898L34.0385 54.6818L34.1346 54.893L34.25 55.085L34.3654 55.277L34.4808 55.469L34.5962 55.661L34.7116 55.853L34.8269 56.045L34.9616 56.237L35.0962 56.429L35.2308 56.621L35.3654 56.7938L35.5 56.9858L35.6346 57.1586L35.7692 57.3314L35.9231 57.5042L36.0769 57.677L36.2308 57.8498L36.3846 58.0226L36.5385 58.1954L36.6923 58.349L36.8462 58.5026L37.0192 58.6562L37.1923 58.8098L37.3654 58.9634L37.5385 59.117L37.7116 59.2706L37.8846 59.4242L38.0577 59.5586L38.2308 59.693L38.4039 59.8274L38.5962 59.9618L38.7885 60.0962L38.9808 60.2306L39.1731 60.365L39.3654 60.4802L39.5577 60.5954L39.75 60.7106L39.9423 60.8258L40.1346 60.941L40.3269 61.0562L40.5192 61.1522L40.7308 61.2482L40.9423 61.3442L41.1539 61.4402L41.3654 61.5362L41.5769 61.6322L41.7885 61.709L42 61.7858L42.2116 61.8626L42.4231 61.9394L42.6346 62.0162L42.8462 62.093L43.0577 62.1698L43.2692 62.2274L43.4808 62.285L43.6923 62.3426L43.9231 62.4002L44.1346 62.4386L44.3654 62.477L44.5962 62.5154L44.8269 62.5538L45.0577 62.5922L45.2885 62.6306L45.5192 62.6498L45.75 62.669L45.9808 62.6882L46.2116 62.7074H46.5385Z" fill="white"/>
<path d="M46.5385 23.9997V33.2925L46.3077 33.3117L46.0769 33.3309L45.8462 33.3501L45.6154 33.3693L45.3846 33.3885L45.1539 33.4269L44.9231 33.4653L44.6923 33.5037L44.4615 33.5421L44.2308 33.5805L44 33.6189L43.7885 33.6765L43.5769 33.7341L43.3654 33.7917L43.1539 33.8493L42.9423 33.9069L42.7308 33.9837L42.5192 34.0605L42.3077 34.1373L42.0962 34.2141L41.8846 34.2909L41.6731 34.3677L41.4615 34.4445L41.25 34.5405L41.0385 34.6365L40.8269 34.7325L40.6154 34.8285L40.4039 34.9245L40.2115 35.0397L40.0192 35.1549L39.8269 35.2701L39.6346 35.3853L39.4423 35.5005L39.25 35.6157L39.0577 35.7501L38.8654 35.8845L38.6731 36.0189L38.4808 36.1533L38.3077 36.2877L38.1346 36.4221L37.9615 36.5757L37.7885 36.7293L37.6154 36.8829L37.4423 37.0365L37.2692 37.1901L37.0962 37.3437L36.9231 37.4973L36.7692 37.6509L36.6154 37.8045L36.4615 37.9581L36.3077 38.1309L36.1539 38.3037L36 38.4765L35.8462 38.6493L35.7115 38.8221L35.5769 38.9949L35.4423 39.1677L35.3077 39.3405L35.1731 39.5325L35.0385 39.7245L34.9039 39.9165L34.7885 40.1085L34.6731 40.3005L34.5577 40.4925L34.4423 40.6845L34.3269 40.8765L34.2115 41.0685L34.1154 41.2797L34.0192 41.4909L33.9231 41.7021L33.8269 41.9133L33.7308 42.1245L33.6346 42.3357L33.5385 42.5469L33.4615 42.7581L33.3846 42.9693L33.3077 43.1805L33.2308 43.3917L33.1539 43.6029L33.0962 43.8141L33.0385 44.0253L32.9808 44.2365L32.9231 44.4477L32.8654 44.6589L32.8077 44.8893L32.7692 45.1005L32.7308 45.3309L32.6923 45.5613L32.6539 45.7917L32.6154 46.0221L32.5962 46.2525L32.5769 46.4829L32.5577 46.7133L32.5385 46.9437L32.5192 47.2125H23.2115L23.2308 46.7133L23.25 46.4253L23.2692 46.1373L23.2885 45.8493L23.3077 45.5613L23.3462 45.2733L23.3846 44.9853L23.4231 44.6973L23.4615 44.4093L23.5 44.1213L23.5577 43.8333L23.6154 43.5453L23.6731 43.2573L23.7308 42.9693L23.7885 42.6813L23.8654 42.3933L23.9423 42.1053L24.0192 41.8173L24.0962 41.5293L24.1731 41.2413L24.25 40.9533L24.3462 40.6845L24.4423 40.3965L24.5385 40.1277L24.6346 39.8589L24.7308 39.5901L24.8269 39.3213L24.9423 39.0525L25.0577 38.7837L25.1731 38.5149L25.2885 38.2461L25.4039 37.9773L25.5385 37.7085L25.6731 37.4397L25.8077 37.1709L25.9423 36.9021L26.0769 36.6525L26.2115 36.4029L26.3462 36.1533L26.5 35.9037L26.6539 35.6541L26.8077 35.4045L26.9615 35.1549L27.1154 34.9053L27.2692 34.6557L27.4423 34.4061L27.6154 34.1757L27.7885 33.9453L27.9615 33.7149L28.1346 33.4845L28.3077 33.2541L28.5 33.0237L28.6923 32.7933L28.8846 32.5629L29.0769 32.3325L29.2692 32.1213L29.4615 31.9101L29.6539 31.6989L29.8654 31.4877L30.0769 31.2765L30.2885 31.0653L30.5 30.8541L30.7115 30.6429L30.9231 30.4509L31.1346 30.2589L31.3462 30.0669L31.5577 29.8749L31.7885 29.6829L32.0192 29.4909L32.25 29.2989L32.4808 29.1261L32.7115 28.9533L32.9423 28.7805L33.1731 28.6077L33.4039 28.4349L33.6539 28.2621L33.9039 28.0893L34.1539 27.9357L34.4039 27.7821L34.6539 27.6285L34.9039 27.4749L35.1539 27.3213L35.4039 27.1677L35.6539 27.0141L35.9039 26.8797L36.1539 26.7453L36.4231 26.6109L36.6923 26.4765L36.9615 26.3421L37.2308 26.2077L37.5 26.0925L37.7692 25.9773L38.0385 25.8621L38.3077 25.7469L38.5769 25.6317L38.8462 25.5165L39.1154 25.4205L39.3846 25.3245L39.6539 25.2285L39.9423 25.1325L40.2308 25.0365L40.5192 24.9597L40.8077 24.8829L41.0962 24.8061L41.3846 24.7293L41.6731 24.6525L41.9615 24.5757L42.25 24.5181L42.5385 24.4605L42.8269 24.4029L43.1154 24.3453L43.4039 24.2877L43.6923 24.2493L43.9808 24.2109L44.2692 24.1725L44.5577 24.1341L44.8462 24.0957L45.1346 24.0573L45.4231 24.0381L45.7115 24.0189L46 23.9997L46.2885 23.9805L46.5385 23.9997Z" fill="white"/>
<path d="M234.981 72.0003V58.4835H234.038C233.615 59.2707 232.981 60.0195 232.173 60.7299C231.346 61.4403 230.308 62.0355 229.038 62.5155C227.769 62.9763 226.212 63.2067 224.327 63.2067C221.904 63.2067 219.692 62.6307 217.654 61.4595C215.635 60.2883 214.019 58.6179 212.808 56.4099C211.596 54.2211 211 51.5523 211 48.4419V47.5587C211 44.4483 211.615 41.7987 212.846 39.5907C214.077 37.4019 215.692 35.7123 217.731 34.5411C219.75 33.3699 221.962 32.7939 224.327 32.7939C227.135 32.7939 229.288 33.2931 230.788 34.3107C232.288 35.3283 233.404 36.4611 234.154 37.7475H235.096V32.7939H241V72.0003H234.981ZM226.038 57.9459C228.692 57.9459 230.846 57.1011 232.519 55.4307C234.192 53.7603 235.038 51.3603 235.038 48.2499V47.7315C235.038 44.6595 234.192 42.2787 232.5 40.6083C230.808 38.9379 228.654 38.0931 226.038 38.0931C223.423 38.0931 221.327 38.9379 219.635 40.6083C217.942 42.2787 217.096 44.6595 217.096 47.7315V48.2499C217.096 51.3603 217.942 53.7603 219.635 55.4307C221.346 57.1203 223.462 57.9459 226.038 57.9459Z" fill="white"/>
<path d="M260.942 63.2067C258.173 63.2067 255.673 62.6307 253.423 61.4595C251.173 60.2883 249.404 58.5987 248.096 56.3907C246.788 54.1827 246.135 51.5139 246.135 48.4035V47.6163C246.135 44.5059 246.788 41.8563 248.096 39.6483C249.404 37.4595 251.173 35.7507 253.423 34.5795C255.654 33.3891 258.173 32.7939 260.942 32.7939C263.712 32.7939 266.058 33.2931 268.019 34.3107C269.962 35.3283 271.538 36.6723 272.731 38.3427C273.923 40.0131 274.692 41.8563 275.038 43.8915L269.192 45.1203C269 43.8339 268.596 42.6627 267.962 41.6259C267.327 40.5891 266.462 39.7443 265.327 39.1107C264.192 38.4963 262.769 38.1699 261.058 38.1699C259.346 38.1699 257.865 38.5539 256.519 39.3027C255.173 40.0515 254.115 41.1459 253.327 42.5667C252.538 43.9875 252.154 45.7155 252.154 47.7315V48.2499C252.154 50.2659 252.538 52.0131 253.327 53.4531C254.096 54.8931 255.173 55.9875 256.519 56.7171C257.865 57.4467 259.365 57.8307 261.058 57.8307C263.596 57.8307 265.519 57.1779 266.846 55.8723C268.173 54.5667 269 52.9155 269.365 50.8803L275.212 52.2243C274.75 54.2019 273.923 56.0451 272.731 57.7155C271.538 59.3859 269.981 60.7299 268.019 61.7091C266.058 62.7075 263.712 63.2067 260.942 63.2067Z" fill="white"/>
<path d="M86.75 63.2067V32.7939H92.6538V36.6531H93.5962C94.1346 35.6355 95.0192 34.7523 96.2308 33.9651C97.4423 33.1779 99.0769 32.7939 101.135 32.7939C103.192 32.7939 105 33.2355 106.308 34.0995C107.615 34.9635 108.596 36.0963 109.25 37.4595H110.192C110.846 36.1347 111.827 35.0211 113.077 34.1379C114.346 33.2355 116.154 32.7939 118.481 32.7939C120.346 32.7939 122 33.1779 123.442 33.9267C124.885 34.6755 126.038 35.8083 126.885 37.3059C127.75 38.8035 128.173 40.6659 128.173 42.8739V63.1875H122.154V43.3539C122.154 41.6067 121.673 40.2435 120.731 39.3027C119.769 38.3427 118.423 37.8819 116.673 37.8819C114.808 37.8819 113.308 38.4771 112.173 39.6867C111.038 40.8963 110.481 42.6243 110.481 44.8899V63.2259H104.462V43.3539C104.462 41.6067 103.981 40.2435 103.038 39.3027C102.077 38.3427 100.731 37.8819 98.9808 37.8819C97.1154 37.8819 95.6154 38.4771 94.4808 39.6867C93.3462 40.8963 92.7885 42.6243 92.7885 44.8899V63.2259H86.75V63.2067Z" fill="white"/>
<path d="M145.288 63.1299C143.115 63.1299 141.154 62.6499 139.442 61.6707C137.731 60.6915 136.385 59.3091 135.404 57.5235C134.423 55.7379 133.942 53.5875 133.942 51.1107V32.7939H139.961V50.7075C139.961 53.2035 140.577 55.0275 141.827 56.2179C143.077 57.4083 144.808 58.0035 147.038 58.0035C149.5 58.0035 151.461 57.1779 152.981 55.5267C154.481 53.8755 155.231 51.4947 155.231 48.3843V32.8131H161.25V63.2259H155.346V58.3107H154.423C153.885 59.4819 152.904 60.5763 151.5 61.6131C150.096 62.6307 148.019 63.1491 145.288 63.1299Z" fill="white"/>
<path d="M167.019 63.2064V24H173.039V63.2064H167.019Z" fill="white"/>
<path d="M199.231 63.2067V32.7939H205.25V63.2067H199.231Z" fill="white"/>
<path d="M193.462 37.728V32.7936H189.712L186.423 36.0768H184.846V24H178.808V57.408C178.808 59.1552 179.327 60.576 180.365 61.632C181.404 62.688 182.808 63.2064 184.615 63.2064H193.462V58.176H186.558C185.423 58.176 184.865 57.5808 184.865 56.4288V37.7472L193.462 37.728Z" fill="white"/>
</svg>
