<svg width="1560" height="500" viewBox="0 0 1560 500" fill="none" xmlns="http://www.w3.org/2000/svg">
<path d="M250.1 255.6L250 254.1H298.4L298.5 255.3L298.6 256.5L298.7 257.7L298.8 258.9L298.9 260.1L299.1 261.3L299.3 262.5L299.5 263.7L299.7 264.9L299.9 266.1L300.1 267.3L300.4 268.4L300.7 269.5L301 270.6L301.3 271.7L301.6 272.8L301.9 273.9L302.3 275L302.7 276.1L303.1 277.2L303.5 278.3L303.9 279.4L304.4 280.5L304.9 281.6L305.4 282.7L305.9 283.8L306.4 284.9L306.9 286L307.5 287L308.1 288L308.7 289L309.3 290L309.9 291L310.5 292L311.1 293L311.8 294L312.5 295L313.2 295.9L313.9 296.9L314.6 297.8L315.3 298.7L316.1 299.6L316.9 300.5L317.7 301.4L318.5 302.3L319.3 303.1L320.1 304L320.9 304.8L321.7 305.6L322.6 306.4L323.5 307.2L324.4 308L325.3 308.8L326.2 309.6L327.1 310.3L328 311L328.9 311.7L329.9 312.4L330.8 313.1L331.8 313.8L332.8 314.5L333.8 315.1L334.8 315.7L335.8 316.3L336.8 316.9L337.8 317.5L338.8 318.1L339.8 318.6L340.9 319.1L342 319.6L343.1 320.1L344.2 320.6L345.3 321.1L346.4 321.5L347.5 321.9L348.6 322.3L349.7 322.7L350.8 323.1L351.9 323.5L353 323.9L354.1 324.2L355.2 324.5L356.3 324.8L357.5 325.1L358.6 325.3L359.8 325.5L361 325.7L362.2 325.9L363.4 326.1L364.6 326.3L365.8 326.4L367 326.5L368.2 326.6L369.4 326.7L370.8 326.8V375L368.2 374.9L366.7 374.8L365.2 374.7L363.7 374.6L362.2 374.5L360.7 374.3L359.2 374.1L357.7 373.9L356.2 373.7L354.7 373.5L353.2 373.2L351.7 372.9L350.2 372.6L348.7 372.3L347.2 372L345.7 371.6L344.2 371.2L342.7 370.8L341.2 370.4L340 370L338.5 369.6L337.1 369.2L335.7 368.7L334.3 368.2L332.9 367.7L331.5 367.2L330.1 366.7L328.7 366.1L327.3 365.5L325.9 364.9L324.5 364.3L323.1 363.7L321.7 363.1L320.3 362.4L318.9 361.7L317.6 361L316.2 360.3L314.9 359.6L313.6 358.8L312.3 358L311 357.2L309.7 356.4L308.4 355.6L307.1 354.8L305.8 354L304.6 353.1L303.3 352.2L302.1 351.3L300.9 350.4L299.7 349.5L298.5 348.6L297.3 347.7L296.1 346.7L294.9 345.7L293.7 344.7L292.6 343.7L291.5 342.7L290.4 341.7L289.3 340.7L288.2 339.6L287.1 338.5L286 337.4L284.9 336.3L283.9 335.2L282.9 334.1L281.9 333L280.9 331.9L279.9 330.8L278.9 329.6L277.9 328.4L277 327.2L276.1 326L275.2 324.8L274.3 323.6L273.4 322.4L272.5 321.2L271.7 319.9L270.8 318.6L270 317.3L269.2 316L268.4 314.7L267.6 313.4L266.8 312.1L266.1 310.8L265.4 309.5L264.7 308.2L264 306.8L263.3 305.4L262.6 304L262 302.6L261.4 301.2L260.8 299.8L260.2 298.4L259.6 297L259 295.6L258.5 294.2L258 292.8L257.5 291.4L257 290L256.5 288.6L256 287.1L255.6 285.6L255.2 284.1L254.8 282.6L254.4 281.1L254 279.6L253.7 278.1L253.4 276.6L253.1 275.1L252.8 273.6L252.5 272.1L252.2 270.6L252 269.1L251.8 267.6L251.6 266.1L251.4 264.6L251.2 263.1L251 261.6L250.9 260.1L250.8 258.6L250.7 257.1L250.1 255.6Z" fill="white"/>
<path d="M250.1 125L252.7 125.1L254.2 125.2L255.7 125.3L257.2 125.4L258.7 125.5L260.2 125.7L261.7 125.9L263.2 126.1L264.7 126.3L266.2 126.5L267.7 126.8L269.2 127.1L270.7 127.4L272.2 127.7L273.7 128L275.2 128.4L276.7 128.8L278.2 129.2L279.7 129.6L281.2 130L282.7 130.4L284.2 130.8L285.6 131.3L287 131.8L288.4 132.3L289.8 132.8L291.2 133.3L292.6 133.9L294 134.5L295.4 135.1L296.8 135.7L298.2 136.3L299.6 136.9L301 137.6L302.4 138.3L303.8 139L305.1 139.7L306.4 140.4L307.7 141.1L309 141.9L310.3 142.7L311.6 143.5L312.9 144.3L314.2 145.1L315.5 145.9L316.8 146.8L318 147.7L319.3 148.6L320.5 149.5L321.7 150.4L322.9 151.3L324.1 152.2L325.3 153.1L326.5 154.1L327.7 155.1L328.8 156.1L329.9 157.1L331 158.1L332.1 159.1L333.2 160.2L334.3 161.3L335.4 162.4L336.5 163.5L337.5 164.6L338.5 165.7L339.5 166.8L340.5 167.9L341.5 169L342.5 170.2L343.5 171.4L344.4 172.6L345.3 173.8L346.2 175L347.1 176.2L348 177.4L348.9 178.6L349.8 179.9L350.6 181.2L351.4 182.5L352.2 183.8L353 185.1L353.8 186.4L354.6 187.7L355.4 189L356.1 190.3L356.8 191.6L357.5 192.9L358.2 194.3L358.9 195.7L359.6 197.1L360.2 198.5L360.8 199.9L361.4 201.3L362 202.7L362.6 204.1L363.1 205.5L363.6 206.9L364.1 208.3L364.6 209.7L365.1 211.1L365.6 212.5L366 214L366.4 215.5L366.8 217L367.2 218.5L367.6 220L367.9 221.5L368.2 223L368.5 224.5L368.8 226L369.1 227.5L369.3 229L369.5 230.5L369.7 232L369.9 233.5L370.1 235L370.3 236.5L370.4 238L370.5 239.5L370.6 241L370.7 242.5L370.8 244L370.9 245.5H322.4L322.3 244.3L322.2 243.1L322.1 241.9L322 240.7L321.9 239.5L321.7 238.3L321.5 237.1L321.3 235.9L321.1 234.7L320.9 233.6L320.7 232.4L320.4 231.3L320.1 230.2L319.8 229.1L319.5 228L319.2 226.9L318.8 225.8L318.4 224.7L318 223.6L317.6 222.5L317.2 221.4L316.8 220.3L316.4 219.2L315.9 218.1L315.4 217L314.9 215.9L314.4 214.8L313.9 213.7L313.3 212.7L312.7 211.7L312.1 210.7L311.5 209.7L310.9 208.7L310.3 207.7L309.6 206.7L308.9 205.7L308.2 204.7L307.5 203.8L306.8 202.9L306.1 202L305.4 201.1L304.7 200.2L303.9 199.3L303.1 198.4L302.3 197.5L301.5 196.6L300.7 195.8L299.9 195L299.1 194.2L298.2 193.4L297.3 192.6L296.4 191.8L295.5 191L294.6 190.2L293.7 189.5L292.8 188.8L291.9 188.1L291 187.4L290 186.7L289 186L288 185.3L287 184.7L286 184.1L285 183.5L284 182.9L283 182.3L282 181.7L280.9 181.2L279.9 180.7L278.8 180.2L277.7 179.7L276.6 179.2L275.5 178.7L274.4 178.3L273.3 177.9L272.2 177.5L271.1 177.1L270 176.7L268.9 176.3L267.8 176L266.7 175.7L265.6 175.4L264.4 175.1L263.3 174.8L262.2 174.5L261 174.3L259.8 174.1L258.6 173.9L257.4 173.7L256.2 173.5L255 173.3L253.8 173.2L252.6 173.1L251.4 173L250 172.9V125H250.1Z" fill="white"/>
<path d="M242 326.6V375L239.4 374.9L237.9 374.8L236.4 374.7L234.9 374.6L233.4 374.5L231.9 374.3L230.4 374.1L228.9 373.9L227.4 373.7L225.9 373.5L224.4 373.3L222.9 373L221.4 372.7L219.9 372.4L218.4 372.1L216.9 371.7L215.4 371.3L213.9 370.9L212.4 370.5L211 370L209.5 369.6L208 369.2L206.6 368.7L205.1 368.2L203.7 367.7L202.3 367.2L200.9 366.7L199.5 366.1L198.1 365.5L196.7 364.9L195.3 364.3L193.9 363.7L192.5 363.1L191.1 362.4L189.7 361.7L188.3 361L186.9 360.3L185.6 359.6L184.3 358.8L183 358L181.7 357.2L180.4 356.4L179.1 355.6L177.8 354.8L176.5 354L175.2 353.1L173.9 352.2L172.6 351.3L171.4 350.4L170.2 349.5L169 348.6L167.8 347.7L166.6 346.7L165.4 345.7L164.2 344.7L163 343.7L161.9 342.7L160.8 341.7L159.7 340.7L158.6 339.6L157.5 338.5L156.4 337.4L155.3 336.3L154.3 335.2L153.3 334.1L152.3 333L151.3 331.9L150.3 330.8L149.3 329.6L148.3 328.4L147.4 327.2L146.5 326L145.6 324.8L144.7 323.6L143.8 322.4L142.9 321.2L142 319.9L141.1 318.6L140.3 317.3L139.5 316L138.7 314.7L137.9 313.4L137.1 312.1L136.4 310.8L135.7 309.5L135 308.2L134.3 306.8L133.6 305.4L132.9 304L132.2 302.6L131.6 301.2L131 299.8L130.4 298.4L129.8 297L129.2 295.6L128.6 294.2L128.1 292.8L127.6 291.4L127.1 290L126.6 288.6L126.1 287.2L125.7 285.7L125.3 284.2L124.9 282.7L124.5 281.2L124.1 279.7L123.7 278.2L123.4 276.7L123.1 275.2L122.8 273.7L122.5 272.2L122.2 270.7L122 269.2L121.8 267.7L121.6 266.2L121.4 264.7L121.2 263.2L121 261.7L120.9 260.2L120.8 258.7L120.7 257.2L120.6 255.7L120.5 254.2H168.9L169 255.4L169.1 256.6L169.2 257.8L169.3 259L169.4 260.2L169.6 261.4L169.8 262.6L170 263.8L170.2 265L170.4 266.1L170.6 267.3L170.9 268.4L171.2 269.5L171.5 270.6L171.8 271.7L172.1 272.8L172.5 273.9L172.9 275L173.3 276.1L173.7 277.2L174.1 278.3L174.5 279.4L175 280.5L175.5 281.6L176 282.7L176.5 283.8L177 284.8L177.5 285.9L178.1 286.9L178.7 287.9L179.3 288.9L179.9 289.9L180.5 290.9L181.1 291.9L181.8 292.9L182.5 293.9L183.2 294.9L183.9 295.8L184.6 296.8L185.3 297.7L186 298.6L186.8 299.5L187.6 300.4L188.4 301.3L189.2 302.2L190 303.1L190.8 303.9L191.6 304.7L192.5 305.5L193.4 306.3L194.3 307.1L195.2 307.9L196.1 308.7L197 309.5L197.9 310.2L198.8 310.9L199.7 311.6L200.7 312.3L201.7 313L202.7 313.7L203.7 314.4L204.7 315L205.7 315.6L206.7 316.2L207.7 316.8L208.7 317.4L209.7 318L210.7 318.5L211.8 319L212.9 319.5L214 320L215.1 320.5L216.2 321L217.3 321.4L218.4 321.8L219.5 322.2L220.6 322.6L221.7 323L222.8 323.4L223.9 323.8L225 324.1L226.1 324.4L227.2 324.7L228.4 325L229.5 325.2L230.7 325.4L231.9 325.6L233.1 325.8L234.3 326L235.5 326.2L236.7 326.3L237.9 326.4L239.1 326.5L240.3 326.6H242Z" fill="white"/>
<path d="M242 125V173.4L240.8 173.5L239.6 173.6L238.4 173.7L237.2 173.8L236 173.9L234.8 174.1L233.6 174.3L232.4 174.5L231.2 174.7L230 174.9L228.8 175.1L227.7 175.4L226.6 175.7L225.5 176L224.4 176.3L223.3 176.6L222.2 177L221.1 177.4L220 177.8L218.9 178.2L217.8 178.6L216.7 179L215.6 179.4L214.5 179.9L213.4 180.4L212.3 180.9L211.2 181.4L210.1 181.9L209.1 182.5L208.1 183.1L207.1 183.7L206.1 184.3L205.1 184.9L204.1 185.5L203.1 186.2L202.1 186.9L201.1 187.6L200.1 188.3L199.2 189L198.3 189.7L197.4 190.5L196.5 191.3L195.6 192.1L194.7 192.9L193.8 193.7L192.9 194.5L192 195.3L191.2 196.1L190.4 196.9L189.6 197.7L188.8 198.6L188 199.5L187.2 200.4L186.4 201.3L185.7 202.2L185 203.1L184.3 204L183.6 204.9L182.9 205.9L182.2 206.9L181.5 207.9L180.9 208.9L180.3 209.9L179.7 210.9L179.1 211.9L178.5 212.9L177.9 213.9L177.4 215L176.9 216.1L176.4 217.2L175.9 218.3L175.4 219.4L174.9 220.5L174.4 221.6L174 222.7L173.6 223.8L173.2 224.9L172.8 226L172.4 227.1L172.1 228.2L171.8 229.3L171.5 230.4L171.2 231.5L170.9 232.6L170.6 233.8L170.4 234.9L170.2 236.1L170 237.3L169.8 238.5L169.6 239.7L169.5 240.9L169.4 242.1L169.3 243.3L169.2 244.5L169.1 245.9H120.7L120.8 243.3L120.9 241.8L121 240.3L121.1 238.8L121.2 237.3L121.4 235.8L121.6 234.3L121.8 232.8L122 231.3L122.2 229.8L122.5 228.3L122.8 226.8L123.1 225.3L123.4 223.8L123.7 222.3L124.1 220.8L124.5 219.3L124.9 217.8L125.3 216.3L125.7 214.8L126.1 213.3L126.6 211.9L127.1 210.4L127.6 209L128.1 207.6L128.6 206.2L129.1 204.8L129.7 203.4L130.3 202L130.9 200.6L131.5 199.2L132.1 197.8L132.8 196.4L133.5 195L134.2 193.6L134.9 192.2L135.6 190.9L136.3 189.6L137 188.3L137.8 187L138.6 185.7L139.4 184.4L140.2 183.1L141 181.8L141.8 180.5L142.7 179.2L143.6 178L144.5 176.8L145.4 175.6L146.3 174.4L147.2 173.2L148.2 172L149.2 170.8L150.2 169.6L151.2 168.4L152.2 167.3L153.2 166.2L154.2 165.1L155.3 164L156.4 162.9L157.5 161.8L158.6 160.7L159.7 159.6L160.8 158.6L161.9 157.6L163 156.6L164.1 155.6L165.3 154.6L166.5 153.6L167.7 152.6L168.9 151.7L170.1 150.8L171.3 149.9L172.5 149L173.7 148.1L175 147.2L176.3 146.3L177.6 145.5L178.9 144.7L180.2 143.9L181.5 143.1L182.8 142.3L184.1 141.5L185.4 140.7L186.7 140L188 139.3L189.4 138.6L190.8 137.9L192.2 137.2L193.6 136.5L195 135.9L196.4 135.3L197.8 134.7L199.2 134.1L200.6 133.5L202 132.9L203.4 132.4L204.8 131.9L206.2 131.4L207.7 130.9L209.2 130.4L210.7 130L212.2 129.6L213.7 129.2L215.2 128.8L216.7 128.4L218.2 128L219.7 127.7L221.2 127.4L222.7 127.1L224.2 126.8L225.7 126.5L227.2 126.3L228.7 126.1L230.2 125.9L231.7 125.7L233.2 125.5L234.7 125.3L236.2 125.2L237.7 125.1L239.2 125L240.7 124.9L242 125Z" fill="white"/>
<path d="M1221.9 375V304.6H1217C1214.8 308.7 1211.5 312.6 1207.3 316.3C1203 320 1197.6 323.1 1191 325.6C1184.4 328 1176.3 329.2 1166.5 329.2C1153.9 329.2 1142.4 326.2 1131.8 320.1C1121.3 314 1112.9 305.3 1106.6 293.8C1100.3 282.4 1097.2 268.5 1097.2 252.3V247.7C1097.2 231.5 1100.4 217.7 1106.8 206.2C1113.2 194.8 1121.6 186 1132.2 179.9C1142.7 173.8 1154.2 170.8 1166.5 170.8C1181.1 170.8 1192.3 173.4 1200.1 178.7C1207.9 184 1213.7 189.9 1217.6 196.6H1222.5V170.8H1253.2V375H1221.9ZM1175.4 301.8C1189.2 301.8 1200.4 297.4 1209.1 288.7C1217.8 280 1222.2 267.5 1222.2 251.3V248.6C1222.2 232.6 1217.8 220.2 1209 211.5C1200.2 202.8 1189 198.4 1175.4 198.4C1161.8 198.4 1150.9 202.8 1142.1 211.5C1133.3 220.2 1128.9 232.6 1128.9 248.6V251.3C1128.9 267.5 1133.3 280 1142.1 288.7C1151 297.5 1162 301.8 1175.4 301.8Z" fill="white"/>
<path d="M1356.9 329.2C1342.5 329.2 1329.5 326.2 1317.8 320.1C1306.1 314 1296.9 305.2 1290.1 293.7C1283.3 282.2 1279.9 268.3 1279.9 252.1V248C1279.9 231.8 1283.3 218 1290.1 206.5C1296.9 195.1 1306.1 186.2 1317.8 180.1C1329.4 173.9 1342.5 170.8 1356.9 170.8C1371.3 170.8 1383.5 173.4 1393.7 178.7C1403.8 184 1412 191 1418.2 199.7C1424.4 208.4 1428.4 218 1430.2 228.6L1399.8 235C1398.8 228.3 1396.7 222.2 1393.4 216.8C1390.1 211.4 1385.6 207 1379.7 203.7C1373.8 200.5 1366.4 198.8 1357.5 198.8C1348.6 198.8 1340.9 200.8 1333.9 204.7C1326.9 208.6 1321.4 214.3 1317.3 221.7C1313.2 229.1 1311.2 238.1 1311.2 248.6V251.3C1311.2 261.8 1313.2 270.9 1317.3 278.4C1321.3 285.9 1326.9 291.6 1333.9 295.4C1340.9 299.2 1348.7 301.2 1357.5 301.2C1370.7 301.2 1380.7 297.8 1387.6 291C1394.5 284.2 1398.8 275.6 1400.7 265L1431.1 272C1428.7 282.3 1424.4 291.9 1418.2 300.6C1412 309.3 1403.9 316.3 1393.7 321.4C1383.5 326.6 1371.3 329.2 1356.9 329.2Z" fill="white"/>
<path d="M451.1 329.2V170.8H481.8V190.9H486.7C489.5 185.6 494.1 181 500.4 176.9C506.7 172.8 515.2 170.8 525.9 170.8C536.6 170.8 546 173.1 552.8 177.6C559.6 182.1 564.7 188 568.1 195.1H573C576.4 188.2 581.5 182.4 588 177.8C594.6 173.1 604 170.8 616.1 170.8C625.8 170.8 634.4 172.8 641.9 176.7C649.4 180.6 655.4 186.5 659.8 194.3C664.3 202.1 666.5 211.8 666.5 223.3V329.1H635.2V225.8C635.2 216.7 632.7 209.6 627.8 204.7C622.8 199.7 615.8 197.3 606.7 197.3C597 197.3 589.2 200.4 583.3 206.7C577.4 213 574.5 222 574.5 233.8V329.3H543.2V225.8C543.2 216.7 540.7 209.6 535.8 204.7C530.8 199.7 523.8 197.3 514.7 197.3C505 197.3 497.2 200.4 491.3 206.7C485.4 213 482.5 222 482.5 233.8V329.3H451.1V329.2Z" fill="white"/>
<path d="M755.5 328.8C744.2 328.8 734 326.3 725.1 321.2C716.2 316.1 709.2 308.9 704.1 299.6C699 290.3 696.5 279.1 696.5 266.2V170.8H727.8V264.1C727.8 277.1 731 286.6 737.5 292.8C744 299 753 302.1 764.6 302.1C777.4 302.1 787.6 297.8 795.5 289.2C803.3 280.6 807.2 268.2 807.2 252V170.9H838.5V329.3H807.8V303.7H803C800.2 309.8 795.1 315.5 787.8 320.9C780.5 326.2 769.7 328.9 755.5 328.8Z" fill="white"/>
<path d="M868.5 329.2V125H899.8V329.2H868.5Z" fill="white"/>
<path d="M1036 329.2V170.8H1067.3V329.2H1036Z" fill="white"/>
<path d="M1006 196.5V170.8H986.5L969.4 187.9H961.2V125H929.8V299C929.8 308.1 932.5 315.5 937.9 321C943.3 326.5 950.6 329.2 960 329.2H1006V303H970.1C964.2 303 961.3 299.9 961.3 293.9V196.6L1006 196.5Z" fill="white"/>
</svg>
