<?xml version="1.0" encoding="utf-8"?>
<!-- Generator: Adobe Illustrator 28.3.0, SVG Export Plug-In . SVG Version: 6.00 Build 0)  -->
<svg version="1.1" id="Layer_1" xmlns="http://www.w3.org/2000/svg" xmlns:xlink="http://www.w3.org/1999/xlink" x="0px" y="0px"
	 viewBox="0 0 500 500" style="enable-background:new 0 0 500 500;" xml:space="preserve">
<style type="text/css">
	.st0{fill:#F18046;}
</style>
<path class="st0" d="M171.2,245c2.6-39.5,34.3-71.1,73.8-73.5v-46.1C180,128,127.8,180.1,125.1,245H171.2z"/>
<path class="st0" d="M244.7,329.4c-39.5-2.6-71.1-34.3-73.5-73.8h-46.1c2.6,65,54.7,117.2,119.6,119.9V329.4z"/>
<path class="st0" d="M255.5,171.5c39.5,2.6,71.1,34.3,73.5,73.8h46.1c-2.6-65-54.7-117.2-119.6-119.9V171.5z"/>
<path class="st0" d="M375.1,329.4c-39.5-2.6-71.1-34.3-73.5-73.8h-46.1c2.6,65,54.7,117.2,119.6,119.9V329.4z"/>
</svg>
