<svg width="300" height="96" viewBox="0 0 300 96" fill="none" xmlns="http://www.w3.org/2000/svg">
<path d="M32.1347 46.9632C32.6347 39.3792 38.7308 33.312 46.327 32.8512V24C33.827 24.4992 23.7885 34.5024 23.2693 46.9632H32.1347Z" fill="#201637"/>
<path d="M46.2885 63.1491C38.7115 62.6499 32.6154 56.5635 32.1538 48.9795H23.2885C23.7885 61.4595 33.8077 71.4819 46.2885 72.0003V63.1491Z" fill="#201637"/>
<path d="M48.3462 32.8512C55.9231 33.3504 62.0193 39.4368 62.4808 47.0208H71.3462C70.8462 34.5408 60.827 24.5184 48.3462 24V32.8512Z" fill="#201637"/>
<path d="M71.3462 63.1491C63.7693 62.6499 57.6731 56.5635 57.2116 48.9795H48.3462C48.8462 61.4595 58.8654 71.4819 71.3462 72.0003V63.1491Z" fill="#201637"/>
<path d="M234.981 72.0003V58.4835H234.038C233.615 59.2707 232.981 60.0195 232.173 60.7299C231.346 61.4595 230.308 62.0355 229.038 62.5155C227.769 62.9763 226.212 63.2067 224.327 63.2067C221.904 63.2067 219.692 62.6307 217.654 61.4595C215.635 60.2883 214.019 58.6179 212.808 56.4099C211.596 54.2019 211 51.5523 211 48.4419V47.5587C211 44.4483 211.615 41.7987 212.846 39.5907C214.077 37.3827 215.692 35.7123 217.731 34.5411C219.75 33.3699 221.962 32.7939 224.327 32.7939C227.135 32.7939 229.288 33.2931 230.788 34.3107C232.288 35.3283 233.404 36.4803 234.154 37.7475H235.096V32.7939H241V72.0003H234.981ZM226.038 57.9459C228.692 57.9459 230.846 57.1011 232.519 55.4307C234.192 53.7603 235.038 51.3603 235.038 48.2499V47.7315C235.038 44.6595 234.192 42.2787 232.5 40.6083C230.808 38.9379 228.654 38.0931 226.038 38.0931C223.423 38.0931 221.327 38.9379 219.635 40.6083C217.942 42.2787 217.096 44.6595 217.096 47.7315V48.2499C217.096 51.3603 217.942 53.7603 219.635 55.4307C221.346 57.1203 223.462 57.9459 226.038 57.9459Z" fill="#201637"/>
<path d="M260.942 63.2061C258.173 63.2061 255.673 62.6301 253.423 61.4589C251.173 60.2877 249.404 58.5981 248.096 56.3709C246.788 54.1437 246.135 51.4941 246.135 48.3645V47.5965C246.135 44.4861 246.788 41.8365 248.096 39.6285C249.404 37.4205 251.173 35.7309 253.423 34.5405C255.654 33.3501 258.173 32.7549 260.942 32.7549C263.711 32.7549 266.058 33.2541 268.019 34.2717C269.961 35.2893 271.538 36.6333 272.731 38.3037C273.923 39.9741 274.692 41.8173 275.038 43.8525L269.192 45.0813C269 43.7949 268.596 42.6237 267.961 41.5869C267.346 40.5309 266.461 39.7053 265.327 39.0717C264.192 38.4573 262.769 38.1309 261.058 38.1309C259.346 38.1309 257.865 38.5149 256.519 39.2637C255.173 40.0317 254.115 41.1069 253.327 42.5277C252.538 43.9485 252.154 45.6765 252.154 47.6925V48.2109C252.154 50.2269 252.538 51.9741 253.327 53.4141C254.096 54.8541 255.173 55.9485 256.519 56.6781C257.865 57.4269 259.365 57.7917 261.058 57.7917C263.596 57.7917 265.519 57.1389 266.846 55.8333C268.173 54.5277 269 52.8573 269.365 50.8413L275.211 52.1853C274.75 54.1629 273.923 56.0061 272.731 57.6765C271.538 59.3469 269.981 60.6909 268.019 61.6701C266.058 62.7069 263.711 63.2061 260.942 63.2061Z" fill="#201637"/>
<path d="M86.75 63.2067V32.7939H92.6538V36.6531H93.5962C94.1346 35.6355 95.0192 34.7523 96.2308 33.9651C97.4423 33.1779 99.0769 32.7939 101.135 32.7939C103.192 32.7939 105 33.2355 106.308 34.0995C107.615 34.9635 108.596 36.0963 109.25 37.4595H110.192C110.846 36.1347 111.827 35.0211 113.077 34.1379C114.346 33.2355 116.154 32.7939 118.481 32.7939C120.346 32.7939 122 33.1779 123.442 33.9267C124.885 34.6755 126.038 35.8083 126.885 37.3059C127.75 38.8035 128.173 40.6659 128.173 42.8739V63.1875H122.154V43.3539C122.154 41.6067 121.673 40.2435 120.731 39.3027C119.769 38.3427 118.423 37.8627 116.673 37.8627C114.808 37.8627 113.308 38.4579 112.173 39.6675C111.038 40.8771 110.481 42.6051 110.481 44.8707V63.2067H104.462V43.3539C104.462 41.6067 103.981 40.2435 103.038 39.3027C102.077 38.3427 100.731 37.8627 98.9808 37.8627C97.1154 37.8627 95.6154 38.4579 94.4808 39.6675C93.3462 40.8771 92.7885 42.6051 92.7885 44.8707V63.2067H86.75Z" fill="#201637"/>
<path d="M145.288 63.1485C143.115 63.1485 141.154 62.6685 139.442 61.6893C137.731 60.7101 136.385 59.3277 135.404 57.5421C134.423 55.7565 133.942 53.6061 133.942 51.1293V32.8125H139.961V50.7261C139.961 53.2221 140.577 55.0653 141.827 56.2365C143.077 57.4269 144.808 58.0221 147.038 58.0221C149.5 58.0221 151.461 57.1965 152.981 55.5453C154.481 53.8941 155.231 51.5133 155.231 48.4029V32.8317H161.25V63.2445H155.346V58.3293H154.423C153.885 59.5005 152.904 60.5949 151.5 61.6317C150.096 62.6685 148.019 63.1485 145.288 63.1485Z" fill="#201637"/>
<path d="M167.019 63.2064V24H173.039V63.2064H167.019Z" fill="#201637"/>
<path d="M199.231 63.2067V32.7939H205.25V63.2067H199.231Z" fill="#201637"/>
<path d="M193.462 37.728V32.7936H189.712L186.423 36.0768H184.846V24H178.808V57.408C178.808 59.1744 179.327 60.576 180.365 61.632C181.404 62.688 182.808 63.2064 184.615 63.2064H193.462V58.176H186.558C185.423 58.176 184.865 57.6 184.865 56.4096V37.728H193.462Z" fill="#201637"/>
</svg>
