<svg width="150" height="150" viewBox="0 0 150 150" fill="none" xmlns="http://www.w3.org/2000/svg">
<path d="M51.36 73.5001C52.14 61.6501 61.65 52.1701 73.5 51.4501V37.6201C54 38.4001 38.34 54.0301 37.53 73.5001H51.36Z" fill="#201637"/>
<path d="M73.41 98.8197C61.56 98.0397 52.08 88.5297 51.36 76.6797H37.53C38.31 96.1797 53.94 111.84 73.41 112.65V98.8197Z" fill="#201637"/>
<path d="M76.6499 51.4501C88.4999 52.2301 97.9799 61.7401 98.6999 73.5901H112.53C111.75 54.0901 96.1199 38.4301 76.6499 37.6201V51.4501Z" fill="#201637"/>
<path d="M112.53 98.8197C100.68 98.0397 91.1999 88.5297 90.4799 76.6797H76.6499C77.4299 96.1797 93.0599 111.84 112.53 112.65V98.8197Z" fill="#201637"/>
</svg>
