<svg width="1560" height="500" viewBox="0 0 1560 500" fill="none" xmlns="http://www.w3.org/2000/svg">
<path d="M167.1 244.6C169.7 205.1 201.4 173.5 240.9 171.1V125C175.9 127.6 123.7 179.7 121 244.6H167.1Z" fill="#201637"/>
<path d="M240.7 328.9C201.3 326.3 169.6 294.6 167.2 255.1H121.1C123.7 320.1 175.8 372.3 240.7 375V328.9Z" fill="#201637"/>
<path d="M251.4 171.1C290.8 173.7 322.5 205.4 324.9 244.9H371C368.4 179.9 316.3 127.7 251.4 125V171.1Z" fill="#201637"/>
<path d="M371 328.9C331.6 326.3 299.9 294.6 297.5 255.1H251.4C254 320.1 306.1 372.3 371 375V328.9Z" fill="#201637"/>
<path d="M1221.9 375V304.6H1217C1214.8 308.7 1211.5 312.6 1207.3 316.3C1203 320.1 1197.6 323.1 1191 325.6C1184.4 328 1176.3 329.2 1166.5 329.2C1153.9 329.2 1142.4 326.2 1131.8 320.1C1121.3 314 1112.9 305.3 1106.6 293.8C1100.3 282.3 1097.2 268.5 1097.2 252.3V247.7C1097.2 231.5 1100.4 217.7 1106.8 206.2C1113.2 194.7 1121.6 186 1132.2 179.9C1142.7 173.8 1154.2 170.8 1166.5 170.8C1181.1 170.8 1192.3 173.4 1200.1 178.7C1207.9 184 1213.7 190 1217.6 196.6H1222.5V170.8H1253.2V375H1221.9ZM1175.4 301.8C1189.2 301.8 1200.4 297.4 1209.1 288.7C1217.8 280 1222.2 267.5 1222.2 251.3V248.6C1222.2 232.6 1217.8 220.2 1209 211.5C1200.2 202.8 1189 198.4 1175.4 198.4C1161.8 198.4 1150.9 202.8 1142.1 211.5C1133.3 220.2 1128.9 232.6 1128.9 248.6V251.3C1128.9 267.5 1133.3 280 1142.1 288.7C1151 297.5 1162 301.8 1175.4 301.8Z" fill="#201637"/>
<path d="M1356.9 329.2C1342.5 329.2 1329.5 326.2 1317.8 320.1C1306.1 314 1296.9 305.2 1290.1 293.6C1283.3 282 1279.9 268.2 1279.9 251.9V247.9C1279.9 231.7 1283.3 217.9 1290.1 206.4C1296.9 194.9 1306.1 186.1 1317.8 179.9C1329.4 173.7 1342.5 170.6 1356.9 170.6C1371.3 170.6 1383.5 173.2 1393.7 178.5C1403.8 183.8 1412 190.8 1418.2 199.5C1424.4 208.2 1428.4 217.8 1430.2 228.4L1399.8 234.8C1398.8 228.1 1396.7 222 1393.4 216.6C1390.2 211.1 1385.6 206.8 1379.7 203.5C1373.8 200.3 1366.4 198.6 1357.5 198.6C1348.6 198.6 1340.9 200.6 1333.9 204.5C1326.9 208.5 1321.4 214.1 1317.3 221.5C1313.2 228.9 1311.2 237.9 1311.2 248.4V251.1C1311.2 261.6 1313.2 270.7 1317.3 278.2C1321.3 285.7 1326.9 291.4 1333.9 295.2C1340.9 299.1 1348.7 301 1357.5 301C1370.7 301 1380.7 297.6 1387.6 290.8C1394.5 284 1398.8 275.3 1400.7 264.8L1431.1 271.8C1428.7 282.1 1424.4 291.7 1418.2 300.4C1412 309.1 1403.9 316.1 1393.7 321.2C1383.5 326.6 1371.3 329.2 1356.9 329.2Z" fill="#201637"/>
<path d="M451.1 329.2V170.8H481.8V190.9H486.7C489.5 185.6 494.1 181 500.4 176.9C506.7 172.8 515.2 170.8 525.9 170.8C536.6 170.8 546 173.1 552.8 177.6C559.6 182.1 564.7 188 568.1 195.1H573C576.4 188.2 581.5 182.4 588 177.8C594.6 173.1 604 170.8 616.1 170.8C625.8 170.8 634.4 172.8 641.9 176.7C649.4 180.6 655.4 186.5 659.8 194.3C664.3 202.1 666.5 211.8 666.5 223.3V329.1H635.2V225.8C635.2 216.7 632.7 209.6 627.8 204.7C622.8 199.7 615.8 197.2 606.7 197.2C597 197.2 589.2 200.3 583.3 206.6C577.4 212.9 574.5 221.9 574.5 233.7V329.2H543.2V225.8C543.2 216.7 540.7 209.6 535.8 204.7C530.8 199.7 523.8 197.2 514.7 197.2C505 197.2 497.2 200.3 491.3 206.6C485.4 212.9 482.5 221.9 482.5 233.7V329.2H451.1Z" fill="#201637"/>
<path d="M755.5 328.9C744.2 328.9 734 326.4 725.1 321.3C716.2 316.2 709.2 309 704.1 299.7C699 290.4 696.5 279.2 696.5 266.3V170.9H727.8V264.2C727.8 277.2 731 286.8 737.5 292.9C744 299.1 753 302.2 764.6 302.2C777.4 302.2 787.6 297.9 795.5 289.3C803.3 280.7 807.2 268.3 807.2 252.1V171H838.5V329.4H807.8V303.8H803C800.2 309.9 795.1 315.6 787.8 321C780.5 326.4 769.7 328.9 755.5 328.9Z" fill="#201637"/>
<path d="M868.5 329.2V125H899.8V329.2H868.5Z" fill="#201637"/>
<path d="M1036 329.2V170.8H1067.3V329.2H1036Z" fill="#201637"/>
<path d="M1006 196.5V170.8H986.5L969.4 187.9H961.2V125H929.8V299C929.8 308.2 932.5 315.5 937.9 321C943.3 326.5 950.6 329.2 960 329.2H1006V303H970.1C964.2 303 961.3 300 961.3 293.8V196.5H1006Z" fill="#201637"/>
</svg>
