<?xml version="1.0" encoding="utf-8"?>
<!-- Generator: Adobe Illustrator 28.3.0, SVG Export Plug-In . SVG Version: 6.00 Build 0)  -->
<svg version="1.1" id="Layer_1" xmlns="http://www.w3.org/2000/svg" xmlns:xlink="http://www.w3.org/1999/xlink" x="0px" y="0px"
	 viewBox="0 0 500 500" style="enable-background:new 0 0 500 500;" xml:space="preserve">
<style type="text/css">
	.st0{clip-path:url(#SVGID_00000104686469644450447980000007023994216379603074_);}
	.st1{fill:#160F26;}
	.st2{fill:#FA6863;}
	.st3{fill:#F18046;}
	.st4{fill:#3D95FD;}
	.st5{fill:#0DC09D;}
</style>
<g>
	<defs>
		<rect id="SVGID_1_" x="125" y="125" width="250" height="250"/>
	</defs>
	<clipPath id="SVGID_00000000180823955876633170000016654116462552103049_">
		<use xlink:href="#SVGID_1_"  style="overflow:visible;"/>
	</clipPath>
	<g style="clip-path:url(#SVGID_00000000180823955876633170000016654116462552103049_);">
		<path class="st1" d="M337.2,254.4l0.4,0.1l0.4,0.1l0.3,0.2l0.3,0.2l0.3,0.2l0.3,0.2l0.3,0.2l0.3,0.2l0.3,0.2l0.3,0.2l0.3,0.3
			l0.2,0.3l0.2,0.3l0.2,0.3l0.2,0.3l0.2,0.3l0.2,0.3l0.2,0.3l0.1,0.3l0.1,0.3l0.1,0.4l0.1,0.4l0.1,0.4l0.1,0.4l0,0.4l0,0.4l0,0.4
			l0,0.4l0,0.4l0,0.4l-0.1,0.4l-0.1,0.4l-0.1,0.4l-0.1,0.3l-0.1,0.4l-0.1,0.3l-0.2,0.3l-0.2,0.3l-0.2,0.3l-0.2,0.3l-0.2,0.3
			l-0.2,0.3l-0.2,0.3l-0.3,0.3l-0.3,0.3l-0.3,0.2l-0.3,0.2l-0.3,0.2l-0.3,0.2l-0.3,0.2l-0.3,0.2l-0.3,0.2l-0.4,0.1l-0.4,0.1
			l-0.4,0.1l-0.4,0.1l-0.4,0.1l-0.4,0l-0.4,0l-0.4,0H335l0.4,0l0.7,0l0.7,0l0.7-0.1l0.7-0.1l0.7-0.1l0.7-0.1l0.7-0.1l0.7-0.1
			l0.7-0.2l0.7-0.2l0.7-0.2l0.6-0.2l0.6-0.2l0.6-0.3l0.6-0.3l0.6-0.3l0.6-0.3l0.6-0.3l0.6-0.3l0.6-0.4l0.6-0.4l0.6-0.4l0.6-0.4
			l0.5-0.4l0.5-0.4l0.5-0.4l0.5-0.5l0.5-0.5l0.5-0.5l0.5-0.5l0.4-0.5l0.4-0.5l0.4-0.5l0.4-0.5l0.4-0.5l0.4-0.6l0.4-0.6l0.3-0.6
			l0.3-0.6l0.3-0.6l0.3-0.6l0.3-0.6l0.3-0.6l0.3-0.6l0.2-0.6l0.2-0.6l0.2-0.7l0.2-0.7l0.2-0.7l0.2-0.7l0.1-0.7l0.1-0.7l0.1-0.7
			l0.1-0.7l0.1-0.7l0-0.7l0-0.7l0-0.7l0-0.7l0-0.7l0-0.7l-0.1-0.7l-0.1-0.7l-0.1-0.7l-0.1-0.7l-0.1-0.7l-0.2-0.7l-0.1-0.5h-24.3
			l-0.5,0h-57.5l59.7,16.4L337.2,254.4z"/>
		<path class="st2" d="M375,260.4l-0.1-0.9l-0.1-0.8l-0.1-0.9l-0.1-0.9l-0.1-0.8l-0.1-0.8l-0.2-0.8l-0.2-0.8l-0.2-0.8l-0.2-0.8
			l-0.2-0.8l-0.2-0.8l-0.3-0.8l-0.3-0.8l-0.3-0.8l-0.3-0.8l-0.3-0.8l-0.3-0.8l-0.4-0.8l-0.4-0.8l-0.4-0.8l-0.4-0.8l-0.4-0.7
			l-0.4-0.7l-0.5-0.7l-0.5-0.7l-0.5-0.7l-0.5-0.7l-0.2-0.2h-7.5l0.1,0.5l0.2,0.7l0.1,0.7l0.1,0.7l0.1,0.7l0.1,0.7l0.1,0.7l0,0.7
			l0,0.7l0,0.7l0,0.7l0,0.7l0,0.7l-0.1,0.7l-0.1,0.7l-0.1,0.7l-0.1,0.7l-0.1,0.7l-0.2,0.7l-0.2,0.7l-0.2,0.7l-0.2,0.7l-0.2,0.6
			l-0.2,0.6l-0.3,0.6l-0.3,0.6l-0.3,0.6l-0.3,0.6l-0.3,0.6l-0.3,0.6l-0.4,0.6l-0.4,0.6l-0.4,0.6l-0.4,0.5l-0.4,0.5l-0.4,0.5
			l-0.4,0.5l-0.5,0.5l-0.5,0.5l-0.5,0.5l-0.5,0.5l-0.5,0.5l-0.5,0.4l-0.5,0.4l-0.5,0.4l-0.6,0.4l-0.6,0.4l-0.6,0.4l-0.6,0.4
			l-0.6,0.3l-0.6,0.3l-0.6,0.3l-0.6,0.3l-0.6,0.3l-0.6,0.3l-0.6,0.2l-0.6,0.2l-0.6,0.2l-0.7,0.2l-0.7,0.2l-0.7,0.1l-0.7,0.1
			l-0.7,0.1l-0.7,0.1l-0.7,0.1l-0.7,0.1l-0.7,0l-0.7,0l-0.7,0H125v32.3h209.7l0.9,0l0.8,0l0.9-0.1l0.9-0.1l0.9-0.1l0.8-0.1l0.9-0.1
			l0.8-0.1l0.8-0.1l0.8-0.2l0.8-0.2l0.8-0.2l0.8-0.2l0.8-0.2l0.8-0.2l0.8-0.3l0.8-0.3l0.8-0.3l0.8-0.3l0.8-0.3l0.8-0.4l0.8-0.4
			l0.8-0.4l0.8-0.4l0.7-0.4l0.7-0.4l0.7-0.5l0.7-0.5l0.7-0.5l0.7-0.5l0.7-0.5l0.7-0.5l0.7-0.6l0.7-0.6l0.6-0.6l0.6-0.6l0.6-0.6
			l0.6-0.6l0.6-0.6l0.6-0.6l0.6-0.6l0.5-0.7l0.5-0.7l0.5-0.7l0.5-0.7l0.5-0.7l0.5-0.7l0.5-0.7l0.4-0.7l0.4-0.7l0.4-0.7l0.4-0.8
			l0.4-0.8l0.4-0.8l0.3-0.8l0.3-0.8l0.3-0.8l0.3-0.8l0.3-0.8l0.3-0.8l0.2-0.8l0.2-0.8l0.2-0.8l0.2-0.8l0.2-0.8l0.2-0.8l0.1-0.8
			l0.1-0.9l0.1-0.8l0.1-0.9l0.1-0.9l0.1-0.8l0-0.9l0-0.9l0-0.9L375,260.4z"/>
		<path class="st1" d="M162.8,245.5l-0.4-0.1l-0.4-0.1l-0.3-0.2l-0.3-0.2l-0.3-0.2l-0.3-0.2l-0.3-0.2l-0.3-0.2l-0.3-0.2l-0.3-0.2
			l-0.3-0.3l-0.2-0.3l-0.2-0.3l-0.2-0.3l-0.2-0.3l-0.2-0.3l-0.2-0.3l-0.2-0.3l-0.1-0.3l-0.1-0.4l-0.1-0.4l-0.1-0.4l-0.1-0.4
			l-0.1-0.4l0-0.4l0-0.4l0-0.4l0-0.4l0-0.4l0-0.4l0.1-0.4l0.1-0.4l0.1-0.4l0.1-0.4l0.1-0.4l0.1-0.3l0.2-0.3l0.2-0.3l0.2-0.3l0.2-0.3
			l0.2-0.3l0.2-0.3l0.2-0.3l0.3-0.3l0.3-0.3l0.3-0.2l0.3-0.2l0.3-0.2l0.3-0.2l0.3-0.2l0.3-0.2l0.3-0.1l0.4-0.1l0.4-0.1l0.4-0.1
			l0.4-0.1l0.4-0.1l0.4-0.1l0.4,0l0.4,0h0.1h-0.4l-0.7,0l-0.7,0.1l-0.7,0.1l-0.7,0.1l-0.7,0.1l-0.7,0.1l-0.7,0.1l-0.7,0.2l-0.7,0.2
			l-0.7,0.2l-0.7,0.2l-0.6,0.2l-0.7,0.2l-0.6,0.3l-0.6,0.3l-0.6,0.3l-0.6,0.3l-0.6,0.3l-0.6,0.3l-0.6,0.4l-0.6,0.4l-0.6,0.4
			l-0.6,0.4l-0.6,0.4l-0.5,0.4l-0.5,0.4l-0.5,0.5l-0.5,0.5l-0.5,0.5l-0.5,0.5l-0.5,0.5l-0.5,0.5l-0.4,0.5l-0.4,0.5l-0.4,0.6
			l-0.4,0.6l-0.4,0.6l-0.4,0.6l-0.3,0.6l-0.3,0.6l-0.3,0.6l-0.3,0.6l-0.3,0.6l-0.3,0.6l-0.2,0.6l-0.2,0.6l-0.2,0.7l-0.2,0.7
			l-0.2,0.7l-0.2,0.7l-0.1,0.7l-0.1,0.7l-0.1,0.7l-0.1,0.7l-0.1,0.7l0,0.7l0,0.7l0,0.7l0,0.7l0,0.7l0,0.7l0.1,0.7l0.1,0.7l0.1,0.7
			l0.1,0.7l0.1,0.7l0.2,0.7l0.1,0.5h24.3l0.5,0h57.5l-59.7-16.4L162.8,245.5z"/>
		<path class="st3" d="M125,239.6l0,0.9l0.1,0.9l0.1,0.9l0.1,0.8l0.1,0.8l0.1,0.8l0.2,0.9l0.2,0.8l0.2,0.8l0.2,0.8l0.2,0.8l0.3,0.8
			l0.3,0.8l0.3,0.8l0.3,0.8l0.3,0.8l0.3,0.8l0.3,0.8l0.4,0.8l0.4,0.8l0.4,0.8l0.4,0.8l0.4,0.7l0.4,0.7l0.5,0.7l0.5,0.7l0.5,0.7
			l0.5,0.7l0.2,0.2h7.5l-0.1-0.5l-0.2-0.7l-0.1-0.7l-0.1-0.7l-0.1-0.7l-0.1-0.7l-0.1-0.7l-0.1-0.7l0-0.7l0-0.7l0-0.7l0-0.7l0.1-0.7
			l0.1-0.7l0.1-0.7l0.1-0.7l0.1-0.7l0.1-0.7l0.2-0.7l0.2-0.7l0.2-0.7l0.2-0.7l0.2-0.6l0.2-0.6l0.3-0.6l0.3-0.6l0.3-0.6l0.3-0.6
			l0.3-0.6l0.3-0.6l0.4-0.6l0.4-0.6l0.4-0.6l0.4-0.6l0.4-0.5l0.4-0.5l0.5-0.5l0.5-0.5l0.5-0.5l0.5-0.5l0.5-0.5l0.5-0.5l0.5-0.4
			l0.5-0.4l0.6-0.4l0.6-0.4l0.6-0.4l0.6-0.4l0.6-0.4l0.6-0.3l0.6-0.3l0.6-0.3l0.6-0.3l0.6-0.3l0.6-0.3l0.7-0.2l0.6-0.2l0.7-0.2
			l0.7-0.2l0.7-0.2l0.7-0.2l0.7-0.1l0.7-0.1l0.7-0.1l0.7-0.1l0.7-0.1l0.7-0.1l0.7,0l0.7,0H375v-32.2H165.3l-0.9,0l-0.9,0l-0.9,0.1
			l-0.9,0.1l-0.9,0.1l-0.8,0.1l-0.9,0.1l-0.8,0.1l-0.8,0.2l-0.9,0.2l-0.8,0.2l-0.8,0.2l-0.8,0.2l-0.8,0.2l-0.8,0.2l-0.8,0.3
			l-0.8,0.3l-0.8,0.3l-0.8,0.3l-0.8,0.3l-0.8,0.4l-0.8,0.4l-0.8,0.4l-0.8,0.4l-0.7,0.4l-0.7,0.4l-0.7,0.5l-0.7,0.5L142,205l-0.7,0.5
			l-0.7,0.5l-0.7,0.5l-0.7,0.5l-0.7,0.6l-0.6,0.6l-0.6,0.6l-0.6,0.6l-0.6,0.6l-0.6,0.6l-0.6,0.6l-0.6,0.7l-0.5,0.7l-0.5,0.7
			l-0.5,0.7l-0.5,0.7l-0.5,0.7l-0.5,0.7l-0.5,0.7l-0.4,0.7l-0.4,0.7l-0.4,0.7l-0.4,0.8l-0.4,0.8l-0.4,0.8l-0.3,0.8l-0.3,0.8
			l-0.3,0.8l-0.3,0.8l-0.3,0.8l-0.3,0.8l-0.3,0.8l-0.2,0.8l-0.2,0.8l-0.2,0.8l-0.2,0.8l-0.2,0.8l-0.1,0.8l-0.1,0.9l-0.1,0.9
			l-0.1,0.9l-0.1,0.8l0,0.8l0,0.9v0.9v0.9L125,239.6z"/>
		<path class="st1" d="M162.8,173l-0.4-0.1l-0.4-0.2l-0.3-0.1l-0.3-0.2l-0.3-0.2l-0.3-0.2l-0.3-0.2l-0.3-0.2l-0.3-0.2l-0.3-0.2
			l-0.2-0.3l-0.2-0.3l-0.2-0.3l-0.2-0.3l-0.2-0.3l-0.2-0.3l-0.2-0.3l-0.2-0.3l-0.1-0.3l-0.1-0.4l-0.1-0.3l-0.1-0.4l-0.1-0.4
			l-0.1-0.4l-0.1-0.4l0-0.4l0-0.4l0-0.4l0-0.4l0.1-0.4l0.1-0.4l0.1-0.4l0.1-0.4l0.1-0.4l0.1-0.3l0.1-0.3l0.2-0.3l0.2-0.3l0.2-0.3
			l0.2-0.3l0.2-0.3l0.2-0.3l0.2-0.3l0.2-0.3l0.3-0.2l0.3-0.2l0.3-0.2l0.3-0.2l0.3-0.2l0.3-0.2l0.3-0.2l0.3-0.2l0.4-0.1l0.4-0.1
			l0.4-0.1l0.4-0.1l0.4-0.1l0.4-0.1l0.4,0l0.4,0h0.1h-0.4l-0.7,0l-0.7,0l-0.7,0.1l-0.7,0.1l-0.7,0.1l-0.7,0.1l-0.7,0.1l-0.7,0.1
			l-0.7,0.2l-0.7,0.2l-0.7,0.2l-0.6,0.2L156,159l-0.6,0.2l-0.6,0.3l-0.6,0.3l-0.6,0.3l-0.6,0.3l-0.6,0.3l-0.6,0.4l-0.6,0.4l-0.6,0.4
			l-0.6,0.4l-0.6,0.4l-0.5,0.4l-0.5,0.4l-0.5,0.4l-0.5,0.5l-0.5,0.5l-0.5,0.5L146,166l-0.5,0.5l-0.4,0.5l-0.4,0.6l-0.4,0.5l-0.4,0.6
			l-0.4,0.6l-0.4,0.6l-0.3,0.6l-0.3,0.6l-0.3,0.6l-0.3,0.6l-0.3,0.6l-0.3,0.6l-0.2,0.6l-0.2,0.6l-0.2,0.6l-0.2,0.7l-0.2,0.7
			l-0.2,0.7l-0.1,0.7l-0.1,0.7l-0.1,0.7l-0.1,0.7l-0.1,0.7l0,0.7l0,0.7l0,0.7l0,0.7l0,0.7l0,0.7l0.1,0.7l0.1,0.7l0.1,0.7l0.1,0.7
			l0.1,0.7l0.2,0.7l0.2,0.7l0.2,0.6l0.2,0.7l0.2,0.6l0.2,0.6l0.3,0.6l0.3,0.6l0.3,0.6l0.3,0.6l0.2,0.3l0,0l0.8-0.4l0.8-0.4l0.9-0.4
			l0.9-0.4l0.9-0.4l0.9-0.3l0.9-0.3l0.9-0.3l0.9-0.3l0.9-0.3l0.9-0.3l0.9-0.2l0.9-0.2l0.9-0.2l0.9-0.2l0.9-0.2l0.9-0.1l0.9-0.1
			l0.9-0.1l0.9-0.1l0.9-0.1l0.9-0.1l0.9,0l1,0l0.9,0h57.5l-59.7-16.4L162.8,173z"/>
		<path class="st1" d="M334.7,342.7h0.7l0.7,0l0.7,0l0.7-0.1l0.7-0.1l0.7-0.1l0.7-0.1l0.7-0.1l0.7-0.1l0.7-0.2l0.7-0.2l0.7-0.2
			l0.6-0.2l0.6-0.2l0.6-0.3l0.6-0.3l0.6-0.3l0.6-0.3l0.6-0.3l0.6-0.3l0.6-0.4l0.6-0.4l0.6-0.4l0.6-0.4l0.5-0.4l0.5-0.4l0.5-0.5
			l0.5-0.5l0.5-0.5l0.5-0.5l0.5-0.5l0.5-0.5l0.4-0.5l0.4-0.5l0.4-0.6l0.4-0.6l0.4-0.6l0.4-0.6l0.3-0.6l0.3-0.6l0.3-0.6l0.3-0.6
			l0.3-0.6l0.3-0.6l0.3-0.6l0.2-0.6l0.2-0.7l0.2-0.6l0.2-0.7l0.2-0.7l0.2-0.7l0.1-0.7l0.1-0.7l0.1-0.7l0.1-0.7l0.1-0.7l0-0.7l0-0.7
			v-0.7v-0.7l0-0.7l0-0.7l-0.1-0.7l-0.1-0.7L360,313l-0.1-0.7l-0.1-0.7l-0.2-0.7l-0.2-0.7l-0.2-0.7L359,309l-0.2-0.6l-0.2-0.6
			l-0.3-0.6l-0.3-0.6l-0.3-0.6l-0.3-0.6l-0.2-0.4l0,0l-0.8,0.4l-0.8,0.4l-0.8,0.4l-0.9,0.4l-0.9,0.4l-0.9,0.4l-0.9,0.3l-0.9,0.3
			l-0.9,0.3l-0.9,0.3l-0.9,0.3l-0.9,0.2l-0.9,0.2l-0.9,0.2l-0.9,0.2l-0.9,0.2l-0.9,0.2l-0.9,0.1l-0.9,0.1l-0.9,0.1l-0.9,0.1
			l-0.9,0.1l-0.9,0l-0.9,0l-0.9,0h-57.5l59.7,16.4l0.4,0.1l0.4,0.1l0.4,0.1l0.3,0.2l0.3,0.2l0.3,0.2l0.3,0.2l0.3,0.2l0.3,0.2
			l0.3,0.2l0.3,0.2l0.3,0.3l0.2,0.3l0.2,0.3l0.2,0.3l0.2,0.3l0.2,0.3l0.2,0.3l0.2,0.3l0.1,0.3l0.1,0.3l0.1,0.4l0.1,0.4l0.1,0.4
			l0.1,0.4l0,0.4l0,0.4l0,0.4l0,0.4l0,0.4l0,0.4l-0.1,0.4l-0.1,0.4l-0.1,0.4l-0.1,0.4l-0.1,0.4l-0.1,0.3l-0.2,0.3l-0.2,0.3l-0.2,0.3
			l-0.2,0.3l-0.2,0.3l-0.2,0.3l-0.2,0.3l-0.3,0.3l-0.3,0.3l-0.3,0.2l-0.3,0.2l-0.3,0.2l-0.3,0.2l-0.3,0.2l-0.3,0.2l-0.3,0.2
			l-0.4,0.1l-0.4,0.1l-0.4,0.1l-0.4,0.1l-0.4,0.1l-0.4,0l-0.4,0l-0.4,0L334.7,342.7"/>
		<path class="st4" d="M375,333l0-0.9l-0.1-0.8l-0.1-0.9l-0.1-0.8l-0.1-0.8l-0.1-0.8l-0.1-0.8l-0.2-0.8l-0.2-0.8l-0.2-0.8l-0.2-0.8
			l-0.2-0.8l-0.3-0.8l-0.3-0.8l-0.3-0.8l-0.3-0.8l-0.3-0.8l-0.3-0.8l-0.4-0.8l-0.4-0.8l-0.4-0.8l-0.4-0.8l-0.4-0.7l-0.5-0.7
			l-0.5-0.7l-0.5-0.7l-0.5-0.7l-0.5-0.7l-0.5-0.7l-0.5-0.7l-0.5-0.7l-0.6-0.6l-0.6-0.6l-0.6-0.6l-0.6-0.6l-0.6-0.6L362,305l-0.6-0.6
			l-0.7-0.6l-0.7-0.6l0,0l-0.9,0.6l-0.8,0.5l-0.9,0.5l-0.1,0.1l0.2,0.4l0.3,0.6l0.3,0.6l0.3,0.6l0.3,0.6l0.2,0.6l0.2,0.6l0.2,0.7
			l0.2,0.7l0.2,0.7l0.2,0.7l0.1,0.7l0.1,0.7l0.1,0.7l0.1,0.7l0.1,0.7l0,0.7l0,0.7v0.7v0.7l0,0.7l0,0.7l-0.1,0.7l-0.1,0.7l-0.1,0.7
			l-0.1,0.7l-0.1,0.7l-0.2,0.7l-0.2,0.7l-0.2,0.7l-0.2,0.6l-0.2,0.7l-0.2,0.6l-0.3,0.6l-0.3,0.6l-0.3,0.6l-0.3,0.6l-0.3,0.6
			l-0.3,0.6l-0.4,0.6l-0.4,0.6l-0.4,0.6l-0.4,0.5l-0.4,0.5l-0.4,0.5L354,334l-0.5,0.5l-0.5,0.5l-0.5,0.5l-0.5,0.5l-0.5,0.5l-0.5,0.5
			l-0.5,0.4l-0.5,0.4l-0.6,0.4l-0.6,0.4l-0.6,0.4l-0.6,0.4l-0.6,0.3l-0.6,0.3l-0.6,0.3l-0.6,0.3l-0.6,0.3L344,341l-0.6,0.2l-0.7,0.2
			l-0.6,0.2l-0.7,0.2l-0.7,0.2l-0.7,0.1l-0.7,0.1l-0.7,0.1l-0.7,0.1l-0.7,0.1l-0.7,0.1l-0.7,0l-0.7,0h-0.7H125V375h209.7l0.9,0
			l0.8,0l0.9-0.1l0.9-0.1l0.9-0.1l0.9-0.1l0.9-0.1l0.8-0.1l0.8-0.1l0.8-0.2l0.8-0.2l0.8-0.2l0.8-0.2l0.8-0.2l0.8-0.2l0.8-0.3
			l0.8-0.3l0.8-0.3l0.8-0.3l0.8-0.3l0.8-0.4l0.8-0.4l0.8-0.4l0.7-0.4l0.8-0.4l0.7-0.4l0.7-0.5l0.7-0.5l0.7-0.5l0.7-0.5l0.7-0.5
			l0.7-0.5l0.7-0.5l0.7-0.6l0.6-0.6l0.6-0.6l0.6-0.6l0.6-0.6l0.6-0.6l0.6-0.6l0.6-0.6l0.5-0.7l0.5-0.7l0.5-0.7l0.5-0.7l0.5-0.7
			l0.5-0.7l0.5-0.7l0.5-0.7l0.4-0.7l0.4-0.8l0.4-0.8l0.4-0.8l0.4-0.8l0.3-0.8l0.3-0.8l0.3-0.8l0.3-0.8l0.3-0.8l0.3-0.8l0.2-0.8
			l0.2-0.8l0.2-0.8l0.2-0.8l0.2-0.8l0.1-0.9l0.1-0.8l0.1-0.9l0.1-0.8l0.1-0.9l0.1-0.9l0-0.8l0-0.9v-0.9v-0.9L375,333z"/>
		<path class="st5" d="M125,167l0,0.9l0.1,0.8l0.1,0.9l0.1,0.8l0.1,0.8l0.1,0.8l0.2,0.8l0.2,0.8l0.2,0.8l0.2,0.8l0.2,0.8l0.2,0.8
			l0.3,0.8l0.3,0.8l0.3,0.8l0.3,0.8l0.3,0.8l0.4,0.8l0.4,0.8l0.4,0.8l0.4,0.8l0.4,0.8l0.4,0.7l0.5,0.7l0.5,0.7l0.5,0.7l0.5,0.7
			l0.5,0.7l0.5,0.7l0.5,0.7l0.5,0.7l0.6,0.6l0.6,0.6l0.6,0.6l0.6,0.6l0.6,0.6l0.6,0.6l0.6,0.6l0.7,0.6l0.7,0.5l0,0l0.9-0.6l0.8-0.5
			l0.9-0.5l0.1-0.1l-0.2-0.4l-0.3-0.6l-0.3-0.6l-0.3-0.6l-0.3-0.6l-0.2-0.6L141,191l-0.2-0.7l-0.2-0.6l-0.2-0.7l-0.2-0.7l-0.1-0.7
			L140,187l-0.1-0.7l-0.1-0.7l-0.1-0.7l-0.1-0.7l0-0.7l0-0.7l0-0.7l0-0.7l0.1-0.7l0.1-0.7l0.1-0.7l0.1-0.7l0.1-0.7l0.1-0.7l0.2-0.7
			l0.2-0.7l0.2-0.7l0.2-0.6l0.2-0.6l0.2-0.6l0.3-0.6l0.3-0.6l0.3-0.6l0.3-0.6l0.3-0.6l0.3-0.6l0.4-0.6l0.4-0.6l0.4-0.6l0.4-0.5
			l0.4-0.6l0.4-0.5l0.5-0.5l0.5-0.5l0.5-0.5l0.5-0.5l0.5-0.5l0.5-0.4l0.5-0.5l0.5-0.4l0.6-0.4l0.6-0.4l0.6-0.4l0.6-0.4l0.6-0.4
			l0.6-0.3l0.6-0.3l0.6-0.3l0.6-0.3l0.6-0.3l0.6-0.2l0.7-0.2l0.6-0.2l0.7-0.2l0.7-0.2l0.7-0.2l0.7-0.1l0.7-0.1l0.7-0.1l0.7-0.1
			l0.7-0.1l0.7-0.1l0.7-0.1l0.7,0h0.7H375V125H165.3h-0.9l-0.9,0l-0.9,0l-0.9,0.1l-0.9,0.1l-0.9,0.1l-0.8,0.1l-0.9,0.1l-0.8,0.2
			l-0.8,0.2l-0.8,0.2l-0.8,0.2l-0.8,0.2l-0.8,0.2l-0.8,0.2l-0.8,0.3l-0.8,0.3l-0.8,0.3l-0.8,0.3l-0.8,0.3l-0.8,0.4l-0.8,0.4
			l-0.8,0.4l-0.8,0.4l-0.7,0.4l-0.7,0.4l-0.7,0.5l-0.7,0.5l-0.7,0.5l-0.7,0.5l-0.7,0.5l-0.7,0.5l-0.7,0.5l-0.7,0.5l-0.6,0.6
			l-0.6,0.6l-0.6,0.6l-0.6,0.6l-0.6,0.6l-0.6,0.6l-0.6,0.7L134,140l-0.5,0.7l-0.5,0.7l-0.5,0.7l-0.5,0.7l-0.5,0.7l-0.5,0.7l-0.5,0.7
			l-0.4,0.7l-0.4,0.8l-0.4,0.7l-0.4,0.8l-0.4,0.8l-0.4,0.8l-0.3,0.8l-0.3,0.8l-0.3,0.8l-0.3,0.8l-0.3,0.8l-0.2,0.8l-0.2,0.8
			l-0.2,0.8l-0.2,0.8l-0.2,0.8l-0.2,0.8l-0.1,0.9l-0.1,0.8l-0.1,0.8l-0.1,0.8l-0.1,0.9l0,0.8l0,0.8v0.9v0.9L125,167z"/>
	</g>
</g>
</svg>
