<?xml version="1.0" encoding="utf-8"?>
<!-- Generator: Adobe Illustrator 28.3.0, SVG Export Plug-In . SVG Version: 6.00 Build 0)  -->
<svg version="1.1" id="Layer_1" xmlns="http://www.w3.org/2000/svg" xmlns:xlink="http://www.w3.org/1999/xlink" x="0px" y="0px"
	 viewBox="0 0 1271 500" style="enable-background:new 0 0 1271 500;" xml:space="preserve">
<style type="text/css">
	.st0{clip-path:url(#SVGID_00000040549792399670465450000011373929288782197410_);}
	.st1{clip-path:url(#SVGID_00000070084196455358149380000008552368523697810878_);}
	.st2{fill:#160F26;}
</style>
<g>
	<defs>
		<rect id="SVGID_1_" x="125" y="125" width="1021" height="250"/>
	</defs>
	<clipPath id="SVGID_00000018232183955642163970000010569270619756193698_">
		<use xlink:href="#SVGID_1_"  style="overflow:visible;"/>
	</clipPath>
	<g style="clip-path:url(#SVGID_00000018232183955642163970000010569270619756193698_);">
		<g>
			<defs>
				<rect id="SVGID_00000150793270125181977310000017549576616918266022_" x="125" y="125" width="255.2" height="250"/>
			</defs>
			<clipPath id="SVGID_00000106853096553338251810000005595954306217521332_">
				<use xlink:href="#SVGID_00000150793270125181977310000017549576616918266022_"  style="overflow:visible;"/>
			</clipPath>
			<g style="clip-path:url(#SVGID_00000106853096553338251810000005595954306217521332_);">
				<path class="st2" d="M172.4,244.6c2.6-39.4,34.3-71.1,73.8-73.5V125c-65,2.6-117.2,54.7-119.9,119.6H172.4z"/>
				<path class="st2" d="M172.4,375c2.6-39.4,34.3-71.1,73.8-73.5v-46.1c-65,2.6-117.2,54.7-119.9,119.6H172.4z"/>
				<path class="st2" d="M330.3,125c-2.6,39.4-34.3,71.1-73.8,73.5v46.1c65-2.6,117.2-54.7,119.9-119.6H330.3z"/>
				<path class="st2" d="M330.3,255.4c-2.6,39.4-34.3,71.1-73.8,73.5V375c65-2.6,117.2-54.7,119.9-119.6H330.3z"/>
			</g>
		</g>
		<path class="st2" d="M474.5,302.9l-21.3-132.1h31.3l18.9,137.4h4.9l21.4-112.5c2.8-14.4,15.4-24.9,30.1-24.9
			c14.7,0,27.4,10.5,30.1,25L611,308.2h4.9l18.9-137.4H666l-21.3,132.1c-2.4,15.2-15.5,26.3-30.9,26.3c-15.1,0-28-10.7-30.8-25.5
			l-21-111.6h-4.9l-21,111.6c-2.8,14.8-15.7,25.5-30.8,25.5C490,329.2,476.9,318,474.5,302.9L474.5,302.9z"/>
		<path class="st2" d="M878.7,305.4l-42.9-134.6h33.1l39.8,135.3h4.9l39.8-135.3h33.1l-42.9,134.6c-4.5,14.1-17.7,23.7-32.5,23.7
			C896.3,329.2,883.2,319.6,878.7,305.4L878.7,305.4z"/>
		<path class="st2" d="M1145.5,246.8c0-15.2-3-28.5-9.1-39.8c-6.1-11.3-14.6-20.2-25.4-26.6c-10.9-6.4-23.5-9.6-37.9-9.6
			s-27.8,3.2-38.9,9.7c-5.6,3.2-10.6,7.1-14.9,11.6c-0.5,0.6-1.1,1.1-1.6,1.7c-1.6,1.8-3.1,3.6-4.5,5.5c-1.9,2.6-3.6,5.3-5.2,8.2
			c-6.4,11.5-9.6,25.1-9.6,40.7v3.6c0,15.6,3.2,29.2,9.6,40.7c6.4,11.5,15.3,20.5,26.6,26.9c11.3,6.4,24.6,9.6,39.8,9.6
			c13.4,0,24.5-2.1,33.4-6.4c8.9-4.3,16-9.5,21.3-15.8c1.5-1.8,2.8-3.5,4.1-5.2c3.4-4.4,6.1-8.7,8.3-12.8l-26.1-13.4
			c-3.2,6.9-7.9,13-13.8,18.2c-6,5.3-14.9,7.9-26.6,7.9c-12.6,0-23.1-3.9-31.5-11.7c-0.5-0.5-1-1-1.5-1.5c-0.5-0.5-1-1-1.4-1.5
			c-1.1-1.3-2.2-2.6-3.1-4.1c-4.1-6.1-6.4-13.4-7-21.9c-0.1-0.8-0.1-1.6-0.1-2.4h115.2L1145.5,246.8L1145.5,246.8z M1051.2,234.7
			l-16,16h-5.3c-0.1-4.6,0-10.5,0.6-16c0.3-2.1,0.7-4.1,1.2-6c0.5-1.9,1.1-3.8,1.8-5.5c2.4-5.9,5.9-10.8,10.5-14.9
			c7.4-6.5,17-9.7,28.7-9.7s21.3,3.2,28.6,9.7c7.3,6.5,11.5,15.3,12.5,26.4H1051.2L1051.2,234.7z"/>
		<path class="st2" d="M817.6,227.5c0-18.3-5.6-32.5-16.8-42.4c-11.2-10-26.6-15-46.1-15c-12.8,0-23.7,2-32.5,6.1
			c-8.9,4.1-16,9.5-21.4,16.2c-5.4,6.7-9.3,14-11.8,22l29.3,9.5c1.8-8.1,5.6-14.8,11.3-19.8c5.7-5.1,13.9-7.6,24.7-7.6
			c10.8,0,19.1,2.7,24.4,8.1c5.3,5.4,7.9,12.4,7.9,20.9v26h-5.1l-16.3-16.3h-24.4c-16.5,0-30.2,3.9-41.1,11.8
			c-10.9,7.8-16.3,19.4-16.3,34.7c0,10.2,2.5,18.8,7.5,25.9c5,7.1,11.7,12.5,20.2,16.2c8.5,3.7,18.1,5.5,28.9,5.5
			c10.8,0,18.7-1.5,25-4.4c6.3-2.9,11.1-6.4,14.4-10.4c3.3-4,5.7-7.6,7.3-10.8h4.9v25.6h26L817.6,227.5L817.6,227.5z M786.7,262.6
			c0,12.6-3.9,22.5-11.8,29.8c-7.8,7.2-18,10.8-30.4,10.8c-9.2,0-16.4-2-21.7-6.1c-5.3-4.1-7.9-9.6-7.9-16.5
			c0-6.9,2.6-12.2,7.6-15.7c5.1-3.6,11.8-5.3,20.2-5.3h44L786.7,262.6L786.7,262.6z"/>
	</g>
</g>
</svg>
