<svg width="49" height="48" viewBox="0 0 49 48" fill="none" xmlns="http://www.w3.org/2000/svg">
<path d="M9.10377 22.9651C9.60681 15.3907 15.6913 9.3216 23.2734 8.84544V0C10.801 0.49152 0.774809 10.4986 0.256409 22.9651H9.10377Z" fill="#3D95FD"/>
<path d="M9.10371 48.0004C9.60675 40.426 15.6912 34.3569 23.2733 33.8807V25.0353C10.801 25.5268 0.774748 35.5338 0.256348 48.0004H9.10371Z" fill="#3D95FD"/>
<path d="M39.409 0.000244141C38.9059 7.57464 32.8215 13.6438 25.2394 14.1199V22.9654C37.7117 22.4738 47.7379 12.4668 48.2563 0.000244141L39.409 0.000244141Z" fill="#3D95FD"/>
<path d="M39.409 25.0353C38.9059 32.6097 32.8215 38.6788 25.2394 39.155V48.0004C37.7117 47.5089 47.7379 37.5018 48.2563 25.0353H39.409Z" fill="#3D95FD"/>
</svg>
