<svg width="300" height="118" viewBox="0 0 300 118" fill="none" xmlns="http://www.w3.org/2000/svg">
<path d="M40.4092 57.7256C41.0229 48.4272 48.5288 40.946 57.8522 40.3796V29.5C42.4863 30.1136 30.1417 42.4092 29.5044 57.7256H40.4092Z" fill="white"/>
<path d="M40.409 88.499C41.0227 79.2006 48.5286 71.7194 57.852 71.153V60.2734C42.5097 60.887 30.1651 73.1826 29.5278 88.499H40.409Z" fill="white"/>
<path d="M77.7498 29.5C77.1362 38.7984 69.6303 46.2796 60.3069 46.846V57.7256C75.6727 57.112 88.0174 44.8164 88.6546 29.5H77.7498Z" fill="white"/>
<path d="M77.7498 60.2734C77.1362 69.5718 69.6303 77.053 60.3069 77.6194V88.499C75.6727 87.8854 88.0174 75.5898 88.6546 60.2734H77.7498Z" fill="white"/>
<path d="M111.857 71.4842L106.829 40.3086H114.241L118.702 72.735H119.858L124.91 46.185C125.57 42.7866 128.545 40.3086 132.038 40.3086C135.531 40.3086 138.505 42.7866 139.166 46.2086L144.17 72.735H145.327L149.788 40.3086H157.199L152.172 71.4842C151.605 75.0714 148.489 77.691 144.855 77.691C141.29 77.691 138.246 75.1658 137.585 71.673L132.604 45.3354H131.448L126.467 71.673C125.807 75.1658 122.762 77.691 119.198 77.691C115.515 77.691 112.423 75.0478 111.857 71.4842Z" fill="white"/>
<path d="M207.427 72.0742L197.278 40.3086H205.114L214.532 72.2394H215.689L225.106 40.3086H232.943L222.793 72.0742C221.731 75.4018 218.615 77.6674 215.098 77.6674C211.605 77.691 208.489 75.4254 207.427 72.0742Z" fill="white"/>
<path d="M270.519 58.2446C270.519 54.6574 269.811 51.5186 268.371 48.8518C266.932 46.185 264.925 44.0846 262.376 42.5742C259.803 41.0638 256.829 40.3086 253.43 40.3086C250.032 40.3086 246.869 41.0638 244.225 42.5978C242.903 43.353 241.723 44.2734 240.685 45.3354C240.567 45.477 240.425 45.595 240.307 45.7366C239.929 46.1614 239.575 46.5862 239.245 47.0346C238.796 47.6482 238.395 48.2854 238.017 48.9698C236.507 51.6838 235.751 54.8934 235.751 58.575V59.4246C235.751 63.1062 236.507 66.3158 238.017 69.0298C239.528 71.7438 241.629 73.8678 244.32 75.3782C247.01 76.8886 250.15 77.6438 253.737 77.6438C256.9 77.6438 259.544 77.1482 261.644 76.1334C263.745 75.1186 265.421 73.8914 266.672 72.4046C267.026 71.9798 267.333 71.5786 267.64 71.1774C268.442 70.139 269.103 69.1242 269.599 68.1566L263.415 64.9942C262.636 66.6226 261.55 68.0622 260.134 69.2894C258.718 70.5402 256.617 71.1538 253.832 71.1538C250.858 71.1538 248.379 70.2334 246.397 68.3926C246.279 68.2746 246.161 68.1566 246.043 68.0386C245.925 67.9206 245.807 67.8026 245.712 67.6846C245.452 67.3778 245.193 67.071 244.98 66.717C244.013 65.2774 243.47 63.5546 243.328 61.5486C243.305 61.3598 243.305 61.171 243.305 60.9822H270.567L270.519 58.2446ZM248.214 55.389L244.438 59.165H243.187C243.163 58.0794 243.187 56.687 243.328 55.389C243.399 54.8934 243.493 54.4214 243.611 53.973C243.729 53.5246 243.871 53.0762 244.036 52.675C244.603 51.2826 245.429 50.1262 246.515 49.1586C248.261 47.6246 250.527 46.8694 253.312 46.8694C256.098 46.8694 258.34 47.6246 260.063 49.1586C261.786 50.6926 262.777 52.7694 263.013 55.389H248.214Z" fill="white"/>
<path d="M192.982 53.6909C192.982 49.3721 191.66 46.0209 189.017 43.6845C186.373 41.3245 182.738 40.1445 178.112 40.1445C175.09 40.1445 172.518 40.6165 170.417 41.5841C168.316 42.5517 166.64 43.8261 165.366 45.4073C164.091 46.9885 163.171 48.7113 162.581 50.5993L169.52 52.8413C169.945 50.9297 170.842 49.3485 172.187 48.1685C173.533 46.9649 175.492 46.3749 178.041 46.3749C180.59 46.3749 182.573 47.0121 183.824 48.2865C185.075 49.5609 185.712 51.2129 185.712 53.2189V59.3549H184.508L180.661 55.5081H174.878C170.984 55.5081 167.75 56.4285 165.153 58.2929C162.581 60.1337 161.282 62.8713 161.282 66.4821C161.282 68.8893 161.873 70.9189 163.053 72.5945C164.233 74.2701 165.814 75.5445 167.821 76.4177C169.827 77.2909 172.093 77.7157 174.642 77.7157C177.191 77.7157 179.079 77.3617 180.567 76.6773C182.054 75.9929 183.186 75.1669 183.965 74.2229C184.744 73.2789 185.311 72.4293 185.688 71.6741H186.845V77.7157H192.982V53.6909ZM185.688 61.9745C185.688 64.9481 184.768 67.2845 182.903 69.0073C181.062 70.7065 178.655 71.5561 175.728 71.5561C173.556 71.5561 171.857 71.0841 170.606 70.1165C169.355 69.1489 168.718 67.8509 168.718 66.2225C168.718 64.5941 169.331 63.3433 170.511 62.5173C171.715 61.6677 173.297 61.2665 175.279 61.2665H185.688V61.9745Z" fill="white"/>
</svg>
