<svg width="500" height="500" viewBox="0 0 500 500" fill="none" xmlns="http://www.w3.org/2000/svg">
<path d="M171.1 244.6C173.7 205.2 205.4 173.5 244.9 171.1V125C179.9 127.6 127.7 179.7 125 244.6H171.1Z" fill="#201637"/>
<path d="M171.1 375C173.7 335.6 205.4 303.9 244.9 301.5V255.4C179.9 258 127.7 310.1 125 375H171.1Z" fill="#201637"/>
<path d="M328.9 125C326.3 164.4 294.6 196.1 255.1 198.5V244.6C320.1 242 372.3 189.9 375 125H328.9Z" fill="#201637"/>
<path d="M328.9 255.4C326.3 294.8 294.6 326.5 255.1 328.9V375C320.1 372.4 372.3 320.3 375 255.4H328.9Z" fill="#201637"/>
</svg>
