<svg width="49" height="48" viewBox="0 0 49 48" fill="none" xmlns="http://www.w3.org/2000/svg">
<g clip-path="url(#clip0_2516_1829)">
<path d="M9.10377 22.9654C9.60681 15.391 15.6913 9.32184 23.2734 8.84568V0.000244141C10.801 0.491764 0.774809 10.4988 0.256409 22.9654H9.10377Z" fill="#160F26"/>
<path d="M9.10371 48.0006C9.60675 40.4262 15.6912 34.3571 23.2733 33.881V25.0355C10.801 25.527 0.774748 35.5341 0.256348 48.0006H9.10371Z" fill="#160F26"/>
<path d="M39.409 0.000488281C38.9059 7.57489 32.8215 13.644 25.2394 14.1202V22.9656C37.7117 22.4741 47.7379 12.467 48.2563 0.000488281L39.409 0.000488281Z" fill="#160F26"/>
<path d="M39.409 25.0355C38.9059 32.6099 32.8215 38.679 25.2394 39.1552V48.0006C37.7117 47.5091 47.7379 37.5021 48.2563 25.0355H39.409Z" fill="#160F26"/>
</g>
<defs>
<clipPath id="clip0_2516_1829">
<rect width="49" height="48.0003" fill="white" transform="translate(0 0.000244141)"/>
</clipPath>
</defs>
</svg>
