<svg width="150" height="150" viewBox="0 0 150 150" fill="none" xmlns="http://www.w3.org/2000/svg">
<mask id="mask0_417_2375" style="mask-type:luminance" maskUnits="userSpaceOnUse" x="37" y="37" width="76" height="76">
<path d="M112.5 37.5H37.5V112.5H112.5V37.5Z" fill="white"/>
</mask>
<g mask="url(#mask0_417_2375)">
<path d="M51.42 73.38C52.2 61.56 61.5 52.05 73.11 51.33V37.5C54.03 38.28 38.67 53.91 37.89 73.38H51.42Z" fill="#201637"/>
<path d="M51.42 112.499C52.2 100.679 61.5 91.1691 73.11 90.4491V76.6191C54.03 77.3991 38.7 93.0291 37.89 112.499H51.42Z" fill="#201637"/>
<path d="M97.83 37.5C97.05 49.32 87.75 58.83 76.14 59.55V73.38C95.22 72.6 110.58 56.97 111.36 37.5H97.83Z" fill="#201637"/>
<path d="M97.83 76.6191C97.05 88.4391 87.75 97.9491 76.14 98.6691V112.499C95.22 111.719 110.58 96.0891 111.36 76.6191H97.83Z" fill="#201637"/>
</g>
</svg>
