<svg width="150" height="150" viewBox="0 0 150 150" fill="none" xmlns="http://www.w3.org/2000/svg">
<path d="M51.33 73.38C52.11 61.56 61.62 52.05 73.47 51.33V37.5C53.97 38.28 38.31 53.91 37.5 73.38H51.33Z" fill="#201637"/>
<path d="M51.33 112.499C52.11 100.679 61.62 91.1691 73.47 90.4491V76.6191C53.97 77.3991 38.31 93.0291 37.5 112.499H51.33Z" fill="#201637"/>
<path d="M98.67 37.5C97.89 49.32 88.38 58.83 76.53 59.55V73.38C96.03 72.6 111.69 56.97 112.5 37.5H98.67Z" fill="#201637"/>
<path d="M98.67 76.6191C97.89 88.4391 88.38 97.9491 76.53 98.6691V112.499C96.03 111.719 111.69 96.0891 112.5 76.6191H98.67Z" fill="#201637"/>
</svg>
