<svg width="49" height="48" viewBox="0 0 49 48" fill="none" xmlns="http://www.w3.org/2000/svg">
<g clip-path="url(#clip0_2516_1835)">
<path d="M9.10377 22.9659C9.60681 15.3915 15.6913 9.32233 23.2734 8.84617V0.000732422C10.801 0.492252 0.774809 10.4993 0.256409 22.9659H9.10377Z" fill="white"/>
<path d="M9.10371 48.0011C9.60675 40.4267 15.6912 34.3576 23.2733 33.8815V25.036C10.801 25.5275 0.774748 35.5346 0.256348 48.0011H9.10371Z" fill="white"/>
<path d="M39.409 0.000976562C38.9059 7.57538 32.8215 13.6445 25.2394 14.1207V22.9661C37.7117 22.4746 47.7379 12.4675 48.2563 0.000976563L39.409 0.000976562Z" fill="white"/>
<path d="M39.409 25.036C38.9059 32.6104 32.8215 38.6795 25.2394 39.1557V48.0011C37.7117 47.5096 47.7379 37.5026 48.2563 25.036H39.409Z" fill="white"/>
</g>
<defs>
<clipPath id="clip0_2516_1835">
<rect width="49" height="48.0003" fill="white" transform="translate(0 0.000732422)"/>
</clipPath>
</defs>
</svg>
