<svg width="500" height="500" viewBox="0 0 500 500" fill="none" xmlns="http://www.w3.org/2000/svg">
<mask id="mask0_417_1814" style="mask-type:luminance" maskUnits="userSpaceOnUse" x="125" y="125" width="250" height="250">
<path d="M375 125H125V375H375V125Z" fill="white"/>
</mask>
<g mask="url(#mask0_417_1814)">
<path d="M171.4 244.6C174 205.2 205 173.5 243.7 171.1V125C180.1 127.6 128.9 179.7 126.3 244.6H171.4Z" fill="#201637"/>
<path d="M171.4 375C174 335.6 205 303.9 243.7 301.5V255.4C180.1 258 129 310.1 126.3 375H171.4Z" fill="#201637"/>
<path d="M326.1 125C323.5 164.4 292.5 196.1 253.8 198.5V244.6C317.4 242 368.6 189.9 371.2 125H326.1Z" fill="#201637"/>
<path d="M326.1 255.4C323.5 294.8 292.5 326.5 253.8 328.9V375C317.4 372.4 368.6 320.3 371.2 255.4H326.1Z" fill="#201637"/>
</g>
</svg>
