<svg width="300" height="118" viewBox="0 0 300 118" fill="none" xmlns="http://www.w3.org/2000/svg">
<mask id="mask0_417_2270" style="mask-type:luminance" maskUnits="userSpaceOnUse" x="29" y="29" width="242" height="60">
<path d="M270.496 29.5H29.5043V88.5H270.496V29.5Z" fill="white"/>
</mask>
<g mask="url(#mask0_417_2270)">
<mask id="mask1_417_2270" style="mask-type:luminance" maskUnits="userSpaceOnUse" x="29" y="29" width="61" height="60">
<path d="M89.7404 29.5H29.5043V88.5H89.7404V29.5Z" fill="white"/>
</mask>
<g mask="url(#mask1_417_2270)">
<path d="M40.6924 57.7256C41.3061 48.4272 48.7884 40.946 58.1117 40.3796V29.5C42.7695 30.1136 30.4485 42.4092 29.8112 57.7256H40.6924Z" fill="white"/>
<path d="M40.6924 88.499C41.3061 79.2006 48.7884 71.7194 58.1117 71.153V60.2734C42.7695 60.887 30.4485 73.1826 29.8112 88.499H40.6924Z" fill="white"/>
<path d="M77.9622 29.5C77.3485 38.7984 69.8662 46.2796 60.5429 46.846V57.7256C75.8851 57.112 88.2061 44.8164 88.8434 29.5H77.9622Z" fill="white"/>
<path d="M77.9622 60.2734C77.3485 69.5718 69.8662 77.053 60.5429 77.6194V88.499C75.8851 87.8854 88.2061 75.5898 88.8434 60.2734H77.9622Z" fill="white"/>
</g>
<path d="M111.998 71.4842L106.971 40.3086H114.359L118.82 72.735H119.976L125.028 46.185C125.688 42.7866 128.662 40.3086 132.132 40.3086C135.602 40.3086 138.6 42.7866 139.237 46.2086L144.217 72.735H145.374L149.835 40.3086H157.199L152.172 71.4842C151.605 75.0714 148.513 77.691 144.878 77.691C141.314 77.691 138.269 75.1658 137.608 71.673L132.651 45.3354H131.495L126.538 71.673C125.877 75.1658 122.832 77.691 119.268 77.691C115.657 77.691 112.565 75.0478 111.998 71.4842Z" fill="white"/>
<path d="M207.404 72.0742L197.278 40.3086H205.09L214.485 72.2394H215.641L225.035 40.3086H232.848L222.722 72.0742C221.66 75.4018 218.544 77.6674 215.051 77.6674C211.558 77.691 208.466 75.4254 207.404 72.0742Z" fill="white"/>
<path d="M270.378 58.2446C270.378 54.6574 269.67 51.5186 268.23 48.8518C266.79 46.185 264.784 44.0846 262.234 42.5742C259.662 41.0638 256.688 40.3086 253.289 40.3086C249.89 40.3086 246.727 41.0638 244.107 42.5978C242.785 43.353 241.605 44.2734 240.59 45.3354C240.472 45.477 240.33 45.595 240.212 45.7366C239.835 46.1614 239.481 46.5862 239.15 47.0346C238.702 47.6482 238.301 48.2854 237.923 48.9698C236.412 51.6838 235.657 54.8934 235.657 58.575V59.4246C235.657 63.1062 236.412 66.3158 237.923 69.0298C239.434 71.7438 241.534 73.8678 244.201 75.3782C246.869 76.8886 250.008 77.6438 253.596 77.6438C256.758 77.6438 259.378 77.1482 261.479 76.1334C263.58 75.1186 265.256 73.8914 266.507 72.4046C266.861 71.9798 267.168 71.5786 267.474 71.1774C268.277 70.139 268.914 69.1242 269.434 68.1566L263.273 64.9942C262.518 66.6226 261.408 68.0622 260.016 69.2894C258.6 70.5402 256.499 71.1538 253.737 71.1538C250.763 71.1538 248.285 70.2334 246.302 68.3926C246.184 68.2746 246.066 68.1566 245.948 68.0386C245.83 67.9206 245.712 67.8026 245.618 67.6846C245.358 67.3778 245.098 67.071 244.886 66.717C243.918 65.2774 243.375 63.5546 243.234 61.5486C243.21 61.3598 243.21 61.171 243.21 60.9822H270.401L270.378 58.2446ZM248.12 55.389L244.343 59.165H243.092C243.068 58.0794 243.092 56.687 243.234 55.389C243.304 54.8934 243.399 54.4214 243.517 53.973C243.635 53.5246 243.777 53.0762 243.942 52.675C244.508 51.2826 245.334 50.1262 246.42 49.1586C248.167 47.6246 250.433 46.8694 253.194 46.8694C255.956 46.8694 258.222 47.6246 259.945 49.1586C261.668 50.6926 262.659 52.7694 262.895 55.389H248.12Z" fill="white"/>
<path d="M192.982 53.6909C192.982 49.3721 191.66 46.0209 189.017 43.6845C186.373 41.3245 182.738 40.1445 178.135 40.1445C175.114 40.1445 172.541 40.6165 170.464 41.5841C168.363 42.5517 166.688 43.8261 165.413 45.4073C164.138 46.9885 163.218 48.7113 162.628 50.5993L169.544 52.8413C169.969 50.9297 170.865 49.3485 172.211 48.1685C173.556 46.9649 175.492 46.3749 178.041 46.3749C180.59 46.3749 182.549 47.0121 183.8 48.2865C185.051 49.5609 185.665 51.2129 185.665 53.2189V59.3549H184.461L180.614 55.5081H174.854C170.96 55.5081 167.726 56.4285 165.153 58.2929C162.581 60.1337 161.306 62.8713 161.306 66.4821C161.306 68.8893 161.896 70.9189 163.076 72.5945C164.256 74.2701 165.838 75.5445 167.844 76.4177C169.851 77.2909 172.116 77.7157 174.666 77.7157C177.215 77.7157 179.079 77.3617 180.566 76.6773C182.053 75.9929 183.186 75.1669 183.965 74.2229C184.744 73.2789 185.311 72.4293 185.688 71.6741H186.845V77.7157H192.982V53.6909ZM185.688 61.9745C185.688 64.9481 184.768 67.2845 182.903 69.0073C181.062 70.7065 178.655 71.5561 175.728 71.5561C173.556 71.5561 171.857 71.0841 170.606 70.1165C169.355 69.1489 168.741 67.8509 168.741 66.2225C168.741 64.5941 169.355 63.3433 170.535 62.5173C171.739 61.6677 173.32 61.2665 175.303 61.2665H185.688V61.9745Z" fill="white"/>
</g>
</svg>
